  0
SECTION
  2
BLOCKS
  0
ENDSEC
  0
SECTION
  2
ENTITIES
  0
LINE
  8
0
 10
250
 20
75
 11
249.998
 21
75.5477
  0
LINE
  8
0
 10
249.998
 20
75.5477
 11
249.996
 21
75.7746
  0
LINE
  8
0
 10
249.996
 20
75.7746
 11
249.994
 21
75.9487
  0
LINE
  8
0
 10
249.994
 20
75.9487
 11
249.992
 21
76.0954
  0
LINE
  8
0
 10
249.992
 20
76.0954
 11
249.99
 21
76.2247
  0
LINE
  8
0
 10
249.99
 20
76.2247
 11
249.988
 21
76.3416
  0
LINE
  8
0
 10
249.988
 20
76.3416
 11
249.986
 21
76.4491
  0
LINE
  8
0
 10
249.986
 20
76.4491
 11
249.984
 21
76.5491
  0
LINE
  8
0
 10
249.984
 20
76.5491
 11
249.982
 21
76.6431
  0
LINE
  8
0
 10
249.982
 20
76.6431
 11
249.98
 21
76.7319
  0
LINE
  8
0
 10
249.98
 20
76.7319
 11
249.978
 21
76.8165
  0
LINE
  8
0
 10
249.978
 20
76.8165
 11
249.976
 21
76.8972
  0
LINE
  8
0
 10
249.976
 20
76.8972
 11
249.974
 21
76.9747
  0
LINE
  8
0
 10
249.974
 20
76.9747
 11
249.972
 21
77.0492
  0
LINE
  8
0
 10
249.972
 20
77.0492
 11
249.97
 21
77.1211
  0
LINE
  8
0
 10
249.97
 20
77.1211
 11
249.968
 21
77.1906
  0
LINE
  8
0
 10
249.968
 20
77.1906
 11
249.966
 21
77.2581
  0
LINE
  8
0
 10
249.966
 20
77.2581
 11
249.964
 21
77.3235
  0
LINE
  8
0
 10
249.964
 20
77.3235
 11
249.962
 21
77.3872
  0
LINE
  8
0
 10
249.962
 20
77.3872
 11
249.96
 21
77.4492
  0
LINE
  8
0
 10
249.96
 20
77.4492
 11
249.958
 21
77.5096
  0
LINE
  8
0
 10
249.958
 20
77.5096
 11
249.956
 21
77.5687
  0
LINE
  8
0
 10
249.956
 20
77.5687
 11
249.954
 21
77.6264
  0
LINE
  8
0
 10
249.954
 20
77.6264
 11
249.95
 21
77.7381
  0
LINE
  8
0
 10
249.95
 20
77.7381
 11
249.946
 21
77.8455
  0
LINE
  8
0
 10
249.946
 20
77.8455
 11
249.942
 21
77.949
  0
LINE
  8
0
 10
249.942
 20
77.949
 11
249.938
 21
78.049
  0
LINE
  8
0
 10
249.938
 20
78.049
 11
249.934
 21
78.1457
  0
LINE
  8
0
 10
249.934
 20
78.1457
 11
249.93
 21
78.2396
  0
LINE
  8
0
 10
249.93
 20
78.2396
 11
249.926
 21
78.3308
  0
LINE
  8
0
 10
249.926
 20
78.3308
 11
249.922
 21
78.4196
  0
LINE
  8
0
 10
249.922
 20
78.4196
 11
249.918
 21
78.5062
  0
LINE
  8
0
 10
249.918
 20
78.5062
 11
249.912
 21
78.6321
  0
LINE
  8
0
 10
249.912
 20
78.6321
 11
249.906
 21
78.7538
  0
LINE
  8
0
 10
249.906
 20
78.7538
 11
249.9
 21
78.8717
  0
LINE
  8
0
 10
249.9
 20
78.8717
 11
249.894
 21
78.9861
  0
LINE
  8
0
 10
249.894
 20
78.9861
 11
249.89
 21
79.0605
  0
LINE
  8
0
 10
249.89
 20
79.0605
 11
249.884
 21
79.1697
  0
LINE
  8
0
 10
249.884
 20
79.1697
 11
249.878
 21
79.2761
  0
LINE
  8
0
 10
249.878
 20
79.2761
 11
249.872
 21
79.3799
  0
LINE
  8
0
 10
249.872
 20
79.3799
 11
249.866
 21
79.4813
  0
LINE
  8
0
 10
249.866
 20
79.4813
 11
249.862
 21
79.5476
  0
LINE
  8
0
 10
249.862
 20
79.5476
 11
249.854
 21
79.6775
  0
LINE
  8
0
 10
249.854
 20
79.6775
 11
249.846
 21
79.8038
  0
LINE
  8
0
 10
249.846
 20
79.8038
 11
249.838
 21
79.9268
  0
LINE
  8
0
 10
249.838
 20
79.9268
 11
249.834
 21
79.9872
  0
LINE
  8
0
 10
249.834
 20
79.9872
 11
249.824
 21
80.1351
  0
LINE
  8
0
 10
249.824
 20
80.1351
 11
249.816
 21
80.2503
  0
LINE
  8
0
 10
249.816
 20
80.2503
 11
249.806
 21
80.3909
  0
LINE
  8
0
 10
249.806
 20
80.3909
 11
249.796
 21
80.528
  0
LINE
  8
0
 10
249.796
 20
80.528
 11
249.786
 21
80.6616
  0
LINE
  8
0
 10
249.786
 20
80.6616
 11
249.778
 21
80.7663
  0
LINE
  8
0
 10
249.778
 20
80.7663
 11
249.766
 21
80.9199
  0
LINE
  8
0
 10
249.766
 20
80.9199
 11
249.754
 21
81.0695
  0
LINE
  8
0
 10
249.754
 20
81.0695
 11
249.74
 21
81.2396
  0
LINE
  8
0
 10
249.74
 20
81.2396
 11
249.728
 21
81.3817
  0
LINE
  8
0
 10
249.728
 20
81.3817
 11
249.714
 21
81.5435
  0
LINE
  8
0
 10
249.714
 20
81.5435
 11
249.7
 21
81.7015
  0
LINE
  8
0
 10
249.7
 20
81.7015
 11
249.684
 21
81.8775
  0
LINE
  8
0
 10
249.684
 20
81.8775
 11
249.67
 21
82.0279
  0
LINE
  8
0
 10
249.67
 20
82.0279
 11
249.652
 21
82.2166
  0
LINE
  8
0
 10
249.652
 20
82.2166
 11
249.64
 21
82.3396
  0
LINE
  8
0
 10
249.64
 20
82.3396
 11
249.622
 21
82.5204
  0
LINE
  8
0
 10
249.622
 20
82.5204
 11
249.612
 21
82.619
  0
LINE
  8
0
 10
249.612
 20
82.619
 11
249.592
 21
82.8124
  0
LINE
  8
0
 10
249.592
 20
82.8124
 11
249.57
 21
83.0197
  0
LINE
  8
0
 10
249.57
 20
83.0197
 11
249.556
 21
83.1488
  0
LINE
  8
0
 10
249.556
 20
83.1488
 11
249.532
 21
83.3655
  0
LINE
  8
0
 10
249.532
 20
83.3655
 11
249.508
 21
83.5766
  0
LINE
  8
0
 10
249.508
 20
83.5766
 11
249.484
 21
83.7826
  0
LINE
  8
0
 10
249.484
 20
83.7826
 11
249.474
 21
83.867
  0
LINE
  8
0
 10
249.474
 20
83.867
 11
249.448
 21
84.0827
  0
LINE
  8
0
 10
249.448
 20
84.0827
 11
249.42
 21
84.3093
  0
LINE
  8
0
 10
249.42
 20
84.3093
 11
249.392
 21
84.5305
  0
LINE
  8
0
 10
249.392
 20
84.5305
 11
249.362
 21
84.7618
  0
LINE
  8
0
 10
249.362
 20
84.7618
 11
249.334
 21
84.9728
  0
LINE
  8
0
 10
249.334
 20
84.9728
 11
249.306
 21
85.1793
  0
LINE
  8
0
 10
249.306
 20
85.1793
 11
249.278
 21
85.3817
  0
LINE
  8
0
 10
249.278
 20
85.3817
 11
249.254
 21
85.5519
  0
LINE
  8
0
 10
249.254
 20
85.5519
 11
249.224
 21
85.7609
  0
LINE
  8
0
 10
249.224
 20
85.7609
 11
249.202
 21
85.9116
  0
LINE
  8
0
 10
249.202
 20
85.9116
 11
249.18
 21
86.0602
  0
LINE
  8
0
 10
249.18
 20
86.0602
 11
249.16
 21
86.1935
  0
LINE
  8
0
 10
249.16
 20
86.1935
 11
249.14
 21
86.3252
  0
LINE
  8
0
 10
249.14
 20
86.3252
 11
249.112
 21
86.507
  0
LINE
  8
0
 10
249.112
 20
86.507
 11
249.088
 21
86.6605
  0
LINE
  8
0
 10
249.088
 20
86.6605
 11
249.062
 21
86.8246
  0
LINE
  8
0
 10
249.062
 20
86.8246
 11
249.034
 21
86.9986
  0
LINE
  8
0
 10
249.034
 20
86.9986
 11
249.01
 21
87.1458
  0
LINE
  8
0
 10
249.01
 20
87.1458
 11
248.986
 21
87.2911
  0
LINE
  8
0
 10
248.986
 20
87.2911
 11
248.952
 21
87.4941
  0
LINE
  8
0
 10
248.952
 20
87.4941
 11
248.934
 21
87.6001
  0
LINE
  8
0
 10
248.934
 20
87.6001
 11
248.906
 21
87.7634
  0
LINE
  8
0
 10
248.906
 20
87.7634
 11
248.874
 21
87.9473
  0
LINE
  8
0
 10
248.874
 20
87.9473
 11
248.846
 21
88.106
  0
LINE
  8
0
 10
248.846
 20
88.106
 11
248.818
 21
88.2628
  0
LINE
  8
0
 10
248.818
 20
88.2628
 11
248.79
 21
88.4177
  0
LINE
  8
0
 10
248.79
 20
88.4177
 11
248.764
 21
88.56
  0
LINE
  8
0
 10
248.764
 20
88.56
 11
248.732
 21
88.7329
  0
LINE
  8
0
 10
248.732
 20
88.7329
 11
248.7
 21
88.9036
  0
LINE
  8
0
 10
248.7
 20
88.9036
 11
248.674
 21
89.0407
  0
LINE
  8
0
 10
248.674
 20
89.0407
 11
248.64
 21
89.218
  0
LINE
  8
0
 10
248.64
 20
89.218
 11
248.612
 21
89.3622
  0
LINE
  8
0
 10
248.612
 20
89.3622
 11
248.584
 21
89.505
  0
LINE
  8
0
 10
248.584
 20
89.505
 11
248.556
 21
89.6463
  0
LINE
  8
0
 10
248.556
 20
89.6463
 11
248.514
 21
89.8557
  0
LINE
  8
0
 10
248.514
 20
89.8557
 11
248.478
 21
90.0327
  0
LINE
  8
0
 10
248.478
 20
90.0327
 11
248.446
 21
90.1883
  0
LINE
  8
0
 10
248.446
 20
90.1883
 11
248.416
 21
90.3327
  0
LINE
  8
0
 10
248.416
 20
90.3327
 11
248.39
 21
90.4566
  0
LINE
  8
0
 10
248.39
 20
90.4566
 11
248.344
 21
90.6735
  0
LINE
  8
0
 10
248.344
 20
90.6735
 11
248.314
 21
90.8132
  0
LINE
  8
0
 10
248.314
 20
90.8132
 11
248.286
 21
90.9425
  0
LINE
  8
0
 10
248.286
 20
90.9425
 11
248.25
 21
91.1071
  0
LINE
  8
0
 10
248.25
 20
91.1071
 11
248.202
 21
91.3238
  0
LINE
  8
0
 10
248.202
 20
91.3238
 11
248.178
 21
91.4311
  0
LINE
  8
0
 10
248.178
 20
91.4311
 11
248.14
 21
91.5994
  0
LINE
  8
0
 10
248.14
 20
91.5994
 11
248.102
 21
91.766
  0
LINE
  8
0
 10
248.102
 20
91.766
 11
248.07
 21
91.9049
  0
LINE
  8
0
 10
248.07
 20
91.9049
 11
248.036
 21
92.0512
  0
LINE
  8
0
 10
248.036
 20
92.0512
 11
248
 21
92.2046
  0
LINE
  8
0
 10
248
 20
92.2046
 11
247.96
 21
92.3735
  0
LINE
  8
0
 10
247.96
 20
92.3735
 11
247.932
 21
92.4907
  0
LINE
  8
0
 10
247.932
 20
92.4907
 11
247.902
 21
92.6153
  0
LINE
  8
0
 10
247.902
 20
92.6153
 11
247.862
 21
92.78
  0
LINE
  8
0
 10
247.862
 20
92.78
 11
247.826
 21
92.9269
  0
LINE
  8
0
 10
247.826
 20
92.9269
 11
247.778
 21
93.1208
  0
LINE
  8
0
 10
247.778
 20
93.1208
 11
247.736
 21
93.2886
  0
LINE
  8
0
 10
247.736
 20
93.2886
 11
247.704
 21
93.4154
  0
LINE
  8
0
 10
247.704
 20
93.4154
 11
247.652
 21
93.6195
  0
LINE
  8
0
 10
247.652
 20
93.6195
 11
247.618
 21
93.7517
  0
LINE
  8
0
 10
247.618
 20
93.7517
 11
247.584
 21
93.8829
  0
LINE
  8
0
 10
247.584
 20
93.8829
 11
247.544
 21
94.036
  0
LINE
  8
0
 10
247.544
 20
94.036
 11
247.506
 21
94.1802
  0
LINE
  8
0
 10
247.506
 20
94.1802
 11
247.468
 21
94.3233
  0
LINE
  8
0
 10
247.468
 20
94.3233
 11
247.426
 21
94.4801
  0
LINE
  8
0
 10
247.426
 20
94.4801
 11
247.376
 21
94.6651
  0
LINE
  8
0
 10
247.376
 20
94.6651
 11
247.334
 21
94.819
  0
LINE
  8
0
 10
247.334
 20
94.819
 11
247.278
 21
95.0222
  0
LINE
  8
0
 10
247.278
 20
95.0222
 11
247.238
 21
95.1661
  0
LINE
  8
0
 10
247.238
 20
95.1661
 11
247.204
 21
95.2875
  0
LINE
  8
0
 10
247.204
 20
95.2875
 11
247.158
 21
95.4505
  0
LINE
  8
0
 10
247.158
 20
95.4505
 11
247.11
 21
95.6191
  0
LINE
  8
0
 10
247.11
 20
95.6191
 11
247.074
 21
95.7446
  0
LINE
  8
0
 10
247.074
 20
95.7446
 11
247
 21
96
  0
LINE
  8
0
 10
247
 20
96
 11
246.934
 21
96.225
  0
LINE
  8
0
 10
246.934
 20
96.225
 11
246.898
 21
96.3466
  0
LINE
  8
0
 10
246.898
 20
96.3466
 11
246.862
 21
96.4675
  0
LINE
  8
0
 10
246.862
 20
96.4675
 11
246.83
 21
96.5743
  0
LINE
  8
0
 10
246.83
 20
96.5743
 11
246.804
 21
96.6607
  0
LINE
  8
0
 10
246.804
 20
96.6607
 11
246.76
 21
96.806
  0
LINE
  8
0
 10
246.76
 20
96.806
 11
246.718
 21
96.9438
  0
LINE
  8
0
 10
246.718
 20
96.9438
 11
246.658
 21
97.1389
  0
LINE
  8
0
 10
246.658
 20
97.1389
 11
246.584
 21
97.377
  0
LINE
  8
0
 10
246.584
 20
97.377
 11
246.54
 21
97.5173
  0
LINE
  8
0
 10
246.54
 20
97.5173
 11
246.5
 21
97.644
  0
LINE
  8
0
 10
246.5
 20
97.644
 11
246.46
 21
97.7699
  0
LINE
  8
0
 10
246.46
 20
97.7699
 11
246.418
 21
97.9013
  0
LINE
  8
0
 10
246.418
 20
97.9013
 11
246.362
 21
98.0752
  0
LINE
  8
0
 10
246.362
 20
98.0752
 11
246.278
 21
98.3334
  0
LINE
  8
0
 10
246.278
 20
98.3334
 11
246.222
 21
98.5038
  0
LINE
  8
0
 10
246.222
 20
98.5038
 11
246.14
 21
98.7508
  0
LINE
  8
0
 10
246.14
 20
98.7508
 11
246.084
 21
98.9179
  0
LINE
  8
0
 10
246.084
 20
98.9179
 11
246.028
 21
99.0837
  0
LINE
  8
0
 10
246.028
 20
99.0837
 11
245.986
 21
99.2072
  0
LINE
  8
0
 10
245.986
 20
99.2072
 11
245.928
 21
99.3766
  0
LINE
  8
0
 10
245.928
 20
99.3766
 11
245.844
 21
99.6197
  0
LINE
  8
0
 10
245.844
 20
99.6197
 11
245.778
 21
99.8088
  0
LINE
  8
0
 10
245.778
 20
99.8088
 11
245.696
 21
100.041
  0
LINE
  8
0
 10
245.696
 20
100.041
 11
245.638
 21
100.205
  0
LINE
  8
0
 10
245.638
 20
100.205
 11
245.596
 21
100.322
  0
LINE
  8
0
 10
245.596
 20
100.322
 11
245.548
 21
100.455
  0
LINE
  8
0
 10
245.548
 20
100.455
 11
245.482
 21
100.638
  0
LINE
  8
0
 10
245.482
 20
100.638
 11
245.434
 21
100.769
  0
LINE
  8
0
 10
245.434
 20
100.769
 11
245.388
 21
100.895
  0
LINE
  8
0
 10
245.388
 20
100.895
 11
245.316
 21
101.089
  0
LINE
  8
0
 10
245.316
 20
101.089
 11
245.244
 21
101.283
  0
LINE
  8
0
 10
245.244
 20
101.283
 11
245.168
 21
101.485
  0
LINE
  8
0
 10
245.168
 20
101.485
 11
245.094
 21
101.68
  0
LINE
  8
0
 10
245.094
 20
101.68
 11
245.01
 21
101.9
  0
LINE
  8
0
 10
245.01
 20
101.9
 11
244.932
 21
102.102
  0
LINE
  8
0
 10
244.932
 20
102.102
 11
244.862
 21
102.282
  0
LINE
  8
0
 10
244.862
 20
102.282
 11
244.826
 21
102.374
  0
LINE
  8
0
 10
244.826
 20
102.374
 11
244.766
 21
102.526
  0
LINE
  8
0
 10
244.766
 20
102.526
 11
244.712
 21
102.663
  0
LINE
  8
0
 10
244.712
 20
102.663
 11
244.652
 21
102.814
  0
LINE
  8
0
 10
244.652
 20
102.814
 11
244.594
 21
102.958
  0
LINE
  8
0
 10
244.594
 20
102.958
 11
244.506
 21
103.177
  0
LINE
  8
0
 10
244.506
 20
103.177
 11
244.442
 21
103.334
  0
LINE
  8
0
 10
244.442
 20
103.334
 11
244.382
 21
103.48
  0
LINE
  8
0
 10
244.382
 20
103.48
 11
244.306
 21
103.665
  0
LINE
  8
0
 10
244.306
 20
103.665
 11
244.222
 21
103.867
  0
LINE
  8
0
 10
244.222
 20
103.867
 11
244.156
 21
104.025
  0
LINE
  8
0
 10
244.156
 20
104.025
 11
244.056
 21
104.262
  0
LINE
  8
0
 10
244.056
 20
104.262
 11
244.022
 21
104.342
  0
LINE
  8
0
 10
244.022
 20
104.342
 11
243.974
 21
104.455
  0
LINE
  8
0
 10
243.974
 20
104.455
 11
243.914
 21
104.595
  0
LINE
  8
0
 10
243.914
 20
104.595
 11
243.842
 21
104.762
  0
LINE
  8
0
 10
243.842
 20
104.762
 11
243.774
 21
104.919
  0
LINE
  8
0
 10
243.774
 20
104.919
 11
243.66
 21
105.18
  0
LINE
  8
0
 10
243.66
 20
105.18
 11
243.582
 21
105.356
  0
LINE
  8
0
 10
243.582
 20
105.356
 11
243.474
 21
105.599
  0
LINE
  8
0
 10
243.474
 20
105.599
 11
243.418
 21
105.724
  0
LINE
  8
0
 10
243.418
 20
105.724
 11
243.354
 21
105.866
  0
LINE
  8
0
 10
243.354
 20
105.866
 11
243.27
 21
106.052
  0
LINE
  8
0
 10
243.27
 20
106.052
 11
243.188
 21
106.231
  0
LINE
  8
0
 10
243.188
 20
106.231
 11
243.102
 21
106.418
  0
LINE
  8
0
 10
243.102
 20
106.418
 11
243.026
 21
106.583
  0
LINE
  8
0
 10
243.026
 20
106.583
 11
242.936
 21
106.776
  0
LINE
  8
0
 10
242.936
 20
106.776
 11
242.848
 21
106.963
  0
LINE
  8
0
 10
242.848
 20
106.963
 11
242.804
 21
107.056
  0
LINE
  8
0
 10
242.804
 20
107.056
 11
242.71
 21
107.255
  0
LINE
  8
0
 10
242.71
 20
107.255
 11
242.624
 21
107.434
  0
LINE
  8
0
 10
242.624
 20
107.434
 11
242.526
 21
107.638
  0
LINE
  8
0
 10
242.526
 20
107.638
 11
242.432
 21
107.832
  0
LINE
  8
0
 10
242.432
 20
107.832
 11
242.384
 21
107.93
  0
LINE
  8
0
 10
242.384
 20
107.93
 11
242.332
 21
108.036
  0
LINE
  8
0
 10
242.332
 20
108.036
 11
242.238
 21
108.227
  0
LINE
  8
0
 10
242.238
 20
108.227
 11
242.138
 21
108.429
  0
LINE
  8
0
 10
242.138
 20
108.429
 11
242.082
 21
108.541
  0
LINE
  8
0
 10
242.082
 20
108.541
 11
241.982
 21
108.74
  0
LINE
  8
0
 10
241.982
 20
108.74
 11
241.878
 21
108.946
  0
LINE
  8
0
 10
241.878
 20
108.946
 11
241.82
 21
109.06
  0
LINE
  8
0
 10
241.82
 20
109.06
 11
241.768
 21
109.162
  0
LINE
  8
0
 10
241.768
 20
109.162
 11
241.716
 21
109.263
  0
LINE
  8
0
 10
241.716
 20
109.263
 11
241.658
 21
109.376
  0
LINE
  8
0
 10
241.658
 20
109.376
 11
241.606
 21
109.477
  0
LINE
  8
0
 10
241.606
 20
109.477
 11
241.55
 21
109.585
  0
LINE
  8
0
 10
241.55
 20
109.585
 11
241.496
 21
109.688
  0
LINE
  8
0
 10
241.496
 20
109.688
 11
241.434
 21
109.807
  0
LINE
  8
0
 10
241.434
 20
109.807
 11
241.38
 21
109.91
  0
LINE
  8
0
 10
241.38
 20
109.91
 11
241.322
 21
110.02
  0
LINE
  8
0
 10
241.322
 20
110.02
 11
241.224
 21
110.205
  0
LINE
  8
0
 10
241.224
 20
110.205
 11
241.138
 21
110.366
  0
LINE
  8
0
 10
241.138
 20
110.366
 11
241.024
 21
110.579
  0
LINE
  8
0
 10
241.024
 20
110.579
 11
240.908
 21
110.793
  0
LINE
  8
0
 10
240.908
 20
110.793
 11
240.832
 21
110.933
  0
LINE
  8
0
 10
240.832
 20
110.933
 11
240.772
 21
111.042
  0
LINE
  8
0
 10
240.772
 20
111.042
 11
240.652
 21
111.26
  0
LINE
  8
0
 10
240.652
 20
111.26
 11
240.528
 21
111.484
  0
LINE
  8
0
 10
240.528
 20
111.484
 11
240.444
 21
111.634
  0
LINE
  8
0
 10
240.444
 20
111.634
 11
240.376
 21
111.756
  0
LINE
  8
0
 10
240.376
 20
111.756
 11
240.304
 21
111.883
  0
LINE
  8
0
 10
240.304
 20
111.883
 11
240.178
 21
112.106
  0
LINE
  8
0
 10
240.178
 20
112.106
 11
240.104
 21
112.235
  0
LINE
  8
0
 10
240.104
 20
112.235
 11
239.968
 21
112.472
  0
LINE
  8
0
 10
239.968
 20
112.472
 11
239.862
 21
112.655
  0
LINE
  8
0
 10
239.862
 20
112.655
 11
239.744
 21
112.858
  0
LINE
  8
0
 10
239.744
 20
112.858
 11
239.666
 21
112.991
  0
LINE
  8
0
 10
239.666
 20
112.991
 11
239.526
 21
113.228
  0
LINE
  8
0
 10
239.526
 20
113.228
 11
239.444
 21
113.366
  0
LINE
  8
0
 10
239.444
 20
113.366
 11
239.306
 21
113.597
  0
LINE
  8
0
 10
239.306
 20
113.597
 11
239.21
 21
113.757
  0
LINE
  8
0
 10
239.21
 20
113.757
 11
239.13
 21
113.889
  0
LINE
  8
0
 10
239.13
 20
113.889
 11
239.048
 21
114.024
  0
LINE
  8
0
 10
239.048
 20
114.024
 11
238.968
 21
114.155
  0
LINE
  8
0
 10
238.968
 20
114.155
 11
238.886
 21
114.288
  0
LINE
  8
0
 10
238.886
 20
114.288
 11
238.804
 21
114.421
  0
LINE
  8
0
 10
238.804
 20
114.421
 11
238.718
 21
114.56
  0
LINE
  8
0
 10
238.718
 20
114.56
 11
238.584
 21
114.775
  0
LINE
  8
0
 10
238.584
 20
114.775
 11
238.466
 21
114.963
  0
LINE
  8
0
 10
238.466
 20
114.963
 11
238.334
 21
115.172
  0
LINE
  8
0
 10
238.334
 20
115.172
 11
238.206
 21
115.373
  0
LINE
  8
0
 10
238.206
 20
115.373
 11
238.108
 21
115.526
  0
LINE
  8
0
 10
238.108
 20
115.526
 11
238.024
 21
115.657
  0
LINE
  8
0
 10
238.024
 20
115.657
 11
237.934
 21
115.796
  0
LINE
  8
0
 10
237.934
 20
115.796
 11
237.844
 21
115.934
  0
LINE
  8
0
 10
237.844
 20
115.934
 11
237.738
 21
116.097
  0
LINE
  8
0
 10
237.738
 20
116.097
 11
237.572
 21
116.349
  0
LINE
  8
0
 10
237.572
 20
116.349
 11
237.458
 21
116.521
  0
LINE
  8
0
 10
237.458
 20
116.521
 11
237.35
 21
116.683
  0
LINE
  8
0
 10
237.35
 20
116.683
 11
237.248
 21
116.835
  0
LINE
  8
0
 10
237.248
 20
116.835
 11
237.164
 21
116.96
  0
LINE
  8
0
 10
237.164
 20
116.96
 11
237.054
 21
117.122
  0
LINE
  8
0
 10
237.054
 20
117.122
 11
236.944
 21
117.284
  0
LINE
  8
0
 10
236.944
 20
117.284
 11
236.858
 21
117.41
  0
LINE
  8
0
 10
236.858
 20
117.41
 11
236.744
 21
117.576
  0
LINE
  8
0
 10
236.744
 20
117.576
 11
236.638
 21
117.729
  0
LINE
  8
0
 10
236.638
 20
117.729
 11
236.526
 21
117.89
  0
LINE
  8
0
 10
236.526
 20
117.89
 11
236.43
 21
118.027
  0
LINE
  8
0
 10
236.43
 20
118.027
 11
236.324
 21
118.178
  0
LINE
  8
0
 10
236.324
 20
118.178
 11
236.214
 21
118.334
  0
LINE
  8
0
 10
236.214
 20
118.334
 11
236.106
 21
118.486
  0
LINE
  8
0
 10
236.106
 20
118.486
 11
235.994
 21
118.643
  0
LINE
  8
0
 10
235.994
 20
118.643
 11
235.874
 21
118.81
  0
LINE
  8
0
 10
235.874
 20
118.81
 11
235.768
 21
118.957
  0
LINE
  8
0
 10
235.768
 20
118.957
 11
235.656
 21
119.112
  0
LINE
  8
0
 10
235.656
 20
119.112
 11
235.522
 21
119.295
  0
LINE
  8
0
 10
235.522
 20
119.295
 11
235.414
 21
119.443
  0
LINE
  8
0
 10
235.414
 20
119.443
 11
235.276
 21
119.63
  0
LINE
  8
0
 10
235.276
 20
119.63
 11
235.158
 21
119.789
  0
LINE
  8
0
 10
235.158
 20
119.789
 11
235.048
 21
119.936
  0
LINE
  8
0
 10
235.048
 20
119.936
 11
234.862
 21
120.183
  0
LINE
  8
0
 10
234.862
 20
120.183
 11
234.678
 21
120.426
  0
LINE
  8
0
 10
234.678
 20
120.426
 11
234.542
 21
120.604
  0
LINE
  8
0
 10
234.542
 20
120.604
 11
234.406
 21
120.781
  0
LINE
  8
0
 10
234.406
 20
120.781
 11
234.288
 21
120.934
  0
LINE
  8
0
 10
234.288
 20
120.934
 11
234.152
 21
121.109
  0
LINE
  8
0
 10
234.152
 20
121.109
 11
234.022
 21
121.275
  0
LINE
  8
0
 10
234.022
 20
121.275
 11
233.884
 21
121.451
  0
LINE
  8
0
 10
233.884
 20
121.451
 11
233.742
 21
121.63
  0
LINE
  8
0
 10
233.742
 20
121.63
 11
233.61
 21
121.796
  0
LINE
  8
0
 10
233.61
 20
121.796
 11
233.462
 21
121.981
  0
LINE
  8
0
 10
233.462
 20
121.981
 11
233.328
 21
122.147
  0
LINE
  8
0
 10
233.328
 20
122.147
 11
233.184
 21
122.325
  0
LINE
  8
0
 10
233.184
 20
122.325
 11
233.048
 21
122.491
  0
LINE
  8
0
 10
233.048
 20
122.491
 11
232.898
 21
122.674
  0
LINE
  8
0
 10
232.898
 20
122.674
 11
232.74
 21
122.865
  0
LINE
  8
0
 10
232.74
 20
122.865
 11
232.6
 21
123.034
  0
LINE
  8
0
 10
232.6
 20
123.034
 11
232.434
 21
123.232
  0
LINE
  8
0
 10
232.434
 20
123.232
 11
232.298
 21
123.394
  0
LINE
  8
0
 10
232.298
 20
123.394
 11
232.134
 21
123.587
  0
LINE
  8
0
 10
232.134
 20
123.587
 11
231.99
 21
123.756
  0
LINE
  8
0
 10
231.99
 20
123.756
 11
231.83
 21
123.942
  0
LINE
  8
0
 10
231.83
 20
123.942
 11
231.676
 21
124.121
  0
LINE
  8
0
 10
231.676
 20
124.121
 11
231.492
 21
124.332
  0
LINE
  8
0
 10
231.492
 20
124.332
 11
231.32
 21
124.528
  0
LINE
  8
0
 10
231.32
 20
124.528
 11
231.158
 21
124.712
  0
LINE
  8
0
 10
231.158
 20
124.712
 11
231.012
 21
124.876
  0
LINE
  8
0
 10
231.012
 20
124.876
 11
230.842
 21
125.067
  0
LINE
  8
0
 10
230.842
 20
125.067
 11
230.658
 21
125.271
  0
LINE
  8
0
 10
230.658
 20
125.271
 11
230.492
 21
125.454
  0
LINE
  8
0
 10
230.492
 20
125.454
 11
230.324
 21
125.638
  0
LINE
  8
0
 10
230.324
 20
125.638
 11
230.132
 21
125.847
  0
LINE
  8
0
 10
230.132
 20
125.847
 11
229.968
 21
126.025
  0
LINE
  8
0
 10
229.968
 20
126.025
 11
229.766
 21
126.241
  0
LINE
  8
0
 10
229.766
 20
126.241
 11
229.596
 21
126.423
  0
LINE
  8
0
 10
229.596
 20
126.423
 11
229.412
 21
126.617
  0
LINE
  8
0
 10
229.412
 20
126.617
 11
229.232
 21
126.806
  0
LINE
  8
0
 10
229.232
 20
126.806
 11
229.044
 21
127.002
  0
LINE
  8
0
 10
229.044
 20
127.002
 11
228.85
 21
127.203
  0
LINE
  8
0
 10
228.85
 20
127.203
 11
228.66
 21
127.399
  0
LINE
  8
0
 10
228.66
 20
127.399
 11
228.458
 21
127.605
  0
LINE
  8
0
 10
228.458
 20
127.605
 11
228.27
 21
127.795
  0
LINE
  8
0
 10
228.27
 20
127.795
 11
228.114
 21
127.952
  0
LINE
  8
0
 10
228.114
 20
127.952
 11
227.974
 21
128.092
  0
LINE
  8
0
 10
227.974
 20
128.092
 11
227.826
 21
128.239
  0
LINE
  8
0
 10
227.826
 20
128.239
 11
227.65
 21
128.413
  0
LINE
  8
0
 10
227.65
 20
128.413
 11
227.438
 21
128.621
  0
LINE
  8
0
 10
227.438
 20
128.621
 11
227.24
 21
128.814
  0
LINE
  8
0
 10
227.24
 20
128.814
 11
227.022
 21
129.025
  0
LINE
  8
0
 10
227.022
 20
129.025
 11
226.8
 21
129.238
  0
LINE
  8
0
 10
226.8
 20
129.238
 11
226.592
 21
129.436
  0
LINE
  8
0
 10
226.592
 20
129.436
 11
226.378
 21
129.638
  0
LINE
  8
0
 10
226.378
 20
129.638
 11
226.13
 21
129.87
  0
LINE
  8
0
 10
226.13
 20
129.87
 11
225.914
 21
130.071
  0
LINE
  8
0
 10
225.914
 20
130.071
 11
225.688
 21
130.279
  0
LINE
  8
0
 10
225.688
 20
130.279
 11
225.468
 21
130.48
  0
LINE
  8
0
 10
225.468
 20
130.48
 11
225.216
 21
130.708
  0
LINE
  8
0
 10
225.216
 20
130.708
 11
224.998
 21
130.903
  0
LINE
  8
0
 10
224.998
 20
130.903
 11
224.784
 21
131.094
  0
LINE
  8
0
 10
224.784
 20
131.094
 11
224.54
 21
131.31
  0
LINE
  8
0
 10
224.54
 20
131.31
 11
224.29
 21
131.529
  0
LINE
  8
0
 10
224.29
 20
131.529
 11
224.034
 21
131.751
  0
LINE
  8
0
 10
224.034
 20
131.751
 11
223.77
 21
131.978
  0
LINE
  8
0
 10
223.77
 20
131.978
 11
223.518
 21
132.193
  0
LINE
  8
0
 10
223.518
 20
132.193
 11
223.274
 21
132.399
  0
LINE
  8
0
 10
223.274
 20
132.399
 11
223.012
 21
132.618
  0
LINE
  8
0
 10
223.012
 20
132.618
 11
222.74
 21
132.844
  0
LINE
  8
0
 10
222.74
 20
132.844
 11
222.488
 21
133.051
  0
LINE
  8
0
 10
222.488
 20
133.051
 11
222.214
 21
133.274
  0
LINE
  8
0
 10
222.214
 20
133.274
 11
221.952
 21
133.485
  0
LINE
  8
0
 10
221.952
 20
133.485
 11
221.686
 21
133.698
  0
LINE
  8
0
 10
221.686
 20
133.698
 11
221.404
 21
133.921
  0
LINE
  8
0
 10
221.404
 20
133.921
 11
221.15
 21
134.12
  0
LINE
  8
0
 10
221.15
 20
134.12
 11
221.028
 21
134.215
  0
LINE
  8
0
 10
221.028
 20
134.215
 11
220.804
 21
134.388
  0
LINE
  8
0
 10
220.804
 20
134.388
 11
220.562
 21
134.574
  0
LINE
  8
0
 10
220.562
 20
134.574
 11
220.274
 21
134.794
  0
LINE
  8
0
 10
220.274
 20
134.794
 11
219.966
 21
135.025
  0
LINE
  8
0
 10
219.966
 20
135.025
 11
219.676
 21
135.242
  0
LINE
  8
0
 10
219.676
 20
135.242
 11
219.386
 21
135.456
  0
LINE
  8
0
 10
219.386
 20
135.456
 11
219.108
 21
135.659
  0
LINE
  8
0
 10
219.108
 20
135.659
 11
218.796
 21
135.884
  0
LINE
  8
0
 10
218.796
 20
135.884
 11
218.492
 21
136.102
  0
LINE
  8
0
 10
218.492
 20
136.102
 11
218.186
 21
136.319
  0
LINE
  8
0
 10
218.186
 20
136.319
 11
217.854
 21
136.551
  0
LINE
  8
0
 10
217.854
 20
136.551
 11
217.546
 21
136.764
  0
LINE
  8
0
 10
217.546
 20
136.764
 11
217.234
 21
136.978
  0
LINE
  8
0
 10
217.234
 20
136.978
 11
216.906
 21
137.2
  0
LINE
  8
0
 10
216.906
 20
137.2
 11
216.572
 21
137.424
  0
LINE
  8
0
 10
216.572
 20
137.424
 11
216.238
 21
137.645
  0
LINE
  8
0
 10
216.238
 20
137.645
 11
215.916
 21
137.856
  0
LINE
  8
0
 10
215.916
 20
137.856
 11
215.778
 21
137.946
  0
LINE
  8
0
 10
215.778
 20
137.946
 11
215.526
 21
138.108
  0
LINE
  8
0
 10
215.526
 20
138.108
 11
215.238
 21
138.292
  0
LINE
  8
0
 10
215.238
 20
138.292
 11
214.88
 21
138.518
  0
LINE
  8
0
 10
214.88
 20
138.518
 11
214.75
 21
138.6
  0
LINE
  8
0
 10
214.75
 20
138.6
 11
214.492
 21
138.76
  0
LINE
  8
0
 10
214.492
 20
138.76
 11
214.178
 21
138.954
  0
LINE
  8
0
 10
214.178
 20
138.954
 11
213.818
 21
139.173
  0
LINE
  8
0
 10
213.818
 20
139.173
 11
213.46
 21
139.388
  0
LINE
  8
0
 10
213.46
 20
139.388
 11
213.108
 21
139.597
  0
LINE
  8
0
 10
213.108
 20
139.597
 11
212.714
 21
139.828
  0
LINE
  8
0
 10
212.714
 20
139.828
 11
212.36
 21
140.033
  0
LINE
  8
0
 10
212.36
 20
140.033
 11
212.224
 21
140.11
  0
LINE
  8
0
 10
212.224
 20
140.11
 11
211.94
 21
140.272
  0
LINE
  8
0
 10
211.94
 20
140.272
 11
211.6
 21
140.463
  0
LINE
  8
0
 10
211.6
 20
140.463
 11
211.218
 21
140.675
  0
LINE
  8
0
 10
211.218
 20
140.675
 11
210.832
 21
140.887
  0
LINE
  8
0
 10
210.832
 20
140.887
 11
210.444
 21
141.096
  0
LINE
  8
0
 10
210.444
 20
141.096
 11
210.062
 21
141.3
  0
LINE
  8
0
 10
210.062
 20
141.3
 11
209.658
 21
141.512
  0
LINE
  8
0
 10
209.658
 20
141.512
 11
209.264
 21
141.716
  0
LINE
  8
0
 10
209.264
 20
141.716
 11
208.846
 21
141.929
  0
LINE
  8
0
 10
208.846
 20
141.929
 11
208.436
 21
142.134
  0
LINE
  8
0
 10
208.436
 20
142.134
 11
208.02
 21
142.34
  0
LINE
  8
0
 10
208.02
 20
142.34
 11
207.62
 21
142.535
  0
LINE
  8
0
 10
207.62
 20
142.535
 11
207.184
 21
142.744
  0
LINE
  8
0
 10
207.184
 20
142.744
 11
206.838
 21
142.907
  0
LINE
  8
0
 10
206.838
 20
142.907
 11
206.666
 21
142.987
  0
LINE
  8
0
 10
206.666
 20
142.987
 11
206.3
 21
143.157
  0
LINE
  8
0
 10
206.3
 20
143.157
 11
205.906
 21
143.336
  0
LINE
  8
0
 10
205.906
 20
143.336
 11
205.504
 21
143.516
  0
LINE
  8
0
 10
205.504
 20
143.516
 11
205.384
 21
143.57
  0
LINE
  8
0
 10
205.384
 20
143.57
 11
205.054
 21
143.715
  0
LINE
  8
0
 10
205.054
 20
143.715
 11
204.944
 21
143.763
  0
LINE
  8
0
 10
204.944
 20
143.763
 11
204.596
 21
143.914
  0
LINE
  8
0
 10
204.596
 20
143.914
 11
204.158
 21
144.1
  0
LINE
  8
0
 10
204.158
 20
144.1
 11
204.054
 21
144.144
  0
LINE
  8
0
 10
204.054
 20
144.144
 11
203.718
 21
144.284
  0
LINE
  8
0
 10
203.718
 20
144.284
 11
203.582
 21
144.34
  0
LINE
  8
0
 10
203.582
 20
144.34
 11
203.256
 21
144.474
  0
LINE
  8
0
 10
203.256
 20
144.474
 11
202.874
 21
144.628
  0
LINE
  8
0
 10
202.874
 20
144.628
 11
202.71
 21
144.693
  0
LINE
  8
0
 10
202.71
 20
144.693
 11
202.324
 21
144.846
  0
LINE
  8
0
 10
202.324
 20
144.846
 11
201.88
 21
145.018
  0
LINE
  8
0
 10
201.88
 20
145.018
 11
201.772
 21
145.059
  0
LINE
  8
0
 10
201.772
 20
145.059
 11
201.414
 21
145.195
  0
LINE
  8
0
 10
201.414
 20
145.195
 11
201.276
 21
145.247
  0
LINE
  8
0
 10
201.276
 20
145.247
 11
200.884
 21
145.392
  0
LINE
  8
0
 10
200.884
 20
145.392
 11
200.46
 21
145.546
  0
LINE
  8
0
 10
200.46
 20
145.546
 11
200.358
 21
145.583
  0
LINE
  8
0
 10
200.358
 20
145.583
 11
199.994
 21
145.713
  0
LINE
  8
0
 10
199.994
 20
145.713
 11
199.86
 21
145.76
  0
LINE
  8
0
 10
199.86
 20
145.76
 11
199.514
 21
145.881
  0
LINE
  8
0
 10
199.514
 20
145.881
 11
199.36
 21
145.934
  0
LINE
  8
0
 10
199.36
 20
145.934
 11
198.99
 21
146.06
  0
LINE
  8
0
 10
198.99
 20
146.06
 11
198.56
 21
146.203
  0
LINE
  8
0
 10
198.56
 20
146.203
 11
198.416
 21
146.251
  0
LINE
  8
0
 10
198.416
 20
146.251
 11
198.042
 21
146.373
  0
LINE
  8
0
 10
198.042
 20
146.373
 11
197.912
 21
146.415
  0
LINE
  8
0
 10
197.912
 20
146.415
 11
197.538
 21
146.533
  0
LINE
  8
0
 10
197.538
 20
146.533
 11
197.088
 21
146.674
  0
LINE
  8
0
 10
197.088
 20
146.674
 11
196.916
 21
146.726
  0
LINE
  8
0
 10
196.916
 20
146.726
 11
196.538
 21
146.841
  0
LINE
  8
0
 10
196.538
 20
146.841
 11
196.116
 21
146.966
  0
LINE
  8
0
 10
196.116
 20
146.966
 11
195.916
 21
147.024
  0
LINE
  8
0
 10
195.916
 20
147.024
 11
195.516
 21
147.139
  0
LINE
  8
0
 10
195.516
 20
147.139
 11
195.414
 21
147.168
  0
LINE
  8
0
 10
195.414
 20
147.168
 11
195.026
 21
147.277
  0
LINE
  8
0
 10
195.026
 20
147.277
 11
194.888
 21
147.315
  0
LINE
  8
0
 10
194.888
 20
147.315
 11
194.516
 21
147.416
  0
LINE
  8
0
 10
194.516
 20
147.416
 11
194.36
 21
147.458
  0
LINE
  8
0
 10
194.36
 20
147.458
 11
193.99
 21
147.556
  0
LINE
  8
0
 10
193.99
 20
147.556
 11
193.554
 21
147.669
  0
LINE
  8
0
 10
193.554
 20
147.669
 11
193.36
 21
147.718
  0
LINE
  8
0
 10
193.36
 20
147.718
 11
192.942
 21
147.822
  0
LINE
  8
0
 10
192.942
 20
147.822
 11
192.804
 21
147.856
  0
LINE
  8
0
 10
192.804
 20
147.856
 11
192.404
 21
147.953
  0
LINE
  8
0
 10
192.404
 20
147.953
 11
191.984
 21
148.052
  0
LINE
  8
0
 10
191.984
 20
148.052
 11
191.792
 21
148.096
  0
LINE
  8
0
 10
191.792
 20
148.096
 11
191.352
 21
148.196
  0
LINE
  8
0
 10
191.352
 20
148.196
 11
191.222
 21
148.225
  0
LINE
  8
0
 10
191.222
 20
148.225
 11
190.828
 21
148.311
  0
LINE
  8
0
 10
190.828
 20
148.311
 11
190.694
 21
148.34
  0
LINE
  8
0
 10
190.694
 20
148.34
 11
190.298
 21
148.423
  0
LINE
  8
0
 10
190.298
 20
148.423
 11
190.166
 21
148.451
  0
LINE
  8
0
 10
190.166
 20
148.451
 11
189.764
 21
148.532
  0
LINE
  8
0
 10
189.764
 20
148.532
 11
189.61
 21
148.563
  0
LINE
  8
0
 10
189.61
 20
148.563
 11
189.208
 21
148.642
  0
LINE
  8
0
 10
189.208
 20
148.642
 11
188.76
 21
148.727
  0
LINE
  8
0
 10
188.76
 20
148.727
 11
188.554
 21
148.765
  0
LINE
  8
0
 10
188.554
 20
148.765
 11
188.126
 21
148.842
  0
LINE
  8
0
 10
188.126
 20
148.842
 11
187.972
 21
148.87
  0
LINE
  8
0
 10
187.972
 20
148.87
 11
187.576
 21
148.938
  0
LINE
  8
0
 10
187.576
 20
148.938
 11
187.444
 21
148.96
  0
LINE
  8
0
 10
187.444
 20
148.96
 11
187.026
 21
149.03
  0
LINE
  8
0
 10
187.026
 20
149.03
 11
186.888
 21
149.052
  0
LINE
  8
0
 10
186.888
 20
149.052
 11
186.484
 21
149.116
  0
LINE
  8
0
 10
186.484
 20
149.116
 11
186.332
 21
149.139
  0
LINE
  8
0
 10
186.332
 20
149.139
 11
185.908
 21
149.203
  0
LINE
  8
0
 10
185.908
 20
149.203
 11
185.804
 21
149.218
  0
LINE
  8
0
 10
185.804
 20
149.218
 11
185.374
 21
149.279
  0
LINE
  8
0
 10
185.374
 20
149.279
 11
185.248
 21
149.297
  0
LINE
  8
0
 10
185.248
 20
149.297
 11
184.812
 21
149.355
  0
LINE
  8
0
 10
184.812
 20
149.355
 11
184.666
 21
149.375
  0
LINE
  8
0
 10
184.666
 20
149.375
 11
184.256
 21
149.427
  0
LINE
  8
0
 10
184.256
 20
149.427
 11
184.11
 21
149.445
  0
LINE
  8
0
 10
184.11
 20
149.445
 11
183.69
 21
149.495
  0
LINE
  8
0
 10
183.69
 20
149.495
 11
183.554
 21
149.511
  0
LINE
  8
0
 10
183.554
 20
149.511
 11
183.146
 21
149.556
  0
LINE
  8
0
 10
183.146
 20
149.556
 11
182.998
 21
149.572
  0
LINE
  8
0
 10
182.998
 20
149.572
 11
182.57
 21
149.617
  0
LINE
  8
0
 10
182.57
 20
149.617
 11
182.416
 21
149.632
  0
LINE
  8
0
 10
182.416
 20
149.632
 11
182.018
 21
149.671
  0
LINE
  8
0
 10
182.018
 20
149.671
 11
181.86
 21
149.686
  0
LINE
  8
0
 10
181.86
 20
149.686
 11
181.442
 21
149.723
  0
LINE
  8
0
 10
181.442
 20
149.723
 11
181.304
 21
149.735
  0
LINE
  8
0
 10
181.304
 20
149.735
 11
180.872
 21
149.77
  0
LINE
  8
0
 10
180.872
 20
149.77
 11
180.722
 21
149.781
  0
LINE
  8
0
 10
180.722
 20
149.781
 11
180.292
 21
149.813
  0
LINE
  8
0
 10
180.292
 20
149.813
 11
180.166
 21
149.822
  0
LINE
  8
0
 10
180.166
 20
149.822
 11
179.746
 21
149.85
  0
LINE
  8
0
 10
179.746
 20
149.85
 11
179.61
 21
149.858
  0
LINE
  8
0
 10
179.61
 20
149.858
 11
179.154
 21
149.885
  0
LINE
  8
0
 10
179.154
 20
149.885
 11
179.026
 21
149.892
  0
LINE
  8
0
 10
179.026
 20
149.892
 11
178.596
 21
149.914
  0
LINE
  8
0
 10
178.596
 20
149.914
 11
178.444
 21
149.921
  0
LINE
  8
0
 10
178.444
 20
149.921
 11
178.024
 21
149.939
  0
LINE
  8
0
 10
178.024
 20
149.939
 11
177.888
 21
149.944
  0
LINE
  8
0
 10
177.888
 20
149.944
 11
177.462
 21
149.96
  0
LINE
  8
0
 10
177.462
 20
149.96
 11
177.304
 21
149.965
  0
LINE
  8
0
 10
177.304
 20
149.965
 11
176.876
 21
149.977
  0
LINE
  8
0
 10
176.876
 20
149.977
 11
176.77
 21
149.979
  0
LINE
  8
0
 10
176.77
 20
149.979
 11
176.324
 21
149.988
  0
LINE
  8
0
 10
176.324
 20
149.988
 11
176.194
 21
149.99
  0
LINE
  8
0
 10
176.194
 20
149.99
 11
175.738
 21
149.996
  0
LINE
  8
0
 10
175.738
 20
149.996
 11
175.262
 21
150
  0
LINE
  8
0
 10
175.262
 20
150
 11
175.066
 21
150
  0
LINE
  8
0
 10
175.066
 20
150
 11
175
 21
150
  0
LINE
  8
0
 10
175
 20
150
 11
74.69
 21
149.999
  0
LINE
  8
0
 10
74.69
 20
149.999
 11
74.496
 21
149.998
  0
LINE
  8
0
 10
74.496
 20
149.998
 11
74.042
 21
149.994
  0
LINE
  8
0
 10
74.042
 20
149.994
 11
73.906
 21
149.992
  0
LINE
  8
0
 10
73.906
 20
149.992
 11
73.458
 21
149.984
  0
LINE
  8
0
 10
73.458
 20
149.984
 11
73.304
 21
149.981
  0
LINE
  8
0
 10
73.304
 20
149.981
 11
72.886
 21
149.97
  0
LINE
  8
0
 10
72.886
 20
149.97
 11
72.766
 21
149.967
  0
LINE
  8
0
 10
72.766
 20
149.967
 11
72.326
 21
149.952
  0
LINE
  8
0
 10
72.326
 20
149.952
 11
72.188
 21
149.947
  0
LINE
  8
0
 10
72.188
 20
149.947
 11
71.736
 21
149.929
  0
LINE
  8
0
 10
71.736
 20
149.929
 11
71.582
 21
149.922
  0
LINE
  8
0
 10
71.582
 20
149.922
 11
71.182
 21
149.903
  0
LINE
  8
0
 10
71.182
 20
149.903
 11
71.026
 21
149.895
  0
LINE
  8
0
 10
71.026
 20
149.895
 11
70.594
 21
149.87
  0
LINE
  8
0
 10
70.594
 20
149.87
 11
70.472
 21
149.863
  0
LINE
  8
0
 10
70.472
 20
149.863
 11
70.05
 21
149.836
  0
LINE
  8
0
 10
70.05
 20
149.836
 11
69.888
 21
149.826
  0
LINE
  8
0
 10
69.888
 20
149.826
 11
69.462
 21
149.795
  0
LINE
  8
0
 10
69.462
 20
149.795
 11
69.304
 21
149.783
  0
LINE
  8
0
 10
69.304
 20
149.783
 11
68.898
 21
149.751
  0
LINE
  8
0
 10
68.898
 20
149.751
 11
68.77
 21
149.741
  0
LINE
  8
0
 10
68.77
 20
149.741
 11
68.322
 21
149.702
  0
LINE
  8
0
 10
68.322
 20
149.702
 11
68.19
 21
149.69
  0
LINE
  8
0
 10
68.19
 20
149.69
 11
67.772
 21
149.651
  0
LINE
  8
0
 10
67.772
 20
149.651
 11
67.63
 21
149.637
  0
LINE
  8
0
 10
67.63
 20
149.637
 11
67.202
 21
149.594
  0
LINE
  8
0
 10
67.202
 20
149.594
 11
67.054
 21
149.578
  0
LINE
  8
0
 10
67.054
 20
149.578
 11
66.628
 21
149.531
  0
LINE
  8
0
 10
66.628
 20
149.531
 11
66.498
 21
149.517
  0
LINE
  8
0
 10
66.498
 20
149.517
 11
66.08
 21
149.468
  0
LINE
  8
0
 10
66.08
 20
149.468
 11
65.944
 21
149.451
  0
LINE
  8
0
 10
65.944
 20
149.451
 11
65.526
 21
149.399
  0
LINE
  8
0
 10
65.526
 20
149.399
 11
65.408
 21
149.384
  0
LINE
  8
0
 10
65.408
 20
149.384
 11
64.96
 21
149.325
  0
LINE
  8
0
 10
64.96
 20
149.325
 11
64.804
 21
149.304
  0
LINE
  8
0
 10
64.804
 20
149.304
 11
64.41
 21
149.249
  0
LINE
  8
0
 10
64.41
 20
149.249
 11
64.276
 21
149.229
  0
LINE
  8
0
 10
64.276
 20
149.229
 11
63.844
 21
149.166
  0
LINE
  8
0
 10
63.844
 20
149.166
 11
63.694
 21
149.143
  0
LINE
  8
0
 10
63.694
 20
149.143
 11
63.296
 21
149.081
  0
LINE
  8
0
 10
63.296
 20
149.081
 11
63.166
 21
149.06
  0
LINE
  8
0
 10
63.166
 20
149.06
 11
62.746
 21
148.992
  0
LINE
  8
0
 10
62.746
 20
148.992
 11
62.61
 21
148.969
  0
LINE
  8
0
 10
62.61
 20
148.969
 11
62.208
 21
148.901
  0
LINE
  8
0
 10
62.208
 20
148.901
 11
62.054
 21
148.874
  0
LINE
  8
0
 10
62.054
 20
148.874
 11
61.654
 21
148.803
  0
LINE
  8
0
 10
61.654
 20
148.803
 11
61.498
 21
148.775
  0
LINE
  8
0
 10
61.498
 20
148.775
 11
61.124
 21
148.705
  0
LINE
  8
0
 10
61.124
 20
148.705
 11
60.972
 21
148.676
  0
LINE
  8
0
 10
60.972
 20
148.676
 11
60.578
 21
148.6
  0
LINE
  8
0
 10
60.578
 20
148.6
 11
60.442
 21
148.574
  0
LINE
  8
0
 10
60.442
 20
148.574
 11
60.034
 21
148.492
  0
LINE
  8
0
 10
60.034
 20
148.492
 11
59.91
 21
148.466
  0
LINE
  8
0
 10
59.91
 20
148.466
 11
59.498
 21
148.38
  0
LINE
  8
0
 10
59.498
 20
148.38
 11
59.36
 21
148.351
  0
LINE
  8
0
 10
59.36
 20
148.351
 11
58.962
 21
148.265
  0
LINE
  8
0
 10
58.962
 20
148.265
 11
58.832
 21
148.237
  0
LINE
  8
0
 10
58.832
 20
148.237
 11
58.43
 21
148.147
  0
LINE
  8
0
 10
58.43
 20
148.147
 11
58.302
 21
148.118
  0
LINE
  8
0
 10
58.302
 20
148.118
 11
57.88
 21
148.02
  0
LINE
  8
0
 10
57.88
 20
148.02
 11
57.774
 21
147.995
  0
LINE
  8
0
 10
57.774
 20
147.995
 11
57.358
 21
147.896
  0
LINE
  8
0
 10
57.358
 20
147.896
 11
57.222
 21
147.862
  0
LINE
  8
0
 10
57.222
 20
147.862
 11
56.842
 21
147.769
  0
LINE
  8
0
 10
56.842
 20
147.769
 11
56.694
 21
147.732
  0
LINE
  8
0
 10
56.694
 20
147.732
 11
56.32
 21
147.636
  0
LINE
  8
0
 10
56.32
 20
147.636
 11
56.216
 21
147.61
  0
LINE
  8
0
 10
56.216
 20
147.61
 11
55.798
 21
147.5
  0
LINE
  8
0
 10
55.798
 20
147.5
 11
55.666
 21
147.465
  0
LINE
  8
0
 10
55.666
 20
147.465
 11
55.292
 21
147.364
  0
LINE
  8
0
 10
55.292
 20
147.364
 11
55.166
 21
147.33
  0
LINE
  8
0
 10
55.166
 20
147.33
 11
54.786
 21
147.225
  0
LINE
  8
0
 10
54.786
 20
147.225
 11
54.662
 21
147.19
  0
LINE
  8
0
 10
54.662
 20
147.19
 11
54.276
 21
147.08
  0
LINE
  8
0
 10
54.276
 20
147.08
 11
54.138
 21
147.04
  0
LINE
  8
0
 10
54.138
 20
147.04
 11
53.76
 21
146.93
  0
LINE
  8
0
 10
53.76
 20
146.93
 11
53.32
 21
146.798
  0
LINE
  8
0
 10
53.32
 20
146.798
 11
53.16
 21
146.75
  0
LINE
  8
0
 10
53.16
 20
146.75
 11
52.77
 21
146.63
  0
LINE
  8
0
 10
52.77
 20
146.63
 11
52.638
 21
146.589
  0
LINE
  8
0
 10
52.638
 20
146.589
 11
52.276
 21
146.475
  0
LINE
  8
0
 10
52.276
 20
146.475
 11
52.138
 21
146.431
  0
LINE
  8
0
 10
52.138
 20
146.431
 11
51.766
 21
146.31
  0
LINE
  8
0
 10
51.766
 20
146.31
 11
51.66
 21
146.276
  0
LINE
  8
0
 10
51.66
 20
146.276
 11
51.276
 21
146.149
  0
LINE
  8
0
 10
51.276
 20
146.149
 11
51.166
 21
146.112
  0
LINE
  8
0
 10
51.166
 20
146.112
 11
50.8
 21
145.988
  0
LINE
  8
0
 10
50.8
 20
145.988
 11
50.694
 21
145.952
  0
LINE
  8
0
 10
50.694
 20
145.952
 11
50.302
 21
145.817
  0
LINE
  8
0
 10
50.302
 20
145.817
 11
50.194
 21
145.779
  0
LINE
  8
0
 10
50.194
 20
145.779
 11
49.822
 21
145.647
  0
LINE
  8
0
 10
49.822
 20
145.647
 11
49.722
 21
145.612
  0
LINE
  8
0
 10
49.722
 20
145.612
 11
49.344
 21
145.475
  0
LINE
  8
0
 10
49.344
 20
145.475
 11
49.244
 21
145.439
  0
LINE
  8
0
 10
49.244
 20
145.439
 11
48.882
 21
145.305
  0
LINE
  8
0
 10
48.882
 20
145.305
 11
48.748
 21
145.255
  0
LINE
  8
0
 10
48.748
 20
145.255
 11
48.404
 21
145.126
  0
LINE
  8
0
 10
48.404
 20
145.126
 11
48.304
 21
145.088
  0
LINE
  8
0
 10
48.304
 20
145.088
 11
47.932
 21
144.945
  0
LINE
  8
0
 10
47.932
 20
144.945
 11
47.832
 21
144.906
  0
LINE
  8
0
 10
47.832
 20
144.906
 11
47.488
 21
144.772
  0
LINE
  8
0
 10
47.488
 20
144.772
 11
47.36
 21
144.721
  0
LINE
  8
0
 10
47.36
 20
144.721
 11
47.012
 21
144.582
  0
LINE
  8
0
 10
47.012
 20
144.582
 11
46.916
 21
144.543
  0
LINE
  8
0
 10
46.916
 20
144.543
 11
46.566
 21
144.401
  0
LINE
  8
0
 10
46.566
 20
144.401
 11
46.444
 21
144.351
  0
LINE
  8
0
 10
46.444
 20
144.351
 11
46.104
 21
144.21
  0
LINE
  8
0
 10
46.104
 20
144.21
 11
45.998
 21
144.166
  0
LINE
  8
0
 10
45.998
 20
144.166
 11
45.656
 21
144.021
  0
LINE
  8
0
 10
45.656
 20
144.021
 11
45.554
 21
143.978
  0
LINE
  8
0
 10
45.554
 20
143.978
 11
45.214
 21
143.832
  0
LINE
  8
0
 10
45.214
 20
143.832
 11
45.11
 21
143.787
  0
LINE
  8
0
 10
45.11
 20
143.787
 11
44.794
 21
143.648
  0
LINE
  8
0
 10
44.794
 20
143.648
 11
44.686
 21
143.601
  0
LINE
  8
0
 10
44.686
 20
143.601
 11
44.356
 21
143.454
  0
LINE
  8
0
 10
44.356
 20
143.454
 11
44.222
 21
143.394
  0
LINE
  8
0
 10
44.222
 20
143.394
 11
43.908
 21
143.252
  0
LINE
  8
0
 10
43.908
 20
143.252
 11
43.552
 21
143.088
  0
LINE
  8
0
 10
43.552
 20
143.088
 11
43.41
 21
143.023
  0
LINE
  8
0
 10
43.41
 20
143.023
 11
43.052
 21
142.855
  0
LINE
  8
0
 10
43.052
 20
142.855
 11
42.944
 21
142.804
  0
LINE
  8
0
 10
42.944
 20
142.804
 11
42.632
 21
142.656
  0
LINE
  8
0
 10
42.632
 20
142.656
 11
42.55
 21
142.617
  0
LINE
  8
0
 10
42.55
 20
142.617
 11
42.206
 21
142.45
  0
LINE
  8
0
 10
42.206
 20
142.45
 11
42.11
 21
142.404
  0
LINE
  8
0
 10
42.11
 20
142.404
 11
41.794
 21
142.249
  0
LINE
  8
0
 10
41.794
 20
142.249
 11
41.692
 21
142.198
  0
LINE
  8
0
 10
41.692
 20
142.198
 11
41.398
 21
142.052
  0
LINE
  8
0
 10
41.398
 20
142.052
 11
41.276
 21
141.99
  0
LINE
  8
0
 10
41.276
 20
141.99
 11
40.984
 21
141.842
  0
LINE
  8
0
 10
40.984
 20
141.842
 11
40.626
 21
141.659
  0
LINE
  8
0
 10
40.626
 20
141.659
 11
40.498
 21
141.593
  0
LINE
  8
0
 10
40.498
 20
141.593
 11
40.182
 21
141.428
  0
LINE
  8
0
 10
40.182
 20
141.428
 11
40.082
 21
141.376
  0
LINE
  8
0
 10
40.082
 20
141.376
 11
39.788
 21
141.22
  0
LINE
  8
0
 10
39.788
 20
141.22
 11
39.466
 21
141.048
  0
LINE
  8
0
 10
39.466
 20
141.048
 11
39.33
 21
140.975
  0
LINE
  8
0
 10
39.33
 20
140.975
 11
38.992
 21
140.791
  0
LINE
  8
0
 10
38.992
 20
140.791
 11
38.916
 21
140.749
  0
LINE
  8
0
 10
38.916
 20
140.749
 11
38.634
 21
140.594
  0
LINE
  8
0
 10
38.634
 20
140.594
 11
38.526
 21
140.534
  0
LINE
  8
0
 10
38.526
 20
140.534
 11
38.244
 21
140.376
  0
LINE
  8
0
 10
38.244
 20
140.376
 11
38.166
 21
140.332
  0
LINE
  8
0
 10
38.166
 20
140.332
 11
37.87
 21
140.164
  0
LINE
  8
0
 10
37.87
 20
140.164
 11
37.776
 21
140.11
  0
LINE
  8
0
 10
37.776
 20
140.11
 11
37.494
 21
139.948
  0
LINE
  8
0
 10
37.494
 20
139.948
 11
37.414
 21
139.902
  0
LINE
  8
0
 10
37.414
 20
139.902
 11
37.108
 21
139.724
  0
LINE
  8
0
 10
37.108
 20
139.724
 11
36.758
 21
139.518
  0
LINE
  8
0
 10
36.758
 20
139.518
 11
36.666
 21
139.463
  0
LINE
  8
0
 10
36.666
 20
139.463
 11
36.38
 21
139.292
  0
LINE
  8
0
 10
36.38
 20
139.292
 11
36.304
 21
139.247
  0
LINE
  8
0
 10
36.304
 20
139.247
 11
36.038
 21
139.086
  0
LINE
  8
0
 10
36.038
 20
139.086
 11
35.944
 21
139.028
  0
LINE
  8
0
 10
35.944
 20
139.028
 11
35.692
 21
138.874
  0
LINE
  8
0
 10
35.692
 20
138.874
 11
35.582
 21
138.806
  0
LINE
  8
0
 10
35.582
 20
138.806
 11
35.324
 21
138.646
  0
LINE
  8
0
 10
35.324
 20
138.646
 11
35.248
 21
138.599
  0
LINE
  8
0
 10
35.248
 20
138.599
 11
34.968
 21
138.423
  0
LINE
  8
0
 10
34.968
 20
138.423
 11
34.634
 21
138.211
  0
LINE
  8
0
 10
34.634
 20
138.211
 11
34.554
 21
138.159
  0
LINE
  8
0
 10
34.554
 20
138.159
 11
34.294
 21
137.992
  0
LINE
  8
0
 10
34.294
 20
137.992
 11
34.222
 21
137.946
  0
LINE
  8
0
 10
34.222
 20
137.946
 11
33.964
 21
137.778
  0
LINE
  8
0
 10
33.964
 20
137.778
 11
33.886
 21
137.727
  0
LINE
  8
0
 10
33.886
 20
137.727
 11
33.626
 21
137.556
  0
LINE
  8
0
 10
33.626
 20
137.556
 11
33.554
 21
137.508
  0
LINE
  8
0
 10
33.554
 20
137.508
 11
33.288
 21
137.331
  0
LINE
  8
0
 10
33.288
 20
137.331
 11
33.222
 21
137.286
  0
LINE
  8
0
 10
33.222
 20
137.286
 11
32.958
 21
137.109
  0
LINE
  8
0
 10
32.958
 20
137.109
 11
32.638
 21
136.891
  0
LINE
  8
0
 10
32.638
 20
136.891
 11
32.376
 21
136.711
  0
LINE
  8
0
 10
32.376
 20
136.711
 11
32.248
 21
136.622
  0
LINE
  8
0
 10
32.248
 20
136.622
 11
32.01
 21
136.456
  0
LINE
  8
0
 10
32.01
 20
136.456
 11
31.94
 21
136.407
  0
LINE
  8
0
 10
31.94
 20
136.407
 11
31.692
 21
136.232
  0
LINE
  8
0
 10
31.692
 20
136.232
 11
31.386
 21
136.015
  0
LINE
  8
0
 10
31.386
 20
136.015
 11
31.304
 21
135.956
  0
LINE
  8
0
 10
31.304
 20
135.956
 11
31.072
 21
135.789
  0
LINE
  8
0
 10
31.072
 20
135.789
 11
30.768
 21
135.568
  0
LINE
  8
0
 10
30.768
 20
135.568
 11
30.47
 21
135.35
  0
LINE
  8
0
 10
30.47
 20
135.35
 11
30.178
 21
135.133
  0
LINE
  8
0
 10
30.178
 20
135.133
 11
30.11
 21
135.082
  0
LINE
  8
0
 10
30.11
 20
135.082
 11
29.876
 21
134.907
  0
LINE
  8
0
 10
29.876
 20
134.907
 11
29.578
 21
134.681
  0
LINE
  8
0
 10
29.578
 20
134.681
 11
29.298
 21
134.467
  0
LINE
  8
0
 10
29.298
 20
134.467
 11
29.014
 21
134.248
  0
LINE
  8
0
 10
29.014
 20
134.248
 11
28.738
 21
134.032
  0
LINE
  8
0
 10
28.738
 20
134.032
 11
28.466
 21
133.818
  0
LINE
  8
0
 10
28.466
 20
133.818
 11
28.388
 21
133.756
  0
LINE
  8
0
 10
28.388
 20
133.756
 11
28.16
 21
133.575
  0
LINE
  8
0
 10
28.16
 20
133.575
 11
27.916
 21
133.379
  0
LINE
  8
0
 10
27.916
 20
133.379
 11
27.638
 21
133.154
  0
LINE
  8
0
 10
27.638
 20
133.154
 11
27.386
 21
132.947
  0
LINE
  8
0
 10
27.386
 20
132.947
 11
27.126
 21
132.733
  0
LINE
  8
0
 10
27.126
 20
132.733
 11
27.054
 21
132.673
  0
LINE
  8
0
 10
27.054
 20
132.673
 11
26.846
 21
132.499
  0
LINE
  8
0
 10
26.846
 20
132.499
 11
26.604
 21
132.296
  0
LINE
  8
0
 10
26.604
 20
132.296
 11
26.358
 21
132.087
  0
LINE
  8
0
 10
26.358
 20
132.087
 11
26.098
 21
131.865
  0
LINE
  8
0
 10
26.098
 20
131.865
 11
25.858
 21
131.657
  0
LINE
  8
0
 10
25.858
 20
131.657
 11
25.606
 21
131.438
  0
LINE
  8
0
 10
25.606
 20
131.438
 11
25.352
 21
131.215
  0
LINE
  8
0
 10
25.352
 20
131.215
 11
25.124
 21
131.012
  0
LINE
  8
0
 10
25.124
 20
131.012
 11
24.882
 21
130.796
  0
LINE
  8
0
 10
24.882
 20
130.796
 11
24.648
 21
130.585
  0
LINE
  8
0
 10
24.648
 20
130.585
 11
24.43
 21
130.387
  0
LINE
  8
0
 10
24.43
 20
130.387
 11
24.192
 21
130.168
  0
LINE
  8
0
 10
24.192
 20
130.168
 11
23.968
 21
129.961
  0
LINE
  8
0
 10
23.968
 20
129.961
 11
23.74
 21
129.749
  0
LINE
  8
0
 10
23.74
 20
129.749
 11
23.522
 21
129.544
  0
LINE
  8
0
 10
23.522
 20
129.544
 11
23.304
 21
129.337
  0
LINE
  8
0
 10
23.304
 20
129.337
 11
23.076
 21
129.119
  0
LINE
  8
0
 10
23.076
 20
129.119
 11
22.882
 21
128.932
  0
LINE
  8
0
 10
22.882
 20
128.932
 11
22.662
 21
128.719
  0
LINE
  8
0
 10
22.662
 20
128.719
 11
22.456
 21
128.518
  0
LINE
  8
0
 10
22.456
 20
128.518
 11
22.236
 21
128.301
  0
LINE
  8
0
 10
22.236
 20
128.301
 11
22.042
 21
128.108
  0
LINE
  8
0
 10
22.042
 20
128.108
 11
21.83
 21
127.896
  0
LINE
  8
0
 10
21.83
 20
127.896
 11
21.636
 21
127.7
  0
LINE
  8
0
 10
21.636
 20
127.7
 11
21.444
 21
127.505
  0
LINE
  8
0
 10
21.444
 20
127.505
 11
21.246
 21
127.302
  0
LINE
  8
0
 10
21.246
 20
127.302
 11
21.048
 21
127.098
  0
LINE
  8
0
 10
21.048
 20
127.098
 11
20.856
 21
126.898
  0
LINE
  8
0
 10
20.856
 20
126.898
 11
20.662
 21
126.695
  0
LINE
  8
0
 10
20.662
 20
126.695
 11
20.472
 21
126.495
  0
LINE
  8
0
 10
20.472
 20
126.495
 11
20.298
 21
126.31
  0
LINE
  8
0
 10
20.298
 20
126.31
 11
20.104
 21
126.102
  0
LINE
  8
0
 10
20.104
 20
126.102
 11
19.94
 21
125.925
  0
LINE
  8
0
 10
19.94
 20
125.925
 11
19.762
 21
125.732
  0
LINE
  8
0
 10
19.762
 20
125.732
 11
19.582
 21
125.536
  0
LINE
  8
0
 10
19.582
 20
125.536
 11
19.412
 21
125.349
  0
LINE
  8
0
 10
19.412
 20
125.349
 11
19.24
 21
125.158
  0
LINE
  8
0
 10
19.24
 20
125.158
 11
19.054
 21
124.95
  0
LINE
  8
0
 10
19.054
 20
124.95
 11
18.906
 21
124.784
  0
LINE
  8
0
 10
18.906
 20
124.784
 11
18.722
 21
124.576
  0
LINE
  8
0
 10
18.722
 20
124.576
 11
18.57
 21
124.403
  0
LINE
  8
0
 10
18.57
 20
124.403
 11
18.406
 21
124.215
  0
LINE
  8
0
 10
18.406
 20
124.215
 11
18.242
 21
124.026
  0
LINE
  8
0
 10
18.242
 20
124.026
 11
18.076
 21
123.833
  0
LINE
  8
0
 10
18.076
 20
123.833
 11
17.94
 21
123.674
  0
LINE
  8
0
 10
17.94
 20
123.674
 11
17.776
 21
123.481
  0
LINE
  8
0
 10
17.776
 20
123.481
 11
17.622
 21
123.299
  0
LINE
  8
0
 10
17.622
 20
123.299
 11
17.47
 21
123.118
  0
LINE
  8
0
 10
17.47
 20
123.118
 11
17.322
 21
122.94
  0
LINE
  8
0
 10
17.322
 20
122.94
 11
17.164
 21
122.749
  0
LINE
  8
0
 10
17.164
 20
122.749
 11
17.012
 21
122.565
  0
LINE
  8
0
 10
17.012
 20
122.565
 11
16.884
 21
122.408
  0
LINE
  8
0
 10
16.884
 20
122.408
 11
16.734
 21
122.224
  0
LINE
  8
0
 10
16.734
 20
122.224
 11
16.596
 21
122.053
  0
LINE
  8
0
 10
16.596
 20
122.053
 11
16.438
 21
121.856
  0
LINE
  8
0
 10
16.438
 20
121.856
 11
16.302
 21
121.686
  0
LINE
  8
0
 10
16.302
 20
121.686
 11
16.158
 21
121.504
  0
LINE
  8
0
 10
16.158
 20
121.504
 11
16.026
 21
121.336
  0
LINE
  8
0
 10
16.026
 20
121.336
 11
15.888
 21
121.16
  0
LINE
  8
0
 10
15.888
 20
121.16
 11
15.76
 21
120.996
  0
LINE
  8
0
 10
15.76
 20
120.996
 11
15.63
 21
120.828
  0
LINE
  8
0
 10
15.63
 20
120.828
 11
15.49
 21
120.646
  0
LINE
  8
0
 10
15.49
 20
120.646
 11
15.38
 21
120.502
  0
LINE
  8
0
 10
15.38
 20
120.502
 11
15.248
 21
120.329
  0
LINE
  8
0
 10
15.248
 20
120.329
 11
15.126
 21
120.168
  0
LINE
  8
0
 10
15.126
 20
120.168
 11
14.998
 21
119.997
  0
LINE
  8
0
 10
14.998
 20
119.997
 11
14.88
 21
119.84
  0
LINE
  8
0
 10
14.88
 20
119.84
 11
14.74
 21
119.651
  0
LINE
  8
0
 10
14.74
 20
119.651
 11
14.638
 21
119.513
  0
LINE
  8
0
 10
14.638
 20
119.513
 11
14.512
 21
119.342
  0
LINE
  8
0
 10
14.512
 20
119.342
 11
14.386
 21
119.169
  0
LINE
  8
0
 10
14.386
 20
119.169
 11
14.276
 21
119.018
  0
LINE
  8
0
 10
14.276
 20
119.018
 11
14.166
 21
118.866
  0
LINE
  8
0
 10
14.166
 20
118.866
 11
14.046
 21
118.699
  0
LINE
  8
0
 10
14.046
 20
118.699
 11
13.934
 21
118.542
  0
LINE
  8
0
 10
13.934
 20
118.542
 11
13.83
 21
118.396
  0
LINE
  8
0
 10
13.83
 20
118.396
 11
13.72
 21
118.241
  0
LINE
  8
0
 10
13.72
 20
118.241
 11
13.61
 21
118.084
  0
LINE
  8
0
 10
13.61
 20
118.084
 11
13.49
 21
117.913
  0
LINE
  8
0
 10
13.49
 20
117.913
 11
13.388
 21
117.766
  0
LINE
  8
0
 10
13.388
 20
117.766
 11
13.272
 21
117.599
  0
LINE
  8
0
 10
13.272
 20
117.599
 11
13.18
 21
117.465
  0
LINE
  8
0
 10
13.18
 20
117.465
 11
13.082
 21
117.322
  0
LINE
  8
0
 10
13.082
 20
117.322
 11
12.966
 21
117.152
  0
LINE
  8
0
 10
12.966
 20
117.152
 11
12.882
 21
117.028
  0
LINE
  8
0
 10
12.882
 20
117.028
 11
12.77
 21
116.862
  0
LINE
  8
0
 10
12.77
 20
116.862
 11
12.662
 21
116.701
  0
LINE
  8
0
 10
12.662
 20
116.701
 11
12.574
 21
116.569
  0
LINE
  8
0
 10
12.574
 20
116.569
 11
12.472
 21
116.416
  0
LINE
  8
0
 10
12.472
 20
116.416
 11
12.386
 21
116.285
  0
LINE
  8
0
 10
12.386
 20
116.285
 11
12.292
 21
116.143
  0
LINE
  8
0
 10
12.292
 20
116.143
 11
12.186
 21
115.98
  0
LINE
  8
0
 10
12.186
 20
115.98
 11
12.102
 21
115.851
  0
LINE
  8
0
 10
12.102
 20
115.851
 11
12.018
 21
115.722
  0
LINE
  8
0
 10
12.018
 20
115.722
 11
11.912
 21
115.557
  0
LINE
  8
0
 10
11.912
 20
115.557
 11
11.83
 21
115.43
  0
LINE
  8
0
 10
11.83
 20
115.43
 11
11.744
 21
115.295
  0
LINE
  8
0
 10
11.744
 20
115.295
 11
11.654
 21
115.153
  0
LINE
  8
0
 10
11.654
 20
115.153
 11
11.57
 21
115.02
  0
LINE
  8
0
 10
11.57
 20
115.02
 11
11.472
 21
114.865
  0
LINE
  8
0
 10
11.472
 20
114.865
 11
11.382
 21
114.721
  0
LINE
  8
0
 10
11.382
 20
114.721
 11
11.302
 21
114.592
  0
LINE
  8
0
 10
11.302
 20
114.592
 11
11.222
 21
114.463
  0
LINE
  8
0
 10
11.222
 20
114.463
 11
11.136
 21
114.324
  0
LINE
  8
0
 10
11.136
 20
114.324
 11
11.054
 21
114.191
  0
LINE
  8
0
 10
11.054
 20
114.191
 11
10.97
 21
114.053
  0
LINE
  8
0
 10
10.97
 20
114.053
 11
10.888
 21
113.919
  0
LINE
  8
0
 10
10.888
 20
113.919
 11
10.804
 21
113.78
  0
LINE
  8
0
 10
10.804
 20
113.78
 11
10.742
 21
113.677
  0
LINE
  8
0
 10
10.742
 20
113.677
 11
10.662
 21
113.544
  0
LINE
  8
0
 10
10.662
 20
113.544
 11
10.58
 21
113.407
  0
LINE
  8
0
 10
10.58
 20
113.407
 11
10.498
 21
113.269
  0
LINE
  8
0
 10
10.498
 20
113.269
 11
10.356
 21
113.028
  0
LINE
  8
0
 10
10.356
 20
113.028
 11
10.276
 21
112.892
  0
LINE
  8
0
 10
10.276
 20
112.892
 11
10.19
 21
112.745
  0
LINE
  8
0
 10
10.19
 20
112.745
 11
10.138
 21
112.655
  0
LINE
  8
0
 10
10.138
 20
112.655
 11
10.054
 21
112.51
  0
LINE
  8
0
 10
10.054
 20
112.51
 11
9.92799
 21
112.291
  0
LINE
  8
0
 10
9.92799
 20
112.291
 11
9.85399
 21
112.162
  0
LINE
  8
0
 10
9.85399
 20
112.162
 11
9.77399
 21
112.021
  0
LINE
  8
0
 10
9.77399
 20
112.021
 11
9.71399
 21
111.915
  0
LINE
  8
0
 10
9.71399
 20
111.915
 11
9.63799
 21
111.781
  0
LINE
  8
0
 10
9.63799
 20
111.781
 11
9.57799
 21
111.674
  0
LINE
  8
0
 10
9.57799
 20
111.674
 11
9.43799
 21
111.423
  0
LINE
  8
0
 10
9.43799
 20
111.423
 11
9.37999
 21
111.318
  0
LINE
  8
0
 10
9.37999
 20
111.318
 11
9.30399
 21
111.181
  0
LINE
  8
0
 10
9.30399
 20
111.181
 11
9.24799
 21
111.079
  0
LINE
  8
0
 10
9.24799
 20
111.079
 11
9.18799
 21
110.969
  0
LINE
  8
0
 10
9.18799
 20
110.969
 11
9.12799
 21
110.859
  0
LINE
  8
0
 10
9.12799
 20
110.859
 11
9.05399
 21
110.723
  0
LINE
  8
0
 10
9.05399
 20
110.723
 11
8.94398
 21
110.519
  0
LINE
  8
0
 10
8.94398
 20
110.519
 11
8.87999
 21
110.4
  0
LINE
  8
0
 10
8.87999
 20
110.4
 11
8.82399
 21
110.295
  0
LINE
  8
0
 10
8.82399
 20
110.295
 11
8.70599
 21
110.073
  0
LINE
  8
0
 10
8.70599
 20
110.073
 11
8.63799
 21
109.944
  0
LINE
  8
0
 10
8.63799
 20
109.944
 11
8.58199
 21
109.837
  0
LINE
  8
0
 10
8.58199
 20
109.837
 11
8.52599
 21
109.73
  0
LINE
  8
0
 10
8.52599
 20
109.73
 11
8.47198
 21
109.627
  0
LINE
  8
0
 10
8.47198
 20
109.627
 11
8.41599
 21
109.519
  0
LINE
  8
0
 10
8.41599
 20
109.519
 11
8.35999
 21
109.411
  0
LINE
  8
0
 10
8.35999
 20
109.411
 11
8.30399
 21
109.302
  0
LINE
  8
0
 10
8.30399
 20
109.302
 11
8.24799
 21
109.193
  0
LINE
  8
0
 10
8.24799
 20
109.193
 11
8.19398
 21
109.088
  0
LINE
  8
0
 10
8.19398
 20
109.088
 11
8.13799
 21
108.978
  0
LINE
  8
0
 10
8.13799
 20
108.978
 11
8.04599
 21
108.796
  0
LINE
  8
0
 10
8.04599
 20
108.796
 11
7.99199
 21
108.689
  0
LINE
  8
0
 10
7.99199
 20
108.689
 11
7.93599
 21
108.577
  0
LINE
  8
0
 10
7.93599
 20
108.577
 11
7.88599
 21
108.477
  0
LINE
  8
0
 10
7.88599
 20
108.477
 11
7.82999
 21
108.365
  0
LINE
  8
0
 10
7.82999
 20
108.365
 11
7.77599
 21
108.256
  0
LINE
  8
0
 10
7.77599
 20
108.256
 11
7.68599
 21
108.073
  0
LINE
  8
0
 10
7.68599
 20
108.073
 11
7.63599
 21
107.971
  0
LINE
  8
0
 10
7.63599
 20
107.971
 11
7.58199
 21
107.861
  0
LINE
  8
0
 10
7.58199
 20
107.861
 11
7.49199
 21
107.675
  0
LINE
  8
0
 10
7.49199
 20
107.675
 11
7.43999
 21
107.568
  0
LINE
  8
0
 10
7.43999
 20
107.568
 11
7.35599
 21
107.393
  0
LINE
  8
0
 10
7.35599
 20
107.393
 11
7.30399
 21
107.284
  0
LINE
  8
0
 10
7.30399
 20
107.284
 11
7.21799
 21
107.103
  0
LINE
  8
0
 10
7.21799
 20
107.103
 11
7.16599
 21
106.993
  0
LINE
  8
0
 10
7.16599
 20
106.993
 11
7.12799
 21
106.912
  0
LINE
  8
0
 10
7.12799
 20
106.912
 11
7.08199
 21
106.814
  0
LINE
  8
0
 10
7.08199
 20
106.814
 11
6.99199
 21
106.621
  0
LINE
  8
0
 10
6.99199
 20
106.621
 11
6.91599
 21
106.457
  0
LINE
  8
0
 10
6.91599
 20
106.457
 11
6.82599
 21
106.262
  0
LINE
  8
0
 10
6.82599
 20
106.262
 11
6.74599
 21
106.087
  0
LINE
  8
0
 10
6.74599
 20
106.087
 11
6.66599
 21
105.911
  0
LINE
  8
0
 10
6.66599
 20
105.911
 11
6.58199
 21
105.724
  0
LINE
  8
0
 10
6.58199
 20
105.724
 11
6.51199
 21
105.568
  0
LINE
  8
0
 10
6.51199
 20
105.568
 11
6.43599
 21
105.397
  0
LINE
  8
0
 10
6.43599
 20
105.397
 11
6.38799
 21
105.288
  0
LINE
  8
0
 10
6.38799
 20
105.288
 11
6.35399
 21
105.211
  0
LINE
  8
0
 10
6.35399
 20
105.211
 11
6.27599
 21
105.034
  0
LINE
  8
0
 10
6.27599
 20
105.034
 11
6.24599
 21
104.965
  0
LINE
  8
0
 10
6.24599
 20
104.965
 11
6.17799
 21
104.808
  0
LINE
  8
0
 10
6.17799
 20
104.808
 11
6.10199
 21
104.632
  0
LINE
  8
0
 10
6.10199
 20
104.632
 11
6.02599
 21
104.455
  0
LINE
  8
0
 10
6.02599
 20
104.455
 11
5.99799
 21
104.389
  0
LINE
  8
0
 10
5.99799
 20
104.389
 11
5.93199
 21
104.234
  0
LINE
  8
0
 10
5.93199
 20
104.234
 11
5.85999
 21
104.063
  0
LINE
  8
0
 10
5.85999
 20
104.063
 11
5.79799
 21
103.915
  0
LINE
  8
0
 10
5.79799
 20
103.915
 11
5.702
 21
103.684
  0
LINE
  8
0
 10
5.702
 20
103.684
 11
5.66599
 21
103.597
  0
LINE
  8
0
 10
5.66599
 20
103.597
 11
5.63799
 21
103.529
  0
LINE
  8
0
 10
5.63799
 20
103.529
 11
5.60599
 21
103.451
  0
LINE
  8
0
 10
5.60599
 20
103.451
 11
5.57199
 21
103.368
  0
LINE
  8
0
 10
5.57199
 20
103.368
 11
5.51399
 21
103.226
  0
LINE
  8
0
 10
5.51399
 20
103.226
 11
5.42799
 21
103.013
  0
LINE
  8
0
 10
5.42799
 20
103.013
 11
5.35999
 21
102.844
  0
LINE
  8
0
 10
5.35999
 20
102.844
 11
5.30399
 21
102.703
  0
LINE
  8
0
 10
5.30399
 20
102.703
 11
5.27399
 21
102.628
  0
LINE
  8
0
 10
5.27399
 20
102.628
 11
5.21999
 21
102.491
  0
LINE
  8
0
 10
5.21999
 20
102.491
 11
5.19199
 21
102.42
  0
LINE
  8
0
 10
5.19199
 20
102.42
 11
5.10999
 21
102.21
  0
LINE
  8
0
 10
5.10999
 20
102.21
 11
5.04999
 21
102.055
  0
LINE
  8
0
 10
5.04999
 20
102.055
 11
4.99799
 21
101.921
  0
LINE
  8
0
 10
4.99799
 20
101.921
 11
4.91199
 21
101.696
  0
LINE
  8
0
 10
4.91199
 20
101.696
 11
4.84799
 21
101.527
  0
LINE
  8
0
 10
4.84799
 20
101.527
 11
4.79599
 21
101.389
  0
LINE
  8
0
 10
4.79599
 20
101.389
 11
4.77199
 21
101.325
  0
LINE
  8
0
 10
4.77199
 20
101.325
 11
4.72198
 21
101.192
  0
LINE
  8
0
 10
4.72198
 20
101.192
 11
4.646
 21
100.987
  0
LINE
  8
0
 10
4.646
 20
100.987
 11
4.59999
 21
100.862
  0
LINE
  8
0
 10
4.59999
 20
100.862
 11
4.55399
 21
100.736
  0
LINE
  8
0
 10
4.55399
 20
100.736
 11
4.50999
 21
100.616
  0
LINE
  8
0
 10
4.50999
 20
100.616
 11
4.46199
 21
100.483
  0
LINE
  8
0
 10
4.46199
 20
100.483
 11
4.41599
 21
100.355
  0
LINE
  8
0
 10
4.41599
 20
100.355
 11
4.37599
 21
100.244
  0
LINE
  8
0
 10
4.37599
 20
100.244
 11
4.33199
 21
100.12
  0
LINE
  8
0
 10
4.33199
 20
100.12
 11
4.26999
 21
99.9453
  0
LINE
  8
0
 10
4.26999
 20
99.9453
 11
4.20799
 21
99.7688
  0
LINE
  8
0
 10
4.20799
 20
99.7688
 11
4.18799
 21
99.7115
  0
LINE
  8
0
 10
4.18799
 20
99.7115
 11
4.12799
 21
99.5389
  0
LINE
  8
0
 10
4.12799
 20
99.5389
 11
4.08199
 21
99.4057
  0
LINE
  8
0
 10
4.08199
 20
99.4057
 11
4.04799
 21
99.3067
  0
LINE
  8
0
 10
4.04799
 20
99.3067
 11
3.98999
 21
99.1367
  0
LINE
  8
0
 10
3.98999
 20
99.1367
 11
3.93199
 21
98.9654
  0
LINE
  8
0
 10
3.93199
 20
98.9654
 11
3.87799
 21
98.8046
  0
LINE
  8
0
 10
3.87799
 20
98.8046
 11
3.82199
 21
98.6367
  0
LINE
  8
0
 10
3.82199
 20
98.6367
 11
3.76799
 21
98.4734
  0
LINE
  8
0
 10
3.76799
 20
98.4734
 11
3.68199
 21
98.2108
  0
LINE
  8
0
 10
3.68199
 20
98.2108
 11
3.62999
 21
98.0504
  0
LINE
  8
0
 10
3.62999
 20
98.0504
 11
3.59999
 21
97.9574
  0
LINE
  8
0
 10
3.59999
 20
97.9574
 11
3.56599
 21
97.8513
  0
LINE
  8
0
 10
3.56599
 20
97.8513
 11
3.506
 21
97.6629
  0
LINE
  8
0
 10
3.506
 20
97.6629
 11
3.47198
 21
97.5554
  0
LINE
  8
0
 10
3.47198
 20
97.5554
 11
3.44199
 21
97.46
  0
LINE
  8
0
 10
3.44199
 20
97.46
 11
3.38199
 21
97.268
  0
LINE
  8
0
 10
3.38199
 20
97.268
 11
3.34999
 21
97.1648
  0
LINE
  8
0
 10
3.34999
 20
97.1648
 11
3.30399
 21
97.0155
  0
LINE
  8
0
 10
3.30399
 20
97.0155
 11
3.26199
 21
96.8783
  0
LINE
  8
0
 10
3.26199
 20
96.8783
 11
3.23599
 21
96.7928
  0
LINE
  8
0
 10
3.23599
 20
96.7928
 11
3.20999
 21
96.707
  0
LINE
  8
0
 10
3.20999
 20
96.707
 11
3.18199
 21
96.6142
  0
LINE
  8
0
 10
3.18199
 20
96.6142
 11
3.13799
 21
96.4675
  0
LINE
  8
0
 10
3.13799
 20
96.4675
 11
3.08199
 21
96.2791
  0
LINE
  8
0
 10
3.08199
 20
96.2791
 11
3.02399
 21
96.0821
  0
LINE
  8
0
 10
3.02399
 20
96.0821
 11
2.96999
 21
95.8969
  0
LINE
  8
0
 10
2.96999
 20
95.8969
 11
2.93599
 21
95.7793
  0
LINE
  8
0
 10
2.93599
 20
95.7793
 11
2.89999
 21
95.6541
  0
LINE
  8
0
 10
2.89999
 20
95.6541
 11
2.87599
 21
95.5701
  0
LINE
  8
0
 10
2.87599
 20
95.5701
 11
2.85199
 21
95.4857
  0
LINE
  8
0
 10
2.85199
 20
95.4857
 11
2.82999
 21
95.4081
  0
LINE
  8
0
 10
2.82999
 20
95.4081
 11
2.79599
 21
95.2875
  0
LINE
  8
0
 10
2.79599
 20
95.2875
 11
2.77399
 21
95.209
  0
LINE
  8
0
 10
2.77399
 20
95.209
 11
2.71599
 21
95.0006
  0
LINE
  8
0
 10
2.71599
 20
95.0006
 11
2.674
 21
94.8482
  0
LINE
  8
0
 10
2.674
 20
94.8482
 11
2.63399
 21
94.7018
  0
LINE
  8
0
 10
2.63399
 20
94.7018
 11
2.60199
 21
94.5839
  0
LINE
  8
0
 10
2.60199
 20
94.5839
 11
2.55399
 21
94.4056
  0
LINE
  8
0
 10
2.55399
 20
94.4056
 11
2.51199
 21
94.2481
  0
LINE
  8
0
 10
2.51199
 20
94.2481
 11
2.48399
 21
94.1423
  0
LINE
  8
0
 10
2.48399
 20
94.1423
 11
2.46599
 21
94.074
  0
LINE
  8
0
 10
2.46599
 20
94.074
 11
2.43599
 21
93.9596
  0
LINE
  8
0
 10
2.43599
 20
93.9596
 11
2.39999
 21
93.8213
  0
LINE
  8
0
 10
2.39999
 20
93.8213
 11
2.35599
 21
93.6507
  0
LINE
  8
0
 10
2.35599
 20
93.6507
 11
2.32999
 21
93.5491
  0
LINE
  8
0
 10
2.32999
 20
93.5491
 11
2.30399
 21
93.447
  0
LINE
  8
0
 10
2.30399
 20
93.447
 11
2.26999
 21
93.3125
  0
LINE
  8
0
 10
2.26999
 20
93.3125
 11
2.23599
 21
93.1769
  0
LINE
  8
0
 10
2.23599
 20
93.1769
 11
2.20599
 21
93.0564
  0
LINE
  8
0
 10
2.20599
 20
93.0564
 11
2.18199
 21
92.9594
  0
LINE
  8
0
 10
2.18199
 20
92.9594
 11
2.15799
 21
92.8618
  0
LINE
  8
0
 10
2.15799
 20
92.8618
 11
2.12799
 21
92.739
  0
LINE
  8
0
 10
2.12799
 20
92.739
 11
2.10599
 21
92.6484
  0
LINE
  8
0
 10
2.10599
 20
92.6484
 11
2.07599
 21
92.524
  0
LINE
  8
0
 10
2.07599
 20
92.524
 11
2.04799
 21
92.4071
  0
LINE
  8
0
 10
2.04799
 20
92.4071
 11
2.01999
 21
92.2893
  0
LINE
  8
0
 10
2.01999
 20
92.2893
 11
1.99199
 21
92.1707
  0
LINE
  8
0
 10
1.99199
 20
92.1707
 11
1.96399
 21
92.0512
  0
LINE
  8
0
 10
1.96399
 20
92.0512
 11
1.93799
 21
91.9394
  0
LINE
  8
0
 10
1.93799
 20
91.9394
 11
1.91199
 21
91.8269
  0
LINE
  8
0
 10
1.91199
 20
91.8269
 11
1.87999
 21
91.6873
  0
LINE
  8
0
 10
1.87999
 20
91.6873
 11
1.842
 21
91.5199
  0
LINE
  8
0
 10
1.842
 20
91.5199
 11
1.812
 21
91.3865
  0
LINE
  8
0
 10
1.812
 20
91.3865
 11
1.77199
 21
91.2068
  0
LINE
  8
0
 10
1.77199
 20
91.2068
 11
1.74799
 21
91.098
  0
LINE
  8
0
 10
1.74799
 20
91.098
 11
1.71999
 21
90.97
  0
LINE
  8
0
 10
1.71999
 20
90.97
 11
1.69199
 21
90.841
  0
LINE
  8
0
 10
1.69199
 20
90.841
 11
1.66599
 21
90.7202
  0
LINE
  8
0
 10
1.66599
 20
90.7202
 11
1.62999
 21
90.5513
  0
LINE
  8
0
 10
1.62999
 20
90.5513
 11
1.59999
 21
90.4091
  0
LINE
  8
0
 10
1.59999
 20
90.4091
 11
1.57999
 21
90.3135
  0
LINE
  8
0
 10
1.57999
 20
90.3135
 11
1.54599
 21
90.1496
  0
LINE
  8
0
 10
1.54599
 20
90.1496
 11
1.51399
 21
89.9936
  0
LINE
  8
0
 10
1.51399
 20
89.9936
 11
1.478
 21
89.8161
  0
LINE
  8
0
 10
1.478
 20
89.8161
 11
1.43999
 21
89.6262
  0
LINE
  8
0
 10
1.43999
 20
89.6262
 11
1.40999
 21
89.4745
  0
LINE
  8
0
 10
1.40999
 20
89.4745
 11
1.38199
 21
89.3314
  0
LINE
  8
0
 10
1.38199
 20
89.3314
 11
1.35399
 21
89.1868
  0
LINE
  8
0
 10
1.35399
 20
89.1868
 11
1.33199
 21
89.0722
  0
LINE
  8
0
 10
1.33199
 20
89.0722
 11
1.30399
 21
88.9248
  0
LINE
  8
0
 10
1.30399
 20
88.9248
 11
1.284
 21
88.8185
  0
LINE
  8
0
 10
1.284
 20
88.8185
 11
1.258
 21
88.6791
  0
LINE
  8
0
 10
1.258
 20
88.6791
 11
1.24199
 21
88.5925
  0
LINE
  8
0
 10
1.24199
 20
88.5925
 11
1.22198
 21
88.4836
  0
LINE
  8
0
 10
1.22198
 20
88.4836
 11
1.19199
 21
88.3184
  0
LINE
  8
0
 10
1.19199
 20
88.3184
 11
1.16599
 21
88.1735
  0
LINE
  8
0
 10
1.16599
 20
88.1735
 11
1.13399
 21
87.9928
  0
LINE
  8
0
 10
1.13399
 20
87.9928
 11
1.10999
 21
87.8557
  0
LINE
  8
0
 10
1.10999
 20
87.8557
 11
1.08199
 21
87.6937
  0
LINE
  8
0
 10
1.08199
 20
87.6937
 11
1.05199
 21
87.5177
  0
LINE
  8
0
 10
1.05199
 20
87.5177
 11
1.02399
 21
87.3512
  0
LINE
  8
0
 10
1.02399
 20
87.3512
 11
0.993988
 21
87.1701
  0
LINE
  8
0
 10
0.993988
 20
87.1701
 11
0.969986
 21
87.0233
  0
LINE
  8
0
 10
0.969986
 20
87.0233
 11
0.941986
 21
86.8496
  0
LINE
  8
0
 10
0.941986
 20
86.8496
 11
0.915985
 21
86.6859
  0
LINE
  8
0
 10
0.915985
 20
86.6859
 11
0.883987
 21
86.4812
  0
LINE
  8
0
 10
0.883987
 20
86.4812
 11
0.857986
 21
86.3121
  0
LINE
  8
0
 10
0.857986
 20
86.3121
 11
0.831985
 21
86.1404
  0
LINE
  8
0
 10
0.831985
 20
86.1404
 11
0.801987
 21
85.9388
  0
LINE
  8
0
 10
0.801987
 20
85.9388
 11
0.76799
 21
85.7056
  0
LINE
  8
0
 10
0.76799
 20
85.7056
 11
0.743988
 21
85.5379
  0
LINE
  8
0
 10
0.743988
 20
85.5379
 11
0.713989
 21
85.3242
  0
LINE
  8
0
 10
0.713989
 20
85.3242
 11
0.681992
 21
85.0913
  0
LINE
  8
0
 10
0.681992
 20
85.0913
 11
0.653992
 21
84.8829
  0
LINE
  8
0
 10
0.653992
 20
84.8829
 11
0.625992
 21
84.67
  0
LINE
  8
0
 10
0.625992
 20
84.67
 11
0.599991
 21
84.4678
  0
LINE
  8
0
 10
0.599991
 20
84.4678
 11
0.57399
 21
84.2612
  0
LINE
  8
0
 10
0.57399
 20
84.2612
 11
0.551987
 21
84.0827
  0
LINE
  8
0
 10
0.551987
 20
84.0827
 11
0.525986
 21
83.867
  0
LINE
  8
0
 10
0.525986
 20
83.867
 11
0.503998
 21
83.6802
  0
LINE
  8
0
 10
0.503998
 20
83.6802
 11
0.483994
 21
83.5068
  0
LINE
  8
0
 10
0.483994
 20
83.5068
 11
0.463989
 21
83.3297
  0
LINE
  8
0
 10
0.463989
 20
83.3297
 11
0.443985
 21
83.1488
  0
LINE
  8
0
 10
0.443985
 20
83.1488
 11
0.423996
 21
82.9637
  0
LINE
  8
0
 10
0.423996
 20
82.9637
 11
0.405991
 21
82.7933
  0
LINE
  8
0
 10
0.405991
 20
82.7933
 11
0.387985
 21
82.619
  0
LINE
  8
0
 10
0.387985
 20
82.619
 11
0.369995
 21
82.4406
  0
LINE
  8
0
 10
0.369995
 20
82.4406
 11
0.353989
 21
82.2784
  0
LINE
  8
0
 10
0.353989
 20
82.2784
 11
0.337997
 21
82.1124
  0
LINE
  8
0
 10
0.337997
 20
82.1124
 11
0.32399
 21
81.9638
  0
LINE
  8
0
 10
0.32399
 20
81.9638
 11
0.309998
 21
81.812
  0
LINE
  8
0
 10
0.309998
 20
81.812
 11
0.297989
 21
81.6792
  0
LINE
  8
0
 10
0.297989
 20
81.6792
 11
0.283997
 21
81.5207
  0
LINE
  8
0
 10
0.283997
 20
81.5207
 11
0.271988
 21
81.3817
  0
LINE
  8
0
 10
0.271988
 20
81.3817
 11
0.259995
 21
81.2396
  0
LINE
  8
0
 10
0.259995
 20
81.2396
 11
0.247986
 21
81.0941
  0
LINE
  8
0
 10
0.247986
 20
81.0941
 11
0.235992
 21
80.9451
  0
LINE
  8
0
 10
0.235992
 20
80.9451
 11
0.225998
 21
80.818
  0
LINE
  8
0
 10
0.225998
 20
80.818
 11
0.217987
 21
80.7142
  0
LINE
  8
0
 10
0.217987
 20
80.7142
 11
0.207993
 21
80.5818
  0
LINE
  8
0
 10
0.207993
 20
80.5818
 11
0.197998
 21
80.4462
  0
LINE
  8
0
 10
0.197998
 20
80.4462
 11
0.189987
 21
80.3351
  0
LINE
  8
0
 10
0.189987
 20
80.3351
 11
0.181992
 21
80.2218
  0
LINE
  8
0
 10
0.181992
 20
80.2218
 11
0.173996
 21
80.1059
  0
LINE
  8
0
 10
0.173996
 20
80.1059
 11
0.165985
 21
79.9872
  0
LINE
  8
0
 10
0.165985
 20
79.9872
 11
0.15799
 21
79.8657
  0
LINE
  8
0
 10
0.15799
 20
79.8657
 11
0.149994
 21
79.741
  0
LINE
  8
0
 10
0.149994
 20
79.741
 11
0.141998
 21
79.613
  0
LINE
  8
0
 10
0.141998
 20
79.613
 11
0.135986
 21
79.5146
  0
LINE
  8
0
 10
0.135986
 20
79.5146
 11
0.12999
 21
79.414
  0
LINE
  8
0
 10
0.12999
 20
79.414
 11
0.123993
 21
79.311
  0
LINE
  8
0
 10
0.123993
 20
79.311
 11
0.117996
 21
79.2055
  0
LINE
  8
0
 10
0.117996
 20
79.2055
 11
0.109985
 21
79.0605
  0
LINE
  8
0
 10
0.109985
 20
79.0605
 11
0.103989
 21
78.9483
  0
LINE
  8
0
 10
0.103989
 20
78.9483
 11
0.0979919
 21
78.8328
  0
LINE
  8
0
 10
0.0979919
 20
78.8328
 11
0.0919952
 21
78.7137
  0
LINE
  8
0
 10
0.0919952
 20
78.7137
 11
0.0879974
 21
78.6321
  0
LINE
  8
0
 10
0.0879974
 20
78.6321
 11
0.0819855
 21
78.5062
  0
LINE
  8
0
 10
0.0819855
 20
78.5062
 11
0.0779877
 21
78.4196
  0
LINE
  8
0
 10
0.0779877
 20
78.4196
 11
0.0739899
 21
78.3308
  0
LINE
  8
0
 10
0.0739899
 20
78.3308
 11
0.0699921
 21
78.2396
  0
LINE
  8
0
 10
0.0699921
 20
78.2396
 11
0.0659943
 21
78.1457
  0
LINE
  8
0
 10
0.0659943
 20
78.1457
 11
0.0619965
 21
78.049
  0
LINE
  8
0
 10
0.0619965
 20
78.049
 11
0.0579987
 21
77.949
  0
LINE
  8
0
 10
0.0579987
 20
77.949
 11
0.0539856
 21
77.8455
  0
LINE
  8
0
 10
0.0539856
 20
77.8455
 11
0.0499878
 21
77.7381
  0
LINE
  8
0
 10
0.0499878
 20
77.7381
 11
0.04599
 21
77.6264
  0
LINE
  8
0
 10
0.04599
 20
77.6264
 11
0.0439911
 21
77.5687
  0
LINE
  8
0
 10
0.0439911
 20
77.5687
 11
0.0419922
 21
77.5096
  0
LINE
  8
0
 10
0.0419922
 20
77.5096
 11
0.0399933
 21
77.4492
  0
LINE
  8
0
 10
0.0399933
 20
77.4492
 11
0.0379944
 21
77.3872
  0
LINE
  8
0
 10
0.0379944
 20
77.3872
 11
0.0359955
 21
77.3235
  0
LINE
  8
0
 10
0.0359955
 20
77.3235
 11
0.0339966
 21
77.2581
  0
LINE
  8
0
 10
0.0339966
 20
77.2581
 11
0.0319977
 21
77.1906
  0
LINE
  8
0
 10
0.0319977
 20
77.1906
 11
0.0299988
 21
77.1211
  0
LINE
  8
0
 10
0.0299988
 20
77.1211
 11
0.0279999
 21
77.0492
  0
LINE
  8
0
 10
0.0279999
 20
77.0492
 11
0.0259857
 21
76.9747
  0
LINE
  8
0
 10
0.0259857
 20
76.9747
 11
0.0239868
 21
76.8972
  0
LINE
  8
0
 10
0.0239868
 20
76.8972
 11
0.0219879
 21
76.8165
  0
LINE
  8
0
 10
0.0219879
 20
76.8165
 11
0.019989
 21
76.7319
  0
LINE
  8
0
 10
0.019989
 20
76.7319
 11
0.0179901
 21
76.6431
  0
LINE
  8
0
 10
0.0179901
 20
76.6431
 11
0.0159912
 21
76.5491
  0
LINE
  8
0
 10
0.0159912
 20
76.5491
 11
0.0139923
 21
76.4491
  0
LINE
  8
0
 10
0.0139923
 20
76.4491
 11
0.0119934
 21
76.3416
  0
LINE
  8
0
 10
0.0119934
 20
76.3416
 11
0.00999451
 21
76.2247
  0
LINE
  8
0
 10
0.00999451
 20
76.2247
 11
0.00799561
 21
76.0954
  0
LINE
  8
0
 10
0.00799561
 20
76.0954
 11
0.0059967
 21
75.9487
  0
LINE
  8
0
 10
0.0059967
 20
75.9487
 11
0.0039978
 21
75.7746
  0
LINE
  8
0
 10
0.0039978
 20
75.7746
 11
0.0019989
 21
75.5477
  0
LINE
  8
0
 10
0.0019989
 20
75.5477
 11
0
 21
75
  0
LINE
  8
0
 10
0
 20
75
 11
0
 21
0
  0
LINE
  8
0
 10
0
 20
0
 11
250
 21
0
  0
LINE
  8
0
 10
250
 20
0
 11
250
 21
75
  0
LINE
  8
0
 10
69.838
 20
35.0006
 11
69.782
 21
35.0012
  0
LINE
  8
0
 10
69.782
 20
35.0012
 11
69.656
 21
35.0029
  0
LINE
  8
0
 10
69.656
 20
35.0029
 11
69.53
 21
35.0055
  0
LINE
  8
0
 10
69.53
 20
35.0055
 11
69.476
 21
35.0069
  0
LINE
  8
0
 10
69.476
 20
35.0069
 11
69.346
 21
35.0107
  0
LINE
  8
0
 10
69.346
 20
35.0107
 11
69.224
 21
35.015
  0
LINE
  8
0
 10
69.224
 20
35.015
 11
69.176
 21
35.017
  0
LINE
  8
0
 10
69.176
 20
35.017
 11
69.046
 21
35.0228
  0
LINE
  8
0
 10
69.046
 20
35.0228
 11
68.918
 21
35.0293
  0
LINE
  8
0
 10
68.918
 20
35.0293
 11
68.874
 21
35.0317
  0
LINE
  8
0
 10
68.874
 20
35.0317
 11
68.738
 21
35.0398
  0
LINE
  8
0
 10
68.738
 20
35.0398
 11
68.618
 21
35.0478
  0
LINE
  8
0
 10
68.618
 20
35.0478
 11
68.564
 21
35.0516
  0
LINE
  8
0
 10
68.564
 20
35.0516
 11
68.436
 21
35.0612
  0
LINE
  8
0
 10
68.436
 20
35.0612
 11
68.288
 21
35.0734
  0
LINE
  8
0
 10
68.288
 20
35.0734
 11
68.168
 21
35.0841
  0
LINE
  8
0
 10
68.168
 20
35.0841
 11
68.118
 21
35.0887
  0
LINE
  8
0
 10
68.118
 20
35.0887
 11
67.984
 21
35.1019
  0
LINE
  8
0
 10
67.984
 20
35.1019
 11
67.862
 21
35.1146
  0
LINE
  8
0
 10
67.862
 20
35.1146
 11
67.8
 21
35.1214
  0
LINE
  8
0
 10
67.8
 20
35.1214
 11
67.684
 21
35.1345
  0
LINE
  8
0
 10
67.684
 20
35.1345
 11
67.538
 21
35.1521
  0
LINE
  8
0
 10
67.538
 20
35.1521
 11
67.418
 21
35.1674
  0
LINE
  8
0
 10
67.418
 20
35.1674
 11
67.366
 21
35.1742
  0
LINE
  8
0
 10
67.366
 20
35.1742
 11
67.238
 21
35.1916
  0
LINE
  8
0
 10
67.238
 20
35.1916
 11
67.086
 21
35.2134
  0
LINE
  8
0
 10
67.086
 20
35.2134
 11
66.95
 21
35.2339
  0
LINE
  8
0
 10
66.95
 20
35.2339
 11
66.81
 21
35.256
  0
LINE
  8
0
 10
66.81
 20
35.256
 11
66.668
 21
35.2795
  0
LINE
  8
0
 10
66.668
 20
35.2795
 11
66.626
 21
35.2866
  0
LINE
  8
0
 10
66.626
 20
35.2866
 11
66.504
 21
35.3079
  0
LINE
  8
0
 10
66.504
 20
35.3079
 11
66.39
 21
35.3285
  0
LINE
  8
0
 10
66.39
 20
35.3285
 11
66.342
 21
35.3374
  0
LINE
  8
0
 10
66.342
 20
35.3374
 11
66.206
 21
35.3631
  0
LINE
  8
0
 10
66.206
 20
35.3631
 11
66.092
 21
35.3855
  0
LINE
  8
0
 10
66.092
 20
35.3855
 11
66.048
 21
35.3943
  0
LINE
  8
0
 10
66.048
 20
35.3943
 11
65.922
 21
35.4202
  0
LINE
  8
0
 10
65.922
 20
35.4202
 11
65.784
 21
35.4494
  0
LINE
  8
0
 10
65.784
 20
35.4494
 11
65.668
 21
35.4748
  0
LINE
  8
0
 10
65.668
 20
35.4748
 11
65.62
 21
35.4855
  0
LINE
  8
0
 10
65.62
 20
35.4855
 11
65.49
 21
35.5151
  0
LINE
  8
0
 10
65.49
 20
35.5151
 11
65.39
 21
35.5385
  0
LINE
  8
0
 10
65.39
 20
35.5385
 11
65.328
 21
35.5533
  0
LINE
  8
0
 10
65.328
 20
35.5533
 11
65.224
 21
35.5786
  0
LINE
  8
0
 10
65.224
 20
35.5786
 11
65.078
 21
35.6151
  0
LINE
  8
0
 10
65.078
 20
35.6151
 11
64.938
 21
35.6512
  0
LINE
  8
0
 10
64.938
 20
35.6512
 11
64.834
 21
35.6787
  0
LINE
  8
0
 10
64.834
 20
35.6787
 11
64.772
 21
35.6954
  0
LINE
  8
0
 10
64.772
 20
35.6954
 11
64.674
 21
35.7222
  0
LINE
  8
0
 10
64.674
 20
35.7222
 11
64.532
 21
35.762
  0
LINE
  8
0
 10
64.532
 20
35.762
 11
64.418
 21
35.7948
  0
LINE
  8
0
 10
64.418
 20
35.7948
 11
64.37
 21
35.8088
  0
LINE
  8
0
 10
64.37
 20
35.8088
 11
64.244
 21
35.8462
  0
LINE
  8
0
 10
64.244
 20
35.8462
 11
64.126
 21
35.882
  0
LINE
  8
0
 10
64.126
 20
35.882
 11
63.992
 21
35.9237
  0
LINE
  8
0
 10
63.992
 20
35.9237
 11
63.864
 21
35.9645
  0
LINE
  8
0
 10
63.864
 20
35.9645
 11
63.75
 21
36.0016
  0
LINE
  8
0
 10
63.75
 20
36.0016
 11
63.712
 21
36.0142
  0
LINE
  8
0
 10
63.712
 20
36.0142
 11
63.588
 21
36.0557
  0
LINE
  8
0
 10
63.588
 20
36.0557
 11
63.454
 21
36.1016
  0
LINE
  8
0
 10
63.454
 20
36.1016
 11
63.328
 21
36.1457
  0
LINE
  8
0
 10
63.328
 20
36.1457
 11
63.216
 21
36.1857
  0
LINE
  8
0
 10
63.216
 20
36.1857
 11
63.09
 21
36.2316
  0
LINE
  8
0
 10
63.09
 20
36.2316
 11
62.962
 21
36.2792
  0
LINE
  8
0
 10
62.962
 20
36.2792
 11
62.836
 21
36.3271
  0
LINE
  8
0
 10
62.836
 20
36.3271
 11
62.73
 21
36.3681
  0
LINE
  8
0
 10
62.73
 20
36.3681
 11
62.69
 21
36.3838
  0
LINE
  8
0
 10
62.69
 20
36.3838
 11
62.596
 21
36.4209
  0
LINE
  8
0
 10
62.596
 20
36.4209
 11
62.474
 21
36.47
  0
LINE
  8
0
 10
62.474
 20
36.47
 11
62.362
 21
36.5159
  0
LINE
  8
0
 10
62.362
 20
36.5159
 11
62.328
 21
36.53
  0
LINE
  8
0
 10
62.328
 20
36.53
 11
62.228
 21
36.5719
  0
LINE
  8
0
 10
62.228
 20
36.5719
 11
62.116
 21
36.6195
  0
LINE
  8
0
 10
62.116
 20
36.6195
 11
62.004
 21
36.6679
  0
LINE
  8
0
 10
62.004
 20
36.6679
 11
61.868
 21
36.7279
  0
LINE
  8
0
 10
61.868
 20
36.7279
 11
61.754
 21
36.779
  0
LINE
  8
0
 10
61.754
 20
36.779
 11
61.65
 21
36.8264
  0
LINE
  8
0
 10
61.65
 20
36.8264
 11
61.53
 21
36.8821
  0
LINE
  8
0
 10
61.53
 20
36.8821
 11
61.418
 21
36.9348
  0
LINE
  8
0
 10
61.418
 20
36.9348
 11
61.306
 21
36.9885
  0
LINE
  8
0
 10
61.306
 20
36.9885
 11
61.196
 21
37.042
  0
LINE
  8
0
 10
61.196
 20
37.042
 11
61.084
 21
37.0973
  0
LINE
  8
0
 10
61.084
 20
37.0973
 11
60.974
 21
37.1525
  0
LINE
  8
0
 10
60.974
 20
37.1525
 11
60.868
 21
37.2065
  0
LINE
  8
0
 10
60.868
 20
37.2065
 11
60.766
 21
37.2593
  0
LINE
  8
0
 10
60.766
 20
37.2593
 11
60.648
 21
37.3212
  0
LINE
  8
0
 10
60.648
 20
37.3212
 11
60.546
 21
37.3755
  0
LINE
  8
0
 10
60.546
 20
37.3755
 11
60.45
 21
37.4274
  0
LINE
  8
0
 10
60.45
 20
37.4274
 11
60.348
 21
37.4832
  0
LINE
  8
0
 10
60.348
 20
37.4832
 11
60.254
 21
37.5353
  0
LINE
  8
0
 10
60.254
 20
37.5353
 11
60.142
 21
37.5983
  0
LINE
  8
0
 10
60.142
 20
37.5983
 11
60.032
 21
37.661
  0
LINE
  8
0
 10
60.032
 20
37.661
 11
59.946
 21
37.7108
  0
LINE
  8
0
 10
59.946
 20
37.7108
 11
59.85
 21
37.767
  0
LINE
  8
0
 10
59.85
 20
37.767
 11
59.756
 21
37.8227
  0
LINE
  8
0
 10
59.756
 20
37.8227
 11
59.65
 21
37.8863
  0
LINE
  8
0
 10
59.65
 20
37.8863
 11
59.548
 21
37.9484
  0
LINE
  8
0
 10
59.548
 20
37.9484
 11
59.458
 21
38.0039
  0
LINE
  8
0
 10
59.458
 20
38.0039
 11
59.362
 21
38.0638
  0
LINE
  8
0
 10
59.362
 20
38.0638
 11
59.27
 21
38.122
  0
LINE
  8
0
 10
59.27
 20
38.122
 11
59.18
 21
38.1795
  0
LINE
  8
0
 10
59.18
 20
38.1795
 11
59.094
 21
38.2352
  0
LINE
  8
0
 10
59.094
 20
38.2352
 11
59
 21
38.2967
  0
LINE
  8
0
 10
59
 20
38.2967
 11
58.918
 21
38.351
  0
LINE
  8
0
 10
58.918
 20
38.351
 11
58.84
 21
38.4032
  0
LINE
  8
0
 10
58.84
 20
38.4032
 11
58.754
 21
38.4613
  0
LINE
  8
0
 10
58.754
 20
38.4613
 11
58.658
 21
38.527
  0
LINE
  8
0
 10
58.658
 20
38.527
 11
58.574
 21
38.5852
  0
LINE
  8
0
 10
58.574
 20
38.5852
 11
58.482
 21
38.6496
  0
LINE
  8
0
 10
58.482
 20
38.6496
 11
58.4
 21
38.7077
  0
LINE
  8
0
 10
58.4
 20
38.7077
 11
58.322
 21
38.7635
  0
LINE
  8
0
 10
58.322
 20
38.7635
 11
58.25
 21
38.8155
  0
LINE
  8
0
 10
58.25
 20
38.8155
 11
58.16
 21
38.8812
  0
LINE
  8
0
 10
58.16
 20
38.8812
 11
58.092
 21
38.9314
  0
LINE
  8
0
 10
58.092
 20
38.9314
 11
58.008
 21
38.994
  0
LINE
  8
0
 10
58.008
 20
38.994
 11
57.926
 21
39.0558
  0
LINE
  8
0
 10
57.926
 20
39.0558
 11
57.862
 21
39.1044
  0
LINE
  8
0
 10
57.862
 20
39.1044
 11
57.78
 21
39.1674
  0
LINE
  8
0
 10
57.78
 20
39.1674
 11
57.698
 21
39.231
  0
LINE
  8
0
 10
57.698
 20
39.231
 11
57.632
 21
39.2827
  0
LINE
  8
0
 10
57.632
 20
39.2827
 11
57.548
 21
39.3492
  0
LINE
  8
0
 10
57.548
 20
39.3492
 11
57.484
 21
39.4003
  0
LINE
  8
0
 10
57.484
 20
39.4003
 11
57.418
 21
39.4535
  0
LINE
  8
0
 10
57.418
 20
39.4535
 11
57.338
 21
39.5186
  0
LINE
  8
0
 10
57.338
 20
39.5186
 11
57.264
 21
39.5794
  0
LINE
  8
0
 10
57.264
 20
39.5794
 11
57.198
 21
39.6342
  0
LINE
  8
0
 10
57.198
 20
39.6342
 11
57.126
 21
39.6944
  0
LINE
  8
0
 10
57.126
 20
39.6944
 11
57.062
 21
39.7485
  0
LINE
  8
0
 10
57.062
 20
39.7485
 11
56.99
 21
39.8099
  0
LINE
  8
0
 10
56.99
 20
39.8099
 11
56.924
 21
39.8666
  0
LINE
  8
0
 10
56.924
 20
39.8666
 11
56.868
 21
39.9152
  0
LINE
  8
0
 10
56.868
 20
39.9152
 11
56.792
 21
39.9817
  0
LINE
  8
0
 10
56.792
 20
39.9817
 11
56.734
 21
40.0329
  0
LINE
  8
0
 10
56.734
 20
40.0329
 11
56.66
 21
40.0988
  0
LINE
  8
0
 10
56.66
 20
40.0988
 11
56.592
 21
40.16
  0
LINE
  8
0
 10
56.592
 20
40.16
 11
56.484
 21
40.2583
  0
LINE
  8
0
 10
56.484
 20
40.2583
 11
56.424
 21
40.3135
  0
LINE
  8
0
 10
56.424
 20
40.3135
 11
56.362
 21
40.3711
  0
LINE
  8
0
 10
56.362
 20
40.3711
 11
56.306
 21
40.4235
  0
LINE
  8
0
 10
56.306
 20
40.4235
 11
56.238
 21
40.4877
  0
LINE
  8
0
 10
56.238
 20
40.4877
 11
56.166
 21
40.5563
  0
LINE
  8
0
 10
56.166
 20
40.5563
 11
56.07
 21
40.6488
  0
LINE
  8
0
 10
56.07
 20
40.6488
 11
56.018
 21
40.6995
  0
LINE
  8
0
 10
56.018
 20
40.6995
 11
55.956
 21
40.7604
  0
LINE
  8
0
 10
55.956
 20
40.7604
 11
55.908
 21
40.8079
  0
LINE
  8
0
 10
55.908
 20
40.8079
 11
55.848
 21
40.8677
  0
LINE
  8
0
 10
55.848
 20
40.8677
 11
55.806
 21
40.9099
  0
LINE
  8
0
 10
55.806
 20
40.9099
 11
55.75
 21
40.9666
  0
LINE
  8
0
 10
55.75
 20
40.9666
 11
55.696
 21
41.0216
  0
LINE
  8
0
 10
55.696
 20
41.0216
 11
55.646
 21
41.0729
  0
LINE
  8
0
 10
55.646
 20
41.0729
 11
55.588
 21
41.133
  0
LINE
  8
0
 10
55.588
 20
41.133
 11
55.538
 21
41.1851
  0
LINE
  8
0
 10
55.538
 20
41.1851
 11
55.486
 21
41.2398
  0
LINE
  8
0
 10
55.486
 20
41.2398
 11
55.436
 21
41.2927
  0
LINE
  8
0
 10
55.436
 20
41.2927
 11
55.39
 21
41.3417
  0
LINE
  8
0
 10
55.39
 20
41.3417
 11
55.328
 21
41.4084
  0
LINE
  8
0
 10
55.328
 20
41.4084
 11
55.252
 21
41.4909
  0
LINE
  8
0
 10
55.252
 20
41.4909
 11
55.198
 21
41.55
  0
LINE
  8
0
 10
55.198
 20
41.55
 11
55.154
 21
41.5986
  0
LINE
  8
0
 10
55.154
 20
41.5986
 11
55.112
 21
41.6453
  0
LINE
  8
0
 10
55.112
 20
41.6453
 11
55.06
 21
41.7035
  0
LINE
  8
0
 10
55.06
 20
41.7035
 11
55.014
 21
41.7554
  0
LINE
  8
0
 10
55.014
 20
41.7554
 11
54.976
 21
41.7985
  0
LINE
  8
0
 10
54.976
 20
41.7985
 11
54.93
 21
41.851
  0
LINE
  8
0
 10
54.93
 20
41.851
 11
54.88
 21
41.9086
  0
LINE
  8
0
 10
54.88
 20
41.9086
 11
54.806
 21
41.9945
  0
LINE
  8
0
 10
54.806
 20
41.9945
 11
54.76
 21
42.0484
  0
LINE
  8
0
 10
54.76
 20
42.0484
 11
54.682
 21
42.1408
  0
LINE
  8
0
 10
54.682
 20
42.1408
 11
54.64
 21
42.191
  0
LINE
  8
0
 10
54.64
 20
42.191
 11
54.602
 21
42.2367
  0
LINE
  8
0
 10
54.602
 20
42.2367
 11
54.548
 21
42.3021
  0
LINE
  8
0
 10
54.548
 20
42.3021
 11
54.48
 21
42.3853
  0
LINE
  8
0
 10
54.48
 20
42.3853
 11
54.416
 21
42.4645
  0
LINE
  8
0
 10
54.416
 20
42.4645
 11
54.37
 21
42.5219
  0
LINE
  8
0
 10
54.37
 20
42.5219
 11
54.322
 21
42.5822
  0
LINE
  8
0
 10
54.322
 20
42.5822
 11
54.256
 21
42.666
  0
LINE
  8
0
 10
54.256
 20
42.666
 11
54.226
 21
42.7044
  0
LINE
  8
0
 10
54.226
 20
42.7044
 11
54.166
 21
42.7818
  0
LINE
  8
0
 10
54.166
 20
42.7818
 11
54.122
 21
42.839
  0
LINE
  8
0
 10
54.122
 20
42.839
 11
54.084
 21
42.8888
  0
LINE
  8
0
 10
54.084
 20
42.8888
 11
54.056
 21
42.9257
  0
LINE
  8
0
 10
54.056
 20
42.9257
 11
54.016
 21
42.9787
  0
LINE
  8
0
 10
54.016
 20
42.9787
 11
53.986
 21
43.0187
  0
LINE
  8
0
 10
53.986
 20
43.0187
 11
53.952
 21
43.0643
  0
LINE
  8
0
 10
53.952
 20
43.0643
 11
53.918
 21
43.1101
  0
LINE
  8
0
 10
53.918
 20
43.1101
 11
53.878
 21
43.1644
  0
LINE
  8
0
 10
53.878
 20
43.1644
 11
53.824
 21
43.2383
  0
LINE
  8
0
 10
53.824
 20
43.2383
 11
53.764
 21
43.3213
  0
LINE
  8
0
 10
53.764
 20
43.3213
 11
53.732
 21
43.3659
  0
LINE
  8
0
 10
53.732
 20
43.3659
 11
53.7
 21
43.4108
  0
LINE
  8
0
 10
53.7
 20
43.4108
 11
53.666
 21
43.4587
  0
LINE
  8
0
 10
53.666
 20
43.4587
 11
53.614
 21
43.5327
  0
LINE
  8
0
 10
53.614
 20
43.5327
 11
53.586
 21
43.5728
  0
LINE
  8
0
 10
53.586
 20
43.5728
 11
53.556
 21
43.616
  0
LINE
  8
0
 10
53.556
 20
43.616
 11
53.502
 21
43.6944
  0
LINE
  8
0
 10
53.502
 20
43.6944
 11
53.474
 21
43.7354
  0
LINE
  8
0
 10
53.474
 20
43.7354
 11
53.448
 21
43.7736
  0
LINE
  8
0
 10
53.448
 20
43.7736
 11
53.42
 21
43.815
  0
LINE
  8
0
 10
53.42
 20
43.815
 11
53.394
 21
43.8537
  0
LINE
  8
0
 10
53.394
 20
43.8537
 11
53.368
 21
43.8925
  0
LINE
  8
0
 10
53.368
 20
43.8925
 11
53.342
 21
43.9315
  0
LINE
  8
0
 10
53.342
 20
43.9315
 11
53.304
 21
43.9889
  0
LINE
  8
0
 10
53.304
 20
43.9889
 11
53.268
 21
44.0437
  0
LINE
  8
0
 10
53.268
 20
44.0437
 11
53.214
 21
44.1266
  0
LINE
  8
0
 10
53.214
 20
44.1266
 11
53.168
 21
44.198
  0
LINE
  8
0
 10
53.168
 20
44.198
 11
53.14
 21
44.2417
  0
LINE
  8
0
 10
53.14
 20
44.2417
 11
53.094
 21
44.3141
  0
LINE
  8
0
 10
53.094
 20
44.3141
 11
53.054
 21
44.3777
  0
LINE
  8
0
 10
53.054
 20
44.3777
 11
52.998
 21
44.4676
  0
LINE
  8
0
 10
52.998
 20
44.4676
 11
52.964
 21
44.5226
  0
LINE
  8
0
 10
52.964
 20
44.5226
 11
52.918
 21
44.5978
  0
LINE
  8
0
 10
52.918
 20
44.5978
 11
52.874
 21
44.6704
  0
LINE
  8
0
 10
52.874
 20
44.6704
 11
52.834
 21
44.737
  0
LINE
  8
0
 10
52.834
 20
44.737
 11
52.792
 21
44.8076
  0
LINE
  8
0
 10
52.792
 20
44.8076
 11
52.75
 21
44.8788
  0
LINE
  8
0
 10
52.75
 20
44.8788
 11
52.73
 21
44.913
  0
LINE
  8
0
 10
52.73
 20
44.913
 11
52.696
 21
44.9715
  0
LINE
  8
0
 10
52.696
 20
44.9715
 11
52.656
 21
45.0408
  0
LINE
  8
0
 10
52.656
 20
45.0408
 11
52.614
 21
45.1143
  0
LINE
  8
0
 10
52.614
 20
45.1143
 11
52.554
 21
45.2206
  0
LINE
  8
0
 10
52.554
 20
45.2206
 11
52.526
 21
45.2707
  0
LINE
  8
0
 10
52.526
 20
45.2707
 11
52.474
 21
45.3647
  0
LINE
  8
0
 10
52.474
 20
45.3647
 11
52.446
 21
45.4158
  0
LINE
  8
0
 10
52.446
 20
45.4158
 11
52.41
 21
45.482
  0
LINE
  8
0
 10
52.41
 20
45.482
 11
52.374
 21
45.5488
  0
LINE
  8
0
 10
52.374
 20
45.5488
 11
52.342
 21
45.6088
  0
LINE
  8
0
 10
52.342
 20
45.6088
 11
52.314
 21
45.6616
  0
LINE
  8
0
 10
52.314
 20
45.6616
 11
52.276
 21
45.7339
  0
LINE
  8
0
 10
52.276
 20
45.7339
 11
52.252
 21
45.78
  0
LINE
  8
0
 10
52.252
 20
45.78
 11
52.222
 21
45.838
  0
LINE
  8
0
 10
52.222
 20
45.838
 11
52.18
 21
45.9199
  0
LINE
  8
0
 10
52.18
 20
45.9199
 11
52.138
 21
46.0028
  0
LINE
  8
0
 10
52.138
 20
46.0028
 11
52.094
 21
46.0907
  0
LINE
  8
0
 10
52.094
 20
46.0907
 11
52.07
 21
46.1391
  0
LINE
  8
0
 10
52.07
 20
46.1391
 11
52.028
 21
46.2246
  0
LINE
  8
0
 10
52.028
 20
46.2246
 11
52.002
 21
46.2781
  0
LINE
  8
0
 10
52.002
 20
46.2781
 11
51.968
 21
46.3486
  0
LINE
  8
0
 10
51.968
 20
46.3486
 11
51.918
 21
46.4536
  0
LINE
  8
0
 10
51.918
 20
46.4536
 11
51.894
 21
46.5045
  0
LINE
  8
0
 10
51.894
 20
46.5045
 11
51.868
 21
46.5602
  0
LINE
  8
0
 10
51.868
 20
46.5602
 11
51.832
 21
46.638
  0
LINE
  8
0
 10
51.832
 20
46.638
 11
51.792
 21
46.7254
  0
LINE
  8
0
 10
51.792
 20
46.7254
 11
51.76
 21
46.7962
  0
LINE
  8
0
 10
51.76
 20
46.7962
 11
51.728
 21
46.8677
  0
LINE
  8
0
 10
51.728
 20
46.8677
 11
51.708
 21
46.9128
  0
LINE
  8
0
 10
51.708
 20
46.9128
 11
51.678
 21
46.981
  0
LINE
  8
0
 10
51.678
 20
46.981
 11
51.658
 21
47.0268
  0
LINE
  8
0
 10
51.658
 20
47.0268
 11
51.63
 21
47.0916
  0
LINE
  8
0
 10
51.63
 20
47.0916
 11
51.612
 21
47.1335
  0
LINE
  8
0
 10
51.612
 20
47.1335
 11
51.582
 21
47.204
  0
LINE
  8
0
 10
51.582
 20
47.204
 11
51.554
 21
47.2705
  0
LINE
  8
0
 10
51.554
 20
47.2705
 11
51.53
 21
47.328
  0
LINE
  8
0
 10
51.53
 20
47.328
 11
51.498
 21
47.4055
  0
LINE
  8
0
 10
51.498
 20
47.4055
 11
51.466
 21
47.4839
  0
LINE
  8
0
 10
51.466
 20
47.4839
 11
51.432
 21
47.5683
  0
LINE
  8
0
 10
51.432
 20
47.5683
 11
51.408
 21
47.6286
  0
LINE
  8
0
 10
51.408
 20
47.6286
 11
51.394
 21
47.664
  0
LINE
  8
0
 10
51.394
 20
47.664
 11
51.37
 21
47.7252
  0
LINE
  8
0
 10
51.37
 20
47.7252
 11
51.348
 21
47.7818
  0
LINE
  8
0
 10
51.348
 20
47.7818
 11
51.332
 21
47.8232
  0
LINE
  8
0
 10
51.332
 20
47.8232
 11
51.304
 21
47.8965
  0
LINE
  8
0
 10
51.304
 20
47.8965
 11
51.28
 21
47.96
  0
LINE
  8
0
 10
51.28
 20
47.96
 11
51.262
 21
48.008
  0
LINE
  8
0
 10
51.262
 20
48.008
 11
51.222
 21
48.1162
  0
LINE
  8
0
 10
51.222
 20
48.1162
 11
51.186
 21
48.2152
  0
LINE
  8
0
 10
51.186
 20
48.2152
 11
51.168
 21
48.2653
  0
LINE
  8
0
 10
51.168
 20
48.2653
 11
51.144
 21
48.3328
  0
LINE
  8
0
 10
51.144
 20
48.3328
 11
51.124
 21
48.3896
  0
LINE
  8
0
 10
51.124
 20
48.3896
 11
51.096
 21
48.4702
  0
LINE
  8
0
 10
51.096
 20
48.4702
 11
51.074
 21
48.5342
  0
LINE
  8
0
 10
51.074
 20
48.5342
 11
51.054
 21
48.593
  0
LINE
  8
0
 10
51.054
 20
48.593
 11
51.034
 21
48.6525
  0
LINE
  8
0
 10
51.034
 20
48.6525
 11
51.014
 21
48.7126
  0
LINE
  8
0
 10
51.014
 20
48.7126
 11
50.998
 21
48.7611
  0
LINE
  8
0
 10
50.998
 20
48.7611
 11
50.978
 21
48.8223
  0
LINE
  8
0
 10
50.978
 20
48.8223
 11
50.956
 21
48.8905
  0
LINE
  8
0
 10
50.956
 20
48.8905
 11
50.934
 21
48.9595
  0
LINE
  8
0
 10
50.934
 20
48.9595
 11
50.91
 21
49.0358
  0
LINE
  8
0
 10
50.91
 20
49.0358
 11
50.888
 21
49.1067
  0
LINE
  8
0
 10
50.888
 20
49.1067
 11
50.87
 21
49.1653
  0
LINE
  8
0
 10
50.87
 20
49.1653
 11
50.852
 21
49.2247
  0
LINE
  8
0
 10
50.852
 20
49.2247
 11
50.832
 21
49.2914
  0
LINE
  8
0
 10
50.832
 20
49.2914
 11
50.812
 21
49.359
  0
LINE
  8
0
 10
50.812
 20
49.359
 11
50.796
 21
49.4137
  0
LINE
  8
0
 10
50.796
 20
49.4137
 11
50.776
 21
49.4829
  0
LINE
  8
0
 10
50.776
 20
49.4829
 11
50.76
 21
49.539
  0
LINE
  8
0
 10
50.76
 20
49.539
 11
50.738
 21
49.6171
  0
LINE
  8
0
 10
50.738
 20
49.6171
 11
50.722
 21
49.6747
  0
LINE
  8
0
 10
50.722
 20
49.6747
 11
50.708
 21
49.7256
  0
LINE
  8
0
 10
50.708
 20
49.7256
 11
50.688
 21
49.7993
  0
LINE
  8
0
 10
50.688
 20
49.7993
 11
50.672
 21
49.8591
  0
LINE
  8
0
 10
50.672
 20
49.8591
 11
50.654
 21
49.9273
  0
LINE
  8
0
 10
50.654
 20
49.9273
 11
50.632
 21
50.0119
  0
LINE
  8
0
 10
50.632
 20
50.0119
 11
50.61
 21
50.0982
  0
LINE
  8
0
 10
50.61
 20
50.0982
 11
50.598
 21
50.1459
  0
LINE
  8
0
 10
50.598
 20
50.1459
 11
50.584
 21
50.2022
  0
LINE
  8
0
 10
50.584
 20
50.2022
 11
50.572
 21
50.251
  0
LINE
  8
0
 10
50.572
 20
50.251
 11
50.56
 21
50.3004
  0
LINE
  8
0
 10
50.56
 20
50.3004
 11
50.546
 21
50.3587
  0
LINE
  8
0
 10
50.546
 20
50.3587
 11
50.52
 21
50.469
  0
LINE
  8
0
 10
50.52
 20
50.469
 11
50.51
 21
50.5122
  0
LINE
  8
0
 10
50.51
 20
50.5122
 11
50.494
 21
50.5823
  0
LINE
  8
0
 10
50.494
 20
50.5823
 11
50.472
 21
50.6806
  0
LINE
  8
0
 10
50.472
 20
50.6806
 11
50.46
 21
50.7352
  0
LINE
  8
0
 10
50.46
 20
50.7352
 11
50.45
 21
50.7813
  0
LINE
  8
0
 10
50.45
 20
50.7813
 11
50.438
 21
50.8373
  0
LINE
  8
0
 10
50.438
 20
50.8373
 11
50.416
 21
50.942
  0
LINE
  8
0
 10
50.416
 20
50.942
 11
50.406
 21
50.9906
  0
LINE
  8
0
 10
50.406
 20
50.9906
 11
50.388
 21
51.0796
  0
LINE
  8
0
 10
50.388
 20
51.0796
 11
50.378
 21
51.13
  0
LINE
  8
0
 10
50.378
 20
51.13
 11
50.36
 21
51.2224
  0
LINE
  8
0
 10
50.36
 20
51.2224
 11
50.35
 21
51.2747
  0
LINE
  8
0
 10
50.35
 20
51.2747
 11
50.332
 21
51.371
  0
LINE
  8
0
 10
50.332
 20
51.371
 11
50.318
 21
51.4477
  0
LINE
  8
0
 10
50.318
 20
51.4477
 11
50.302
 21
51.5375
  0
LINE
  8
0
 10
50.302
 20
51.5375
 11
50.288
 21
51.6181
  0
LINE
  8
0
 10
50.288
 20
51.6181
 11
50.272
 21
51.7127
  0
LINE
  8
0
 10
50.272
 20
51.7127
 11
50.26
 21
51.7856
  0
LINE
  8
0
 10
50.26
 20
51.7856
 11
50.246
 21
51.8728
  0
LINE
  8
0
 10
50.246
 20
51.8728
 11
50.234
 21
51.9495
  0
LINE
  8
0
 10
50.234
 20
51.9495
 11
50.222
 21
52.0283
  0
LINE
  8
0
 10
50.222
 20
52.0283
 11
50.212
 21
52.0957
  0
LINE
  8
0
 10
50.212
 20
52.0957
 11
50.202
 21
52.1646
  0
LINE
  8
0
 10
50.202
 20
52.1646
 11
50.192
 21
52.2354
  0
LINE
  8
0
 10
50.192
 20
52.2354
 11
50.184
 21
52.2933
  0
LINE
  8
0
 10
50.184
 20
52.2933
 11
50.176
 21
52.3525
  0
LINE
  8
0
 10
50.176
 20
52.3525
 11
50.166
 21
52.4285
  0
LINE
  8
0
 10
50.166
 20
52.4285
 11
50.162
 21
52.4596
  0
LINE
  8
0
 10
50.162
 20
52.4596
 11
50.154
 21
52.5228
  0
LINE
  8
0
 10
50.154
 20
52.5228
 11
50.146
 21
52.5878
  0
LINE
  8
0
 10
50.146
 20
52.5878
 11
50.138
 21
52.6546
  0
LINE
  8
0
 10
50.138
 20
52.6546
 11
50.134
 21
52.6887
  0
LINE
  8
0
 10
50.134
 20
52.6887
 11
50.128
 21
52.7409
  0
LINE
  8
0
 10
50.128
 20
52.7409
 11
50.122
 21
52.7943
  0
LINE
  8
0
 10
50.122
 20
52.7943
 11
50.116
 21
52.849
  0
LINE
  8
0
 10
50.116
 20
52.849
 11
50.11
 21
52.9053
  0
LINE
  8
0
 10
50.11
 20
52.9053
 11
50.104
 21
52.963
  0
LINE
  8
0
 10
50.104
 20
52.963
 11
50.098
 21
53.0225
  0
LINE
  8
0
 10
50.098
 20
53.0225
 11
50.092
 21
53.0839
  0
LINE
  8
0
 10
50.092
 20
53.0839
 11
50.088
 21
53.1259
  0
LINE
  8
0
 10
50.088
 20
53.1259
 11
50.082
 21
53.1908
  0
LINE
  8
0
 10
50.082
 20
53.1908
 11
50.078
 21
53.2354
  0
LINE
  8
0
 10
50.078
 20
53.2354
 11
50.074
 21
53.2811
  0
LINE
  8
0
 10
50.074
 20
53.2811
 11
50.07
 21
53.3281
  0
LINE
  8
0
 10
50.07
 20
53.3281
 11
50.066
 21
53.3765
  0
LINE
  8
0
 10
50.066
 20
53.3765
 11
50.062
 21
53.4264
  0
LINE
  8
0
 10
50.062
 20
53.4264
 11
50.058
 21
53.4779
  0
LINE
  8
0
 10
50.058
 20
53.4779
 11
50.054
 21
53.5313
  0
LINE
  8
0
 10
50.054
 20
53.5313
 11
50.05
 21
53.5867
  0
LINE
  8
0
 10
50.05
 20
53.5867
 11
50.046
 21
53.6443
  0
LINE
  8
0
 10
50.046
 20
53.6443
 11
50.044
 21
53.6741
  0
LINE
  8
0
 10
50.044
 20
53.6741
 11
50.042
 21
53.7045
  0
LINE
  8
0
 10
50.042
 20
53.7045
 11
50.04
 21
53.7357
  0
LINE
  8
0
 10
50.04
 20
53.7357
 11
50.038
 21
53.7677
  0
LINE
  8
0
 10
50.038
 20
53.7677
 11
50.036
 21
53.8005
  0
LINE
  8
0
 10
50.036
 20
53.8005
 11
50.034
 21
53.8343
  0
LINE
  8
0
 10
50.034
 20
53.8343
 11
50.032
 21
53.8691
  0
LINE
  8
0
 10
50.032
 20
53.8691
 11
50.03
 21
53.905
  0
LINE
  8
0
 10
50.03
 20
53.905
 11
50.028
 21
53.9421
  0
LINE
  8
0
 10
50.028
 20
53.9421
 11
50.026
 21
53.9805
  0
LINE
  8
0
 10
50.026
 20
53.9805
 11
50.024
 21
54.0205
  0
LINE
  8
0
 10
50.024
 20
54.0205
 11
50.022
 21
54.0622
  0
LINE
  8
0
 10
50.022
 20
54.0622
 11
50.02
 21
54.1058
  0
LINE
  8
0
 10
50.02
 20
54.1058
 11
50.018
 21
54.1517
  0
LINE
  8
0
 10
50.018
 20
54.1517
 11
50.016
 21
54.2001
  0
LINE
  8
0
 10
50.016
 20
54.2001
 11
50.014
 21
54.2518
  0
LINE
  8
0
 10
50.014
 20
54.2518
 11
50.012
 21
54.3073
  0
LINE
  8
0
 10
50.012
 20
54.3073
 11
50.01
 21
54.3676
  0
LINE
  8
0
 10
50.01
 20
54.3676
 11
50.008
 21
54.4344
  0
LINE
  8
0
 10
50.008
 20
54.4344
 11
50.006
 21
54.5101
  0
LINE
  8
0
 10
50.006
 20
54.5101
 11
50.004
 21
54.6
  0
LINE
  8
0
 10
50.004
 20
54.6
 11
50.002
 21
54.7172
  0
LINE
  8
0
 10
50.002
 20
54.7172
 11
50
 21
55
  0
LINE
  8
0
 10
50
 20
55
 11
50.002
 21
55.3464
  0
LINE
  8
0
 10
50.002
 20
55.3464
 11
50.004
 21
55.4899
  0
LINE
  8
0
 10
50.004
 20
55.4899
 11
50.006
 21
55.6
  0
LINE
  8
0
 10
50.006
 20
55.6
 11
50.008
 21
55.6928
  0
LINE
  8
0
 10
50.008
 20
55.6928
 11
50.01
 21
55.7745
  0
LINE
  8
0
 10
50.01
 20
55.7745
 11
50.012
 21
55.8484
  0
LINE
  8
0
 10
50.012
 20
55.8484
 11
50.014
 21
55.9164
  0
LINE
  8
0
 10
50.014
 20
55.9164
 11
50.016
 21
55.9797
  0
LINE
  8
0
 10
50.016
 20
55.9797
 11
50.018
 21
56.0391
  0
LINE
  8
0
 10
50.018
 20
56.0391
 11
50.02
 21
56.0953
  0
LINE
  8
0
 10
50.02
 20
56.0953
 11
50.022
 21
56.1487
  0
LINE
  8
0
 10
50.022
 20
56.1487
 11
50.024
 21
56.1998
  0
LINE
  8
0
 10
50.024
 20
56.1998
 11
50.026
 21
56.2487
  0
LINE
  8
0
 10
50.026
 20
56.2487
 11
50.028
 21
56.2958
  0
LINE
  8
0
 10
50.028
 20
56.2958
 11
50.03
 21
56.3413
  0
LINE
  8
0
 10
50.03
 20
56.3413
 11
50.032
 21
56.3853
  0
LINE
  8
0
 10
50.032
 20
56.3853
 11
50.034
 21
56.4279
  0
LINE
  8
0
 10
50.034
 20
56.4279
 11
50.036
 21
56.4692
  0
LINE
  8
0
 10
50.036
 20
56.4692
 11
50.038
 21
56.5095
  0
LINE
  8
0
 10
50.038
 20
56.5095
 11
50.04
 21
56.5487
  0
LINE
  8
0
 10
50.04
 20
56.5487
 11
50.042
 21
56.5869
  0
LINE
  8
0
 10
50.042
 20
56.5869
 11
50.044
 21
56.6242
  0
LINE
  8
0
 10
50.044
 20
56.6242
 11
50.046
 21
56.6607
  0
LINE
  8
0
 10
50.046
 20
56.6607
 11
50.05
 21
56.7313
  0
LINE
  8
0
 10
50.05
 20
56.7313
 11
50.054
 21
56.7992
  0
LINE
  8
0
 10
50.054
 20
56.7992
 11
50.058
 21
56.8646
  0
LINE
  8
0
 10
50.058
 20
56.8646
 11
50.062
 21
56.9277
  0
LINE
  8
0
 10
50.062
 20
56.9277
 11
50.066
 21
56.9889
  0
LINE
  8
0
 10
50.066
 20
56.9889
 11
50.07
 21
57.0482
  0
LINE
  8
0
 10
50.07
 20
57.0482
 11
50.074
 21
57.1058
  0
LINE
  8
0
 10
50.074
 20
57.1058
 11
50.078
 21
57.1619
  0
LINE
  8
0
 10
50.078
 20
57.1619
 11
50.082
 21
57.2166
  0
LINE
  8
0
 10
50.082
 20
57.2166
 11
50.088
 21
57.2961
  0
LINE
  8
0
 10
50.088
 20
57.2961
 11
50.092
 21
57.3477
  0
LINE
  8
0
 10
50.092
 20
57.3477
 11
50.098
 21
57.4229
  0
LINE
  8
0
 10
50.098
 20
57.4229
 11
50.104
 21
57.4958
  0
LINE
  8
0
 10
50.104
 20
57.4958
 11
50.11
 21
57.5667
  0
LINE
  8
0
 10
50.11
 20
57.5667
 11
50.118
 21
57.6582
  0
LINE
  8
0
 10
50.118
 20
57.6582
 11
50.124
 21
57.7248
  0
LINE
  8
0
 10
50.124
 20
57.7248
 11
50.13
 21
57.7898
  0
LINE
  8
0
 10
50.13
 20
57.7898
 11
50.136
 21
57.8533
  0
LINE
  8
0
 10
50.136
 20
57.8533
 11
50.142
 21
57.9154
  0
LINE
  8
0
 10
50.142
 20
57.9154
 11
50.15
 21
57.9962
  0
LINE
  8
0
 10
50.15
 20
57.9962
 11
50.158
 21
58.0749
  0
LINE
  8
0
 10
50.158
 20
58.0749
 11
50.166
 21
58.1516
  0
LINE
  8
0
 10
50.166
 20
58.1516
 11
50.176
 21
58.2448
  0
LINE
  8
0
 10
50.176
 20
58.2448
 11
50.184
 21
58.3176
  0
LINE
  8
0
 10
50.184
 20
58.3176
 11
50.192
 21
58.3887
  0
LINE
  8
0
 10
50.192
 20
58.3887
 11
50.2
 21
58.4583
  0
LINE
  8
0
 10
50.2
 20
58.4583
 11
50.21
 21
58.5434
  0
LINE
  8
0
 10
50.21
 20
58.5434
 11
50.22
 21
58.6265
  0
LINE
  8
0
 10
50.22
 20
58.6265
 11
50.23
 21
58.7077
  0
LINE
  8
0
 10
50.23
 20
58.7077
 11
50.242
 21
58.8028
  0
LINE
  8
0
 10
50.242
 20
58.8028
 11
50.252
 21
58.8803
  0
LINE
  8
0
 10
50.252
 20
58.8803
 11
50.264
 21
58.9712
  0
LINE
  8
0
 10
50.264
 20
58.9712
 11
50.276
 21
59.06
  0
LINE
  8
0
 10
50.276
 20
59.06
 11
50.288
 21
59.1469
  0
LINE
  8
0
 10
50.288
 20
59.1469
 11
50.302
 21
59.246
  0
LINE
  8
0
 10
50.302
 20
59.246
 11
50.316
 21
59.3428
  0
LINE
  8
0
 10
50.316
 20
59.3428
 11
50.332
 21
59.4508
  0
LINE
  8
0
 10
50.332
 20
59.4508
 11
50.35
 21
59.5692
  0
LINE
  8
0
 10
50.35
 20
59.5692
 11
50.364
 21
59.6591
  0
LINE
  8
0
 10
50.364
 20
59.6591
 11
50.38
 21
59.7598
  0
LINE
  8
0
 10
50.38
 20
59.7598
 11
50.396
 21
59.8583
  0
LINE
  8
0
 10
50.396
 20
59.8583
 11
50.416
 21
59.9786
  0
LINE
  8
0
 10
50.416
 20
59.9786
 11
50.438
 21
60.1077
  0
LINE
  8
0
 10
50.438
 20
60.1077
 11
50.456
 21
60.2108
  0
LINE
  8
0
 10
50.456
 20
60.2108
 11
50.476
 21
60.3229
  0
LINE
  8
0
 10
50.476
 20
60.3229
 11
50.498
 21
60.4435
  0
LINE
  8
0
 10
50.498
 20
60.4435
 11
50.522
 21
60.572
  0
LINE
  8
0
 10
50.522
 20
60.572
 11
50.544
 21
60.6872
  0
LINE
  8
0
 10
50.544
 20
60.6872
 11
50.568
 21
60.8101
  0
LINE
  8
0
 10
50.568
 20
60.8101
 11
50.592
 21
60.9304
  0
LINE
  8
0
 10
50.592
 20
60.9304
 11
50.618
 21
61.0579
  0
LINE
  8
0
 10
50.618
 20
61.0579
 11
50.644
 21
61.1826
  0
LINE
  8
0
 10
50.644
 20
61.1826
 11
50.666
 21
61.2862
  0
LINE
  8
0
 10
50.666
 20
61.2862
 11
50.686
 21
61.3788
  0
LINE
  8
0
 10
50.686
 20
61.3788
 11
50.714
 21
61.5062
  0
LINE
  8
0
 10
50.714
 20
61.5062
 11
50.728
 21
61.5689
  0
LINE
  8
0
 10
50.728
 20
61.5689
 11
50.748
 21
61.6574
  0
LINE
  8
0
 10
50.748
 20
61.6574
 11
50.77
 21
61.7533
  0
LINE
  8
0
 10
50.77
 20
61.7533
 11
50.798
 21
61.8734
  0
LINE
  8
0
 10
50.798
 20
61.8734
 11
50.814
 21
61.941
  0
LINE
  8
0
 10
50.814
 20
61.941
 11
50.832
 21
62.0163
  0
LINE
  8
0
 10
50.832
 20
62.0163
 11
50.84
 21
62.0494
  0
LINE
  8
0
 10
50.84
 20
62.0494
 11
50.86
 21
62.1316
  0
LINE
  8
0
 10
50.86
 20
62.1316
 11
50.888
 21
62.2451
  0
LINE
  8
0
 10
50.888
 20
62.2451
 11
50.916
 21
62.3567
  0
LINE
  8
0
 10
50.916
 20
62.3567
 11
50.94
 21
62.4509
  0
LINE
  8
0
 10
50.94
 20
62.4509
 11
50.968
 21
62.5593
  0
LINE
  8
0
 10
50.968
 20
62.5593
 11
50.998
 21
62.6736
  0
LINE
  8
0
 10
50.998
 20
62.6736
 11
51.018
 21
62.7488
  0
LINE
  8
0
 10
51.018
 20
62.7488
 11
51.034
 21
62.8084
  0
LINE
  8
0
 10
51.034
 20
62.8084
 11
51.05
 21
62.8675
  0
LINE
  8
0
 10
51.05
 20
62.8675
 11
51.08
 21
62.9771
  0
LINE
  8
0
 10
51.08
 20
62.9771
 11
51.11
 21
63.085
  0
LINE
  8
0
 10
51.11
 20
63.085
 11
51.138
 21
63.1844
  0
LINE
  8
0
 10
51.138
 20
63.1844
 11
51.162
 21
63.2686
  0
LINE
  8
0
 10
51.162
 20
63.2686
 11
51.19
 21
63.3656
  0
LINE
  8
0
 10
51.19
 20
63.3656
 11
51.21
 21
63.4342
  0
LINE
  8
0
 10
51.21
 20
63.4342
 11
51.23
 21
63.5022
  0
LINE
  8
0
 10
51.23
 20
63.5022
 11
51.258
 21
63.5964
  0
LINE
  8
0
 10
51.258
 20
63.5964
 11
51.274
 21
63.6497
  0
LINE
  8
0
 10
51.274
 20
63.6497
 11
51.302
 21
63.7421
  0
LINE
  8
0
 10
51.302
 20
63.7421
 11
51.322
 21
63.8075
  0
LINE
  8
0
 10
51.322
 20
63.8075
 11
51.354
 21
63.911
  0
LINE
  8
0
 10
51.354
 20
63.911
 11
51.384
 21
64.0069
  0
LINE
  8
0
 10
51.384
 20
64.0069
 11
51.416
 21
64.108
  0
LINE
  8
0
 10
51.416
 20
64.108
 11
51.466
 21
64.2634
  0
LINE
  8
0
 10
51.466
 20
64.2634
 11
51.496
 21
64.3553
  0
LINE
  8
0
 10
51.496
 20
64.3553
 11
51.524
 21
64.4402
  0
LINE
  8
0
 10
51.524
 20
64.4402
 11
51.552
 21
64.5242
  0
LINE
  8
0
 10
51.552
 20
64.5242
 11
51.582
 21
64.6134
  0
LINE
  8
0
 10
51.582
 20
64.6134
 11
51.61
 21
64.6958
  0
LINE
  8
0
 10
51.61
 20
64.6958
 11
51.636
 21
64.7716
  0
LINE
  8
0
 10
51.636
 20
64.7716
 11
51.658
 21
64.8352
  0
LINE
  8
0
 10
51.658
 20
64.8352
 11
51.682
 21
64.9041
  0
LINE
  8
0
 10
51.682
 20
64.9041
 11
51.716
 21
65.0008
  0
LINE
  8
0
 10
51.716
 20
65.0008
 11
51.744
 21
65.0796
  0
LINE
  8
0
 10
51.744
 20
65.0796
 11
51.776
 21
65.1689
  0
LINE
  8
0
 10
51.776
 20
65.1689
 11
51.804
 21
65.2462
  0
LINE
  8
0
 10
51.804
 20
65.2462
 11
51.832
 21
65.323
  0
LINE
  8
0
 10
51.832
 20
65.323
 11
51.86
 21
65.399
  0
LINE
  8
0
 10
51.86
 20
65.399
 11
51.888
 21
65.4745
  0
LINE
  8
0
 10
51.888
 20
65.4745
 11
51.93
 21
65.5865
  0
LINE
  8
0
 10
51.93
 20
65.5865
 11
51.96
 21
65.6658
  0
LINE
  8
0
 10
51.96
 20
65.6658
 11
51.99
 21
65.7443
  0
LINE
  8
0
 10
51.99
 20
65.7443
 11
52.022
 21
65.8273
  0
LINE
  8
0
 10
52.022
 20
65.8273
 11
52.046
 21
65.8892
  0
LINE
  8
0
 10
52.046
 20
65.8892
 11
52.064
 21
65.9353
  0
LINE
  8
0
 10
52.064
 20
65.9353
 11
52.11
 21
66.052
  0
LINE
  8
0
 10
52.11
 20
66.052
 11
52.156
 21
66.1674
  0
LINE
  8
0
 10
52.156
 20
66.1674
 11
52.194
 21
66.2617
  0
LINE
  8
0
 10
52.194
 20
66.2617
 11
52.216
 21
66.3159
  0
LINE
  8
0
 10
52.216
 20
66.3159
 11
52.268
 21
66.4427
  0
LINE
  8
0
 10
52.268
 20
66.4427
 11
52.294
 21
66.5055
  0
LINE
  8
0
 10
52.294
 20
66.5055
 11
52.332
 21
66.5966
  0
LINE
  8
0
 10
52.332
 20
66.5966
 11
52.358
 21
66.6585
  0
LINE
  8
0
 10
52.358
 20
66.6585
 11
52.388
 21
66.7293
  0
LINE
  8
0
 10
52.388
 20
66.7293
 11
52.414
 21
66.7904
  0
LINE
  8
0
 10
52.414
 20
66.7904
 11
52.444
 21
66.8603
  0
LINE
  8
0
 10
52.444
 20
66.8603
 11
52.486
 21
66.9574
  0
LINE
  8
0
 10
52.486
 20
66.9574
 11
52.514
 21
67.0216
  0
LINE
  8
0
 10
52.514
 20
67.0216
 11
52.544
 21
67.09
  0
LINE
  8
0
 10
52.544
 20
67.09
 11
52.574
 21
67.1579
  0
LINE
  8
0
 10
52.574
 20
67.1579
 11
52.606
 21
67.2298
  0
LINE
  8
0
 10
52.606
 20
67.2298
 11
52.62
 21
67.2611
  0
LINE
  8
0
 10
52.62
 20
67.2611
 11
52.666
 21
67.3633
  0
LINE
  8
0
 10
52.666
 20
67.3633
 11
52.718
 21
67.4777
  0
LINE
  8
0
 10
52.718
 20
67.4777
 11
52.732
 21
67.5082
  0
LINE
  8
0
 10
52.732
 20
67.5082
 11
52.768
 21
67.5864
  0
LINE
  8
0
 10
52.768
 20
67.5864
 11
52.802
 21
67.6597
  0
LINE
  8
0
 10
52.802
 20
67.6597
 11
52.818
 21
67.694
  0
LINE
  8
0
 10
52.818
 20
67.694
 11
52.868
 21
67.8006
  0
LINE
  8
0
 10
52.868
 20
67.8006
 11
52.908
 21
67.885
  0
LINE
  8
0
 10
52.908
 20
67.885
 11
52.944
 21
67.9604
  0
LINE
  8
0
 10
52.944
 20
67.9604
 11
52.962
 21
67.9979
  0
LINE
  8
0
 10
52.962
 20
67.9979
 11
52.978
 21
68.0312
  0
LINE
  8
0
 10
52.978
 20
68.0312
 11
53.04
 21
68.159
  0
LINE
  8
0
 10
53.04
 20
68.159
 11
53.076
 21
68.2325
  0
LINE
  8
0
 10
53.076
 20
68.2325
 11
53.094
 21
68.269
  0
LINE
  8
0
 10
53.094
 20
68.269
 11
53.138
 21
68.3579
  0
LINE
  8
0
 10
53.138
 20
68.3579
 11
53.156
 21
68.394
  0
LINE
  8
0
 10
53.156
 20
68.394
 11
53.194
 21
68.4699
  0
LINE
  8
0
 10
53.194
 20
68.4699
 11
53.238
 21
68.5571
  0
LINE
  8
0
 10
53.238
 20
68.5571
 11
53.262
 21
68.6044
  0
LINE
  8
0
 10
53.262
 20
68.6044
 11
53.304
 21
68.6866
  0
LINE
  8
0
 10
53.304
 20
68.6866
 11
53.326
 21
68.7294
  0
LINE
  8
0
 10
53.326
 20
68.7294
 11
53.346
 21
68.7682
  0
LINE
  8
0
 10
53.346
 20
68.7682
 11
53.388
 21
68.8492
  0
LINE
  8
0
 10
53.388
 20
68.8492
 11
53.416
 21
68.9029
  0
LINE
  8
0
 10
53.416
 20
68.9029
 11
53.436
 21
68.9411
  0
LINE
  8
0
 10
53.436
 20
68.9411
 11
53.458
 21
68.9829
  0
LINE
  8
0
 10
53.458
 20
68.9829
 11
53.508
 21
69.0774
  0
LINE
  8
0
 10
53.508
 20
69.0774
 11
53.554
 21
69.1637
  0
LINE
  8
0
 10
53.554
 20
69.1637
 11
53.578
 21
69.2084
  0
LINE
  8
0
 10
53.578
 20
69.2084
 11
53.602
 21
69.2529
  0
LINE
  8
0
 10
53.602
 20
69.2529
 11
53.628
 21
69.301
  0
LINE
  8
0
 10
53.628
 20
69.301
 11
53.656
 21
69.3525
  0
LINE
  8
0
 10
53.656
 20
69.3525
 11
53.704
 21
69.4402
  0
LINE
  8
0
 10
53.704
 20
69.4402
 11
53.748
 21
69.5201
  0
LINE
  8
0
 10
53.748
 20
69.5201
 11
53.804
 21
69.6208
  0
LINE
  8
0
 10
53.804
 20
69.6208
 11
53.832
 21
69.6709
  0
LINE
  8
0
 10
53.832
 20
69.6709
 11
53.858
 21
69.7172
  0
LINE
  8
0
 10
53.858
 20
69.7172
 11
53.888
 21
69.7704
  0
LINE
  8
0
 10
53.888
 20
69.7704
 11
53.916
 21
69.8197
  0
LINE
  8
0
 10
53.916
 20
69.8197
 11
53.94
 21
69.8619
  0
LINE
  8
0
 10
53.94
 20
69.8619
 11
53.998
 21
69.9632
  0
LINE
  8
0
 10
53.998
 20
69.9632
 11
54.026
 21
70.0117
  0
LINE
  8
0
 10
54.026
 20
70.0117
 11
54.054
 21
70.06
  0
LINE
  8
0
 10
54.054
 20
70.06
 11
54.082
 21
70.1082
  0
LINE
  8
0
 10
54.082
 20
70.1082
 11
54.138
 21
70.2038
  0
LINE
  8
0
 10
54.138
 20
70.2038
 11
54.206
 21
70.3189
  0
LINE
  8
0
 10
54.206
 20
70.3189
 11
54.264
 21
70.4162
  0
LINE
  8
0
 10
54.264
 20
70.4162
 11
54.294
 21
70.4661
  0
LINE
  8
0
 10
54.294
 20
70.4661
 11
54.33
 21
70.5258
  0
LINE
  8
0
 10
54.33
 20
70.5258
 11
54.388
 21
70.6213
  0
LINE
  8
0
 10
54.388
 20
70.6213
 11
54.428
 21
70.6867
  0
LINE
  8
0
 10
54.428
 20
70.6867
 11
54.46
 21
70.7388
  0
LINE
  8
0
 10
54.46
 20
70.7388
 11
54.494
 21
70.7938
  0
LINE
  8
0
 10
54.494
 20
70.7938
 11
54.526
 21
70.8454
  0
LINE
  8
0
 10
54.526
 20
70.8454
 11
54.554
 21
70.8903
  0
LINE
  8
0
 10
54.554
 20
70.8903
 11
54.624
 21
71.0018
  0
LINE
  8
0
 10
54.624
 20
71.0018
 11
54.66
 21
71.0588
  0
LINE
  8
0
 10
54.66
 20
71.0588
 11
54.694
 21
71.1123
  0
LINE
  8
0
 10
54.694
 20
71.1123
 11
54.734
 21
71.175
  0
LINE
  8
0
 10
54.734
 20
71.175
 11
54.772
 21
71.2342
  0
LINE
  8
0
 10
54.772
 20
71.2342
 11
54.802
 21
71.2807
  0
LINE
  8
0
 10
54.802
 20
71.2807
 11
54.85
 21
71.3547
  0
LINE
  8
0
 10
54.85
 20
71.3547
 11
54.924
 21
71.468
  0
LINE
  8
0
 10
54.924
 20
71.468
 11
54.996
 21
71.5771
  0
LINE
  8
0
 10
54.996
 20
71.5771
 11
55.07
 21
71.6882
  0
LINE
  8
0
 10
55.07
 20
71.6882
 11
55.11
 21
71.7478
  0
LINE
  8
0
 10
55.11
 20
71.7478
 11
55.194
 21
71.8719
  0
LINE
  8
0
 10
55.194
 20
71.8719
 11
55.272
 21
71.9861
  0
LINE
  8
0
 10
55.272
 20
71.9861
 11
55.318
 21
72.0528
  0
LINE
  8
0
 10
55.318
 20
72.0528
 11
55.354
 21
72.1048
  0
LINE
  8
0
 10
55.354
 20
72.1048
 11
55.408
 21
72.1824
  0
LINE
  8
0
 10
55.408
 20
72.1824
 11
55.488
 21
72.2963
  0
LINE
  8
0
 10
55.488
 20
72.2963
 11
55.526
 21
72.35
  0
LINE
  8
0
 10
55.526
 20
72.35
 11
55.578
 21
72.4231
  0
LINE
  8
0
 10
55.578
 20
72.4231
 11
55.622
 21
72.4846
  0
LINE
  8
0
 10
55.622
 20
72.4846
 11
55.666
 21
72.5458
  0
LINE
  8
0
 10
55.666
 20
72.5458
 11
55.716
 21
72.615
  0
LINE
  8
0
 10
55.716
 20
72.615
 11
55.748
 21
72.659
  0
LINE
  8
0
 10
55.748
 20
72.659
 11
55.804
 21
72.7357
  0
LINE
  8
0
 10
55.804
 20
72.7357
 11
55.856
 21
72.8064
  0
LINE
  8
0
 10
55.856
 20
72.8064
 11
55.944
 21
72.9251
  0
LINE
  8
0
 10
55.944
 20
72.9251
 11
55.998
 21
72.9973
  0
LINE
  8
0
 10
55.998
 20
72.9973
 11
56.044
 21
73.0585
  0
LINE
  8
0
 10
56.044
 20
73.0585
 11
56.106
 21
73.1405
  0
LINE
  8
0
 10
56.106
 20
73.1405
 11
56.194
 21
73.2558
  0
LINE
  8
0
 10
56.194
 20
73.2558
 11
56.248
 21
73.326
  0
LINE
  8
0
 10
56.248
 20
73.326
 11
56.3
 21
73.3932
  0
LINE
  8
0
 10
56.3
 20
73.3932
 11
56.356
 21
73.4651
  0
LINE
  8
0
 10
56.356
 20
73.4651
 11
56.41
 21
73.5341
  0
LINE
  8
0
 10
56.41
 20
73.5341
 11
56.462
 21
73.6001
  0
LINE
  8
0
 10
56.462
 20
73.6001
 11
56.518
 21
73.6707
  0
LINE
  8
0
 10
56.518
 20
73.6707
 11
56.58
 21
73.7484
  0
LINE
  8
0
 10
56.58
 20
73.7484
 11
56.632
 21
73.8132
  0
LINE
  8
0
 10
56.632
 20
73.8132
 11
56.694
 21
73.89
  0
LINE
  8
0
 10
56.694
 20
73.89
 11
56.742
 21
73.949
  0
LINE
  8
0
 10
56.742
 20
73.949
 11
56.8
 21
74.02
  0
LINE
  8
0
 10
56.8
 20
74.02
 11
56.858
 21
74.0905
  0
LINE
  8
0
 10
56.858
 20
74.0905
 11
56.916
 21
74.1606
  0
LINE
  8
0
 10
56.916
 20
74.1606
 11
56.986
 21
74.2446
  0
LINE
  8
0
 10
56.986
 20
74.2446
 11
57.042
 21
74.3114
  0
LINE
  8
0
 10
57.042
 20
74.3114
 11
57.102
 21
74.3825
  0
LINE
  8
0
 10
57.102
 20
74.3825
 11
57.15
 21
74.4391
  0
LINE
  8
0
 10
57.15
 20
74.4391
 11
57.232
 21
74.535
  0
LINE
  8
0
 10
57.232
 20
74.535
 11
57.298
 21
74.6117
  0
LINE
  8
0
 10
57.298
 20
74.6117
 11
57.356
 21
74.6786
  0
LINE
  8
0
 10
57.356
 20
74.6786
 11
57.432
 21
74.7658
  0
LINE
  8
0
 10
57.432
 20
74.7658
 11
57.49
 21
74.8318
  0
LINE
  8
0
 10
57.49
 20
74.8318
 11
57.546
 21
74.8952
  0
LINE
  8
0
 10
57.546
 20
74.8952
 11
57.62
 21
74.9784
  0
LINE
  8
0
 10
57.62
 20
74.9784
 11
57.688
 21
75.0543
  0
LINE
  8
0
 10
57.688
 20
75.0543
 11
57.76
 21
75.1341
  0
LINE
  8
0
 10
57.76
 20
75.1341
 11
57.826
 21
75.2068
  0
LINE
  8
0
 10
57.826
 20
75.2068
 11
57.902
 21
75.2899
  0
LINE
  8
0
 10
57.902
 20
75.2899
 11
57.964
 21
75.3572
  0
LINE
  8
0
 10
57.964
 20
75.3572
 11
58.044
 21
75.4434
  0
LINE
  8
0
 10
58.044
 20
75.4434
 11
58.122
 21
75.5269
  0
LINE
  8
0
 10
58.122
 20
75.5269
 11
58.19
 21
75.5991
  0
LINE
  8
0
 10
58.19
 20
75.5991
 11
58.268
 21
75.6814
  0
LINE
  8
0
 10
58.268
 20
75.6814
 11
58.318
 21
75.7338
  0
LINE
  8
0
 10
58.318
 20
75.7338
 11
58.41
 21
75.8296
  0
LINE
  8
0
 10
58.41
 20
75.8296
 11
58.494
 21
75.9163
  0
LINE
  8
0
 10
58.494
 20
75.9163
 11
58.576
 21
76.0003
  0
LINE
  8
0
 10
58.576
 20
76.0003
 11
58.658
 21
76.0836
  0
LINE
  8
0
 10
58.658
 20
76.0836
 11
58.732
 21
76.1583
  0
LINE
  8
0
 10
58.732
 20
76.1583
 11
58.814
 21
76.2404
  0
LINE
  8
0
 10
58.814
 20
76.2404
 11
58.9
 21
76.3258
  0
LINE
  8
0
 10
58.9
 20
76.3258
 11
58.986
 21
76.4106
  0
LINE
  8
0
 10
58.986
 20
76.4106
 11
59.054
 21
76.4771
  0
LINE
  8
0
 10
59.054
 20
76.4771
 11
59.154
 21
76.5742
  0
LINE
  8
0
 10
59.154
 20
76.5742
 11
59.234
 21
76.6512
  0
LINE
  8
0
 10
59.234
 20
76.6512
 11
59.322
 21
76.7352
  0
LINE
  8
0
 10
59.322
 20
76.7352
 11
59.406
 21
76.8148
  0
LINE
  8
0
 10
59.406
 20
76.8148
 11
59.498
 21
76.9013
  0
LINE
  8
0
 10
59.498
 20
76.9013
 11
59.578
 21
76.9759
  0
LINE
  8
0
 10
59.578
 20
76.9759
 11
59.682
 21
77.0721
  0
LINE
  8
0
 10
59.682
 20
77.0721
 11
59.768
 21
77.151
  0
LINE
  8
0
 10
59.768
 20
77.151
 11
59.852
 21
77.2274
  0
LINE
  8
0
 10
59.852
 20
77.2274
 11
59.938
 21
77.3051
  0
LINE
  8
0
 10
59.938
 20
77.3051
 11
60.048
 21
77.4035
  0
LINE
  8
0
 10
60.048
 20
77.4035
 11
60.15
 21
77.4939
  0
LINE
  8
0
 10
60.15
 20
77.4939
 11
60.24
 21
77.573
  0
LINE
  8
0
 10
60.24
 20
77.573
 11
60.332
 21
77.6532
  0
LINE
  8
0
 10
60.332
 20
77.6532
 11
60.44
 21
77.7466
  0
LINE
  8
0
 10
60.44
 20
77.7466
 11
60.544
 21
77.8356
  0
LINE
  8
0
 10
60.544
 20
77.8356
 11
60.636
 21
77.9137
  0
LINE
  8
0
 10
60.636
 20
77.9137
 11
60.744
 21
78.0045
  0
LINE
  8
0
 10
60.744
 20
78.0045
 11
60.848
 21
78.0911
  0
LINE
  8
0
 10
60.848
 20
78.0911
 11
60.954
 21
78.1786
  0
LINE
  8
0
 10
60.954
 20
78.1786
 11
61.05
 21
78.2572
  0
LINE
  8
0
 10
61.05
 20
78.2572
 11
61.164
 21
78.3496
  0
LINE
  8
0
 10
61.164
 20
78.3496
 11
61.27
 21
78.4347
  0
LINE
  8
0
 10
61.27
 20
78.4347
 11
61.382
 21
78.5238
  0
LINE
  8
0
 10
61.382
 20
78.5238
 11
61.494
 21
78.612
  0
LINE
  8
0
 10
61.494
 20
78.612
 11
61.604
 21
78.6978
  0
LINE
  8
0
 10
61.604
 20
78.6978
 11
61.716
 21
78.7843
  0
LINE
  8
0
 10
61.716
 20
78.7843
 11
61.83
 21
78.8716
  0
LINE
  8
0
 10
61.83
 20
78.8716
 11
61.94
 21
78.9549
  0
LINE
  8
0
 10
61.94
 20
78.9549
 11
62.064
 21
79.0479
  0
LINE
  8
0
 10
62.064
 20
79.0479
 11
62.192
 21
79.1428
  0
LINE
  8
0
 10
62.192
 20
79.1428
 11
62.302
 21
79.2236
  0
LINE
  8
0
 10
62.302
 20
79.2236
 11
62.43
 21
79.3166
  0
LINE
  8
0
 10
62.43
 20
79.3166
 11
62.55
 21
79.4028
  0
LINE
  8
0
 10
62.55
 20
79.4028
 11
62.666
 21
79.4854
  0
LINE
  8
0
 10
62.666
 20
79.4854
 11
62.776
 21
79.5629
  0
LINE
  8
0
 10
62.776
 20
79.5629
 11
62.826
 21
79.5978
  0
LINE
  8
0
 10
62.826
 20
79.5978
 11
62.932
 21
79.6715
  0
LINE
  8
0
 10
62.932
 20
79.6715
 11
63.054
 21
79.7555
  0
LINE
  8
0
 10
63.054
 20
79.7555
 11
63.18
 21
79.8412
  0
LINE
  8
0
 10
63.18
 20
79.8412
 11
63.312
 21
79.9301
  0
LINE
  8
0
 10
63.312
 20
79.9301
 11
63.44
 21
80.0153
  0
LINE
  8
0
 10
63.44
 20
80.0153
 11
63.574
 21
80.1035
  0
LINE
  8
0
 10
63.574
 20
80.1035
 11
63.714
 21
80.1946
  0
LINE
  8
0
 10
63.714
 20
80.1946
 11
63.846
 21
80.2794
  0
LINE
  8
0
 10
63.846
 20
80.2794
 11
63.988
 21
80.3696
  0
LINE
  8
0
 10
63.988
 20
80.3696
 11
64.132
 21
80.4599
  0
LINE
  8
0
 10
64.132
 20
80.4599
 11
64.268
 21
80.5442
  0
LINE
  8
0
 10
64.268
 20
80.5442
 11
64.416
 21
80.6347
  0
LINE
  8
0
 10
64.416
 20
80.6347
 11
64.552
 21
80.7169
  0
LINE
  8
0
 10
64.552
 20
80.7169
 11
64.666
 21
80.785
  0
LINE
  8
0
 10
64.666
 20
80.785
 11
64.72
 21
80.8171
  0
LINE
  8
0
 10
64.72
 20
80.8171
 11
64.854
 21
80.8959
  0
LINE
  8
0
 10
64.854
 20
80.8959
 11
64.994
 21
80.9773
  0
LINE
  8
0
 10
64.994
 20
80.9773
 11
65.11
 21
81.044
  0
LINE
  8
0
 10
65.11
 20
81.044
 11
65.166
 21
81.0759
  0
LINE
  8
0
 10
65.166
 20
81.0759
 11
65.3
 21
81.1517
  0
LINE
  8
0
 10
65.3
 20
81.1517
 11
65.416
 21
81.2165
  0
LINE
  8
0
 10
65.416
 20
81.2165
 11
65.47
 21
81.2465
  0
LINE
  8
0
 10
65.47
 20
81.2465
 11
65.622
 21
81.3301
  0
LINE
  8
0
 10
65.622
 20
81.3301
 11
65.76
 21
81.405
  0
LINE
  8
0
 10
65.76
 20
81.405
 11
65.884
 21
81.4715
  0
LINE
  8
0
 10
65.884
 20
81.4715
 11
65.936
 21
81.4991
  0
LINE
  8
0
 10
65.936
 20
81.4991
 11
66.072
 21
81.5709
  0
LINE
  8
0
 10
66.072
 20
81.5709
 11
66.22
 21
81.6479
  0
LINE
  8
0
 10
66.22
 20
81.6479
 11
66.384
 21
81.7321
  0
LINE
  8
0
 10
66.384
 20
81.7321
 11
66.526
 21
81.8039
  0
LINE
  8
0
 10
66.526
 20
81.8039
 11
66.578
 21
81.83
  0
LINE
  8
0
 10
66.578
 20
81.83
 11
66.718
 21
81.8996
  0
LINE
  8
0
 10
66.718
 20
81.8996
 11
66.854
 21
81.9663
  0
LINE
  8
0
 10
66.854
 20
81.9663
 11
66.912
 21
81.9945
  0
LINE
  8
0
 10
66.912
 20
81.9945
 11
67.052
 21
82.062
  0
LINE
  8
0
 10
67.052
 20
82.062
 11
67.22
 21
82.1417
  0
LINE
  8
0
 10
67.22
 20
82.1417
 11
67.386
 21
82.2192
  0
LINE
  8
0
 10
67.386
 20
82.2192
 11
67.554
 21
82.2965
  0
LINE
  8
0
 10
67.554
 20
82.2965
 11
67.694
 21
82.3599
  0
LINE
  8
0
 10
67.694
 20
82.3599
 11
67.762
 21
82.3904
  0
LINE
  8
0
 10
67.762
 20
82.3904
 11
67.912
 21
82.4569
  0
LINE
  8
0
 10
67.912
 20
82.4569
 11
68.054
 21
82.519
  0
LINE
  8
0
 10
68.054
 20
82.519
 11
68.106
 21
82.5415
  0
LINE
  8
0
 10
68.106
 20
82.5415
 11
68.268
 21
82.6109
  0
LINE
  8
0
 10
68.268
 20
82.6109
 11
68.41
 21
82.6708
  0
LINE
  8
0
 10
68.41
 20
82.6708
 11
68.47
 21
82.6958
  0
LINE
  8
0
 10
68.47
 20
82.6958
 11
68.622
 21
82.7586
  0
LINE
  8
0
 10
68.622
 20
82.7586
 11
68.776
 21
82.8212
  0
LINE
  8
0
 10
68.776
 20
82.8212
 11
68.814
 21
82.8365
  0
LINE
  8
0
 10
68.814
 20
82.8365
 11
68.944
 21
82.8884
  0
LINE
  8
0
 10
68.944
 20
82.8884
 11
69.016
 21
82.9169
  0
LINE
  8
0
 10
69.016
 20
82.9169
 11
69.176
 21
82.9793
  0
LINE
  8
0
 10
69.176
 20
82.9793
 11
69.322
 21
83.0353
  0
LINE
  8
0
 10
69.322
 20
83.0353
 11
69.386
 21
83.0596
  0
LINE
  8
0
 10
69.386
 20
83.0596
 11
69.548
 21
83.1204
  0
LINE
  8
0
 10
69.548
 20
83.1204
 11
69.694
 21
83.1742
  0
LINE
  8
0
 10
69.694
 20
83.1742
 11
69.748
 21
83.1939
  0
LINE
  8
0
 10
69.748
 20
83.1939
 11
69.888
 21
83.2444
  0
LINE
  8
0
 10
69.888
 20
83.2444
 11
69.934
 21
83.2608
  0
LINE
  8
0
 10
69.934
 20
83.2608
 11
70.082
 21
83.3131
  0
LINE
  8
0
 10
70.082
 20
83.3131
 11
70.124
 21
83.3278
  0
LINE
  8
0
 10
70.124
 20
83.3278
 11
70.276
 21
83.3803
  0
LINE
  8
0
 10
70.276
 20
83.3803
 11
70.344
 21
83.4035
  0
LINE
  8
0
 10
70.344
 20
83.4035
 11
70.51
 21
83.4594
  0
LINE
  8
0
 10
70.51
 20
83.4594
 11
70.666
 21
83.511
  0
LINE
  8
0
 10
70.666
 20
83.511
 11
70.714
 21
83.5267
  0
LINE
  8
0
 10
70.714
 20
83.5267
 11
70.86
 21
83.5738
  0
LINE
  8
0
 10
70.86
 20
83.5738
 11
70.914
 21
83.591
  0
LINE
  8
0
 10
70.914
 20
83.591
 11
71.074
 21
83.6413
  0
LINE
  8
0
 10
71.074
 20
83.6413
 11
71.138
 21
83.6612
  0
LINE
  8
0
 10
71.138
 20
83.6612
 11
71.298
 21
83.7102
  0
LINE
  8
0
 10
71.298
 20
83.7102
 11
71.47
 21
83.7618
  0
LINE
  8
0
 10
71.47
 20
83.7618
 11
71.506
 21
83.7724
  0
LINE
  8
0
 10
71.506
 20
83.7724
 11
71.664
 21
83.8186
  0
LINE
  8
0
 10
71.664
 20
83.8186
 11
71.706
 21
83.8307
  0
LINE
  8
0
 10
71.706
 20
83.8307
 11
71.86
 21
83.8746
  0
LINE
  8
0
 10
71.86
 20
83.8746
 11
71.942
 21
83.8976
  0
LINE
  8
0
 10
71.942
 20
83.8976
 11
72.108
 21
83.9433
  0
LINE
  8
0
 10
72.108
 20
83.9433
 11
72.272
 21
83.9875
  0
LINE
  8
0
 10
72.272
 20
83.9875
 11
72.352
 21
84.0088
  0
LINE
  8
0
 10
72.352
 20
84.0088
 11
72.524
 21
84.0536
  0
LINE
  8
0
 10
72.524
 20
84.0536
 11
72.694
 21
84.0968
  0
LINE
  8
0
 10
72.694
 20
84.0968
 11
72.738
 21
84.1078
  0
LINE
  8
0
 10
72.738
 20
84.1078
 11
72.908
 21
84.1497
  0
LINE
  8
0
 10
72.908
 20
84.1497
 11
72.954
 21
84.1608
  0
LINE
  8
0
 10
72.954
 20
84.1608
 11
73.11
 21
84.1981
  0
LINE
  8
0
 10
73.11
 20
84.1981
 11
73.19
 21
84.2168
  0
LINE
  8
0
 10
73.19
 20
84.2168
 11
73.384
 21
84.2614
  0
LINE
  8
0
 10
73.384
 20
84.2614
 11
73.58
 21
84.305
  0
LINE
  8
0
 10
73.58
 20
84.305
 11
73.748
 21
84.3413
  0
LINE
  8
0
 10
73.748
 20
84.3413
 11
73.822
 21
84.357
  0
LINE
  8
0
 10
73.822
 20
84.357
 11
74.008
 21
84.3955
  0
LINE
  8
0
 10
74.008
 20
84.3955
 11
74.188
 21
84.4316
  0
LINE
  8
0
 10
74.188
 20
84.4316
 11
74.268
 21
84.4473
  0
LINE
  8
0
 10
74.268
 20
84.4473
 11
74.44
 21
84.4803
  0
LINE
  8
0
 10
74.44
 20
84.4803
 11
74.61
 21
84.5118
  0
LINE
  8
0
 10
74.61
 20
84.5118
 11
74.7
 21
84.5281
  0
LINE
  8
0
 10
74.7
 20
84.5281
 11
74.888
 21
84.5612
  0
LINE
  8
0
 10
74.888
 20
84.5612
 11
75.05
 21
84.5888
  0
LINE
  8
0
 10
75.05
 20
84.5888
 11
75.102
 21
84.5975
  0
LINE
  8
0
 10
75.102
 20
84.5975
 11
75.27
 21
84.6248
  0
LINE
  8
0
 10
75.27
 20
84.6248
 11
75.322
 21
84.633
  0
LINE
  8
0
 10
75.322
 20
84.633
 11
75.494
 21
84.6597
  0
LINE
  8
0
 10
75.494
 20
84.6597
 11
75.566
 21
84.6705
  0
LINE
  8
0
 10
75.566
 20
84.6705
 11
75.764
 21
84.6994
  0
LINE
  8
0
 10
75.764
 20
84.6994
 11
75.944
 21
84.7245
  0
LINE
  8
0
 10
75.944
 20
84.7245
 11
75.984
 21
84.73
  0
LINE
  8
0
 10
75.984
 20
84.73
 11
76.166
 21
84.754
  0
LINE
  8
0
 10
76.166
 20
84.754
 11
76.248
 21
84.7645
  0
LINE
  8
0
 10
76.248
 20
84.7645
 11
76.426
 21
84.7863
  0
LINE
  8
0
 10
76.426
 20
84.7863
 11
76.61
 21
84.8078
  0
LINE
  8
0
 10
76.61
 20
84.8078
 11
76.654
 21
84.8128
  0
LINE
  8
0
 10
76.654
 20
84.8128
 11
76.832
 21
84.8323
  0
LINE
  8
0
 10
76.832
 20
84.8323
 11
76.876
 21
84.8369
  0
LINE
  8
0
 10
76.876
 20
84.8369
 11
77.054
 21
84.855
  0
LINE
  8
0
 10
77.054
 20
84.855
 11
77.132
 21
84.8626
  0
LINE
  8
0
 10
77.132
 20
84.8626
 11
77.328
 21
84.8808
  0
LINE
  8
0
 10
77.328
 20
84.8808
 11
77.498
 21
84.8955
  0
LINE
  8
0
 10
77.498
 20
84.8955
 11
77.568
 21
84.9013
  0
LINE
  8
0
 10
77.568
 20
84.9013
 11
77.742
 21
84.9149
  0
LINE
  8
0
 10
77.742
 20
84.9149
 11
77.816
 21
84.9204
  0
LINE
  8
0
 10
77.816
 20
84.9204
 11
78.008
 21
84.9338
  0
LINE
  8
0
 10
78.008
 20
84.9338
 11
78.194
 21
84.9456
  0
LINE
  8
0
 10
78.194
 20
84.9456
 11
78.244
 21
84.9486
  0
LINE
  8
0
 10
78.244
 20
84.9486
 11
78.416
 21
84.9581
  0
LINE
  8
0
 10
78.416
 20
84.9581
 11
78.508
 21
84.9629
  0
LINE
  8
0
 10
78.508
 20
84.9629
 11
78.694
 21
84.9716
  0
LINE
  8
0
 10
78.694
 20
84.9716
 11
78.886
 21
84.9793
  0
LINE
  8
0
 10
78.886
 20
84.9793
 11
78.956
 21
84.9818
  0
LINE
  8
0
 10
78.956
 20
84.9818
 11
79.154
 21
84.9881
  0
LINE
  8
0
 10
79.154
 20
84.9881
 11
79.332
 21
84.9926
  0
LINE
  8
0
 10
79.332
 20
84.9926
 11
79.422
 21
84.9944
  0
LINE
  8
0
 10
79.422
 20
84.9944
 11
79.608
 21
84.9974
  0
LINE
  8
0
 10
79.608
 20
84.9974
 11
79.804
 21
84.9994
  0
LINE
  8
0
 10
79.804
 20
84.9994
 11
79.872
 21
84.9997
  0
LINE
  8
0
 10
79.872
 20
84.9997
 11
135
 21
85
  0
LINE
  8
0
 10
135
 20
85
 11
135.03
 21
85
  0
LINE
  8
0
 10
135.03
 20
85
 11
135.13
 21
84.9994
  0
LINE
  8
0
 10
135.13
 20
84.9994
 11
135.16
 21
84.9991
  0
LINE
  8
0
 10
135.16
 20
84.9991
 11
135.262
 21
84.9977
  0
LINE
  8
0
 10
135.262
 20
84.9977
 11
135.356
 21
84.9958
  0
LINE
  8
0
 10
135.356
 20
84.9958
 11
135.388
 21
84.995
  0
LINE
  8
0
 10
135.388
 20
84.995
 11
135.492
 21
84.9919
  0
LINE
  8
0
 10
135.492
 20
84.9919
 11
135.582
 21
84.9887
  0
LINE
  8
0
 10
135.582
 20
84.9887
 11
135.624
 21
84.987
  0
LINE
  8
0
 10
135.624
 20
84.987
 11
135.718
 21
84.9828
  0
LINE
  8
0
 10
135.718
 20
84.9828
 11
135.82
 21
84.9776
  0
LINE
  8
0
 10
135.82
 20
84.9776
 11
135.856
 21
84.9756
  0
LINE
  8
0
 10
135.856
 20
84.9756
 11
135.958
 21
84.9694
  0
LINE
  8
0
 10
135.958
 20
84.9694
 11
136.062
 21
84.9624
  0
LINE
  8
0
 10
136.062
 20
84.9624
 11
136.16
 21
84.9551
  0
LINE
  8
0
 10
136.16
 20
84.9551
 11
136.272
 21
84.946
  0
LINE
  8
0
 10
136.272
 20
84.946
 11
136.378
 21
84.9366
  0
LINE
  8
0
 10
136.378
 20
84.9366
 11
136.416
 21
84.933
  0
LINE
  8
0
 10
136.416
 20
84.933
 11
136.512
 21
84.9236
  0
LINE
  8
0
 10
136.512
 20
84.9236
 11
136.61
 21
84.9133
  0
LINE
  8
0
 10
136.61
 20
84.9133
 11
136.648
 21
84.9092
  0
LINE
  8
0
 10
136.648
 20
84.9092
 11
136.738
 21
84.899
  0
LINE
  8
0
 10
136.738
 20
84.899
 11
136.824
 21
84.8887
  0
LINE
  8
0
 10
136.824
 20
84.8887
 11
136.874
 21
84.8825
  0
LINE
  8
0
 10
136.874
 20
84.8825
 11
136.958
 21
84.8717
  0
LINE
  8
0
 10
136.958
 20
84.8717
 11
137.054
 21
84.8587
  0
LINE
  8
0
 10
137.054
 20
84.8587
 11
137.094
 21
84.8531
  0
LINE
  8
0
 10
137.094
 20
84.8531
 11
137.178
 21
84.841
  0
LINE
  8
0
 10
137.178
 20
84.841
 11
137.272
 21
84.8269
  0
LINE
  8
0
 10
137.272
 20
84.8269
 11
137.31
 21
84.8211
  0
LINE
  8
0
 10
137.31
 20
84.8211
 11
137.41
 21
84.8051
  0
LINE
  8
0
 10
137.41
 20
84.8051
 11
137.52
 21
84.7868
  0
LINE
  8
0
 10
137.52
 20
84.7868
 11
137.644
 21
84.7651
  0
LINE
  8
0
 10
137.644
 20
84.7651
 11
137.728
 21
84.7498
  0
LINE
  8
0
 10
137.728
 20
84.7498
 11
137.844
 21
84.7279
  0
LINE
  8
0
 10
137.844
 20
84.7279
 11
137.954
 21
84.7063
  0
LINE
  8
0
 10
137.954
 20
84.7063
 11
138.048
 21
84.6871
  0
LINE
  8
0
 10
138.048
 20
84.6871
 11
138.164
 21
84.6625
  0
LINE
  8
0
 10
138.164
 20
84.6625
 11
138.274
 21
84.6383
  0
LINE
  8
0
 10
138.274
 20
84.6383
 11
138.372
 21
84.6161
  0
LINE
  8
0
 10
138.372
 20
84.6161
 11
138.464
 21
84.5945
  0
LINE
  8
0
 10
138.464
 20
84.5945
 11
138.504
 21
84.585
  0
LINE
  8
0
 10
138.504
 20
84.585
 11
138.592
 21
84.5636
  0
LINE
  8
0
 10
138.592
 20
84.5636
 11
138.69
 21
84.539
  0
LINE
  8
0
 10
138.69
 20
84.539
 11
138.794
 21
84.5123
  0
LINE
  8
0
 10
138.794
 20
84.5123
 11
138.898
 21
84.4847
  0
LINE
  8
0
 10
138.898
 20
84.4847
 11
139.006
 21
84.4552
  0
LINE
  8
0
 10
139.006
 20
84.4552
 11
139.108
 21
84.4265
  0
LINE
  8
0
 10
139.108
 20
84.4265
 11
139.21
 21
84.3971
  0
LINE
  8
0
 10
139.21
 20
84.3971
 11
139.3
 21
84.3705
  0
LINE
  8
0
 10
139.3
 20
84.3705
 11
139.402
 21
84.3395
  0
LINE
  8
0
 10
139.402
 20
84.3395
 11
139.51
 21
84.3059
  0
LINE
  8
0
 10
139.51
 20
84.3059
 11
139.608
 21
84.2747
  0
LINE
  8
0
 10
139.608
 20
84.2747
 11
139.714
 21
84.24
  0
LINE
  8
0
 10
139.714
 20
84.24
 11
139.818
 21
84.2052
  0
LINE
  8
0
 10
139.818
 20
84.2052
 11
139.906
 21
84.175
  0
LINE
  8
0
 10
139.906
 20
84.175
 11
140.01
 21
84.1386
  0
LINE
  8
0
 10
140.01
 20
84.1386
 11
140.104
 21
84.1049
  0
LINE
  8
0
 10
140.104
 20
84.1049
 11
140.2
 21
84.0698
  0
LINE
  8
0
 10
140.2
 20
84.0698
 11
140.274
 21
84.0423
  0
LINE
  8
0
 10
140.274
 20
84.0423
 11
140.374
 21
84.0043
  0
LINE
  8
0
 10
140.374
 20
84.0043
 11
140.47
 21
83.9671
  0
LINE
  8
0
 10
140.47
 20
83.9671
 11
140.56
 21
83.9315
  0
LINE
  8
0
 10
140.56
 20
83.9315
 11
140.656
 21
83.8928
  0
LINE
  8
0
 10
140.656
 20
83.8928
 11
140.742
 21
83.8575
  0
LINE
  8
0
 10
140.742
 20
83.8575
 11
140.828
 21
83.8215
  0
LINE
  8
0
 10
140.828
 20
83.8215
 11
140.912
 21
83.7858
  0
LINE
  8
0
 10
140.912
 20
83.7858
 11
141.008
 21
83.7442
  0
LINE
  8
0
 10
141.008
 20
83.7442
 11
141.082
 21
83.7116
  0
LINE
  8
0
 10
141.082
 20
83.7116
 11
141.18
 21
83.6678
  0
LINE
  8
0
 10
141.18
 20
83.6678
 11
141.268
 21
83.6276
  0
LINE
  8
0
 10
141.268
 20
83.6276
 11
141.354
 21
83.5877
  0
LINE
  8
0
 10
141.354
 20
83.5877
 11
141.438
 21
83.5481
  0
LINE
  8
0
 10
141.438
 20
83.5481
 11
141.522
 21
83.5079
  0
LINE
  8
0
 10
141.522
 20
83.5079
 11
141.604
 21
83.468
  0
LINE
  8
0
 10
141.604
 20
83.468
 11
141.684
 21
83.4285
  0
LINE
  8
0
 10
141.684
 20
83.4285
 11
141.77
 21
83.3853
  0
LINE
  8
0
 10
141.77
 20
83.3853
 11
141.854
 21
83.3425
  0
LINE
  8
0
 10
141.854
 20
83.3425
 11
141.932
 21
83.3022
  0
LINE
  8
0
 10
141.932
 20
83.3022
 11
142.01
 21
83.2612
  0
LINE
  8
0
 10
142.01
 20
83.2612
 11
142.092
 21
83.2175
  0
LINE
  8
0
 10
142.092
 20
83.2175
 11
142.16
 21
83.1808
  0
LINE
  8
0
 10
142.16
 20
83.1808
 11
142.242
 21
83.136
  0
LINE
  8
0
 10
142.242
 20
83.136
 11
142.32
 21
83.0927
  0
LINE
  8
0
 10
142.32
 20
83.0927
 11
142.398
 21
83.0487
  0
LINE
  8
0
 10
142.398
 20
83.0487
 11
142.466
 21
83.0099
  0
LINE
  8
0
 10
142.466
 20
83.0099
 11
142.536
 21
82.9695
  0
LINE
  8
0
 10
142.536
 20
82.9695
 11
142.602
 21
82.931
  0
LINE
  8
0
 10
142.602
 20
82.931
 11
142.69
 21
82.8788
  0
LINE
  8
0
 10
142.69
 20
82.8788
 11
142.758
 21
82.838
  0
LINE
  8
0
 10
142.758
 20
82.838
 11
142.824
 21
82.7979
  0
LINE
  8
0
 10
142.824
 20
82.7979
 11
142.896
 21
82.7536
  0
LINE
  8
0
 10
142.896
 20
82.7536
 11
142.968
 21
82.7087
  0
LINE
  8
0
 10
142.968
 20
82.7087
 11
143.04
 21
82.6633
  0
LINE
  8
0
 10
143.04
 20
82.6633
 11
143.104
 21
82.6224
  0
LINE
  8
0
 10
143.104
 20
82.6224
 11
143.18
 21
82.5733
  0
LINE
  8
0
 10
143.18
 20
82.5733
 11
143.244
 21
82.5314
  0
LINE
  8
0
 10
143.244
 20
82.5314
 11
143.318
 21
82.4824
  0
LINE
  8
0
 10
143.318
 20
82.4824
 11
143.378
 21
82.4422
  0
LINE
  8
0
 10
143.378
 20
82.4422
 11
143.442
 21
82.3989
  0
LINE
  8
0
 10
143.442
 20
82.3989
 11
143.508
 21
82.3537
  0
LINE
  8
0
 10
143.508
 20
82.3537
 11
143.566
 21
82.3136
  0
LINE
  8
0
 10
143.566
 20
82.3136
 11
143.63
 21
82.2688
  0
LINE
  8
0
 10
143.63
 20
82.2688
 11
143.686
 21
82.2292
  0
LINE
  8
0
 10
143.686
 20
82.2292
 11
143.748
 21
82.1849
  0
LINE
  8
0
 10
143.748
 20
82.1849
 11
143.816
 21
82.1358
  0
LINE
  8
0
 10
143.816
 20
82.1358
 11
143.872
 21
82.0949
  0
LINE
  8
0
 10
143.872
 20
82.0949
 11
143.938
 21
82.0462
  0
LINE
  8
0
 10
143.938
 20
82.0462
 11
143.99
 21
82.0075
  0
LINE
  8
0
 10
143.99
 20
82.0075
 11
144.054
 21
81.9593
  0
LINE
  8
0
 10
144.054
 20
81.9593
 11
144.11
 21
81.9167
  0
LINE
  8
0
 10
144.11
 20
81.9167
 11
144.164
 21
81.8752
  0
LINE
  8
0
 10
144.164
 20
81.8752
 11
144.23
 21
81.824
  0
LINE
  8
0
 10
144.23
 20
81.824
 11
144.276
 21
81.7879
  0
LINE
  8
0
 10
144.276
 20
81.7879
 11
144.34
 21
81.7373
  0
LINE
  8
0
 10
144.34
 20
81.7373
 11
144.388
 21
81.6989
  0
LINE
  8
0
 10
144.388
 20
81.6989
 11
144.442
 21
81.6554
  0
LINE
  8
0
 10
144.442
 20
81.6554
 11
144.498
 21
81.6098
  0
LINE
  8
0
 10
144.498
 20
81.6098
 11
144.554
 21
81.5638
  0
LINE
  8
0
 10
144.554
 20
81.5638
 11
144.602
 21
81.524
  0
LINE
  8
0
 10
144.602
 20
81.524
 11
144.662
 21
81.4737
  0
LINE
  8
0
 10
144.662
 20
81.4737
 11
144.748
 21
81.4007
  0
LINE
  8
0
 10
144.748
 20
81.4007
 11
144.804
 21
81.3526
  0
LINE
  8
0
 10
144.804
 20
81.3526
 11
144.85
 21
81.3127
  0
LINE
  8
0
 10
144.85
 20
81.3127
 11
144.9
 21
81.269
  0
LINE
  8
0
 10
144.9
 20
81.269
 11
144.954
 21
81.2213
  0
LINE
  8
0
 10
144.954
 20
81.2213
 11
144.996
 21
81.1839
  0
LINE
  8
0
 10
144.996
 20
81.1839
 11
145.056
 21
81.13
  0
LINE
  8
0
 10
145.056
 20
81.13
 11
145.136
 21
81.0572
  0
LINE
  8
0
 10
145.136
 20
81.0572
 11
145.182
 21
81.0148
  0
LINE
  8
0
 10
145.182
 20
81.0148
 11
145.238
 21
80.9628
  0
LINE
  8
0
 10
145.238
 20
80.9628
 11
145.316
 21
80.8895
  0
LINE
  8
0
 10
145.316
 20
80.8895
 11
145.36
 21
80.8476
  0
LINE
  8
0
 10
145.36
 20
80.8476
 11
145.404
 21
80.8054
  0
LINE
  8
0
 10
145.404
 20
80.8054
 11
145.444
 21
80.7667
  0
LINE
  8
0
 10
145.444
 20
80.7667
 11
145.486
 21
80.7258
  0
LINE
  8
0
 10
145.486
 20
80.7258
 11
145.538
 21
80.6748
  0
LINE
  8
0
 10
145.538
 20
80.6748
 11
145.61
 21
80.6032
  0
LINE
  8
0
 10
145.61
 20
80.6032
 11
145.654
 21
80.559
  0
LINE
  8
0
 10
145.654
 20
80.559
 11
145.696
 21
80.5164
  0
LINE
  8
0
 10
145.696
 20
80.5164
 11
145.77
 21
80.4406
  0
LINE
  8
0
 10
145.77
 20
80.4406
 11
145.804
 21
80.4055
  0
LINE
  8
0
 10
145.804
 20
80.4055
 11
145.85
 21
80.3575
  0
LINE
  8
0
 10
145.85
 20
80.3575
 11
145.896
 21
80.3091
  0
LINE
  8
0
 10
145.896
 20
80.3091
 11
145.96
 21
80.241
  0
LINE
  8
0
 10
145.96
 20
80.241
 11
145.998
 21
80.2002
  0
LINE
  8
0
 10
145.998
 20
80.2002
 11
146.034
 21
80.1612
  0
LINE
  8
0
 10
146.034
 20
80.1612
 11
146.102
 21
80.0869
  0
LINE
  8
0
 10
146.102
 20
80.0869
 11
146.138
 21
80.0471
  0
LINE
  8
0
 10
146.138
 20
80.0471
 11
146.166
 21
80.016
  0
LINE
  8
0
 10
146.166
 20
80.016
 11
146.204
 21
79.9735
  0
LINE
  8
0
 10
146.204
 20
79.9735
 11
146.24
 21
79.9329
  0
LINE
  8
0
 10
146.24
 20
79.9329
 11
146.302
 21
79.8623
  0
LINE
  8
0
 10
146.302
 20
79.8623
 11
146.34
 21
79.8186
  0
LINE
  8
0
 10
146.34
 20
79.8186
 11
146.402
 21
79.7465
  0
LINE
  8
0
 10
146.402
 20
79.7465
 11
146.43
 21
79.7137
  0
LINE
  8
0
 10
146.43
 20
79.7137
 11
146.462
 21
79.6759
  0
LINE
  8
0
 10
146.462
 20
79.6759
 11
146.5
 21
79.6307
  0
LINE
  8
0
 10
146.5
 20
79.6307
 11
146.554
 21
79.5658
  0
LINE
  8
0
 10
146.554
 20
79.5658
 11
146.582
 21
79.5319
  0
LINE
  8
0
 10
146.582
 20
79.5319
 11
146.612
 21
79.4953
  0
LINE
  8
0
 10
146.612
 20
79.4953
 11
146.674
 21
79.419
  0
LINE
  8
0
 10
146.674
 20
79.419
 11
146.724
 21
79.3567
  0
LINE
  8
0
 10
146.724
 20
79.3567
 11
146.776
 21
79.2912
  0
LINE
  8
0
 10
146.776
 20
79.2912
 11
146.832
 21
79.2197
  0
LINE
  8
0
 10
146.832
 20
79.2197
 11
146.86
 21
79.1837
  0
LINE
  8
0
 10
146.86
 20
79.1837
 11
146.886
 21
79.15
  0
LINE
  8
0
 10
146.886
 20
79.15
 11
146.912
 21
79.1161
  0
LINE
  8
0
 10
146.912
 20
79.1161
 11
146.946
 21
79.0715
  0
LINE
  8
0
 10
146.946
 20
79.0715
 11
146.988
 21
79.016
  0
LINE
  8
0
 10
146.988
 20
79.016
 11
147.01
 21
78.9866
  0
LINE
  8
0
 10
147.01
 20
78.9866
 11
147.042
 21
78.9437
  0
LINE
  8
0
 10
147.042
 20
78.9437
 11
147.088
 21
78.8815
  0
LINE
  8
0
 10
147.088
 20
78.8815
 11
147.14
 21
78.8102
  0
LINE
  8
0
 10
147.14
 20
78.8102
 11
147.176
 21
78.7604
  0
LINE
  8
0
 10
147.176
 20
78.7604
 11
147.224
 21
78.6933
  0
LINE
  8
0
 10
147.224
 20
78.6933
 11
147.266
 21
78.634
  0
LINE
  8
0
 10
147.266
 20
78.634
 11
147.294
 21
78.594
  0
LINE
  8
0
 10
147.294
 20
78.594
 11
147.352
 21
78.5105
  0
LINE
  8
0
 10
147.352
 20
78.5105
 11
147.376
 21
78.4755
  0
LINE
  8
0
 10
147.376
 20
78.4755
 11
147.432
 21
78.3932
  0
LINE
  8
0
 10
147.432
 20
78.3932
 11
147.472
 21
78.3336
  0
LINE
  8
0
 10
147.472
 20
78.3336
 11
147.514
 21
78.2704
  0
LINE
  8
0
 10
147.514
 20
78.2704
 11
147.556
 21
78.2065
  0
LINE
  8
0
 10
147.556
 20
78.2065
 11
147.59
 21
78.1543
  0
LINE
  8
0
 10
147.59
 20
78.1543
 11
147.624
 21
78.1015
  0
LINE
  8
0
 10
147.624
 20
78.1015
 11
147.664
 21
78.0388
  0
LINE
  8
0
 10
147.664
 20
78.0388
 11
147.696
 21
77.9882
  0
LINE
  8
0
 10
147.696
 20
77.9882
 11
147.732
 21
77.9307
  0
LINE
  8
0
 10
147.732
 20
77.9307
 11
147.764
 21
77.8791
  0
LINE
  8
0
 10
147.764
 20
77.8791
 11
147.796
 21
77.827
  0
LINE
  8
0
 10
147.796
 20
77.827
 11
147.846
 21
77.7447
  0
LINE
  8
0
 10
147.846
 20
77.7447
 11
147.874
 21
77.6981
  0
LINE
  8
0
 10
147.874
 20
77.6981
 11
147.906
 21
77.6443
  0
LINE
  8
0
 10
147.906
 20
77.6443
 11
147.952
 21
77.5661
  0
LINE
  8
0
 10
147.952
 20
77.5661
 11
147.982
 21
77.5145
  0
LINE
  8
0
 10
147.982
 20
77.5145
 11
148.022
 21
77.445
  0
LINE
  8
0
 10
148.022
 20
77.445
 11
148.056
 21
77.3852
  0
LINE
  8
0
 10
148.056
 20
77.3852
 11
148.078
 21
77.3461
  0
LINE
  8
0
 10
148.078
 20
77.3461
 11
148.104
 21
77.2997
  0
LINE
  8
0
 10
148.104
 20
77.2997
 11
148.132
 21
77.2492
  0
LINE
  8
0
 10
148.132
 20
77.2492
 11
148.158
 21
77.2019
  0
LINE
  8
0
 10
148.158
 20
77.2019
 11
148.196
 21
77.132
  0
LINE
  8
0
 10
148.196
 20
77.132
 11
148.224
 21
77.08
  0
LINE
  8
0
 10
148.224
 20
77.08
 11
148.254
 21
77.0236
  0
LINE
  8
0
 10
148.254
 20
77.0236
 11
148.29
 21
76.9553
  0
LINE
  8
0
 10
148.29
 20
76.9553
 11
148.314
 21
76.9092
  0
LINE
  8
0
 10
148.314
 20
76.9092
 11
148.334
 21
76.8705
  0
LINE
  8
0
 10
148.334
 20
76.8705
 11
148.362
 21
76.8159
  0
LINE
  8
0
 10
148.362
 20
76.8159
 11
148.378
 21
76.7845
  0
LINE
  8
0
 10
148.378
 20
76.7845
 11
148.408
 21
76.725
  0
LINE
  8
0
 10
148.408
 20
76.725
 11
148.438
 21
76.6648
  0
LINE
  8
0
 10
148.438
 20
76.6648
 11
148.47
 21
76.5999
  0
LINE
  8
0
 10
148.47
 20
76.5999
 11
148.488
 21
76.5631
  0
LINE
  8
0
 10
148.488
 20
76.5631
 11
148.516
 21
76.5052
  0
LINE
  8
0
 10
148.516
 20
76.5052
 11
148.546
 21
76.4425
  0
LINE
  8
0
 10
148.546
 20
76.4425
 11
148.562
 21
76.4088
  0
LINE
  8
0
 10
148.562
 20
76.4088
 11
148.588
 21
76.3534
  0
LINE
  8
0
 10
148.588
 20
76.3534
 11
148.622
 21
76.2802
  0
LINE
  8
0
 10
148.622
 20
76.2802
 11
148.656
 21
76.2059
  0
LINE
  8
0
 10
148.656
 20
76.2059
 11
148.68
 21
76.1528
  0
LINE
  8
0
 10
148.68
 20
76.1528
 11
148.702
 21
76.1037
  0
LINE
  8
0
 10
148.702
 20
76.1037
 11
148.732
 21
76.0359
  0
LINE
  8
0
 10
148.732
 20
76.0359
 11
148.764
 21
75.9626
  0
LINE
  8
0
 10
148.764
 20
75.9626
 11
148.786
 21
75.9115
  0
LINE
  8
0
 10
148.786
 20
75.9115
 11
148.812
 21
75.8505
  0
LINE
  8
0
 10
148.812
 20
75.8505
 11
148.834
 21
75.7983
  0
LINE
  8
0
 10
148.834
 20
75.7983
 11
148.852
 21
75.7552
  0
LINE
  8
0
 10
148.852
 20
75.7552
 11
148.872
 21
75.7068
  0
LINE
  8
0
 10
148.872
 20
75.7068
 11
148.89
 21
75.6628
  0
LINE
  8
0
 10
148.89
 20
75.6628
 11
148.926
 21
75.5737
  0
LINE
  8
0
 10
148.926
 20
75.5737
 11
148.944
 21
75.5285
  0
LINE
  8
0
 10
148.944
 20
75.5285
 11
148.966
 21
75.4727
  0
LINE
  8
0
 10
148.966
 20
75.4727
 11
148.984
 21
75.4266
  0
LINE
  8
0
 10
148.984
 20
75.4266
 11
149
 21
75.3852
  0
LINE
  8
0
 10
149
 20
75.3852
 11
149.028
 21
75.3118
  0
LINE
  8
0
 10
149.028
 20
75.3118
 11
149.05
 21
75.2533
  0
LINE
  8
0
 10
149.05
 20
75.2533
 11
149.07
 21
75.1995
  0
LINE
  8
0
 10
149.07
 20
75.1995
 11
149.088
 21
75.1506
  0
LINE
  8
0
 10
149.088
 20
75.1506
 11
149.108
 21
75.0955
  0
LINE
  8
0
 10
149.108
 20
75.0955
 11
149.12
 21
75.0622
  0
LINE
  8
0
 10
149.12
 20
75.0622
 11
149.134
 21
75.0229
  0
LINE
  8
0
 10
149.134
 20
75.0229
 11
149.154
 21
74.9663
  0
LINE
  8
0
 10
149.154
 20
74.9663
 11
149.174
 21
74.9089
  0
LINE
  8
0
 10
149.174
 20
74.9089
 11
149.196
 21
74.8449
  0
LINE
  8
0
 10
149.196
 20
74.8449
 11
149.214
 21
74.7919
  0
LINE
  8
0
 10
149.214
 20
74.7919
 11
149.232
 21
74.7382
  0
LINE
  8
0
 10
149.232
 20
74.7382
 11
149.25
 21
74.6837
  0
LINE
  8
0
 10
149.25
 20
74.6837
 11
149.27
 21
74.6225
  0
LINE
  8
0
 10
149.27
 20
74.6225
 11
149.292
 21
74.554
  0
LINE
  8
0
 10
149.292
 20
74.554
 11
149.312
 21
74.4907
  0
LINE
  8
0
 10
149.312
 20
74.4907
 11
149.334
 21
74.42
  0
LINE
  8
0
 10
149.334
 20
74.42
 11
149.354
 21
74.3546
  0
LINE
  8
0
 10
149.354
 20
74.3546
 11
149.368
 21
74.3082
  0
LINE
  8
0
 10
149.368
 20
74.3082
 11
149.384
 21
74.2545
  0
LINE
  8
0
 10
149.384
 20
74.2545
 11
149.396
 21
74.2137
  0
LINE
  8
0
 10
149.396
 20
74.2137
 11
149.416
 21
74.1447
  0
LINE
  8
0
 10
149.416
 20
74.1447
 11
149.43
 21
74.0957
  0
LINE
  8
0
 10
149.43
 20
74.0957
 11
149.446
 21
74.0389
  0
LINE
  8
0
 10
149.446
 20
74.0389
 11
149.456
 21
74.003
  0
LINE
  8
0
 10
149.456
 20
74.003
 11
149.474
 21
73.9374
  0
LINE
  8
0
 10
149.474
 20
73.9374
 11
149.486
 21
73.893
  0
LINE
  8
0
 10
149.486
 20
73.893
 11
149.5
 21
73.8406
  0
LINE
  8
0
 10
149.5
 20
73.8406
 11
149.516
 21
73.7796
  0
LINE
  8
0
 10
149.516
 20
73.7796
 11
149.528
 21
73.7332
  0
LINE
  8
0
 10
149.528
 20
73.7332
 11
149.542
 21
73.6783
  0
LINE
  8
0
 10
149.542
 20
73.6783
 11
149.552
 21
73.6386
  0
LINE
  8
0
 10
149.552
 20
73.6386
 11
149.564
 21
73.5902
  0
LINE
  8
0
 10
149.564
 20
73.5902
 11
149.584
 21
73.5081
  0
LINE
  8
0
 10
149.584
 20
73.5081
 11
149.592
 21
73.4747
  0
LINE
  8
0
 10
149.592
 20
73.4747
 11
149.612
 21
73.3896
  0
LINE
  8
0
 10
149.612
 20
73.3896
 11
149.622
 21
73.3462
  0
LINE
  8
0
 10
149.622
 20
73.3462
 11
149.64
 21
73.2666
  0
LINE
  8
0
 10
149.64
 20
73.2666
 11
149.652
 21
73.2123
  0
LINE
  8
0
 10
149.652
 20
73.2123
 11
149.668
 21
73.1384
  0
LINE
  8
0
 10
149.668
 20
73.1384
 11
149.68
 21
73.0818
  0
LINE
  8
0
 10
149.68
 20
73.0818
 11
149.696
 21
73.0046
  0
LINE
  8
0
 10
149.696
 20
73.0046
 11
149.71
 21
72.9353
  0
LINE
  8
0
 10
149.71
 20
72.9353
 11
149.724
 21
72.8642
  0
LINE
  8
0
 10
149.724
 20
72.8642
 11
149.736
 21
72.8018
  0
LINE
  8
0
 10
149.736
 20
72.8018
 11
149.75
 21
72.7272
  0
LINE
  8
0
 10
149.75
 20
72.7272
 11
149.758
 21
72.6835
  0
LINE
  8
0
 10
149.758
 20
72.6835
 11
149.768
 21
72.628
  0
LINE
  8
0
 10
149.768
 20
72.628
 11
149.778
 21
72.5711
  0
LINE
  8
0
 10
149.778
 20
72.5711
 11
149.788
 21
72.513
  0
LINE
  8
0
 10
149.788
 20
72.513
 11
149.798
 21
72.4534
  0
LINE
  8
0
 10
149.798
 20
72.4534
 11
149.808
 21
72.3923
  0
LINE
  8
0
 10
149.808
 20
72.3923
 11
149.816
 21
72.3422
  0
LINE
  8
0
 10
149.816
 20
72.3422
 11
149.824
 21
72.2911
  0
LINE
  8
0
 10
149.824
 20
72.2911
 11
149.834
 21
72.2254
  0
LINE
  8
0
 10
149.834
 20
72.2254
 11
149.838
 21
72.1986
  0
LINE
  8
0
 10
149.838
 20
72.1986
 11
149.846
 21
72.1439
  0
LINE
  8
0
 10
149.846
 20
72.1439
 11
149.854
 21
72.0877
  0
LINE
  8
0
 10
149.854
 20
72.0877
 11
149.862
 21
72.03
  0
LINE
  8
0
 10
149.862
 20
72.03
 11
149.866
 21
72.0005
  0
LINE
  8
0
 10
149.866
 20
72.0005
 11
149.872
 21
71.9554
  0
LINE
  8
0
 10
149.872
 20
71.9554
 11
149.878
 21
71.9092
  0
LINE
  8
0
 10
149.878
 20
71.9092
 11
149.884
 21
71.8619
  0
LINE
  8
0
 10
149.884
 20
71.8619
 11
149.89
 21
71.8132
  0
LINE
  8
0
 10
149.89
 20
71.8132
 11
149.894
 21
71.7801
  0
LINE
  8
0
 10
149.894
 20
71.7801
 11
149.9
 21
71.7292
  0
LINE
  8
0
 10
149.9
 20
71.7292
 11
149.906
 21
71.6767
  0
LINE
  8
0
 10
149.906
 20
71.6767
 11
149.912
 21
71.6224
  0
LINE
  8
0
 10
149.912
 20
71.6224
 11
149.918
 21
71.5663
  0
LINE
  8
0
 10
149.918
 20
71.5663
 11
149.922
 21
71.5277
  0
LINE
  8
0
 10
149.922
 20
71.5277
 11
149.926
 21
71.4881
  0
LINE
  8
0
 10
149.926
 20
71.4881
 11
149.93
 21
71.4474
  0
LINE
  8
0
 10
149.93
 20
71.4474
 11
149.934
 21
71.4056
  0
LINE
  8
0
 10
149.934
 20
71.4056
 11
149.938
 21
71.3624
  0
LINE
  8
0
 10
149.938
 20
71.3624
 11
149.942
 21
71.3178
  0
LINE
  8
0
 10
149.942
 20
71.3178
 11
149.946
 21
71.2716
  0
LINE
  8
0
 10
149.946
 20
71.2716
 11
149.95
 21
71.2237
  0
LINE
  8
0
 10
149.95
 20
71.2237
 11
149.954
 21
71.1738
  0
LINE
  8
0
 10
149.954
 20
71.1738
 11
149.956
 21
71.1481
  0
LINE
  8
0
 10
149.956
 20
71.1481
 11
149.958
 21
71.1217
  0
LINE
  8
0
 10
149.958
 20
71.1217
 11
149.96
 21
71.0947
  0
LINE
  8
0
 10
149.96
 20
71.0947
 11
149.962
 21
71.067
  0
LINE
  8
0
 10
149.962
 20
71.067
 11
149.964
 21
71.0386
  0
LINE
  8
0
 10
149.964
 20
71.0386
 11
149.966
 21
71.0094
  0
LINE
  8
0
 10
149.966
 20
71.0094
 11
149.968
 21
70.9793
  0
LINE
  8
0
 10
149.968
 20
70.9793
 11
149.97
 21
70.9482
  0
LINE
  8
0
 10
149.97
 20
70.9482
 11
149.972
 21
70.9161
  0
LINE
  8
0
 10
149.972
 20
70.9161
 11
149.974
 21
70.8828
  0
LINE
  8
0
 10
149.974
 20
70.8828
 11
149.976
 21
70.8482
  0
LINE
  8
0
 10
149.976
 20
70.8482
 11
149.978
 21
70.8121
  0
LINE
  8
0
 10
149.978
 20
70.8121
 11
149.98
 21
70.7743
  0
LINE
  8
0
 10
149.98
 20
70.7743
 11
149.982
 21
70.7346
  0
LINE
  8
0
 10
149.982
 20
70.7346
 11
149.984
 21
70.6926
  0
LINE
  8
0
 10
149.984
 20
70.6926
 11
149.986
 21
70.6479
  0
LINE
  8
0
 10
149.986
 20
70.6479
 11
149.988
 21
70.5999
  0
LINE
  8
0
 10
149.988
 20
70.5999
 11
149.99
 21
70.5476
  0
LINE
  8
0
 10
149.99
 20
70.5476
 11
149.992
 21
70.4898
  0
LINE
  8
0
 10
149.992
 20
70.4898
 11
149.994
 21
70.4242
  0
LINE
  8
0
 10
149.994
 20
70.4242
 11
149.996
 21
70.3464
  0
LINE
  8
0
 10
149.996
 20
70.3464
 11
149.998
 21
70.2449
  0
LINE
  8
0
 10
149.998
 20
70.2449
 11
150
 21
70
  0
LINE
  8
0
 10
150
 20
70
 11
150
 21
60
  0
LINE
  8
0
 10
150
 20
60
 11
149.998
 21
59.6838
  0
LINE
  8
0
 10
149.998
 20
59.6838
 11
149.996
 21
59.5528
  0
LINE
  8
0
 10
149.996
 20
59.5528
 11
149.994
 21
59.4523
  0
LINE
  8
0
 10
149.994
 20
59.4523
 11
149.992
 21
59.3676
  0
LINE
  8
0
 10
149.992
 20
59.3676
 11
149.99
 21
59.293
  0
LINE
  8
0
 10
149.99
 20
59.293
 11
149.988
 21
59.2255
  0
LINE
  8
0
 10
149.988
 20
59.2255
 11
149.986
 21
59.1635
  0
LINE
  8
0
 10
149.986
 20
59.1635
 11
149.984
 21
59.1057
  0
LINE
  8
0
 10
149.984
 20
59.1057
 11
149.982
 21
59.0515
  0
LINE
  8
0
 10
149.982
 20
59.0515
 11
149.98
 21
59.0002
  0
LINE
  8
0
 10
149.98
 20
59.0002
 11
149.978
 21
58.9514
  0
LINE
  8
0
 10
149.978
 20
58.9514
 11
149.976
 21
58.9048
  0
LINE
  8
0
 10
149.976
 20
58.9048
 11
149.974
 21
58.8601
  0
LINE
  8
0
 10
149.974
 20
58.8601
 11
149.972
 21
58.8171
  0
LINE
  8
0
 10
149.972
 20
58.8171
 11
149.97
 21
58.7756
  0
LINE
  8
0
 10
149.97
 20
58.7756
 11
149.968
 21
58.7355
  0
LINE
  8
0
 10
149.968
 20
58.7355
 11
149.966
 21
58.6966
  0
LINE
  8
0
 10
149.966
 20
58.6966
 11
149.964
 21
58.6588
  0
LINE
  8
0
 10
149.964
 20
58.6588
 11
149.962
 21
58.6221
  0
LINE
  8
0
 10
149.962
 20
58.6221
 11
149.96
 21
58.5863
  0
LINE
  8
0
 10
149.96
 20
58.5863
 11
149.958
 21
58.5515
  0
LINE
  8
0
 10
149.958
 20
58.5515
 11
149.956
 21
58.5174
  0
LINE
  8
0
 10
149.956
 20
58.5174
 11
149.954
 21
58.4841
  0
LINE
  8
0
 10
149.954
 20
58.4841
 11
149.95
 21
58.4196
  0
LINE
  8
0
 10
149.95
 20
58.4196
 11
149.946
 21
58.3577
  0
LINE
  8
0
 10
149.946
 20
58.3577
 11
149.942
 21
58.298
  0
LINE
  8
0
 10
149.942
 20
58.298
 11
149.938
 21
58.2404
  0
LINE
  8
0
 10
149.938
 20
58.2404
 11
149.934
 21
58.1846
  0
LINE
  8
0
 10
149.934
 20
58.1846
 11
149.93
 21
58.1305
  0
LINE
  8
0
 10
149.93
 20
58.1305
 11
149.926
 21
58.0779
  0
LINE
  8
0
 10
149.926
 20
58.0779
 11
149.922
 21
58.0267
  0
LINE
  8
0
 10
149.922
 20
58.0267
 11
149.918
 21
57.9768
  0
LINE
  8
0
 10
149.918
 20
57.9768
 11
149.914
 21
57.9281
  0
LINE
  8
0
 10
149.914
 20
57.9281
 11
149.91
 21
57.8806
  0
LINE
  8
0
 10
149.91
 20
57.8806
 11
149.906
 21
57.8341
  0
LINE
  8
0
 10
149.906
 20
57.8341
 11
149.902
 21
57.7886
  0
LINE
  8
0
 10
149.902
 20
57.7886
 11
149.896
 21
57.722
  0
LINE
  8
0
 10
149.896
 20
57.722
 11
149.89
 21
57.6574
  0
LINE
  8
0
 10
149.89
 20
57.6574
 11
149.886
 21
57.6152
  0
LINE
  8
0
 10
149.886
 20
57.6152
 11
149.88
 21
57.5534
  0
LINE
  8
0
 10
149.88
 20
57.5534
 11
149.874
 21
57.4932
  0
LINE
  8
0
 10
149.874
 20
57.4932
 11
149.868
 21
57.4343
  0
LINE
  8
0
 10
149.868
 20
57.4343
 11
149.862
 21
57.3768
  0
LINE
  8
0
 10
149.862
 20
57.3768
 11
149.856
 21
57.3206
  0
LINE
  8
0
 10
149.856
 20
57.3206
 11
149.85
 21
57.2655
  0
LINE
  8
0
 10
149.85
 20
57.2655
 11
149.842
 21
57.1937
  0
LINE
  8
0
 10
149.842
 20
57.1937
 11
149.834
 21
57.1238
  0
LINE
  8
0
 10
149.834
 20
57.1238
 11
149.824
 21
57.0387
  0
LINE
  8
0
 10
149.824
 20
57.0387
 11
149.816
 21
56.9724
  0
LINE
  8
0
 10
149.816
 20
56.9724
 11
149.806
 21
56.8916
  0
LINE
  8
0
 10
149.806
 20
56.8916
 11
149.798
 21
56.8284
  0
LINE
  8
0
 10
149.798
 20
56.8284
 11
149.788
 21
56.7511
  0
LINE
  8
0
 10
149.788
 20
56.7511
 11
149.778
 21
56.6757
  0
LINE
  8
0
 10
149.778
 20
56.6757
 11
149.764
 21
56.573
  0
LINE
  8
0
 10
149.764
 20
56.573
 11
149.752
 21
56.4874
  0
LINE
  8
0
 10
149.752
 20
56.4874
 11
149.74
 21
56.4038
  0
LINE
  8
0
 10
149.74
 20
56.4038
 11
149.728
 21
56.3222
  0
LINE
  8
0
 10
149.728
 20
56.3222
 11
149.716
 21
56.2424
  0
LINE
  8
0
 10
149.716
 20
56.2424
 11
149.702
 21
56.1515
  0
LINE
  8
0
 10
149.702
 20
56.1515
 11
149.69
 21
56.0752
  0
LINE
  8
0
 10
149.69
 20
56.0752
 11
149.676
 21
55.9881
  0
LINE
  8
0
 10
149.676
 20
55.9881
 11
149.662
 21
55.903
  0
LINE
  8
0
 10
149.662
 20
55.903
 11
149.646
 21
55.8078
  0
LINE
  8
0
 10
149.646
 20
55.8078
 11
149.63
 21
55.7148
  0
LINE
  8
0
 10
149.63
 20
55.7148
 11
149.612
 21
55.6126
  0
LINE
  8
0
 10
149.612
 20
55.6126
 11
149.592
 21
55.5018
  0
LINE
  8
0
 10
149.592
 20
55.5018
 11
149.576
 21
55.4152
  0
LINE
  8
0
 10
149.576
 20
55.4152
 11
149.558
 21
55.3197
  0
LINE
  8
0
 10
149.558
 20
55.3197
 11
149.54
 21
55.2263
  0
LINE
  8
0
 10
149.54
 20
55.2263
 11
149.522
 21
55.1347
  0
LINE
  8
0
 10
149.522
 20
55.1347
 11
149.5
 21
55.0251
  0
LINE
  8
0
 10
149.5
 20
55.0251
 11
149.474
 21
54.8987
  0
LINE
  8
0
 10
149.474
 20
54.8987
 11
149.464
 21
54.8509
  0
LINE
  8
0
 10
149.464
 20
54.8509
 11
149.452
 21
54.7943
  0
LINE
  8
0
 10
149.452
 20
54.7943
 11
149.442
 21
54.7475
  0
LINE
  8
0
 10
149.442
 20
54.7475
 11
149.418
 21
54.637
  0
LINE
  8
0
 10
149.418
 20
54.637
 11
149.392
 21
54.52
  0
LINE
  8
0
 10
149.392
 20
54.52
 11
149.372
 21
54.4317
  0
LINE
  8
0
 10
149.372
 20
54.4317
 11
149.356
 21
54.3622
  0
LINE
  8
0
 10
149.356
 20
54.3622
 11
149.336
 21
54.2764
  0
LINE
  8
0
 10
149.336
 20
54.2764
 11
149.31
 21
54.167
  0
LINE
  8
0
 10
149.31
 20
54.167
 11
149.29
 21
54.0843
  0
LINE
  8
0
 10
149.29
 20
54.0843
 11
149.272
 21
54.0108
  0
LINE
  8
0
 10
149.272
 20
54.0108
 11
149.25
 21
53.9224
  0
LINE
  8
0
 10
149.25
 20
53.9224
 11
149.228
 21
53.8353
  0
LINE
  8
0
 10
149.228
 20
53.8353
 11
149.198
 21
53.7185
  0
LINE
  8
0
 10
149.198
 20
53.7185
 11
149.174
 21
53.6268
  0
LINE
  8
0
 10
149.174
 20
53.6268
 11
149.142
 21
53.5066
  0
LINE
  8
0
 10
149.142
 20
53.5066
 11
149.114
 21
53.4034
  0
LINE
  8
0
 10
149.114
 20
53.4034
 11
149.094
 21
53.3307
  0
LINE
  8
0
 10
149.094
 20
53.3307
 11
149.074
 21
53.2589
  0
LINE
  8
0
 10
149.074
 20
53.2589
 11
149.056
 21
53.1949
  0
LINE
  8
0
 10
149.056
 20
53.1949
 11
149.044
 21
53.1526
  0
LINE
  8
0
 10
149.044
 20
53.1526
 11
149.028
 21
53.0967
  0
LINE
  8
0
 10
149.028
 20
53.0967
 11
149.004
 21
53.0137
  0
LINE
  8
0
 10
149.004
 20
53.0137
 11
148.974
 21
52.9115
  0
LINE
  8
0
 10
148.974
 20
52.9115
 11
148.96
 21
52.8643
  0
LINE
  8
0
 10
148.96
 20
52.8643
 11
148.924
 21
52.7445
  0
LINE
  8
0
 10
148.924
 20
52.7445
 11
148.91
 21
52.6985
  0
LINE
  8
0
 10
148.91
 20
52.6985
 11
148.892
 21
52.6398
  0
LINE
  8
0
 10
148.892
 20
52.6398
 11
148.868
 21
52.5623
  0
LINE
  8
0
 10
148.868
 20
52.5623
 11
148.836
 21
52.4604
  0
LINE
  8
0
 10
148.836
 20
52.4604
 11
148.81
 21
52.3787
  0
LINE
  8
0
 10
148.81
 20
52.3787
 11
148.782
 21
52.2918
  0
LINE
  8
0
 10
148.782
 20
52.2918
 11
148.76
 21
52.2242
  0
LINE
  8
0
 10
148.76
 20
52.2242
 11
148.732
 21
52.1392
  0
LINE
  8
0
 10
148.732
 20
52.1392
 11
148.7
 21
52.0432
  0
LINE
  8
0
 10
148.7
 20
52.0432
 11
148.67
 21
51.9544
  0
LINE
  8
0
 10
148.67
 20
51.9544
 11
148.642
 21
51.8725
  0
LINE
  8
0
 10
148.642
 20
51.8725
 11
148.616
 21
51.7973
  0
LINE
  8
0
 10
148.616
 20
51.7973
 11
148.59
 21
51.7228
  0
LINE
  8
0
 10
148.59
 20
51.7228
 11
148.57
 21
51.666
  0
LINE
  8
0
 10
148.57
 20
51.666
 11
148.532
 21
51.5593
  0
LINE
  8
0
 10
148.532
 20
51.5593
 11
148.504
 21
51.4817
  0
LINE
  8
0
 10
148.504
 20
51.4817
 11
148.474
 21
51.3993
  0
LINE
  8
0
 10
148.474
 20
51.3993
 11
148.45
 21
51.3341
  0
LINE
  8
0
 10
148.45
 20
51.3341
 11
148.426
 21
51.2694
  0
LINE
  8
0
 10
148.426
 20
51.2694
 11
148.392
 21
51.1787
  0
LINE
  8
0
 10
148.392
 20
51.1787
 11
148.366
 21
51.1101
  0
LINE
  8
0
 10
148.366
 20
51.1101
 11
148.35
 21
51.0682
  0
LINE
  8
0
 10
148.35
 20
51.0682
 11
148.314
 21
50.9746
  0
LINE
  8
0
 10
148.314
 20
50.9746
 11
148.292
 21
50.918
  0
LINE
  8
0
 10
148.292
 20
50.918
 11
148.25
 21
50.811
  0
LINE
  8
0
 10
148.25
 20
50.811
 11
148.23
 21
50.7606
  0
LINE
  8
0
 10
148.23
 20
50.7606
 11
148.182
 21
50.6408
  0
LINE
  8
0
 10
148.182
 20
50.6408
 11
148.162
 21
50.5914
  0
LINE
  8
0
 10
148.162
 20
50.5914
 11
148.112
 21
50.4692
  0
LINE
  8
0
 10
148.112
 20
50.4692
 11
148.066
 21
50.3584
  0
LINE
  8
0
 10
148.066
 20
50.3584
 11
148.034
 21
50.2822
  0
LINE
  8
0
 10
148.034
 20
50.2822
 11
148.01
 21
50.2255
  0
LINE
  8
0
 10
148.01
 20
50.2255
 11
147.988
 21
50.1739
  0
LINE
  8
0
 10
147.988
 20
50.1739
 11
147.954
 21
50.0947
  0
LINE
  8
0
 10
147.954
 20
50.0947
 11
147.918
 21
50.0117
  0
LINE
  8
0
 10
147.918
 20
50.0117
 11
147.892
 21
49.9523
  0
LINE
  8
0
 10
147.892
 20
49.9523
 11
147.868
 21
49.8978
  0
LINE
  8
0
 10
147.868
 20
49.8978
 11
147.844
 21
49.8436
  0
LINE
  8
0
 10
147.844
 20
49.8436
 11
147.816
 21
49.7809
  0
LINE
  8
0
 10
147.816
 20
49.7809
 11
147.778
 21
49.6965
  0
LINE
  8
0
 10
147.778
 20
49.6965
 11
147.736
 21
49.6041
  0
LINE
  8
0
 10
147.736
 20
49.6041
 11
147.708
 21
49.5431
  0
LINE
  8
0
 10
147.708
 20
49.5431
 11
147.68
 21
49.4825
  0
LINE
  8
0
 10
147.68
 20
49.4825
 11
147.65
 21
49.418
  0
LINE
  8
0
 10
147.65
 20
49.418
 11
147.622
 21
49.3583
  0
LINE
  8
0
 10
147.622
 20
49.3583
 11
147.594
 21
49.299
  0
LINE
  8
0
 10
147.594
 20
49.299
 11
147.548
 21
49.2024
  0
LINE
  8
0
 10
147.548
 20
49.2024
 11
147.5
 21
49.1027
  0
LINE
  8
0
 10
147.5
 20
49.1027
 11
147.484
 21
49.0698
  0
LINE
  8
0
 10
147.484
 20
49.0698
 11
147.454
 21
49.0083
  0
LINE
  8
0
 10
147.454
 20
49.0083
 11
147.418
 21
48.935
  0
LINE
  8
0
 10
147.418
 20
48.935
 11
147.4
 21
48.8986
  0
LINE
  8
0
 10
147.4
 20
48.8986
 11
147.352
 21
48.8023
  0
LINE
  8
0
 10
147.352
 20
48.8023
 11
147.318
 21
48.7347
  0
LINE
  8
0
 10
147.318
 20
48.7347
 11
147.282
 21
48.6637
  0
LINE
  8
0
 10
147.282
 20
48.6637
 11
147.25
 21
48.601
  0
LINE
  8
0
 10
147.25
 20
48.601
 11
147.228
 21
48.5581
  0
LINE
  8
0
 10
147.228
 20
48.5581
 11
147.196
 21
48.4962
  0
LINE
  8
0
 10
147.196
 20
48.4962
 11
147.156
 21
48.4193
  0
LINE
  8
0
 10
147.156
 20
48.4193
 11
147.114
 21
48.3393
  0
LINE
  8
0
 10
147.114
 20
48.3393
 11
147.086
 21
48.2864
  0
LINE
  8
0
 10
147.086
 20
48.2864
 11
147.038
 21
48.1963
  0
LINE
  8
0
 10
147.038
 20
48.1963
 11
147.016
 21
48.1553
  0
LINE
  8
0
 10
147.016
 20
48.1553
 11
146.978
 21
48.085
  0
LINE
  8
0
 10
146.978
 20
48.085
 11
146.936
 21
48.0078
  0
LINE
  8
0
 10
146.936
 20
48.0078
 11
146.892
 21
47.9277
  0
LINE
  8
0
 10
146.892
 20
47.9277
 11
146.872
 21
47.8915
  0
LINE
  8
0
 10
146.872
 20
47.8915
 11
146.85
 21
47.8518
  0
LINE
  8
0
 10
146.85
 20
47.8518
 11
146.806
 21
47.773
  0
LINE
  8
0
 10
146.806
 20
47.773
 11
146.782
 21
47.7303
  0
LINE
  8
0
 10
146.782
 20
47.7303
 11
146.758
 21
47.6878
  0
LINE
  8
0
 10
146.758
 20
47.6878
 11
146.738
 21
47.6525
  0
LINE
  8
0
 10
146.738
 20
47.6525
 11
146.69
 21
47.5684
  0
LINE
  8
0
 10
146.69
 20
47.5684
 11
146.618
 21
47.4436
  0
LINE
  8
0
 10
146.618
 20
47.4436
 11
146.574
 21
47.3682
  0
LINE
  8
0
 10
146.574
 20
47.3682
 11
146.528
 21
47.2899
  0
LINE
  8
0
 10
146.528
 20
47.2899
 11
146.474
 21
47.1989
  0
LINE
  8
0
 10
146.474
 20
47.1989
 11
146.446
 21
47.1521
  0
LINE
  8
0
 10
146.446
 20
47.1521
 11
146.42
 21
47.1088
  0
LINE
  8
0
 10
146.42
 20
47.1088
 11
146.39
 21
47.0591
  0
LINE
  8
0
 10
146.39
 20
47.0591
 11
146.334
 21
46.9669
  0
LINE
  8
0
 10
146.334
 20
46.9669
 11
146.286
 21
46.8887
  0
LINE
  8
0
 10
146.286
 20
46.8887
 11
146.258
 21
46.8433
  0
LINE
  8
0
 10
146.258
 20
46.8433
 11
146.23
 21
46.7982
  0
LINE
  8
0
 10
146.23
 20
46.7982
 11
146.202
 21
46.7533
  0
LINE
  8
0
 10
146.202
 20
46.7533
 11
146.174
 21
46.7086
  0
LINE
  8
0
 10
146.174
 20
46.7086
 11
146.142
 21
46.6577
  0
LINE
  8
0
 10
146.142
 20
46.6577
 11
146.114
 21
46.6135
  0
LINE
  8
0
 10
146.114
 20
46.6135
 11
146.058
 21
46.5255
  0
LINE
  8
0
 10
146.058
 20
46.5255
 11
146.028
 21
46.4788
  0
LINE
  8
0
 10
146.028
 20
46.4788
 11
146
 21
46.4353
  0
LINE
  8
0
 10
146
 20
46.4353
 11
145.962
 21
46.3767
  0
LINE
  8
0
 10
145.962
 20
46.3767
 11
145.932
 21
46.3306
  0
LINE
  8
0
 10
145.932
 20
46.3306
 11
145.894
 21
46.2726
  0
LINE
  8
0
 10
145.894
 20
46.2726
 11
145.836
 21
46.1847
  0
LINE
  8
0
 10
145.836
 20
46.1847
 11
145.806
 21
46.1396
  0
LINE
  8
0
 10
145.806
 20
46.1396
 11
145.77
 21
46.0857
  0
LINE
  8
0
 10
145.77
 20
46.0857
 11
145.706
 21
45.9906
  0
LINE
  8
0
 10
145.706
 20
45.9906
 11
145.674
 21
45.9435
  0
LINE
  8
0
 10
145.674
 20
45.9435
 11
145.644
 21
45.8994
  0
LINE
  8
0
 10
145.644
 20
45.8994
 11
145.602
 21
45.8382
  0
LINE
  8
0
 10
145.602
 20
45.8382
 11
145.534
 21
45.7397
  0
LINE
  8
0
 10
145.534
 20
45.7397
 11
145.5
 21
45.6909
  0
LINE
  8
0
 10
145.5
 20
45.6909
 11
145.462
 21
45.6366
  0
LINE
  8
0
 10
145.462
 20
45.6366
 11
145.424
 21
45.5826
  0
LINE
  8
0
 10
145.424
 20
45.5826
 11
145.394
 21
45.5402
  0
LINE
  8
0
 10
145.394
 20
45.5402
 11
145.35
 21
45.4784
  0
LINE
  8
0
 10
145.35
 20
45.4784
 11
145.318
 21
45.4336
  0
LINE
  8
0
 10
145.318
 20
45.4336
 11
145.278
 21
45.378
  0
LINE
  8
0
 10
145.278
 20
45.378
 11
145.238
 21
45.3227
  0
LINE
  8
0
 10
145.238
 20
45.3227
 11
145.198
 21
45.2677
  0
LINE
  8
0
 10
145.198
 20
45.2677
 11
145.116
 21
45.1559
  0
LINE
  8
0
 10
145.116
 20
45.1559
 11
145.04
 21
45.0535
  0
LINE
  8
0
 10
145.04
 20
45.0535
 11
145.002
 21
45.0027
  0
LINE
  8
0
 10
145.002
 20
45.0027
 11
144.956
 21
44.9415
  0
LINE
  8
0
 10
144.956
 20
44.9415
 11
144.922
 21
44.8965
  0
LINE
  8
0
 10
144.922
 20
44.8965
 11
144.878
 21
44.8387
  0
LINE
  8
0
 10
144.878
 20
44.8387
 11
144.834
 21
44.7812
  0
LINE
  8
0
 10
144.834
 20
44.7812
 11
144.788
 21
44.7214
  0
LINE
  8
0
 10
144.788
 20
44.7214
 11
144.75
 21
44.6723
  0
LINE
  8
0
 10
144.75
 20
44.6723
 11
144.698
 21
44.6055
  0
LINE
  8
0
 10
144.698
 20
44.6055
 11
144.656
 21
44.552
  0
LINE
  8
0
 10
144.656
 20
44.552
 11
144.612
 21
44.4961
  0
LINE
  8
0
 10
144.612
 20
44.4961
 11
144.564
 21
44.4356
  0
LINE
  8
0
 10
144.564
 20
44.4356
 11
144.528
 21
44.3905
  0
LINE
  8
0
 10
144.528
 20
44.3905
 11
144.474
 21
44.3232
  0
LINE
  8
0
 10
144.474
 20
44.3232
 11
144.428
 21
44.2662
  0
LINE
  8
0
 10
144.428
 20
44.2662
 11
144.378
 21
44.2046
  0
LINE
  8
0
 10
144.378
 20
44.2046
 11
144.334
 21
44.1508
  0
LINE
  8
0
 10
144.334
 20
44.1508
 11
144.282
 21
44.0876
  0
LINE
  8
0
 10
144.282
 20
44.0876
 11
144.224
 21
44.0176
  0
LINE
  8
0
 10
144.224
 20
44.0176
 11
144.14
 21
43.9171
  0
LINE
  8
0
 10
144.14
 20
43.9171
 11
144.084
 21
43.8507
  0
LINE
  8
0
 10
144.084
 20
43.8507
 11
144.028
 21
43.7847
  0
LINE
  8
0
 10
144.028
 20
43.7847
 11
143.974
 21
43.7216
  0
LINE
  8
0
 10
143.974
 20
43.7216
 11
143.926
 21
43.6658
  0
LINE
  8
0
 10
143.926
 20
43.6658
 11
143.866
 21
43.5965
  0
LINE
  8
0
 10
143.866
 20
43.5965
 11
143.806
 21
43.5278
  0
LINE
  8
0
 10
143.806
 20
43.5278
 11
143.752
 21
43.4663
  0
LINE
  8
0
 10
143.752
 20
43.4663
 11
143.702
 21
43.4098
  0
LINE
  8
0
 10
143.702
 20
43.4098
 11
143.644
 21
43.3446
  0
LINE
  8
0
 10
143.644
 20
43.3446
 11
143.586
 21
43.2799
  0
LINE
  8
0
 10
143.586
 20
43.2799
 11
143.53
 21
43.2179
  0
LINE
  8
0
 10
143.53
 20
43.2179
 11
143.476
 21
43.1584
  0
LINE
  8
0
 10
143.476
 20
43.1584
 11
143.422
 21
43.0994
  0
LINE
  8
0
 10
143.422
 20
43.0994
 11
143.364
 21
43.0364
  0
LINE
  8
0
 10
143.364
 20
43.0364
 11
143.296
 21
42.9631
  0
LINE
  8
0
 10
143.296
 20
42.9631
 11
143.23
 21
42.8925
  0
LINE
  8
0
 10
143.23
 20
42.8925
 11
143.174
 21
42.833
  0
LINE
  8
0
 10
143.174
 20
42.833
 11
143.112
 21
42.7676
  0
LINE
  8
0
 10
143.112
 20
42.7676
 11
143.056
 21
42.7089
  0
LINE
  8
0
 10
143.056
 20
42.7089
 11
142.984
 21
42.634
  0
LINE
  8
0
 10
142.984
 20
42.634
 11
142.924
 21
42.5721
  0
LINE
  8
0
 10
142.924
 20
42.5721
 11
142.862
 21
42.5086
  0
LINE
  8
0
 10
142.862
 20
42.5086
 11
142.792
 21
42.4374
  0
LINE
  8
0
 10
142.792
 20
42.4374
 11
142.73
 21
42.3748
  0
LINE
  8
0
 10
142.73
 20
42.3748
 11
142.656
 21
42.3007
  0
LINE
  8
0
 10
142.656
 20
42.3007
 11
142.592
 21
42.2371
  0
LINE
  8
0
 10
142.592
 20
42.2371
 11
142.528
 21
42.1739
  0
LINE
  8
0
 10
142.528
 20
42.1739
 11
142.446
 21
42.0936
  0
LINE
  8
0
 10
142.446
 20
42.0936
 11
142.376
 21
42.0257
  0
LINE
  8
0
 10
142.376
 20
42.0257
 11
142.308
 21
41.9602
  0
LINE
  8
0
 10
142.308
 20
41.9602
 11
142.228
 21
41.8838
  0
LINE
  8
0
 10
142.228
 20
41.8838
 11
142.168
 21
41.8269
  0
LINE
  8
0
 10
142.168
 20
41.8269
 11
142.088
 21
41.7517
  0
LINE
  8
0
 10
142.088
 20
41.7517
 11
142.014
 21
41.6827
  0
LINE
  8
0
 10
142.014
 20
41.6827
 11
141.946
 21
41.6198
  0
LINE
  8
0
 10
141.946
 20
41.6198
 11
141.868
 21
41.5481
  0
LINE
  8
0
 10
141.868
 20
41.5481
 11
141.78
 21
41.4681
  0
LINE
  8
0
 10
141.78
 20
41.4681
 11
141.702
 21
41.3978
  0
LINE
  8
0
 10
141.702
 20
41.3978
 11
141.628
 21
41.3316
  0
LINE
  8
0
 10
141.628
 20
41.3316
 11
141.562
 21
41.273
  0
LINE
  8
0
 10
141.562
 20
41.273
 11
141.474
 21
41.1955
  0
LINE
  8
0
 10
141.474
 20
41.1955
 11
141.396
 21
41.1275
  0
LINE
  8
0
 10
141.396
 20
41.1275
 11
141.31
 21
41.0531
  0
LINE
  8
0
 10
141.31
 20
41.0531
 11
141.212
 21
40.9692
  0
LINE
  8
0
 10
141.212
 20
40.9692
 11
141.13
 21
40.8996
  0
LINE
  8
0
 10
141.13
 20
40.8996
 11
141.044
 21
40.8273
  0
LINE
  8
0
 10
141.044
 20
40.8273
 11
140.958
 21
40.7557
  0
LINE
  8
0
 10
140.958
 20
40.7557
 11
140.876
 21
40.688
  0
LINE
  8
0
 10
140.876
 20
40.688
 11
140.788
 21
40.616
  0
LINE
  8
0
 10
140.788
 20
40.616
 11
140.696
 21
40.5414
  0
LINE
  8
0
 10
140.696
 20
40.5414
 11
140.612
 21
40.474
  0
LINE
  8
0
 10
140.612
 20
40.474
 11
140.514
 21
40.396
  0
LINE
  8
0
 10
140.514
 20
40.396
 11
140.426
 21
40.3267
  0
LINE
  8
0
 10
140.426
 20
40.3267
 11
140.32
 21
40.244
  0
LINE
  8
0
 10
140.32
 20
40.244
 11
140.234
 21
40.1776
  0
LINE
  8
0
 10
140.234
 20
40.1776
 11
140.14
 21
40.1058
  0
LINE
  8
0
 10
140.14
 20
40.1058
 11
140.042
 21
40.0316
  0
LINE
  8
0
 10
140.042
 20
40.0316
 11
139.95
 21
39.9626
  0
LINE
  8
0
 10
139.95
 20
39.9626
 11
139.846
 21
39.8854
  0
LINE
  8
0
 10
139.846
 20
39.8854
 11
139.74
 21
39.8076
  0
LINE
  8
0
 10
139.74
 20
39.8076
 11
139.646
 21
39.7393
  0
LINE
  8
0
 10
139.646
 20
39.7393
 11
139.538
 21
39.6617
  0
LINE
  8
0
 10
139.538
 20
39.6617
 11
139.436
 21
39.5892
  0
LINE
  8
0
 10
139.436
 20
39.5892
 11
139.336
 21
39.5188
  0
LINE
  8
0
 10
139.336
 20
39.5188
 11
139.23
 21
39.445
  0
LINE
  8
0
 10
139.23
 20
39.445
 11
139.126
 21
39.3734
  0
LINE
  8
0
 10
139.126
 20
39.3734
 11
139.028
 21
39.3066
  0
LINE
  8
0
 10
139.028
 20
39.3066
 11
138.99
 21
39.2809
  0
LINE
  8
0
 10
138.99
 20
39.2809
 11
138.9
 21
39.2204
  0
LINE
  8
0
 10
138.9
 20
39.2204
 11
138.792
 21
39.1486
  0
LINE
  8
0
 10
138.792
 20
39.1486
 11
138.682
 21
39.0762
  0
LINE
  8
0
 10
138.682
 20
39.0762
 11
138.572
 21
39.0047
  0
LINE
  8
0
 10
138.572
 20
39.0047
 11
138.458
 21
38.9315
  0
LINE
  8
0
 10
138.458
 20
38.9315
 11
138.344
 21
38.8591
  0
LINE
  8
0
 10
138.344
 20
38.8591
 11
138.226
 21
38.7851
  0
LINE
  8
0
 10
138.226
 20
38.7851
 11
138.112
 21
38.7144
  0
LINE
  8
0
 10
138.112
 20
38.7144
 11
138
 21
38.6458
  0
LINE
  8
0
 10
138
 20
38.6458
 11
137.876
 21
38.5708
  0
LINE
  8
0
 10
137.876
 20
38.5708
 11
137.778
 21
38.5123
  0
LINE
  8
0
 10
137.778
 20
38.5123
 11
137.73
 21
38.4838
  0
LINE
  8
0
 10
137.73
 20
38.4838
 11
137.604
 21
38.4097
  0
LINE
  8
0
 10
137.604
 20
38.4097
 11
137.5
 21
38.3493
  0
LINE
  8
0
 10
137.5
 20
38.3493
 11
137.394
 21
38.2885
  0
LINE
  8
0
 10
137.394
 20
38.2885
 11
137.278
 21
38.2227
  0
LINE
  8
0
 10
137.278
 20
38.2227
 11
137.23
 21
38.1957
  0
LINE
  8
0
 10
137.23
 20
38.1957
 11
137.122
 21
38.1355
  0
LINE
  8
0
 10
137.122
 20
38.1355
 11
137.004
 21
38.0705
  0
LINE
  8
0
 10
137.004
 20
38.0705
 11
136.896
 21
38.0117
  0
LINE
  8
0
 10
136.896
 20
38.0117
 11
136.842
 21
37.9826
  0
LINE
  8
0
 10
136.842
 20
37.9826
 11
136.738
 21
37.9269
  0
LINE
  8
0
 10
136.738
 20
37.9269
 11
136.64
 21
37.8751
  0
LINE
  8
0
 10
136.64
 20
37.8751
 11
136.588
 21
37.8478
  0
LINE
  8
0
 10
136.588
 20
37.8478
 11
136.476
 21
37.7896
  0
LINE
  8
0
 10
136.476
 20
37.7896
 11
136.362
 21
37.7311
  0
LINE
  8
0
 10
136.362
 20
37.7311
 11
136.324
 21
37.7117
  0
LINE
  8
0
 10
136.324
 20
37.7117
 11
136.182
 21
37.6401
  0
LINE
  8
0
 10
136.182
 20
37.6401
 11
136.064
 21
37.5815
  0
LINE
  8
0
 10
136.064
 20
37.5815
 11
135.934
 21
37.5178
  0
LINE
  8
0
 10
135.934
 20
37.5178
 11
135.818
 21
37.4618
  0
LINE
  8
0
 10
135.818
 20
37.4618
 11
135.762
 21
37.435
  0
LINE
  8
0
 10
135.762
 20
37.435
 11
135.648
 21
37.381
  0
LINE
  8
0
 10
135.648
 20
37.381
 11
135.53
 21
37.3258
  0
LINE
  8
0
 10
135.53
 20
37.3258
 11
135.492
 21
37.3082
  0
LINE
  8
0
 10
135.492
 20
37.3082
 11
135.338
 21
37.2376
  0
LINE
  8
0
 10
135.338
 20
37.2376
 11
135.228
 21
37.188
  0
LINE
  8
0
 10
135.228
 20
37.188
 11
135.088
 21
37.1257
  0
LINE
  8
0
 10
135.088
 20
37.1257
 11
134.948
 21
37.0645
  0
LINE
  8
0
 10
134.948
 20
37.0645
 11
134.902
 21
37.0446
  0
LINE
  8
0
 10
134.902
 20
37.0446
 11
134.782
 21
36.9932
  0
LINE
  8
0
 10
134.782
 20
36.9932
 11
134.668
 21
36.9451
  0
LINE
  8
0
 10
134.668
 20
36.9451
 11
134.614
 21
36.9225
  0
LINE
  8
0
 10
134.614
 20
36.9225
 11
134.476
 21
36.8655
  0
LINE
  8
0
 10
134.476
 20
36.8655
 11
134.348
 21
36.8135
  0
LINE
  8
0
 10
134.348
 20
36.8135
 11
134.298
 21
36.7934
  0
LINE
  8
0
 10
134.298
 20
36.7934
 11
134.176
 21
36.7449
  0
LINE
  8
0
 10
134.176
 20
36.7449
 11
134.056
 21
36.6979
  0
LINE
  8
0
 10
134.056
 20
36.6979
 11
134
 21
36.6762
  0
LINE
  8
0
 10
134
 20
36.6762
 11
133.868
 21
36.6257
  0
LINE
  8
0
 10
133.868
 20
36.6257
 11
133.75
 21
36.5813
  0
LINE
  8
0
 10
133.75
 20
36.5813
 11
133.7
 21
36.5626
  0
LINE
  8
0
 10
133.7
 20
36.5626
 11
133.548
 21
36.5068
  0
LINE
  8
0
 10
133.548
 20
36.5068
 11
133.418
 21
36.4599
  0
LINE
  8
0
 10
133.418
 20
36.4599
 11
133.372
 21
36.4435
  0
LINE
  8
0
 10
133.372
 20
36.4435
 11
133.238
 21
36.3963
  0
LINE
  8
0
 10
133.238
 20
36.3963
 11
133.112
 21
36.3527
  0
LINE
  8
0
 10
133.112
 20
36.3527
 11
133.04
 21
36.3281
  0
LINE
  8
0
 10
133.04
 20
36.3281
 11
132.906
 21
36.283
  0
LINE
  8
0
 10
132.906
 20
36.283
 11
132.778
 21
36.2407
  0
LINE
  8
0
 10
132.778
 20
36.2407
 11
132.728
 21
36.2244
  0
LINE
  8
0
 10
132.728
 20
36.2244
 11
132.584
 21
36.1781
  0
LINE
  8
0
 10
132.584
 20
36.1781
 11
132.446
 21
36.1346
  0
LINE
  8
0
 10
132.446
 20
36.1346
 11
132.406
 21
36.1221
  0
LINE
  8
0
 10
132.406
 20
36.1221
 11
132.278
 21
36.0828
  0
LINE
  8
0
 10
132.278
 20
36.0828
 11
132.23
 21
36.0683
  0
LINE
  8
0
 10
132.23
 20
36.0683
 11
132.086
 21
36.0252
  0
LINE
  8
0
 10
132.086
 20
36.0252
 11
131.95
 21
35.9855
  0
LINE
  8
0
 10
131.95
 20
35.9855
 11
131.908
 21
35.9733
  0
LINE
  8
0
 10
131.908
 20
35.9733
 11
131.778
 21
35.9364
  0
LINE
  8
0
 10
131.778
 20
35.9364
 11
131.714
 21
35.9184
  0
LINE
  8
0
 10
131.714
 20
35.9184
 11
131.572
 21
35.8793
  0
LINE
  8
0
 10
131.572
 20
35.8793
 11
131.426
 21
35.84
  0
LINE
  8
0
 10
131.426
 20
35.84
 11
131.372
 21
35.8257
  0
LINE
  8
0
 10
131.372
 20
35.8257
 11
131.208
 21
35.783
  0
LINE
  8
0
 10
131.208
 20
35.783
 11
131.06
 21
35.7456
  0
LINE
  8
0
 10
131.06
 20
35.7456
 11
130.918
 21
35.7105
  0
LINE
  8
0
 10
130.918
 20
35.7105
 11
130.874
 21
35.6999
  0
LINE
  8
0
 10
130.874
 20
35.6999
 11
130.736
 21
35.6669
  0
LINE
  8
0
 10
130.736
 20
35.6669
 11
130.668
 21
35.651
  0
LINE
  8
0
 10
130.668
 20
35.651
 11
130.528
 21
35.6188
  0
LINE
  8
0
 10
130.528
 20
35.6188
 11
130.39
 21
35.588
  0
LINE
  8
0
 10
130.39
 20
35.588
 11
130.326
 21
35.5739
  0
LINE
  8
0
 10
130.326
 20
35.5739
 11
130.17
 21
35.5404
  0
LINE
  8
0
 10
130.17
 20
35.5404
 11
130.03
 21
35.5112
  0
LINE
  8
0
 10
130.03
 20
35.5112
 11
129.954
 21
35.4957
  0
LINE
  8
0
 10
129.954
 20
35.4957
 11
129.788
 21
35.4628
  0
LINE
  8
0
 10
129.788
 20
35.4628
 11
129.618
 21
35.4302
  0
LINE
  8
0
 10
129.618
 20
35.4302
 11
129.454
 21
35.3999
  0
LINE
  8
0
 10
129.454
 20
35.3999
 11
129.306
 21
35.3736
  0
LINE
  8
0
 10
129.306
 20
35.3736
 11
129.264
 21
35.3663
  0
LINE
  8
0
 10
129.264
 20
35.3663
 11
129.118
 21
35.3415
  0
LINE
  8
0
 10
129.118
 20
35.3415
 11
129.064
 21
35.3325
  0
LINE
  8
0
 10
129.064
 20
35.3325
 11
128.906
 21
35.307
  0
LINE
  8
0
 10
128.906
 20
35.307
 11
128.75
 21
35.2828
  0
LINE
  8
0
 10
128.75
 20
35.2828
 11
128.696
 21
35.2747
  0
LINE
  8
0
 10
128.696
 20
35.2747
 11
128.53
 21
35.2505
  0
LINE
  8
0
 10
128.53
 20
35.2505
 11
128.39
 21
35.2309
  0
LINE
  8
0
 10
128.39
 20
35.2309
 11
128.318
 21
35.2211
  0
LINE
  8
0
 10
128.318
 20
35.2211
 11
128.144
 21
35.1985
  0
LINE
  8
0
 10
128.144
 20
35.1985
 11
127.976
 21
35.1777
  0
LINE
  8
0
 10
127.976
 20
35.1777
 11
127.818
 21
35.1593
  0
LINE
  8
0
 10
127.818
 20
35.1593
 11
127.752
 21
35.1519
  0
LINE
  8
0
 10
127.752
 20
35.1519
 11
127.604
 21
35.136
  0
LINE
  8
0
 10
127.604
 20
35.136
 11
127.446
 21
35.1199
  0
LINE
  8
0
 10
127.446
 20
35.1199
 11
127.396
 21
35.1151
  0
LINE
  8
0
 10
127.396
 20
35.1151
 11
127.206
 21
35.0975
  0
LINE
  8
0
 10
127.206
 20
35.0975
 11
127.032
 21
35.0827
  0
LINE
  8
0
 10
127.032
 20
35.0827
 11
126.89
 21
35.0715
  0
LINE
  8
0
 10
126.89
 20
35.0715
 11
126.822
 21
35.0665
  0
LINE
  8
0
 10
126.822
 20
35.0665
 11
126.66
 21
35.0552
  0
LINE
  8
0
 10
126.66
 20
35.0552
 11
126.5
 21
35.045
  0
LINE
  8
0
 10
126.5
 20
35.045
 11
126.428
 21
35.0408
  0
LINE
  8
0
 10
126.428
 20
35.0408
 11
126.28
 21
35.0328
  0
LINE
  8
0
 10
126.28
 20
35.0328
 11
126.12
 21
35.0251
  0
LINE
  8
0
 10
126.12
 20
35.0251
 11
126.062
 21
35.0226
  0
LINE
  8
0
 10
126.062
 20
35.0226
 11
125.894
 21
35.016
  0
LINE
  8
0
 10
125.894
 20
35.016
 11
125.75
 21
35.0112
  0
LINE
  8
0
 10
125.75
 20
35.0112
 11
125.668
 21
35.0089
  0
LINE
  8
0
 10
125.668
 20
35.0089
 11
125.51
 21
35.0052
  0
LINE
  8
0
 10
125.51
 20
35.0052
 11
125.362
 21
35.0026
  0
LINE
  8
0
 10
125.362
 20
35.0026
 11
125.322
 21
35.0021
  0
LINE
  8
0
 10
125.322
 20
35.0021
 11
125.168
 21
35.0005
  0
LINE
  8
0
 10
125.168
 20
35.0005
 11
125.12
 21
35.0003
  0
LINE
  8
0
 10
125.12
 20
35.0003
 11
69.922
 21
35.0001
  0
LINE
  8
0
 10
69.922
 20
35.0001
 11
69.838
 21
35.0006
  0
ENDSEC
  0
SECTION
  2
OBJECTS
  0
DICTIONARY
  0
ENDSEC
  0
EOF
