  0
SECTION
  2
HEADER
  9
$ACADVER
  1
AC1032
  9
$ACADMAINTVER
 90
4
  9
$DWGCODEPAGE
  3
ANSI_1252
  9
$EXTMIN
 10
1e+20
 20
1e+20
 30
1e+20
  9
$EXTMAX
 10
-1e+20
 20
-1e+20
 30
-1e+20
  9
$LIMMIN
 10
0.0
 20
0.0
  9
$LIMMAX
 10
420.0
 20
297.0
  9
$TDCREATE
 40
2460107.9811805557
  9
$TDUPDATE
 40
2460107.9811805557
  9
$HANDSEED
  5
A7
  9
$PEXTMIN
 10
1e+20
 20
1e+20
 30
1e+20
  9
$PEXTMAX
 10
-1e+20
 20
-1e+20
 30
-1e+20
  9
$PLIMMIN
 10
0.0
 20
0.0
  9
$PLIMMAX
 10
420.0
 20
297.0
  9
$FINGERPRINTGUID
  2
{79267831-1036-4F08-85AA-2C100051B482}
  9
$VERSIONGUID
  2
{5B35D7CA-E410-4D27-8E54-1E79A480CFC5}
  9
$CMATERIAL
347
91
  0
ENDSEC
  0
SECTION
  2
CLASSES
  0
CLASS
  1
ACDBDICTIONARYWDFLT
  2
AcDbDictionaryWithDefault
  3
ObjectDBX Classes
 90
0
 91
0
280
0
281
0
  0
CLASS
  1
SUN
  2
AcDbSun
  3
SCENEOE
 90
1153
 91
0
280
0
281
0
  0
CLASS
  1
VISUALSTYLE
  2
AcDbVisualStyle
  3
ObjectDBX Classes
 90
4095
 91
0
280
0
281
0
  0
CLASS
  1
MATERIAL
  2
AcDbMaterial
  3
ObjectDBX Classes
 90
1153
 91
0
280
0
281
0
  0
CLASS
  1
SCALE
  2
AcDbScale
  3
ObjectDBX Classes
 90
1153
 91
0
280
0
281
0
  0
CLASS
  1
TABLESTYLE
  2
AcDbTableStyle
  3
ObjectDBX Classes
 90
4095
 91
0
280
0
281
0
  0
CLASS
  1
MLEADERSTYLE
  2
AcDbMLeaderStyle
  3
ACDB_MLEADERSTYLE_CLASS
 90
4095
 91
0
280
0
281
0
  0
CLASS
  1
DICTIONARYVAR
  2
AcDbDictionaryVar
  3
ObjectDBX Classes
 90
0
 91
0
280
0
281
0
  0
CLASS
  1
CELLSTYLEMAP
  2
AcDbCellStyleMap
  3
ObjectDBX Classes
 90
1152
 91
0
280
0
281
0
  0
CLASS
  1
MENTALRAYRENDERSETTINGS
  2
AcDbMentalRayRenderSettings
  3
SCENEOE
 90
1024
 91
0
280
0
281
0
  0
CLASS
  1
ACDBDETAILVIEWSTYLE
  2
AcDbDetailViewStyle
  3
ObjectDBX Classes
 90
1025
 91
0
280
0
281
0
  0
CLASS
  1
ACDBSECTIONVIEWSTYLE
  2
AcDbSectionViewStyle
  3
ObjectDBX Classes
 90
1025
 91
0
280
0
281
0
  0
CLASS
  1
RASTERVARIABLES
  2
AcDbRasterVariables
  3
ISM
 90
0
 91
0
280
0
281
0
  0
CLASS
  1
LAYOUT
  2
AcDbLayout
  3
ObjectDBX Classes
 90
0
 91
0
280
0
281
0
  0
CLASS
  1
ACDBPLACEHOLDER
  2
AcDbPlaceHolder
  3
ObjectDBX Classes
 90
0
 91
0
280
0
281
0
  0
CLASS
  1
WIPEOUT
  2
AcDbWipeout
  3
WipeOut
 90
127
 91
0
280
0
281
1
  0
CLASS
  1
WIPEOUTVARIABLES
  2
AcDbWipeoutVariables
  3
WipeOut
 90
0
 91
0
280
0
281
0
  0
ENDSEC
  0
SECTION
  2
TABLES
  0
TABLE
  2
VPORT
  5
70
330
0
100
AcDbSymbolTable
 70
1
  0
VPORT
  5
94
330
70
100
AcDbSymbolTableRecord
100
AcDbViewportTableRecord
  2
*Active
 70
0
 10
0.0
 20
0.0
 11
1.0
 21
1.0
 12
0.0
 22
0.0
 13
0.0
 23
0.0
 14
0.5
 24
0.5
 15
0.5
 25
0.5
 16
0.0
 26
0.0
 36
1.0
 17
0.0
 27
0.0
 37
0.0
 40
1000.0
 41
1.34
 42
50.0
 43
0.0
 44
0.0
 50
0.0
 51
0.0
 71
0
 72
1000
 73
1
 74
3
 75
0
 76
0
 77
0
 78
0
281
0
 65
0
146
0.0
  0
ENDTAB
  0
TABLE
  2
LTYPE
  5
6A
330
0
100
AcDbSymbolTable
 70
3
  0
LTYPE
  5
95
330
6A
100
AcDbSymbolTableRecord
100
AcDbLinetypeTableRecord
  2
ByBlock
 70
0
  3

 72
65
 73
0
 40
0.0
  0
LTYPE
  5
96
330
6A
100
AcDbSymbolTableRecord
100
AcDbLinetypeTableRecord
  2
ByLayer
 70
0
  3

 72
65
 73
0
 40
0.0
  0
LTYPE
  5
97
330
6A
100
AcDbSymbolTableRecord
100
AcDbLinetypeTableRecord
  2
Continuous
 70
0
  3

 72
65
 73
0
 40
0.0
  0
ENDTAB
  0
TABLE
  2
LAYER
  5
69
330
0
100
AcDbSymbolTable
 70
2
  0
LAYER
  5
98
330
69
100
AcDbSymbolTableRecord
100
AcDbLayerTableRecord
  2
0
 70
0
 62
7
  6
Continuous
370
-3
390
8A
347
92
  0
LAYER
  5
99
330
69
100
AcDbSymbolTableRecord
100
AcDbLayerTableRecord
  2
Defpoints
 70
0
 62
7
  6
Continuous
290
0
370
-3
390
8A
347
92
  0
ENDTAB
  0
TABLE
  2
STYLE
  5
6D
330
0
100
AcDbSymbolTable
 70
1
  0
STYLE
  5
9A
330
6D
100
AcDbSymbolTableRecord
100
AcDbTextStyleTableRecord
  2
Standard
 70
0
 40
0.0
 41
1.0
 50
0.0
 71
0
 42
2.5
  3
txt
  4

  0
ENDTAB
  0
TABLE
  2
VIEW
  5
6F
330
0
100
AcDbSymbolTable
 70
0
  0
ENDTAB
  0
TABLE
  2
UCS
  5
6E
330
0
100
AcDbSymbolTable
 70
0
  0
ENDTAB
  0
TABLE
  2
APPID
  5
6B
330
0
100
AcDbSymbolTable
 70
3
  0
APPID
  5
9B
330
6B
100
AcDbSymbolTableRecord
100
AcDbRegAppTableRecord
  2
ACAD
 70
0
  0
APPID
  5
9E
330
6B
100
AcDbSymbolTableRecord
100
AcDbRegAppTableRecord
  2
HATCHBACKGROUNDCOLOR
 70
0
  0
APPID
  5
9F
330
6B
100
AcDbSymbolTableRecord
100
AcDbRegAppTableRecord
  2
EZDXF
 70
0
  0
ENDTAB
  0
TABLE
  2
DIMSTYLE
  5
6C
330
0
100
AcDbSymbolTable
 70
1
100
AcDbDimStyleTable
  0
DIMSTYLE
105
9C
330
6C
100
AcDbSymbolTableRecord
100
AcDbDimStyleTableRecord
  2
Standard
 70
0
 40
1.0
 41
2.5
 42
0.625
 43
3.75
 44
1.25
 45
0.0
 46
0.0
 47
0.0
 48
0.0
 49
2.5
140
2.5
141
2.5
142
0.0
143
0.03937007874
144
1.0
145
0.0
146
1.0
147
0.625
148
0.0
 69
0
 70
0
 71
0
 72
0
 73
0
 74
0
 75
0
 76
0
 77
1
 78
8
 79
3
170
0
171
3
172
1
173
0
174
0
175
0
176
0
177
0
178
0
179
2
271
2
272
2
273
2
274
3
275
0
276
0
277
2
278
44
279
0
280
0
281
0
282
0
283
0
284
8
285
0
286
0
288
0
289
3
290
0
371
-2
372
-2
  0
ENDTAB
  0
TABLE
  2
BLOCK_RECORD
  5
71
330
0
100
AcDbSymbolTable
 70
2
  0
BLOCK_RECORD
  5
72
330
71
100
AcDbSymbolTableRecord
100
AcDbBlockTableRecord
  2
*Model_Space
340
8E
 70
0
280
1
281
0
  0
BLOCK_RECORD
  5
73
330
71
100
AcDbSymbolTableRecord
100
AcDbBlockTableRecord
  2
*Paper_Space
340
8F
 70
0
280
1
281
0
  0
ENDTAB
  0
ENDSEC
  0
SECTION
  2
BLOCKS
  0
BLOCK
  5
74
330
72
100
AcDbEntity
  8
0
100
AcDbBlockBegin
  2
*Model_Space
 70
0
 10
0.0
 20
0.0
 30
0.0
  3
*Model_Space
  1

  0
ENDBLK
  5
75
330
72
100
AcDbEntity
  8
0
100
AcDbBlockEnd
  0
BLOCK
  5
76
330
73
100
AcDbEntity
  8
0
100
AcDbBlockBegin
  2
*Paper_Space
 70
0
 10
0.0
 20
0.0
 30
0.0
  3
*Paper_Space
  1

  0
ENDBLK
  5
77
330
73
100
AcDbEntity
  8
0
100
AcDbBlockEnd
  0
ENDSEC
  0
SECTION
  2
ENTITIES
  0
LINE
  5
1
330
72
100
AcDbEntity
  8
0
100
AcDbLine
 10
150.0
 20
100.0
 30
0.0
 11
500.0
 21
100.0
 31
0.0
  0
LINE
  5
2
330
72
100
AcDbEntity
  8
0
100
AcDbLine
 10
500.0
 20
100.0
 30
0.0
 11
500.0
 21
50.0
 31
0.0
  0
LINE
  5
3
330
72
100
AcDbEntity
  8
0
100
AcDbLine
 10
500.0
 20
50.0
 30
0.0
 11
600.0
 21
50.0
 31
0.0
  0
LINE
  5
4
330
72
100
AcDbEntity
  8
0
100
AcDbLine
 10
600.0
 20
50.0
 30
0.0
 11
595.408
 21
70.0997
 31
0.0
  0
LINE
  5
5
330
72
100
AcDbEntity
  8
0
100
AcDbLine
 10
595.408
 20
70.0997
 30
0.0
 11
590.816
 21
78.2784
 31
0.0
  0
LINE
  5
6
330
72
100
AcDbEntity
  8
0
100
AcDbLine
 10
590.816
 20
78.2784
 30
0.0
 11
586.224
 21
84.4529
 31
0.0
  0
LINE
  5
7
330
72
100
AcDbEntity
  8
0
100
AcDbLine
 10
586.224
 20
84.4529
 30
0.0
 11
581.633
 21
89.5729
 31
0.0
  0
LINE
  5
8
330
72
100
AcDbEntity
  8
0
100
AcDbLine
 10
581.633
 20
89.5729
 30
0.0
 11
577.041
 21
94.0079
 31
0.0
  0
LINE
  5
9
330
72
100
AcDbEntity
  8
0
100
AcDbLine
 10
577.041
 20
94.0079
 30
0.0
 11
572.449
 21
97.9483
 31
0.0
  0
LINE
  5
A
330
72
100
AcDbEntity
  8
0
100
AcDbLine
 10
572.449
 20
97.9483
 30
0.0
 11
567.857
 21
101.5079
 31
0.0
  0
LINE
  5
B
330
72
100
AcDbEntity
  8
0
100
AcDbLine
 10
567.857
 20
101.5079
 30
0.0
 11
563.265
 21
104.7608
 31
0.0
  0
LINE
  5
C
330
72
100
AcDbEntity
  8
0
100
AcDbLine
 10
563.265
 20
104.7608
 30
0.0
 11
558.673
 21
107.75909999999999
 31
0.0
  0
LINE
  5
D
330
72
100
AcDbEntity
  8
0
100
AcDbLine
 10
558.673
 20
107.75909999999999
 30
0.0
 11
554.082
 21
110.5404
 31
0.0
  0
LINE
  5
E
330
72
100
AcDbEntity
  8
0
100
AcDbLine
 10
554.082
 20
110.5404
 30
0.0
 11
549.49
 21
113.1335
 31
0.0
  0
LINE
  5
F
330
72
100
AcDbEntity
  8
0
100
AcDbLine
 10
549.49
 20
113.1335
 30
0.0
 11
544.898
 21
115.5607
 31
0.0
  0
LINE
  5
10
330
72
100
AcDbEntity
  8
0
100
AcDbLine
 10
544.898
 20
115.5607
 30
0.0
 11
540.306
 21
117.8399
 31
0.0
  0
LINE
  5
11
330
72
100
AcDbEntity
  8
0
100
AcDbLine
 10
540.306
 20
117.8399
 30
0.0
 11
535.7139999999999
 21
119.9854
 31
0.0
  0
LINE
  5
12
330
72
100
AcDbEntity
  8
0
100
AcDbLine
 10
535.7139999999999
 20
119.9854
 30
0.0
 11
531.1220000000001
 21
122.0093
 31
0.0
  0
LINE
  5
13
330
72
100
AcDbEntity
  8
0
100
AcDbLine
 10
531.1220000000001
 20
122.0093
 30
0.0
 11
526.531
 21
123.9215
 31
0.0
  0
LINE
  5
14
330
72
100
AcDbEntity
  8
0
100
AcDbLine
 10
526.531
 20
123.9215
 30
0.0
 11
521.9390000000001
 21
125.7305
 31
0.0
  0
LINE
  5
15
330
72
100
AcDbEntity
  8
0
100
AcDbLine
 10
521.9390000000001
 20
125.7305
 30
0.0
 11
517.347
 21
127.4435
 31
0.0
  0
LINE
  5
16
330
72
100
AcDbEntity
  8
0
100
AcDbLine
 10
517.347
 20
127.4435
 30
0.0
 11
512.755
 21
129.0668
 31
0.0
  0
LINE
  5
17
330
72
100
AcDbEntity
  8
0
100
AcDbLine
 10
512.755
 20
129.0668
 30
0.0
 11
508.163
 21
130.6058
 31
0.0
  0
LINE
  5
18
330
72
100
AcDbEntity
  8
0
100
AcDbLine
 10
508.163
 20
130.6058
 30
0.0
 11
503.571
 21
132.0652
 31
0.0
  0
LINE
  5
19
330
72
100
AcDbEntity
  8
0
100
AcDbLine
 10
503.571
 20
132.0652
 30
0.0
 11
498.98
 21
133.44920000000002
 31
0.0
  0
LINE
  5
1A
330
72
100
AcDbEntity
  8
0
100
AcDbLine
 10
498.98
 20
133.44920000000002
 30
0.0
 11
494.388
 21
134.7615
 31
0.0
  0
LINE
  5
1B
330
72
100
AcDbEntity
  8
0
100
AcDbLine
 10
494.388
 20
134.7615
 30
0.0
 11
489.796
 21
136.0053
 31
0.0
  0
LINE
  5
1C
330
72
100
AcDbEntity
  8
0
100
AcDbLine
 10
489.796
 20
136.0053
 30
0.0
 11
485.204
 21
137.1837
 31
0.0
  0
LINE
  5
1D
330
72
100
AcDbEntity
  8
0
100
AcDbLine
 10
485.204
 20
137.1837
 30
0.0
 11
480.612
 21
138.29919999999998
 31
0.0
  0
LINE
  5
1E
330
72
100
AcDbEntity
  8
0
100
AcDbLine
 10
480.612
 20
138.29919999999998
 30
0.0
 11
476.02
 21
139.3542
 31
0.0
  0
LINE
  5
1F
330
72
100
AcDbEntity
  8
0
100
AcDbLine
 10
476.02
 20
139.3542
 30
0.0
 11
471.429
 21
140.3508
 31
0.0
  0
LINE
  5
20
330
72
100
AcDbEntity
  8
0
100
AcDbLine
 10
471.429
 20
140.3508
 30
0.0
 11
466.837
 21
141.2909
 31
0.0
  0
LINE
  5
21
330
72
100
AcDbEntity
  8
0
100
AcDbLine
 10
466.837
 20
141.2909
 30
0.0
 11
462.245
 21
142.1762
 31
0.0
  0
LINE
  5
22
330
72
100
AcDbEntity
  8
0
100
AcDbLine
 10
462.245
 20
142.1762
 30
0.0
 11
457.653
 21
143.0084
 31
0.0
  0
LINE
  5
23
330
72
100
AcDbEntity
  8
0
100
AcDbLine
 10
457.653
 20
143.0084
 30
0.0
 11
453.061
 21
143.78879999999998
 31
0.0
  0
LINE
  5
24
330
72
100
AcDbEntity
  8
0
100
AcDbLine
 10
453.061
 20
143.78879999999998
 30
0.0
 11
448.469
 21
144.5187
 31
0.0
  0
LINE
  5
25
330
72
100
AcDbEntity
  8
0
100
AcDbLine
 10
448.469
 20
144.5187
 30
0.0
 11
443.878
 21
145.19920000000002
 31
0.0
  0
LINE
  5
26
330
72
100
AcDbEntity
  8
0
100
AcDbLine
 10
443.878
 20
145.19920000000002
 30
0.0
 11
439.286
 21
145.8315
 31
0.0
  0
LINE
  5
27
330
72
100
AcDbEntity
  8
0
100
AcDbLine
 10
439.286
 20
145.8315
 30
0.0
 11
434.694
 21
146.4164
 31
0.0
  0
LINE
  5
28
330
72
100
AcDbEntity
  8
0
100
AcDbLine
 10
434.694
 20
146.4164
 30
0.0
 11
430.102
 21
146.9549
 31
0.0
  0
LINE
  5
29
330
72
100
AcDbEntity
  8
0
100
AcDbLine
 10
430.102
 20
146.9549
 30
0.0
 11
425.51
 21
147.4476
 31
0.0
  0
LINE
  5
2A
330
72
100
AcDbEntity
  8
0
100
AcDbLine
 10
425.51
 20
147.4476
 30
0.0
 11
420.918
 21
147.8954
 31
0.0
  0
LINE
  5
2B
330
72
100
AcDbEntity
  8
0
100
AcDbLine
 10
420.918
 20
147.8954
 30
0.0
 11
416.327
 21
148.2987
 31
0.0
  0
LINE
  5
2C
330
72
100
AcDbEntity
  8
0
100
AcDbLine
 10
416.327
 20
148.2987
 30
0.0
 11
411.735
 21
148.6582
 31
0.0
  0
LINE
  5
2D
330
72
100
AcDbEntity
  8
0
100
AcDbLine
 10
411.735
 20
148.6582
 30
0.0
 11
407.143
 21
148.9743
 31
0.0
  0
LINE
  5
2E
330
72
100
AcDbEntity
  8
0
100
AcDbLine
 10
407.143
 20
148.9743
 30
0.0
 11
402.551
 21
149.2475
 31
0.0
  0
LINE
  5
2F
330
72
100
AcDbEntity
  8
0
100
AcDbLine
 10
402.551
 20
149.2475
 30
0.0
 11
397.959
 21
149.478
 31
0.0
  0
LINE
  5
30
330
72
100
AcDbEntity
  8
0
100
AcDbLine
 10
397.959
 20
149.478
 30
0.0
 11
393.367
 21
149.6662
 31
0.0
  0
LINE
  5
31
330
72
100
AcDbEntity
  8
0
100
AcDbLine
 10
393.367
 20
149.6662
 30
0.0
 11
388.775
 21
149.8124
 31
0.0
  0
LINE
  5
32
330
72
100
AcDbEntity
  8
0
100
AcDbLine
 10
388.775
 20
149.8124
 30
0.0
 11
384.184
 21
149.9167
 31
0.0
  0
LINE
  5
33
330
72
100
AcDbEntity
  8
0
100
AcDbLine
 10
384.184
 20
149.9167
 30
0.0
 11
379.592
 21
149.9792
 31
0.0
  0
LINE
  5
34
330
72
100
AcDbEntity
  8
0
100
AcDbLine
 10
379.592
 20
149.9792
 30
0.0
 11
375.0
 21
150.0
 31
0.0
  0
LINE
  5
35
330
72
100
AcDbEntity
  8
0
100
AcDbLine
 10
375.0
 20
150.0
 30
0.0
 11
275.0
 21
150.0
 31
0.0
  0
LINE
  5
36
330
72
100
AcDbEntity
  8
0
100
AcDbLine
 10
275.0
 20
150.0
 30
0.0
 11
270.408
 21
149.9792
 31
0.0
  0
LINE
  5
37
330
72
100
AcDbEntity
  8
0
100
AcDbLine
 10
270.408
 20
149.9792
 30
0.0
 11
265.81600000000003
 21
149.9167
 31
0.0
  0
LINE
  5
38
330
72
100
AcDbEntity
  8
0
100
AcDbLine
 10
265.81600000000003
 20
149.9167
 30
0.0
 11
261.224
 21
149.8124
 31
0.0
  0
LINE
  5
39
330
72
100
AcDbEntity
  8
0
100
AcDbLine
 10
261.224
 20
149.8124
 30
0.0
 11
256.63300000000004
 21
149.6662
 31
0.0
  0
LINE
  5
3A
330
72
100
AcDbEntity
  8
0
100
AcDbLine
 10
256.63300000000004
 20
149.6662
 30
0.0
 11
252.041
 21
149.478
 31
0.0
  0
LINE
  5
3B
330
72
100
AcDbEntity
  8
0
100
AcDbLine
 10
252.041
 20
149.478
 30
0.0
 11
247.449
 21
149.2475
 31
0.0
  0
LINE
  5
3C
330
72
100
AcDbEntity
  8
0
100
AcDbLine
 10
247.449
 20
149.2475
 30
0.0
 11
242.857
 21
148.9743
 31
0.0
  0
LINE
  5
3D
330
72
100
AcDbEntity
  8
0
100
AcDbLine
 10
242.857
 20
148.9743
 30
0.0
 11
238.265
 21
148.6582
 31
0.0
  0
LINE
  5
3E
330
72
100
AcDbEntity
  8
0
100
AcDbLine
 10
238.265
 20
148.6582
 30
0.0
 11
233.673
 21
148.2987
 31
0.0
  0
LINE
  5
3F
330
72
100
AcDbEntity
  8
0
100
AcDbLine
 10
233.673
 20
148.2987
 30
0.0
 11
229.082
 21
147.8954
 31
0.0
  0
LINE
  5
40
330
72
100
AcDbEntity
  8
0
100
AcDbLine
 10
229.082
 20
147.8954
 30
0.0
 11
224.49
 21
147.4476
 31
0.0
  0
LINE
  5
41
330
72
100
AcDbEntity
  8
0
100
AcDbLine
 10
224.49
 20
147.4476
 30
0.0
 11
219.898
 21
146.9549
 31
0.0
  0
LINE
  5
42
330
72
100
AcDbEntity
  8
0
100
AcDbLine
 10
219.898
 20
146.9549
 30
0.0
 11
215.306
 21
146.4164
 31
0.0
  0
LINE
  5
43
330
72
100
AcDbEntity
  8
0
100
AcDbLine
 10
215.306
 20
146.4164
 30
0.0
 11
210.714
 21
145.8315
 31
0.0
  0
LINE
  5
44
330
72
100
AcDbEntity
  8
0
100
AcDbLine
 10
210.714
 20
145.8315
 30
0.0
 11
206.122
 21
145.19920000000002
 31
0.0
  0
LINE
  5
45
330
72
100
AcDbEntity
  8
0
100
AcDbLine
 10
206.122
 20
145.19920000000002
 30
0.0
 11
201.531
 21
144.5187
 31
0.0
  0
LINE
  5
46
330
72
100
AcDbEntity
  8
0
100
AcDbLine
 10
201.531
 20
144.5187
 30
0.0
 11
196.939
 21
143.78879999999998
 31
0.0
  0
LINE
  5
47
330
72
100
AcDbEntity
  8
0
100
AcDbLine
 10
196.939
 20
143.78879999999998
 30
0.0
 11
192.347
 21
143.0084
 31
0.0
  0
LINE
  5
48
330
72
100
AcDbEntity
  8
0
100
AcDbLine
 10
192.347
 20
143.0084
 30
0.0
 11
187.755
 21
142.1762
 31
0.0
  0
LINE
  5
49
330
72
100
AcDbEntity
  8
0
100
AcDbLine
 10
187.755
 20
142.1762
 30
0.0
 11
183.163
 21
141.2909
 31
0.0
  0
LINE
  5
4A
330
72
100
AcDbEntity
  8
0
100
AcDbLine
 10
183.163
 20
141.2909
 30
0.0
 11
178.571
 21
140.3508
 31
0.0
  0
LINE
  5
4B
330
72
100
AcDbEntity
  8
0
100
AcDbLine
 10
178.571
 20
140.3508
 30
0.0
 11
173.98000000000002
 21
139.3542
 31
0.0
  0
LINE
  5
4C
330
72
100
AcDbEntity
  8
0
100
AcDbLine
 10
173.98000000000002
 20
139.3542
 30
0.0
 11
169.388
 21
138.29919999999998
 31
0.0
  0
LINE
  5
4D
330
72
100
AcDbEntity
  8
0
100
AcDbLine
 10
169.388
 20
138.29919999999998
 30
0.0
 11
164.796
 21
137.1837
 31
0.0
  0
LINE
  5
4E
330
72
100
AcDbEntity
  8
0
100
AcDbLine
 10
164.796
 20
137.1837
 30
0.0
 11
160.204
 21
136.0053
 31
0.0
  0
LINE
  5
4F
330
72
100
AcDbEntity
  8
0
100
AcDbLine
 10
160.204
 20
136.0053
 30
0.0
 11
155.612
 21
134.7615
 31
0.0
  0
LINE
  5
50
330
72
100
AcDbEntity
  8
0
100
AcDbLine
 10
155.612
 20
134.7615
 30
0.0
 11
151.01999999999998
 21
133.44920000000002
 31
0.0
  0
LINE
  5
51
330
72
100
AcDbEntity
  8
0
100
AcDbLine
 10
151.01999999999998
 20
133.44920000000002
 30
0.0
 11
146.42860000000002
 21
132.0652
 31
0.0
  0
LINE
  5
52
330
72
100
AcDbEntity
  8
0
100
AcDbLine
 10
146.42860000000002
 20
132.0652
 30
0.0
 11
141.8367
 21
130.6058
 31
0.0
  0
LINE
  5
53
330
72
100
AcDbEntity
  8
0
100
AcDbLine
 10
141.8367
 20
130.6058
 30
0.0
 11
137.2449
 21
129.0668
 31
0.0
  0
LINE
  5
54
330
72
100
AcDbEntity
  8
0
100
AcDbLine
 10
137.2449
 20
129.0668
 30
0.0
 11
132.6531
 21
127.4435
 31
0.0
  0
LINE
  5
55
330
72
100
AcDbEntity
  8
0
100
AcDbLine
 10
132.6531
 20
127.4435
 30
0.0
 11
128.06119999999999
 21
125.7305
 31
0.0
  0
LINE
  5
56
330
72
100
AcDbEntity
  8
0
100
AcDbLine
 10
128.06119999999999
 20
125.7305
 30
0.0
 11
123.4694
 21
123.9215
 31
0.0
  0
LINE
  5
57
330
72
100
AcDbEntity
  8
0
100
AcDbLine
 10
123.4694
 20
123.9215
 30
0.0
 11
118.8775
 21
122.0093
 31
0.0
  0
LINE
  5
58
330
72
100
AcDbEntity
  8
0
100
AcDbLine
 10
118.8775
 20
122.0093
 30
0.0
 11
114.2857
 21
119.9854
 31
0.0
  0
LINE
  5
59
330
72
100
AcDbEntity
  8
0
100
AcDbLine
 10
114.2857
 20
119.9854
 30
0.0
 11
109.6939
 21
117.8399
 31
0.0
  0
LINE
  5
5A
330
72
100
AcDbEntity
  8
0
100
AcDbLine
 10
109.6939
 20
117.8399
 30
0.0
 11
105.102
 21
115.5607
 31
0.0
  0
LINE
  5
5B
330
72
100
AcDbEntity
  8
0
100
AcDbLine
 10
105.102
 20
115.5607
 30
0.0
 11
100.5102
 21
113.1335
 31
0.0
  0
LINE
  5
5C
330
72
100
AcDbEntity
  8
0
100
AcDbLine
 10
100.5102
 20
113.1335
 30
0.0
 11
95.91839999999999
 21
110.5404
 31
0.0
  0
LINE
  5
5D
330
72
100
AcDbEntity
  8
0
100
AcDbLine
 10
95.91839999999999
 20
110.5404
 30
0.0
 11
91.32650000000001
 21
107.75909999999999
 31
0.0
  0
LINE
  5
5E
330
72
100
AcDbEntity
  8
0
100
AcDbLine
 10
91.32650000000001
 20
107.75909999999999
 30
0.0
 11
86.7347
 21
104.7608
 31
0.0
  0
LINE
  5
5F
330
72
100
AcDbEntity
  8
0
100
AcDbLine
 10
86.7347
 20
104.7608
 30
0.0
 11
82.1429
 21
101.5079
 31
0.0
  0
LINE
  5
60
330
72
100
AcDbEntity
  8
0
100
AcDbLine
 10
82.1429
 20
101.5079
 30
0.0
 11
77.551
 21
97.9483
 31
0.0
  0
LINE
  5
61
330
72
100
AcDbEntity
  8
0
100
AcDbLine
 10
77.551
 20
97.9483
 30
0.0
 11
72.9592
 21
94.0079
 31
0.0
  0
LINE
  5
62
330
72
100
AcDbEntity
  8
0
100
AcDbLine
 10
72.9592
 20
94.0079
 30
0.0
 11
68.3673
 21
89.5729
 31
0.0
  0
LINE
  5
63
330
72
100
AcDbEntity
  8
0
100
AcDbLine
 10
68.3673
 20
89.5729
 30
0.0
 11
63.7755
 21
84.4529
 31
0.0
  0
LINE
  5
64
330
72
100
AcDbEntity
  8
0
100
AcDbLine
 10
63.7755
 20
84.4529
 30
0.0
 11
59.18367
 21
78.2784
 31
0.0
  0
LINE
  5
65
330
72
100
AcDbEntity
  8
0
100
AcDbLine
 10
59.18367
 20
78.2784
 30
0.0
 11
54.59183
 21
70.0997
 31
0.0
  0
LINE
  5
66
330
72
100
AcDbEntity
  8
0
100
AcDbLine
 10
54.59183
 20
70.0997
 30
0.0
 11
50.0
 21
50.0
 31
0.0
  0
LINE
  5
67
330
72
100
AcDbEntity
  8
0
100
AcDbLine
 10
50.0
 20
50.0
 30
0.0
 11
150.0
 21
50.0
 31
0.0
  0
LINE
  5
68
330
72
100
AcDbEntity
  8
0
100
AcDbLine
 10
150.0
 20
50.0
 30
0.0
 11
150.0
 21
100.0
 31
0.0
  0
WIPEOUT
  5
A2
330
72
100
AcDbEntity
  8
0
100
AcDbWipeout
 90
0
 10
87.5
 20
27.5
 30
0.0
 11
25.0
 21
0.0
 31
0.0
 12
0.0
 22
25.0
 32
0.0
 13
1.0
 23
1.0
340
0
 70
7
280
1
281
50
282
50
283
0
360
0
 71
1
 91
2
 14
-0.5
 24
0.5
 14
0.5
 24
-0.5
290
0
  0
TEXT
  5
A6
330
72
100
AcDbEntity
  8
0
100
AcDbText
 10
10.0
 20
10.0
 30
0.0
 40
8.0
  1
123456/1
  7
Arial Narrow
100
AcDbText
  0
ENDSEC
  0
SECTION
  2
OBJECTS
  0
DICTIONARY
  5
81
330
0
100
AcDbDictionary
280
0
281
1
  3
ACAD_COLOR
350
82
  3
ACAD_GROUP
350
83
  3
ACAD_LAYOUT
350
84
  3
ACAD_MATERIAL
350
85
  3
ACAD_MLEADERSTYLE
350
86
  3
ACAD_MLINESTYLE
350
87
  3
ACAD_PLOTSETTINGS
350
88
  3
ACAD_PLOTSTYLENAME
350
89
  3
ACAD_SCALELIST
350
8B
  3
ACAD_TABLESTYLE
350
8C
  3
ACAD_VISUALSTYLE
350
8D
  3
EZDXF_META
350
A0
  3
ACAD_WIPEOUT_VARS
350
A3
  3
AcDbVariableDictionary
350
A4
  0
DICTIONARY
  5
82
330
81
100
AcDbDictionary
280
0
281
1
  0
DICTIONARY
  5
83
330
81
100
AcDbDictionary
280
0
281
1
  0
DICTIONARY
  5
84
330
81
100
AcDbDictionary
280
0
281
1
  3
Model
350
8E
  3
Layout1
350
8F
  0
DICTIONARY
  5
85
330
81
100
AcDbDictionary
280
0
281
1
  3
ByBlock
350
90
  3
ByLayer
350
91
  3
Global
350
92
  0
DICTIONARY
  5
86
330
81
100
AcDbDictionary
280
0
281
1
  3
Standard
350
9D
  0
DICTIONARY
  5
87
330
81
100
AcDbDictionary
280
0
281
1
  3
Standard
350
93
  0
DICTIONARY
  5
88
330
81
100
AcDbDictionary
280
0
281
1
  0
ACDBDICTIONARYWDFLT
  5
89
330
81
100
AcDbDictionary
280
0
281
1
  3
Normal
350
8A
100
AcDbDictionaryWithDefault
340
8A
  0
ACDBPLACEHOLDER
  5
8A
330
89
  0
DICTIONARY
  5
8B
330
81
100
AcDbDictionary
280
0
281
1
  0
DICTIONARY
  5
8C
330
81
100
AcDbDictionary
280
0
281
1
  0
DICTIONARY
  5
8D
330
81
100
AcDbDictionary
280
0
281
1
  0
LAYOUT
  5
8E
330
84
100
AcDbPlotSettings
  1

  2
Adobe PDF
  4
A3
  6

 40
7.5
 41
20.0
 42
7.5
 43
20.0
 44
420.0
 45
297.0
 46
0.0
 47
0.0
 48
0.0
 49
0.0
140
0.0
141
0.0
142
1.0
143
1.0
 70
1024
 72
1
 73
0
 74
5
  7

 75
16
 76
0
 77
2
 78
300
147
1.0
148
0.0
149
0.0
100
AcDbLayout
  1
Model
 70
1
 71
0
 10
0.0
 20
0.0
 11
420.0
 21
297.0
 12
0.0
 22
0.0
 32
0.0
 14
1e+20
 24
1e+20
 34
1e+20
 15
-1e+20
 25
-1e+20
 35
-1e+20
146
0.0
 13
0.0
 23
0.0
 33
0.0
 16
1.0
 26
0.0
 36
0.0
 17
0.0
 27
1.0
 37
0.0
 76
1
330
72
  0
LAYOUT
  5
8F
330
84
100
AcDbPlotSettings
  1

  2
Adobe PDF
  4
A3
  6

 40
7.5
 41
20.0
 42
7.5
 43
20.0
 44
420.0
 45
297.0
 46
0.0
 47
0.0
 48
0.0
 49
0.0
140
0.0
141
0.0
142
1.0
143
1.0
 70
0
 72
1
 73
0
 74
5
  7

 75
16
 76
0
 77
2
 78
300
147
1.0
148
0.0
149
0.0
100
AcDbLayout
  1
Layout1
 70
1
 71
1
 10
0.0
 20
0.0
 11
420.0
 21
297.0
 12
0.0
 22
0.0
 32
0.0
 14
1e+20
 24
1e+20
 34
1e+20
 15
-1e+20
 25
-1e+20
 35
-1e+20
146
0.0
 13
0.0
 23
0.0
 33
0.0
 16
1.0
 26
0.0
 36
0.0
 17
0.0
 27
1.0
 37
0.0
 76
1
330
73
  0
MATERIAL
  5
90
102
{ACAD_REACTORS
330
85
102
}
330
85
100
AcDbMaterial
  1
ByBlock
  2

 70
0
 40
1.0
 71
1
 41
1.0
 91
-1023410177
 42
1.0
 72
1
  3

 73
1
 74
1
 75
1
 44
0.5
 73
0
 45
1.0
 46
1.0
 77
1
  4

 78
1
 79
1
170
1
 48
1.0
171
1
  6

172
1
173
1
174
1
140
1.0
141
1.0
175
1
  7

176
1
177
1
178
1
143
1.0
179
1
  8

270
1
271
1
272
1
145
1.0
146
1.0
273
1
  9

274
1
275
1
276
1
 42
1.0
 72
1
  3

 73
1
 74
1
 75
1
 94
63
  0
MATERIAL
  5
91
102
{ACAD_REACTORS
330
85
102
}
330
85
100
AcDbMaterial
  1
ByLayer
  2

 70
0
 40
1.0
 71
1
 41
1.0
 91
-1023410177
 42
1.0
 72
1
  3

 73
1
 74
1
 75
1
 44
0.5
 73
0
 45
1.0
 46
1.0
 77
1
  4

 78
1
 79
1
170
1
 48
1.0
171
1
  6

172
1
173
1
174
1
140
1.0
141
1.0
175
1
  7

176
1
177
1
178
1
143
1.0
179
1
  8

270
1
271
1
272
1
145
1.0
146
1.0
273
1
  9

274
1
275
1
276
1
 42
1.0
 72
1
  3

 73
1
 74
1
 75
1
 94
63
  0
MATERIAL
  5
92
102
{ACAD_REACTORS
330
85
102
}
330
85
100
AcDbMaterial
  1
Global
  2

 70
0
 40
1.0
 71
1
 41
1.0
 91
-1023410177
 42
1.0
 72
1
  3

 73
1
 74
1
 75
1
 44
0.5
 73
0
 45
1.0
 46
1.0
 77
1
  4

 78
1
 79
1
170
1
 48
1.0
171
1
  6

172
1
173
1
174
1
140
1.0
141
1.0
175
1
  7

176
1
177
1
178
1
143
1.0
179
1
  8

270
1
271
1
272
1
145
1.0
146
1.0
273
1
  9

274
1
275
1
276
1
 42
1.0
 72
1
  3

 73
1
 74
1
 75
1
 94
63
  0
MLINESTYLE
  5
93
102
{ACAD_REACTORS
330
87
102
}
330
87
100
AcDbMlineStyle
  2
Standard
 70
0
  3

 62
256
 51
90.0
 52
90.0
 71
2
 49
0.5
 62
256
  6
BYLAYER
 49
-0.5
 62
256
  6
BYLAYER
  0
MLEADERSTYLE
  5
9D
102
{ACAD_REACTORS
330
86
102
}
330
86
100
AcDbMLeaderStyle
179
2
170
2
171
1
172
0
 90
2
 40
0.0
 41
0.0
173
1
 91
-1056964608
 92
-2
290
1
 42
2.0
291
1
 43
8.0
  3
Standard
 44
4.0
300

342
9A
174
1
175
1
176
0
178
1
 93
-1056964608
 45
4.0
292
0
297
0
 46
4.0
 94
-1056964608
 47
1.0
 49
1.0
140
1.0
294
1
141
0.0
177
0
142
1.0
295
0
296
0
143
3.75
271
0
272
9
273
9
  0
DICTIONARY
  5
A0
330
81
100
AcDbDictionary
281
1
  3
WRITTEN_BY_EZDXF
350
A1
  0
DICTIONARYVAR
  5
A1
330
A0
100
DictionaryVariables
280
0
  1
1.0.3 @ 2023-06-12T03:32:54.384426+00:00
  0
WIPEOUTVARIABLES
  5
A3
102
{ACAD_REACTORS
330
81
102
}
330
81
100
AcDbWipeoutVariables
 70
0
  0
DICTIONARY
  5
A4
330
81
100
AcDbDictionary
280
0
281
1
  3
WIPEOUTFRAME
350
A5
  0
DICTIONARYVAR
  5
A5
330
A4
100
DictionaryVariables
280
0
  1
0
  0
ENDSEC
  0
EOF
