  0
SECTION
  2
BLOCKS
  0
ENDSEC
  0
SECTION
  2
ENTITIES
  0
LINE
  8
0
 10
100
 20
50
 11
450
 21
50
  0
LINE
  8
0
 10
450
 20
50
 11
450
 21
0
  0
LINE
  8
0
 10
450
 20
0
 11
550
 21
0
  0
LINE
  8
0
 10
550
 20
0
 11
545.408
 21
20.0997
  0
LINE
  8
0
 10
545.408
 20
20.0997
 11
540.816
 21
28.2784
  0
LINE
  8
0
 10
540.816
 20
28.2784
 11
536.224
 21
34.4529
  0
LINE
  8
0
 10
536.224
 20
34.4529
 11
531.633
 21
39.5729
  0
LINE
  8
0
 10
531.633
 20
39.5729
 11
527.041
 21
44.0079
  0
LINE
  8
0
 10
527.041
 20
44.0079
 11
522.449
 21
47.9483
  0
LINE
  8
0
 10
522.449
 20
47.9483
 11
517.857
 21
51.5079
  0
LINE
  8
0
 10
517.857
 20
51.5079
 11
513.265
 21
54.7608
  0
LINE
  8
0
 10
513.265
 20
54.7608
 11
508.673
 21
57.7591
  0
LINE
  8
0
 10
508.673
 20
57.7591
 11
504.082
 21
60.5404
  0
LINE
  8
0
 10
504.082
 20
60.5404
 11
499.49
 21
63.1335
  0
LINE
  8
0
 10
499.49
 20
63.1335
 11
494.898
 21
65.5607
  0
LINE
  8
0
 10
494.898
 20
65.5607
 11
490.306
 21
67.8399
  0
LINE
  8
0
 10
490.306
 20
67.8399
 11
485.714
 21
69.9854
  0
LINE
  8
0
 10
485.714
 20
69.9854
 11
481.122
 21
72.0093
  0
LINE
  8
0
 10
481.122
 20
72.0093
 11
476.531
 21
73.9215
  0
LINE
  8
0
 10
476.531
 20
73.9215
 11
471.939
 21
75.7305
  0
LINE
  8
0
 10
471.939
 20
75.7305
 11
467.347
 21
77.4435
  0
LINE
  8
0
 10
467.347
 20
77.4435
 11
462.755
 21
79.0668
  0
LINE
  8
0
 10
462.755
 20
79.0668
 11
458.163
 21
80.6058
  0
LINE
  8
0
 10
458.163
 20
80.6058
 11
453.571
 21
82.0652
  0
LINE
  8
0
 10
453.571
 20
82.0652
 11
448.98
 21
83.4492
  0
LINE
  8
0
 10
448.98
 20
83.4492
 11
444.388
 21
84.7615
  0
LINE
  8
0
 10
444.388
 20
84.7615
 11
439.796
 21
86.0053
  0
LINE
  8
0
 10
439.796
 20
86.0053
 11
435.204
 21
87.1837
  0
LINE
  8
0
 10
435.204
 20
87.1837
 11
430.612
 21
88.2992
  0
LINE
  8
0
 10
430.612
 20
88.2992
 11
426.02
 21
89.3542
  0
LINE
  8
0
 10
426.02
 20
89.3542
 11
421.429
 21
90.3508
  0
LINE
  8
0
 10
421.429
 20
90.3508
 11
416.837
 21
91.2909
  0
LINE
  8
0
 10
416.837
 20
91.2909
 11
412.245
 21
92.1762
  0
LINE
  8
0
 10
412.245
 20
92.1762
 11
407.653
 21
93.0084
  0
LINE
  8
0
 10
407.653
 20
93.0084
 11
403.061
 21
93.7888
  0
LINE
  8
0
 10
403.061
 20
93.7888
 11
398.469
 21
94.5187
  0
LINE
  8
0
 10
398.469
 20
94.5187
 11
393.878
 21
95.1992
  0
LINE
  8
0
 10
393.878
 20
95.1992
 11
389.286
 21
95.8315
  0
LINE
  8
0
 10
389.286
 20
95.8315
 11
384.694
 21
96.4164
  0
LINE
  8
0
 10
384.694
 20
96.4164
 11
380.102
 21
96.9549
  0
LINE
  8
0
 10
380.102
 20
96.9549
 11
375.51
 21
97.4476
  0
LINE
  8
0
 10
375.51
 20
97.4476
 11
370.918
 21
97.8954
  0
LINE
  8
0
 10
370.918
 20
97.8954
 11
366.327
 21
98.2987
  0
LINE
  8
0
 10
366.327
 20
98.2987
 11
361.735
 21
98.6582
  0
LINE
  8
0
 10
361.735
 20
98.6582
 11
357.143
 21
98.9743
  0
LINE
  8
0
 10
357.143
 20
98.9743
 11
352.551
 21
99.2475
  0
LINE
  8
0
 10
352.551
 20
99.2475
 11
347.959
 21
99.478
  0
LINE
  8
0
 10
347.959
 20
99.478
 11
343.367
 21
99.6662
  0
LINE
  8
0
 10
343.367
 20
99.6662
 11
338.775
 21
99.8124
  0
LINE
  8
0
 10
338.775
 20
99.8124
 11
334.184
 21
99.9167
  0
LINE
  8
0
 10
334.184
 20
99.9167
 11
329.592
 21
99.9792
  0
LINE
  8
0
 10
329.592
 20
99.9792
 11
325
 21
100
  0
LINE
  8
0
 10
325
 20
100
 11
225
 21
100
  0
LINE
  8
0
 10
225
 20
100
 11
220.408
 21
99.9792
  0
LINE
  8
0
 10
220.408
 20
99.9792
 11
215.816
 21
99.9167
  0
LINE
  8
0
 10
215.816
 20
99.9167
 11
211.224
 21
99.8124
  0
LINE
  8
0
 10
211.224
 20
99.8124
 11
206.633
 21
99.6662
  0
LINE
  8
0
 10
206.633
 20
99.6662
 11
202.041
 21
99.478
  0
LINE
  8
0
 10
202.041
 20
99.478
 11
197.449
 21
99.2475
  0
LINE
  8
0
 10
197.449
 20
99.2475
 11
192.857
 21
98.9743
  0
LINE
  8
0
 10
192.857
 20
98.9743
 11
188.265
 21
98.6582
  0
LINE
  8
0
 10
188.265
 20
98.6582
 11
183.673
 21
98.2987
  0
LINE
  8
0
 10
183.673
 20
98.2987
 11
179.082
 21
97.8954
  0
LINE
  8
0
 10
179.082
 20
97.8954
 11
174.49
 21
97.4476
  0
LINE
  8
0
 10
174.49
 20
97.4476
 11
169.898
 21
96.9549
  0
LINE
  8
0
 10
169.898
 20
96.9549
 11
165.306
 21
96.4164
  0
LINE
  8
0
 10
165.306
 20
96.4164
 11
160.714
 21
95.8315
  0
LINE
  8
0
 10
160.714
 20
95.8315
 11
156.122
 21
95.1992
  0
LINE
  8
0
 10
156.122
 20
95.1992
 11
151.531
 21
94.5187
  0
LINE
  8
0
 10
151.531
 20
94.5187
 11
146.939
 21
93.7888
  0
LINE
  8
0
 10
146.939
 20
93.7888
 11
142.347
 21
93.0084
  0
LINE
  8
0
 10
142.347
 20
93.0084
 11
137.755
 21
92.1762
  0
LINE
  8
0
 10
137.755
 20
92.1762
 11
133.163
 21
91.2909
  0
LINE
  8
0
 10
133.163
 20
91.2909
 11
128.571
 21
90.3508
  0
LINE
  8
0
 10
128.571
 20
90.3508
 11
123.98
 21
89.3542
  0
LINE
  8
0
 10
123.98
 20
89.3542
 11
119.388
 21
88.2992
  0
LINE
  8
0
 10
119.388
 20
88.2992
 11
114.796
 21
87.1837
  0
LINE
  8
0
 10
114.796
 20
87.1837
 11
110.204
 21
86.0053
  0
LINE
  8
0
 10
110.204
 20
86.0053
 11
105.612
 21
84.7615
  0
LINE
  8
0
 10
105.612
 20
84.7615
 11
101.02
 21
83.4492
  0
LINE
  8
0
 10
101.02
 20
83.4492
 11
96.4286
 21
82.0652
  0
LINE
  8
0
 10
96.4286
 20
82.0652
 11
91.8367
 21
80.6058
  0
LINE
  8
0
 10
91.8367
 20
80.6058
 11
87.2449
 21
79.0668
  0
LINE
  8
0
 10
87.2449
 20
79.0668
 11
82.6531
 21
77.4435
  0
LINE
  8
0
 10
82.6531
 20
77.4435
 11
78.0612
 21
75.7305
  0
LINE
  8
0
 10
78.0612
 20
75.7305
 11
73.4694
 21
73.9215
  0
LINE
  8
0
 10
73.4694
 20
73.9215
 11
68.8775
 21
72.0093
  0
LINE
  8
0
 10
68.8775
 20
72.0093
 11
64.2857
 21
69.9854
  0
LINE
  8
0
 10
64.2857
 20
69.9854
 11
59.6939
 21
67.8399
  0
LINE
  8
0
 10
59.6939
 20
67.8399
 11
55.102
 21
65.5607
  0
LINE
  8
0
 10
55.102
 20
65.5607
 11
50.5102
 21
63.1335
  0
LINE
  8
0
 10
50.5102
 20
63.1335
 11
45.9184
 21
60.5404
  0
LINE
  8
0
 10
45.9184
 20
60.5404
 11
41.3265
 21
57.7591
  0
LINE
  8
0
 10
41.3265
 20
57.7591
 11
36.7347
 21
54.7608
  0
LINE
  8
0
 10
36.7347
 20
54.7608
 11
32.1429
 21
51.5079
  0
LINE
  8
0
 10
32.1429
 20
51.5079
 11
27.551
 21
47.9483
  0
LINE
  8
0
 10
27.551
 20
47.9483
 11
22.9592
 21
44.0079
  0
LINE
  8
0
 10
22.9592
 20
44.0079
 11
18.3673
 21
39.5729
  0
LINE
  8
0
 10
18.3673
 20
39.5729
 11
13.7755
 21
34.4529
  0
LINE
  8
0
 10
13.7755
 20
34.4529
 11
9.18367
 21
28.2784
  0
LINE
  8
0
 10
9.18367
 20
28.2784
 11
4.59183
 21
20.0997
  0
LINE
  8
0
 10
4.59183
 20
20.0997
 11
0
 21
0
  0
LINE
  8
0
 10
0
 20
0
 11
100
 21
0
  0
LINE
  8
0
 10
100
 20
0
 11
100
 21
50
  0
ENDSEC
  0
SECTION
  2
OBJECTS
  0
DICTIONARY
  0
ENDSEC
  0
EOF
