  0
SECTION
  2
BLOCKS
  0
ENDSEC
  0
SECTION
  2
ENTITIES
  0
LINE
  8
0
 10
145
 20
45
 11
145
 21
55
  0
LINE
  8
0
 10
145
 20
55
 11
150
 21
55
  0
LINE
  8
0
 10
150
 20
55
 11
149.92
 21
57.5311
  0
LINE
  8
0
 10
149.92
 20
57.5311
 11
149.84
 21
58.5777
  0
LINE
  8
0
 10
149.84
 20
58.5777
 11
149.76
 21
59.3796
  0
LINE
  8
0
 10
149.76
 20
59.3796
 11
149.679
 21
60.0546
  0
LINE
  8
0
 10
149.679
 20
60.0546
 11
149.599
 21
60.6483
  0
LINE
  8
0
 10
149.599
 20
60.6483
 11
149.519
 21
61.1843
  0
LINE
  8
0
 10
149.519
 20
61.1843
 11
149.439
 21
61.6764
  0
LINE
  8
0
 10
149.439
 20
61.6764
 11
149.359
 21
62.1338
  0
LINE
  8
0
 10
149.359
 20
62.1338
 11
149.279
 21
62.5627
  0
LINE
  8
0
 10
149.279
 20
62.5627
 11
149.198
 21
62.9678
  0
LINE
  8
0
 10
149.198
 20
62.9678
 11
149.118
 21
63.3524
  0
LINE
  8
0
 10
149.118
 20
63.3524
 11
149.038
 21
63.7194
  0
LINE
  8
0
 10
149.038
 20
63.7194
 11
148.958
 21
64.0709
  0
LINE
  8
0
 10
148.958
 20
64.0709
 11
148.878
 21
64.4085
  0
LINE
  8
0
 10
148.878
 20
64.4085
 11
148.798
 21
64.7338
  0
LINE
  8
0
 10
148.798
 20
64.7338
 11
148.717
 21
65.0479
  0
LINE
  8
0
 10
148.717
 20
65.0479
 11
148.637
 21
65.3519
  0
LINE
  8
0
 10
148.637
 20
65.3519
 11
148.557
 21
65.6465
  0
LINE
  8
0
 10
148.557
 20
65.6465
 11
148.477
 21
65.9327
  0
LINE
  8
0
 10
148.477
 20
65.9327
 11
148.397
 21
66.211
  0
LINE
  8
0
 10
148.397
 20
66.211
 11
148.317
 21
66.482
  0
LINE
  8
0
 10
148.317
 20
66.482
 11
148.236
 21
66.7461
  0
LINE
  8
0
 10
148.236
 20
66.7461
 11
148.156
 21
67.004
  0
LINE
  8
0
 10
148.156
 20
67.004
 11
148.076
 21
67.2559
  0
LINE
  8
0
 10
148.076
 20
67.2559
 11
147.996
 21
67.5022
  0
LINE
  8
0
 10
147.996
 20
67.5022
 11
147.916
 21
67.7432
  0
LINE
  8
0
 10
147.916
 20
67.7432
 11
147.836
 21
67.9793
  0
LINE
  8
0
 10
147.836
 20
67.9793
 11
147.756
 21
68.2106
  0
LINE
  8
0
 10
147.756
 20
68.2106
 11
147.675
 21
68.4375
  0
LINE
  8
0
 10
147.675
 20
68.4375
 11
147.595
 21
68.6602
  0
LINE
  8
0
 10
147.595
 20
68.6602
 11
147.515
 21
68.8788
  0
LINE
  8
0
 10
147.515
 20
68.8788
 11
147.435
 21
69.0936
  0
LINE
  8
0
 10
147.435
 20
69.0936
 11
147.355
 21
69.3047
  0
LINE
  8
0
 10
147.355
 20
69.3047
 11
147.275
 21
69.5123
  0
LINE
  8
0
 10
147.275
 20
69.5123
 11
147.194
 21
69.7166
  0
LINE
  8
0
 10
147.194
 20
69.7166
 11
147.114
 21
69.9176
  0
LINE
  8
0
 10
147.114
 20
69.9176
 11
147.034
 21
70.1155
  0
LINE
  8
0
 10
147.034
 20
70.1155
 11
146.954
 21
70.3104
  0
LINE
  8
0
 10
146.954
 20
70.3104
 11
146.874
 21
70.5025
  0
LINE
  8
0
 10
146.874
 20
70.5025
 11
146.794
 21
70.6918
  0
LINE
  8
0
 10
146.794
 20
70.6918
 11
146.713
 21
70.8784
  0
LINE
  8
0
 10
146.713
 20
70.8784
 11
146.633
 21
71.0625
  0
LINE
  8
0
 10
146.633
 20
71.0625
 11
146.553
 21
71.2441
  0
LINE
  8
0
 10
146.553
 20
71.2441
 11
146.473
 21
71.4233
  0
LINE
  8
0
 10
146.473
 20
71.4233
 11
146.393
 21
71.6001
  0
LINE
  8
0
 10
146.393
 20
71.6001
 11
146.313
 21
71.7748
  0
LINE
  8
0
 10
146.313
 20
71.7748
 11
146.232
 21
71.9472
  0
LINE
  8
0
 10
146.232
 20
71.9472
 11
146.152
 21
72.1176
  0
LINE
  8
0
 10
146.152
 20
72.1176
 11
146.072
 21
72.2858
  0
LINE
  8
0
 10
146.072
 20
72.2858
 11
145.992
 21
72.4521
  0
LINE
  8
0
 10
145.992
 20
72.4521
 11
145.912
 21
72.6165
  0
LINE
  8
0
 10
145.912
 20
72.6165
 11
145.832
 21
72.779
  0
LINE
  8
0
 10
145.832
 20
72.779
 11
145.751
 21
72.9396
  0
LINE
  8
0
 10
145.751
 20
72.9396
 11
145.671
 21
73.0985
  0
LINE
  8
0
 10
145.671
 20
73.0985
 11
145.591
 21
73.2556
  0
LINE
  8
0
 10
145.591
 20
73.2556
 11
145.511
 21
73.4111
  0
LINE
  8
0
 10
145.511
 20
73.4111
 11
145.431
 21
73.5648
  0
LINE
  8
0
 10
145.431
 20
73.5648
 11
145.351
 21
73.717
  0
LINE
  8
0
 10
145.351
 20
73.717
 11
145.271
 21
73.8677
  0
LINE
  8
0
 10
145.271
 20
73.8677
 11
145.19
 21
74.0168
  0
LINE
  8
0
 10
145.19
 20
74.0168
 11
145.11
 21
74.1644
  0
LINE
  8
0
 10
145.11
 20
74.1644
 11
145.03
 21
74.3105
  0
LINE
  8
0
 10
145.03
 20
74.3105
 11
144.95
 21
74.4552
  0
LINE
  8
0
 10
144.95
 20
74.4552
 11
144.87
 21
74.5985
  0
LINE
  8
0
 10
144.87
 20
74.5985
 11
144.79
 21
74.7404
  0
LINE
  8
0
 10
144.79
 20
74.7404
 11
144.709
 21
74.881
  0
LINE
  8
0
 10
144.709
 20
74.881
 11
144.629
 21
75.0203
  0
LINE
  8
0
 10
144.629
 20
75.0203
 11
144.549
 21
75.1584
  0
LINE
  8
0
 10
144.549
 20
75.1584
 11
144.469
 21
75.2951
  0
LINE
  8
0
 10
144.469
 20
75.2951
 11
144.389
 21
75.4306
  0
LINE
  8
0
 10
144.389
 20
75.4306
 11
144.309
 21
75.565
  0
LINE
  8
0
 10
144.309
 20
75.565
 11
144.228
 21
75.6981
  0
LINE
  8
0
 10
144.228
 20
75.6981
 11
144.148
 21
75.8301
  0
LINE
  8
0
 10
144.148
 20
75.8301
 11
144.068
 21
75.961
  0
LINE
  8
0
 10
144.068
 20
75.961
 11
143.988
 21
76.0907
  0
LINE
  8
0
 10
143.988
 20
76.0907
 11
143.908
 21
76.2193
  0
LINE
  8
0
 10
143.908
 20
76.2193
 11
143.828
 21
76.3469
  0
LINE
  8
0
 10
143.828
 20
76.3469
 11
143.747
 21
76.4734
  0
LINE
  8
0
 10
143.747
 20
76.4734
 11
143.667
 21
76.5988
  0
LINE
  8
0
 10
143.667
 20
76.5988
 11
143.587
 21
76.7233
  0
LINE
  8
0
 10
143.587
 20
76.7233
 11
143.507
 21
76.8467
  0
LINE
  8
0
 10
143.507
 20
76.8467
 11
143.427
 21
76.9692
  0
LINE
  8
0
 10
143.427
 20
76.9692
 11
143.347
 21
77.0907
  0
LINE
  8
0
 10
143.347
 20
77.0907
 11
143.267
 21
77.2112
  0
LINE
  8
0
 10
143.267
 20
77.2112
 11
143.186
 21
77.3308
  0
LINE
  8
0
 10
143.186
 20
77.3308
 11
143.106
 21
77.4495
  0
LINE
  8
0
 10
143.106
 20
77.4495
 11
143.026
 21
77.5672
  0
LINE
  8
0
 10
143.026
 20
77.5672
 11
142.946
 21
77.6841
  0
LINE
  8
0
 10
142.946
 20
77.6841
 11
142.866
 21
77.8001
  0
LINE
  8
0
 10
142.866
 20
77.8001
 11
142.786
 21
77.9152
  0
LINE
  8
0
 10
142.786
 20
77.9152
 11
142.705
 21
78.0294
  0
LINE
  8
0
 10
142.705
 20
78.0294
 11
142.625
 21
78.1429
  0
LINE
  8
0
 10
142.625
 20
78.1429
 11
142.545
 21
78.2555
  0
LINE
  8
0
 10
142.545
 20
78.2555
 11
142.465
 21
78.3672
  0
LINE
  8
0
 10
142.465
 20
78.3672
 11
142.385
 21
78.4782
  0
LINE
  8
0
 10
142.385
 20
78.4782
 11
142.305
 21
78.5884
  0
LINE
  8
0
 10
142.305
 20
78.5884
 11
142.224
 21
78.6978
  0
LINE
  8
0
 10
142.224
 20
78.6978
 11
142.144
 21
78.8064
  0
LINE
  8
0
 10
142.144
 20
78.8064
 11
142.064
 21
78.9142
  0
LINE
  8
0
 10
142.064
 20
78.9142
 11
141.984
 21
79.0213
  0
LINE
  8
0
 10
141.984
 20
79.0213
 11
141.904
 21
79.1277
  0
LINE
  8
0
 10
141.904
 20
79.1277
 11
141.824
 21
79.2334
  0
LINE
  8
0
 10
141.824
 20
79.2334
 11
141.743
 21
79.3383
  0
LINE
  8
0
 10
141.743
 20
79.3383
 11
141.663
 21
79.4424
  0
LINE
  8
0
 10
141.663
 20
79.4424
 11
141.583
 21
79.5459
  0
LINE
  8
0
 10
141.583
 20
79.5459
 11
141.503
 21
79.6487
  0
LINE
  8
0
 10
141.503
 20
79.6487
 11
141.423
 21
79.7508
  0
LINE
  8
0
 10
141.423
 20
79.7508
 11
141.343
 21
79.8523
  0
LINE
  8
0
 10
141.343
 20
79.8523
 11
141.263
 21
79.953
  0
LINE
  8
0
 10
141.263
 20
79.953
 11
141.182
 21
80.0531
  0
LINE
  8
0
 10
141.182
 20
80.0531
 11
141.102
 21
80.1526
  0
LINE
  8
0
 10
141.102
 20
80.1526
 11
141.022
 21
80.2514
  0
LINE
  8
0
 10
141.022
 20
80.2514
 11
140.942
 21
80.3495
  0
LINE
  8
0
 10
140.942
 20
80.3495
 11
140.862
 21
80.4471
  0
LINE
  8
0
 10
140.862
 20
80.4471
 11
140.782
 21
80.544
  0
LINE
  8
0
 10
140.782
 20
80.544
 11
140.701
 21
80.6403
  0
LINE
  8
0
 10
140.701
 20
80.6403
 11
140.621
 21
80.7359
  0
LINE
  8
0
 10
140.621
 20
80.7359
 11
140.541
 21
80.831
  0
LINE
  8
0
 10
140.541
 20
80.831
 11
140.461
 21
80.9255
  0
LINE
  8
0
 10
140.461
 20
80.9255
 11
140.381
 21
81.0194
  0
LINE
  8
0
 10
140.381
 20
81.0194
 11
140.301
 21
81.1127
  0
LINE
  8
0
 10
140.301
 20
81.1127
 11
140.22
 21
81.2054
  0
LINE
  8
0
 10
140.22
 20
81.2054
 11
140.14
 21
81.2976
  0
LINE
  8
0
 10
140.14
 20
81.2976
 11
140.06
 21
81.3892
  0
LINE
  8
0
 10
140.06
 20
81.3892
 11
139.98
 21
81.4802
  0
LINE
  8
0
 10
139.98
 20
81.4802
 11
139.9
 21
81.5707
  0
LINE
  8
0
 10
139.9
 20
81.5707
 11
139.82
 21
81.6606
  0
LINE
  8
0
 10
139.82
 20
81.6606
 11
139.739
 21
81.75
  0
LINE
  8
0
 10
139.739
 20
81.75
 11
139.659
 21
81.8389
  0
LINE
  8
0
 10
139.659
 20
81.8389
 11
139.579
 21
81.9272
  0
LINE
  8
0
 10
139.579
 20
81.9272
 11
139.499
 21
82.015
  0
LINE
  8
0
 10
139.499
 20
82.015
 11
139.419
 21
82.1022
  0
LINE
  8
0
 10
139.419
 20
82.1022
 11
139.339
 21
82.189
  0
LINE
  8
0
 10
139.339
 20
82.189
 11
139.259
 21
82.2752
  0
LINE
  8
0
 10
139.259
 20
82.2752
 11
139.178
 21
82.361
  0
LINE
  8
0
 10
139.178
 20
82.361
 11
139.098
 21
82.4462
  0
LINE
  8
0
 10
139.098
 20
82.4462
 11
139.018
 21
82.5309
  0
LINE
  8
0
 10
139.018
 20
82.5309
 11
138.938
 21
82.6152
  0
LINE
  8
0
 10
138.938
 20
82.6152
 11
138.858
 21
82.6989
  0
LINE
  8
0
 10
138.858
 20
82.6989
 11
138.778
 21
82.7822
  0
LINE
  8
0
 10
138.778
 20
82.7822
 11
138.697
 21
82.865
  0
LINE
  8
0
 10
138.697
 20
82.865
 11
138.617
 21
82.9473
  0
LINE
  8
0
 10
138.617
 20
82.9473
 11
138.537
 21
83.0292
  0
LINE
  8
0
 10
138.537
 20
83.0292
 11
138.457
 21
83.1106
  0
LINE
  8
0
 10
138.457
 20
83.1106
 11
138.377
 21
83.1915
  0
LINE
  8
0
 10
138.377
 20
83.1915
 11
138.297
 21
83.2719
  0
LINE
  8
0
 10
138.297
 20
83.2719
 11
138.216
 21
83.3519
  0
LINE
  8
0
 10
138.216
 20
83.3519
 11
138.136
 21
83.4315
  0
LINE
  8
0
 10
138.136
 20
83.4315
 11
138.056
 21
83.5106
  0
LINE
  8
0
 10
138.056
 20
83.5106
 11
137.976
 21
83.5893
  0
LINE
  8
0
 10
137.976
 20
83.5893
 11
137.896
 21
83.6675
  0
LINE
  8
0
 10
137.896
 20
83.6675
 11
137.816
 21
83.7453
  0
LINE
  8
0
 10
137.816
 20
83.7453
 11
137.735
 21
83.8226
  0
LINE
  8
0
 10
137.735
 20
83.8226
 11
137.655
 21
83.8995
  0
LINE
  8
0
 10
137.655
 20
83.8995
 11
137.575
 21
83.976
  0
LINE
  8
0
 10
137.575
 20
83.976
 11
137.495
 21
84.0521
  0
LINE
  8
0
 10
137.495
 20
84.0521
 11
137.415
 21
84.1278
  0
LINE
  8
0
 10
137.415
 20
84.1278
 11
137.335
 21
84.203
  0
LINE
  8
0
 10
137.335
 20
84.203
 11
137.255
 21
84.2778
  0
LINE
  8
0
 10
137.255
 20
84.2778
 11
137.174
 21
84.3522
  0
LINE
  8
0
 10
137.174
 20
84.3522
 11
137.094
 21
84.4263
  0
LINE
  8
0
 10
137.094
 20
84.4263
 11
137.014
 21
84.4999
  0
LINE
  8
0
 10
137.014
 20
84.4999
 11
136.934
 21
84.5731
  0
LINE
  8
0
 10
136.934
 20
84.5731
 11
136.854
 21
84.6459
  0
LINE
  8
0
 10
136.854
 20
84.6459
 11
136.774
 21
84.7183
  0
LINE
  8
0
 10
136.774
 20
84.7183
 11
136.693
 21
84.7903
  0
LINE
  8
0
 10
136.693
 20
84.7903
 11
136.613
 21
84.8619
  0
LINE
  8
0
 10
136.613
 20
84.8619
 11
136.533
 21
84.9332
  0
LINE
  8
0
 10
136.533
 20
84.9332
 11
136.453
 21
85.0041
  0
LINE
  8
0
 10
136.453
 20
85.0041
 11
136.373
 21
85.0745
  0
LINE
  8
0
 10
136.373
 20
85.0745
 11
136.293
 21
85.1446
  0
LINE
  8
0
 10
136.293
 20
85.1446
 11
136.212
 21
85.2144
  0
LINE
  8
0
 10
136.212
 20
85.2144
 11
136.132
 21
85.2837
  0
LINE
  8
0
 10
136.132
 20
85.2837
 11
136.052
 21
85.3527
  0
LINE
  8
0
 10
136.052
 20
85.3527
 11
135.972
 21
85.4213
  0
LINE
  8
0
 10
135.972
 20
85.4213
 11
135.892
 21
85.4896
  0
LINE
  8
0
 10
135.892
 20
85.4896
 11
135.812
 21
85.5575
  0
LINE
  8
0
 10
135.812
 20
85.5575
 11
135.731
 21
85.625
  0
LINE
  8
0
 10
135.731
 20
85.625
 11
135.651
 21
85.6922
  0
LINE
  8
0
 10
135.651
 20
85.6922
 11
135.571
 21
85.759
  0
LINE
  8
0
 10
135.571
 20
85.759
 11
135.491
 21
85.8255
  0
LINE
  8
0
 10
135.491
 20
85.8255
 11
135.411
 21
85.8916
  0
LINE
  8
0
 10
135.411
 20
85.8916
 11
135.331
 21
85.9573
  0
LINE
  8
0
 10
135.331
 20
85.9573
 11
135.25
 21
86.0228
  0
LINE
  8
0
 10
135.25
 20
86.0228
 11
135.17
 21
86.0878
  0
LINE
  8
0
 10
135.17
 20
86.0878
 11
135.09
 21
86.1526
  0
LINE
  8
0
 10
135.09
 20
86.1526
 11
135.01
 21
86.217
  0
LINE
  8
0
 10
135.01
 20
86.217
 11
134.93
 21
86.281
  0
LINE
  8
0
 10
134.93
 20
86.281
 11
134.85
 21
86.3447
  0
LINE
  8
0
 10
134.85
 20
86.3447
 11
134.77
 21
86.4081
  0
LINE
  8
0
 10
134.77
 20
86.4081
 11
134.689
 21
86.4712
  0
LINE
  8
0
 10
134.689
 20
86.4712
 11
134.609
 21
86.5339
  0
LINE
  8
0
 10
134.609
 20
86.5339
 11
134.529
 21
86.5963
  0
LINE
  8
0
 10
134.529
 20
86.5963
 11
134.449
 21
86.6583
  0
LINE
  8
0
 10
134.449
 20
86.6583
 11
134.369
 21
86.7201
  0
LINE
  8
0
 10
134.369
 20
86.7201
 11
134.289
 21
86.7815
  0
LINE
  8
0
 10
134.289
 20
86.7815
 11
134.208
 21
86.8426
  0
LINE
  8
0
 10
134.208
 20
86.8426
 11
134.128
 21
86.9034
  0
LINE
  8
0
 10
134.128
 20
86.9034
 11
134.048
 21
86.9639
  0
LINE
  8
0
 10
134.048
 20
86.9639
 11
133.968
 21
87.024
  0
LINE
  8
0
 10
133.968
 20
87.024
 11
133.888
 21
87.0838
  0
LINE
  8
0
 10
133.888
 20
87.0838
 11
133.808
 21
87.1434
  0
LINE
  8
0
 10
133.808
 20
87.1434
 11
133.727
 21
87.2026
  0
LINE
  8
0
 10
133.727
 20
87.2026
 11
133.647
 21
87.2615
  0
LINE
  8
0
 10
133.647
 20
87.2615
 11
133.567
 21
87.3201
  0
LINE
  8
0
 10
133.567
 20
87.3201
 11
133.487
 21
87.3784
  0
LINE
  8
0
 10
133.487
 20
87.3784
 11
133.407
 21
87.4364
  0
LINE
  8
0
 10
133.407
 20
87.4364
 11
133.327
 21
87.4941
  0
LINE
  8
0
 10
133.327
 20
87.4941
 11
133.246
 21
87.5515
  0
LINE
  8
0
 10
133.246
 20
87.5515
 11
133.166
 21
87.6086
  0
LINE
  8
0
 10
133.166
 20
87.6086
 11
133.086
 21
87.6654
  0
LINE
  8
0
 10
133.086
 20
87.6654
 11
133.006
 21
87.7219
  0
LINE
  8
0
 10
133.006
 20
87.7219
 11
132.926
 21
87.7781
  0
LINE
  8
0
 10
132.926
 20
87.7781
 11
132.846
 21
87.834
  0
LINE
  8
0
 10
132.846
 20
87.834
 11
132.766
 21
87.8897
  0
LINE
  8
0
 10
132.766
 20
87.8897
 11
132.685
 21
87.945
  0
LINE
  8
0
 10
132.685
 20
87.945
 11
132.605
 21
88.0001
  0
LINE
  8
0
 10
132.605
 20
88.0001
 11
132.525
 21
88.0548
  0
LINE
  8
0
 10
132.525
 20
88.0548
 11
132.445
 21
88.1093
  0
LINE
  8
0
 10
132.445
 20
88.1093
 11
132.365
 21
88.1635
  0
LINE
  8
0
 10
132.365
 20
88.1635
 11
132.285
 21
88.2174
  0
LINE
  8
0
 10
132.285
 20
88.2174
 11
132.204
 21
88.2711
  0
LINE
  8
0
 10
132.204
 20
88.2711
 11
132.124
 21
88.3244
  0
LINE
  8
0
 10
132.124
 20
88.3244
 11
132.044
 21
88.3775
  0
LINE
  8
0
 10
132.044
 20
88.3775
 11
131.964
 21
88.4303
  0
LINE
  8
0
 10
131.964
 20
88.4303
 11
131.884
 21
88.4828
  0
LINE
  8
0
 10
131.884
 20
88.4828
 11
131.804
 21
88.5351
  0
LINE
  8
0
 10
131.804
 20
88.5351
 11
131.723
 21
88.5871
  0
LINE
  8
0
 10
131.723
 20
88.5871
 11
131.643
 21
88.6388
  0
LINE
  8
0
 10
131.643
 20
88.6388
 11
131.563
 21
88.6902
  0
LINE
  8
0
 10
131.563
 20
88.6902
 11
131.483
 21
88.7414
  0
LINE
  8
0
 10
131.483
 20
88.7414
 11
131.403
 21
88.7923
  0
LINE
  8
0
 10
131.403
 20
88.7923
 11
131.323
 21
88.8429
  0
LINE
  8
0
 10
131.323
 20
88.8429
 11
131.242
 21
88.8933
  0
LINE
  8
0
 10
131.242
 20
88.8933
 11
131.162
 21
88.9434
  0
LINE
  8
0
 10
131.162
 20
88.9434
 11
131.082
 21
88.9933
  0
LINE
  8
0
 10
131.082
 20
88.9933
 11
131.002
 21
89.0428
  0
LINE
  8
0
 10
131.002
 20
89.0428
 11
130.922
 21
89.0922
  0
LINE
  8
0
 10
130.922
 20
89.0922
 11
130.842
 21
89.1412
  0
LINE
  8
0
 10
130.842
 20
89.1412
 11
130.762
 21
89.19
  0
LINE
  8
0
 10
130.762
 20
89.19
 11
130.681
 21
89.2386
  0
LINE
  8
0
 10
130.681
 20
89.2386
 11
130.601
 21
89.2869
  0
LINE
  8
0
 10
130.601
 20
89.2869
 11
130.521
 21
89.3349
  0
LINE
  8
0
 10
130.521
 20
89.3349
 11
130.441
 21
89.3827
  0
LINE
  8
0
 10
130.441
 20
89.3827
 11
130.361
 21
89.4302
  0
LINE
  8
0
 10
130.361
 20
89.4302
 11
130.281
 21
89.4775
  0
LINE
  8
0
 10
130.281
 20
89.4775
 11
130.2
 21
89.5245
  0
LINE
  8
0
 10
130.2
 20
89.5245
 11
130.12
 21
89.5713
  0
LINE
  8
0
 10
130.12
 20
89.5713
 11
130.04
 21
89.6178
  0
LINE
  8
0
 10
130.04
 20
89.6178
 11
129.96
 21
89.6641
  0
LINE
  8
0
 10
129.96
 20
89.6641
 11
129.88
 21
89.7102
  0
LINE
  8
0
 10
129.88
 20
89.7102
 11
129.8
 21
89.7559
  0
LINE
  8
0
 10
129.8
 20
89.7559
 11
129.719
 21
89.8015
  0
LINE
  8
0
 10
129.719
 20
89.8015
 11
129.639
 21
89.8468
  0
LINE
  8
0
 10
129.639
 20
89.8468
 11
129.559
 21
89.8918
  0
LINE
  8
0
 10
129.559
 20
89.8918
 11
129.479
 21
89.9366
  0
LINE
  8
0
 10
129.479
 20
89.9366
 11
129.399
 21
89.9812
  0
LINE
  8
0
 10
129.399
 20
89.9812
 11
129.319
 21
90.0256
  0
LINE
  8
0
 10
129.319
 20
90.0256
 11
129.238
 21
90.0697
  0
LINE
  8
0
 10
129.238
 20
90.0697
 11
129.158
 21
90.1135
  0
LINE
  8
0
 10
129.158
 20
90.1135
 11
129.078
 21
90.1571
  0
LINE
  8
0
 10
129.078
 20
90.1571
 11
128.998
 21
90.2005
  0
LINE
  8
0
 10
128.998
 20
90.2005
 11
128.918
 21
90.2437
  0
LINE
  8
0
 10
128.918
 20
90.2437
 11
128.838
 21
90.2866
  0
LINE
  8
0
 10
128.838
 20
90.2866
 11
128.758
 21
90.3292
  0
LINE
  8
0
 10
128.758
 20
90.3292
 11
128.677
 21
90.3717
  0
LINE
  8
0
 10
128.677
 20
90.3717
 11
128.597
 21
90.4139
  0
LINE
  8
0
 10
128.597
 20
90.4139
 11
128.517
 21
90.4559
  0
LINE
  8
0
 10
128.517
 20
90.4559
 11
128.437
 21
90.4976
  0
LINE
  8
0
 10
128.437
 20
90.4976
 11
128.357
 21
90.5391
  0
LINE
  8
0
 10
128.357
 20
90.5391
 11
128.277
 21
90.5804
  0
LINE
  8
0
 10
128.277
 20
90.5804
 11
128.196
 21
90.6215
  0
LINE
  8
0
 10
128.196
 20
90.6215
 11
128.116
 21
90.6623
  0
LINE
  8
0
 10
128.116
 20
90.6623
 11
128.036
 21
90.7029
  0
LINE
  8
0
 10
128.036
 20
90.7029
 11
127.956
 21
90.7433
  0
LINE
  8
0
 10
127.956
 20
90.7433
 11
127.876
 21
90.7835
  0
LINE
  8
0
 10
127.876
 20
90.7835
 11
127.796
 21
90.8234
  0
LINE
  8
0
 10
127.796
 20
90.8234
 11
127.715
 21
90.8631
  0
LINE
  8
0
 10
127.715
 20
90.8631
 11
127.635
 21
90.9026
  0
LINE
  8
0
 10
127.635
 20
90.9026
 11
127.555
 21
90.9419
  0
LINE
  8
0
 10
127.555
 20
90.9419
 11
127.475
 21
90.9809
  0
LINE
  8
0
 10
127.475
 20
90.9809
 11
127.395
 21
91.0197
  0
LINE
  8
0
 10
127.395
 20
91.0197
 11
127.315
 21
91.0583
  0
LINE
  8
0
 10
127.315
 20
91.0583
 11
127.234
 21
91.0967
  0
LINE
  8
0
 10
127.234
 20
91.0967
 11
127.154
 21
91.1349
  0
LINE
  8
0
 10
127.154
 20
91.1349
 11
127.074
 21
91.1728
  0
LINE
  8
0
 10
127.074
 20
91.1728
 11
126.994
 21
91.2106
  0
LINE
  8
0
 10
126.994
 20
91.2106
 11
126.914
 21
91.2481
  0
LINE
  8
0
 10
126.914
 20
91.2481
 11
126.834
 21
91.2854
  0
LINE
  8
0
 10
126.834
 20
91.2854
 11
126.753
 21
91.3224
  0
LINE
  8
0
 10
126.753
 20
91.3224
 11
126.673
 21
91.3593
  0
LINE
  8
0
 10
126.673
 20
91.3593
 11
126.593
 21
91.396
  0
LINE
  8
0
 10
126.593
 20
91.396
 11
126.513
 21
91.4324
  0
LINE
  8
0
 10
126.513
 20
91.4324
 11
126.433
 21
91.4686
  0
LINE
  8
0
 10
126.433
 20
91.4686
 11
126.353
 21
91.5046
  0
LINE
  8
0
 10
126.353
 20
91.5046
 11
126.273
 21
91.5404
  0
LINE
  8
0
 10
126.273
 20
91.5404
 11
126.192
 21
91.576
  0
LINE
  8
0
 10
126.192
 20
91.576
 11
126.112
 21
91.6114
  0
LINE
  8
0
 10
126.112
 20
91.6114
 11
126.032
 21
91.6466
  0
LINE
  8
0
 10
126.032
 20
91.6466
 11
125.952
 21
91.6815
  0
LINE
  8
0
 10
125.952
 20
91.6815
 11
125.872
 21
91.7163
  0
LINE
  8
0
 10
125.872
 20
91.7163
 11
125.792
 21
91.7509
  0
LINE
  8
0
 10
125.792
 20
91.7509
 11
125.711
 21
91.7852
  0
LINE
  8
0
 10
125.711
 20
91.7852
 11
125.631
 21
91.8193
  0
LINE
  8
0
 10
125.631
 20
91.8193
 11
125.551
 21
91.8533
  0
LINE
  8
0
 10
125.551
 20
91.8533
 11
125.471
 21
91.887
  0
LINE
  8
0
 10
125.471
 20
91.887
 11
125.391
 21
91.9205
  0
LINE
  8
0
 10
125.391
 20
91.9205
 11
125.311
 21
91.9538
  0
LINE
  8
0
 10
125.311
 20
91.9538
 11
125.23
 21
91.9869
  0
LINE
  8
0
 10
125.23
 20
91.9869
 11
125.15
 21
92.0198
  0
LINE
  8
0
 10
125.15
 20
92.0198
 11
125.07
 21
92.0525
  0
LINE
  8
0
 10
125.07
 20
92.0525
 11
124.99
 21
92.085
  0
LINE
  8
0
 10
124.99
 20
92.085
 11
124.91
 21
92.1173
  0
LINE
  8
0
 10
124.91
 20
92.1173
 11
124.83
 21
92.1494
  0
LINE
  8
0
 10
124.83
 20
92.1494
 11
124.749
 21
92.1813
  0
LINE
  8
0
 10
124.749
 20
92.1813
 11
124.669
 21
92.213
  0
LINE
  8
0
 10
124.669
 20
92.213
 11
124.589
 21
92.2445
  0
LINE
  8
0
 10
124.589
 20
92.2445
 11
124.509
 21
92.2758
  0
LINE
  8
0
 10
124.509
 20
92.2758
 11
124.429
 21
92.3069
  0
LINE
  8
0
 10
124.429
 20
92.3069
 11
124.349
 21
92.3378
  0
LINE
  8
0
 10
124.349
 20
92.3378
 11
124.269
 21
92.3685
  0
LINE
  8
0
 10
124.269
 20
92.3685
 11
124.188
 21
92.3991
  0
LINE
  8
0
 10
124.188
 20
92.3991
 11
124.108
 21
92.4294
  0
LINE
  8
0
 10
124.108
 20
92.4294
 11
124.028
 21
92.4595
  0
LINE
  8
0
 10
124.028
 20
92.4595
 11
123.948
 21
92.4894
  0
LINE
  8
0
 10
123.948
 20
92.4894
 11
123.868
 21
92.5191
  0
LINE
  8
0
 10
123.868
 20
92.5191
 11
123.788
 21
92.5487
  0
LINE
  8
0
 10
123.788
 20
92.5487
 11
123.707
 21
92.578
  0
LINE
  8
0
 10
123.707
 20
92.578
 11
123.627
 21
92.6071
  0
LINE
  8
0
 10
123.627
 20
92.6071
 11
123.547
 21
92.6361
  0
LINE
  8
0
 10
123.547
 20
92.6361
 11
123.467
 21
92.6649
  0
LINE
  8
0
 10
123.467
 20
92.6649
 11
123.387
 21
92.6934
  0
LINE
  8
0
 10
123.387
 20
92.6934
 11
123.307
 21
92.7218
  0
LINE
  8
0
 10
123.307
 20
92.7218
 11
123.226
 21
92.75
  0
LINE
  8
0
 10
123.226
 20
92.75
 11
123.146
 21
92.778
  0
LINE
  8
0
 10
123.146
 20
92.778
 11
123.066
 21
92.8058
  0
LINE
  8
0
 10
123.066
 20
92.8058
 11
122.986
 21
92.8334
  0
LINE
  8
0
 10
122.986
 20
92.8334
 11
122.906
 21
92.8608
  0
LINE
  8
0
 10
122.906
 20
92.8608
 11
122.826
 21
92.888
  0
LINE
  8
0
 10
122.826
 20
92.888
 11
122.745
 21
92.9151
  0
LINE
  8
0
 10
122.745
 20
92.9151
 11
122.665
 21
92.9419
  0
LINE
  8
0
 10
122.665
 20
92.9419
 11
122.585
 21
92.9686
  0
LINE
  8
0
 10
122.585
 20
92.9686
 11
122.505
 21
92.9951
  0
LINE
  8
0
 10
122.505
 20
92.9951
 11
122.425
 21
93.0213
  0
LINE
  8
0
 10
122.425
 20
93.0213
 11
122.345
 21
93.0474
  0
LINE
  8
0
 10
122.345
 20
93.0474
 11
122.265
 21
93.0734
  0
LINE
  8
0
 10
122.265
 20
93.0734
 11
122.184
 21
93.0991
  0
LINE
  8
0
 10
122.184
 20
93.0991
 11
122.104
 21
93.1246
  0
LINE
  8
0
 10
122.104
 20
93.1246
 11
122.024
 21
93.15
  0
LINE
  8
0
 10
122.024
 20
93.15
 11
121.944
 21
93.1752
  0
LINE
  8
0
 10
121.944
 20
93.1752
 11
121.864
 21
93.2001
  0
LINE
  8
0
 10
121.864
 20
93.2001
 11
121.784
 21
93.2249
  0
LINE
  8
0
 10
121.784
 20
93.2249
 11
121.703
 21
93.2496
  0
LINE
  8
0
 10
121.703
 20
93.2496
 11
121.623
 21
93.274
  0
LINE
  8
0
 10
121.623
 20
93.274
 11
121.543
 21
93.2983
  0
LINE
  8
0
 10
121.543
 20
93.2983
 11
121.463
 21
93.3223
  0
LINE
  8
0
 10
121.463
 20
93.3223
 11
121.383
 21
93.3462
  0
LINE
  8
0
 10
121.383
 20
93.3462
 11
121.303
 21
93.3699
  0
LINE
  8
0
 10
121.303
 20
93.3699
 11
121.222
 21
93.3934
  0
LINE
  8
0
 10
121.222
 20
93.3934
 11
121.142
 21
93.4168
  0
LINE
  8
0
 10
121.142
 20
93.4168
 11
121.062
 21
93.4399
  0
LINE
  8
0
 10
121.062
 20
93.4399
 11
120.982
 21
93.4629
  0
LINE
  8
0
 10
120.982
 20
93.4629
 11
120.902
 21
93.4857
  0
LINE
  8
0
 10
120.902
 20
93.4857
 11
120.822
 21
93.5083
  0
LINE
  8
0
 10
120.822
 20
93.5083
 11
120.741
 21
93.5308
  0
LINE
  8
0
 10
120.741
 20
93.5308
 11
120.661
 21
93.553
  0
LINE
  8
0
 10
120.661
 20
93.553
 11
120.581
 21
93.5751
  0
LINE
  8
0
 10
120.581
 20
93.5751
 11
120.501
 21
93.597
  0
LINE
  8
0
 10
120.501
 20
93.597
 11
120.421
 21
93.6187
  0
LINE
  8
0
 10
120.421
 20
93.6187
 11
120.341
 21
93.6403
  0
LINE
  8
0
 10
120.341
 20
93.6403
 11
120.261
 21
93.6616
  0
LINE
  8
0
 10
120.261
 20
93.6616
 11
120.18
 21
93.6828
  0
LINE
  8
0
 10
120.18
 20
93.6828
 11
120.1
 21
93.7038
  0
LINE
  8
0
 10
120.1
 20
93.7038
 11
120.02
 21
93.7246
  0
LINE
  8
0
 10
120.02
 20
93.7246
 11
119.94
 21
93.7453
  0
LINE
  8
0
 10
119.94
 20
93.7453
 11
119.86
 21
93.7658
  0
LINE
  8
0
 10
119.86
 20
93.7658
 11
119.78
 21
93.7861
  0
LINE
  8
0
 10
119.78
 20
93.7861
 11
119.699
 21
93.8062
  0
LINE
  8
0
 10
119.699
 20
93.8062
 11
119.619
 21
93.8261
  0
LINE
  8
0
 10
119.619
 20
93.8261
 11
119.539
 21
93.8459
  0
LINE
  8
0
 10
119.539
 20
93.8459
 11
119.459
 21
93.8655
  0
LINE
  8
0
 10
119.459
 20
93.8655
 11
119.379
 21
93.8849
  0
LINE
  8
0
 10
119.379
 20
93.8849
 11
119.299
 21
93.9042
  0
LINE
  8
0
 10
119.299
 20
93.9042
 11
119.218
 21
93.9232
  0
LINE
  8
0
 10
119.218
 20
93.9232
 11
119.138
 21
93.9422
  0
LINE
  8
0
 10
119.138
 20
93.9422
 11
119.058
 21
93.9609
  0
LINE
  8
0
 10
119.058
 20
93.9609
 11
118.978
 21
93.9794
  0
LINE
  8
0
 10
118.978
 20
93.9794
 11
118.898
 21
93.9978
  0
LINE
  8
0
 10
118.898
 20
93.9978
 11
118.818
 21
94.016
  0
LINE
  8
0
 10
118.818
 20
94.016
 11
118.737
 21
94.034
  0
LINE
  8
0
 10
118.737
 20
94.034
 11
118.657
 21
94.0519
  0
LINE
  8
0
 10
118.657
 20
94.0519
 11
118.577
 21
94.0696
  0
LINE
  8
0
 10
118.577
 20
94.0696
 11
118.497
 21
94.0871
  0
LINE
  8
0
 10
118.497
 20
94.0871
 11
118.417
 21
94.1044
  0
LINE
  8
0
 10
118.417
 20
94.1044
 11
118.337
 21
94.1216
  0
LINE
  8
0
 10
118.337
 20
94.1216
 11
118.257
 21
94.1386
  0
LINE
  8
0
 10
118.257
 20
94.1386
 11
118.176
 21
94.1554
  0
LINE
  8
0
 10
118.176
 20
94.1554
 11
118.096
 21
94.1721
  0
LINE
  8
0
 10
118.096
 20
94.1721
 11
118.016
 21
94.1886
  0
LINE
  8
0
 10
118.016
 20
94.1886
 11
117.936
 21
94.2049
  0
LINE
  8
0
 10
117.936
 20
94.2049
 11
117.856
 21
94.221
  0
LINE
  8
0
 10
117.856
 20
94.221
 11
117.776
 21
94.237
  0
LINE
  8
0
 10
117.776
 20
94.237
 11
117.695
 21
94.2528
  0
LINE
  8
0
 10
117.695
 20
94.2528
 11
117.615
 21
94.2684
  0
LINE
  8
0
 10
117.615
 20
94.2684
 11
117.535
 21
94.2839
  0
LINE
  8
0
 10
117.535
 20
94.2839
 11
117.455
 21
94.2992
  0
LINE
  8
0
 10
117.455
 20
94.2992
 11
117.375
 21
94.3143
  0
LINE
  8
0
 10
117.375
 20
94.3143
 11
117.295
 21
94.3292
  0
LINE
  8
0
 10
117.295
 20
94.3292
 11
117.214
 21
94.344
  0
LINE
  8
0
 10
117.214
 20
94.344
 11
117.134
 21
94.3586
  0
LINE
  8
0
 10
117.134
 20
94.3586
 11
117.054
 21
94.3731
  0
LINE
  8
0
 10
117.054
 20
94.3731
 11
116.974
 21
94.3873
  0
LINE
  8
0
 10
116.974
 20
94.3873
 11
116.894
 21
94.4015
  0
LINE
  8
0
 10
116.894
 20
94.4015
 11
116.814
 21
94.4154
  0
LINE
  8
0
 10
116.814
 20
94.4154
 11
116.733
 21
94.4292
  0
LINE
  8
0
 10
116.733
 20
94.4292
 11
116.653
 21
94.4428
  0
LINE
  8
0
 10
116.653
 20
94.4428
 11
116.573
 21
94.4562
  0
LINE
  8
0
 10
116.573
 20
94.4562
 11
116.493
 21
94.4695
  0
LINE
  8
0
 10
116.493
 20
94.4695
 11
116.413
 21
94.4826
  0
LINE
  8
0
 10
116.413
 20
94.4826
 11
116.333
 21
94.4955
  0
LINE
  8
0
 10
116.333
 20
94.4955
 11
116.253
 21
94.5083
  0
LINE
  8
0
 10
116.253
 20
94.5083
 11
116.172
 21
94.5209
  0
LINE
  8
0
 10
116.172
 20
94.5209
 11
116.092
 21
94.5333
  0
LINE
  8
0
 10
116.092
 20
94.5333
 11
116.012
 21
94.5456
  0
LINE
  8
0
 10
116.012
 20
94.5456
 11
115.932
 21
94.5577
  0
LINE
  8
0
 10
115.932
 20
94.5577
 11
115.852
 21
94.5696
  0
LINE
  8
0
 10
115.852
 20
94.5696
 11
115.772
 21
94.5814
  0
LINE
  8
0
 10
115.772
 20
94.5814
 11
115.691
 21
94.593
  0
LINE
  8
0
 10
115.691
 20
94.593
 11
115.611
 21
94.6045
  0
LINE
  8
0
 10
115.611
 20
94.6045
 11
115.531
 21
94.6157
  0
LINE
  8
0
 10
115.531
 20
94.6157
 11
115.451
 21
94.6268
  0
LINE
  8
0
 10
115.451
 20
94.6268
 11
115.371
 21
94.6378
  0
LINE
  8
0
 10
115.371
 20
94.6378
 11
115.291
 21
94.6486
  0
LINE
  8
0
 10
115.291
 20
94.6486
 11
115.21
 21
94.6592
  0
LINE
  8
0
 10
115.21
 20
94.6592
 11
115.13
 21
94.6696
  0
LINE
  8
0
 10
115.13
 20
94.6696
 11
115.05
 21
94.6799
  0
LINE
  8
0
 10
115.05
 20
94.6799
 11
114.97
 21
94.69
  0
LINE
  8
0
 10
114.97
 20
94.69
 11
114.89
 21
94.7
  0
LINE
  8
0
 10
114.89
 20
94.7
 11
114.81
 21
94.7098
  0
LINE
  8
0
 10
114.81
 20
94.7098
 11
114.729
 21
94.7194
  0
LINE
  8
0
 10
114.729
 20
94.7194
 11
114.649
 21
94.7289
  0
LINE
  8
0
 10
114.649
 20
94.7289
 11
114.569
 21
94.7382
  0
LINE
  8
0
 10
114.569
 20
94.7382
 11
114.489
 21
94.7473
  0
LINE
  8
0
 10
114.489
 20
94.7473
 11
114.409
 21
94.7563
  0
LINE
  8
0
 10
114.409
 20
94.7563
 11
114.329
 21
94.7651
  0
LINE
  8
0
 10
114.329
 20
94.7651
 11
114.248
 21
94.7737
  0
LINE
  8
0
 10
114.248
 20
94.7737
 11
114.168
 21
94.7822
  0
LINE
  8
0
 10
114.168
 20
94.7822
 11
114.088
 21
94.7905
  0
LINE
  8
0
 10
114.088
 20
94.7905
 11
114.008
 21
94.7987
  0
LINE
  8
0
 10
114.008
 20
94.7987
 11
113.928
 21
94.8067
  0
LINE
  8
0
 10
113.928
 20
94.8067
 11
113.848
 21
94.8145
  0
LINE
  8
0
 10
113.848
 20
94.8145
 11
113.768
 21
94.8222
  0
LINE
  8
0
 10
113.768
 20
94.8222
 11
113.687
 21
94.8297
  0
LINE
  8
0
 10
113.687
 20
94.8297
 11
113.607
 21
94.837
  0
LINE
  8
0
 10
113.607
 20
94.837
 11
113.527
 21
94.8442
  0
LINE
  8
0
 10
113.527
 20
94.8442
 11
113.447
 21
94.8512
  0
LINE
  8
0
 10
113.447
 20
94.8512
 11
113.367
 21
94.858
  0
LINE
  8
0
 10
113.367
 20
94.858
 11
113.287
 21
94.8647
  0
LINE
  8
0
 10
113.287
 20
94.8647
 11
113.206
 21
94.8713
  0
LINE
  8
0
 10
113.206
 20
94.8713
 11
113.126
 21
94.8776
  0
LINE
  8
0
 10
113.126
 20
94.8776
 11
113.046
 21
94.8838
  0
LINE
  8
0
 10
113.046
 20
94.8838
 11
112.966
 21
94.8899
  0
LINE
  8
0
 10
112.966
 20
94.8899
 11
112.886
 21
94.8958
  0
LINE
  8
0
 10
112.886
 20
94.8958
 11
112.806
 21
94.9015
  0
LINE
  8
0
 10
112.806
 20
94.9015
 11
112.725
 21
94.907
  0
LINE
  8
0
 10
112.725
 20
94.907
 11
112.645
 21
94.9124
  0
LINE
  8
0
 10
112.645
 20
94.9124
 11
112.565
 21
94.9177
  0
LINE
  8
0
 10
112.565
 20
94.9177
 11
112.485
 21
94.9227
  0
LINE
  8
0
 10
112.485
 20
94.9227
 11
112.405
 21
94.9276
  0
LINE
  8
0
 10
112.405
 20
94.9276
 11
112.325
 21
94.9324
  0
LINE
  8
0
 10
112.325
 20
94.9324
 11
112.244
 21
94.937
  0
LINE
  8
0
 10
112.244
 20
94.937
 11
112.164
 21
94.9414
  0
LINE
  8
0
 10
112.164
 20
94.9414
 11
112.084
 21
94.9457
  0
LINE
  8
0
 10
112.084
 20
94.9457
 11
112.004
 21
94.9498
  0
LINE
  8
0
 10
112.004
 20
94.9498
 11
111.924
 21
94.9537
  0
LINE
  8
0
 10
111.924
 20
94.9537
 11
111.844
 21
94.9575
  0
LINE
  8
0
 10
111.844
 20
94.9575
 11
111.764
 21
94.9611
  0
LINE
  8
0
 10
111.764
 20
94.9611
 11
111.683
 21
94.9646
  0
LINE
  8
0
 10
111.683
 20
94.9646
 11
111.603
 21
94.9678
  0
LINE
  8
0
 10
111.603
 20
94.9678
 11
111.523
 21
94.971
  0
LINE
  8
0
 10
111.523
 20
94.971
 11
111.443
 21
94.974
  0
LINE
  8
0
 10
111.443
 20
94.974
 11
111.363
 21
94.9768
  0
LINE
  8
0
 10
111.363
 20
94.9768
 11
111.283
 21
94.9794
  0
LINE
  8
0
 10
111.283
 20
94.9794
 11
111.202
 21
94.9819
  0
LINE
  8
0
 10
111.202
 20
94.9819
 11
111.122
 21
94.9843
  0
LINE
  8
0
 10
111.122
 20
94.9843
 11
111.042
 21
94.9864
  0
LINE
  8
0
 10
111.042
 20
94.9864
 11
110.962
 21
94.9884
  0
LINE
  8
0
 10
110.962
 20
94.9884
 11
110.882
 21
94.9903
  0
LINE
  8
0
 10
110.882
 20
94.9903
 11
110.802
 21
94.992
  0
LINE
  8
0
 10
110.802
 20
94.992
 11
110.721
 21
94.9935
  0
LINE
  8
0
 10
110.721
 20
94.9935
 11
110.641
 21
94.9949
  0
LINE
  8
0
 10
110.641
 20
94.9949
 11
110.561
 21
94.9961
  0
LINE
  8
0
 10
110.561
 20
94.9961
 11
110.481
 21
94.9971
  0
LINE
  8
0
 10
110.481
 20
94.9971
 11
110.401
 21
94.998
  0
LINE
  8
0
 10
110.401
 20
94.998
 11
110.321
 21
94.9987
  0
LINE
  8
0
 10
110.321
 20
94.9987
 11
110.24
 21
94.9993
  0
LINE
  8
0
 10
110.24
 20
94.9993
 11
110.16
 21
94.9997
  0
LINE
  8
0
 10
110.16
 20
94.9997
 11
110.08
 21
94.9999
  0
LINE
  8
0
 10
110.08
 20
94.9999
 11
110
 21
95
  0
LINE
  8
0
 10
110
 20
95
 11
110
 21
90
  0
LINE
  8
0
 10
110
 20
90
 11
100
 21
90
  0
LINE
  8
0
 10
100
 20
90
 11
100
 21
95
  0
LINE
  8
0
 10
100
 20
95
 11
40
 21
95
  0
LINE
  8
0
 10
40
 20
95
 11
40
 21
90
  0
LINE
  8
0
 10
40
 20
90
 11
30
 21
90
  0
LINE
  8
0
 10
30
 20
90
 11
30
 21
95
  0
LINE
  8
0
 10
30
 20
95
 11
29.9399
 21
94.9999
  0
LINE
  8
0
 10
29.9399
 20
94.9999
 11
29.8797
 21
94.9998
  0
LINE
  8
0
 10
29.8797
 20
94.9998
 11
29.8196
 21
94.9995
  0
LINE
  8
0
 10
29.8196
 20
94.9995
 11
29.7595
 21
94.999
  0
LINE
  8
0
 10
29.7595
 20
94.999
 11
29.6994
 21
94.9985
  0
LINE
  8
0
 10
29.6994
 20
94.9985
 11
29.6393
 21
94.9978
  0
LINE
  8
0
 10
29.6393
 20
94.9978
 11
29.5791
 21
94.997
  0
LINE
  8
0
 10
29.5791
 20
94.997
 11
29.519
 21
94.9961
  0
LINE
  8
0
 10
29.519
 20
94.9961
 11
29.4589
 21
94.9951
  0
LINE
  8
0
 10
29.4589
 20
94.9951
 11
29.3988
 21
94.994
  0
LINE
  8
0
 10
29.3988
 20
94.994
 11
29.3387
 21
94.9927
  0
LINE
  8
0
 10
29.3387
 20
94.9927
 11
29.2785
 21
94.9913
  0
LINE
  8
0
 10
29.2785
 20
94.9913
 11
29.2184
 21
94.9898
  0
LINE
  8
0
 10
29.2184
 20
94.9898
 11
29.1583
 21
94.9882
  0
LINE
  8
0
 10
29.1583
 20
94.9882
 11
29.0982
 21
94.9864
  0
LINE
  8
0
 10
29.0982
 20
94.9864
 11
29.0381
 21
94.9846
  0
LINE
  8
0
 10
29.0381
 20
94.9846
 11
28.978
 21
94.9826
  0
LINE
  8
0
 10
28.978
 20
94.9826
 11
28.9178
 21
94.9805
  0
LINE
  8
0
 10
28.9178
 20
94.9805
 11
28.8577
 21
94.9782
  0
LINE
  8
0
 10
28.8577
 20
94.9782
 11
28.7976
 21
94.9759
  0
LINE
  8
0
 10
28.7976
 20
94.9759
 11
28.7375
 21
94.9734
  0
LINE
  8
0
 10
28.7375
 20
94.9734
 11
28.6774
 21
94.9708
  0
LINE
  8
0
 10
28.6774
 20
94.9708
 11
28.6172
 21
94.9681
  0
LINE
  8
0
 10
28.6172
 20
94.9681
 11
28.5571
 21
94.9653
  0
LINE
  8
0
 10
28.5571
 20
94.9653
 11
28.497
 21
94.9623
  0
LINE
  8
0
 10
28.497
 20
94.9623
 11
28.4369
 21
94.9592
  0
LINE
  8
0
 10
28.4369
 20
94.9592
 11
28.3767
 21
94.956
  0
LINE
  8
0
 10
28.3767
 20
94.956
 11
28.3166
 21
94.9527
  0
LINE
  8
0
 10
28.3166
 20
94.9527
 11
28.2565
 21
94.9493
  0
LINE
  8
0
 10
28.2565
 20
94.9493
 11
28.1964
 21
94.9457
  0
LINE
  8
0
 10
28.1964
 20
94.9457
 11
28.1363
 21
94.942
  0
LINE
  8
0
 10
28.1363
 20
94.942
 11
28.0761
 21
94.9382
  0
LINE
  8
0
 10
28.0761
 20
94.9382
 11
28.016
 21
94.9343
  0
LINE
  8
0
 10
28.016
 20
94.9343
 11
27.9559
 21
94.9303
  0
LINE
  8
0
 10
27.9559
 20
94.9303
 11
27.8958
 21
94.9261
  0
LINE
  8
0
 10
27.8958
 20
94.9261
 11
27.8357
 21
94.9218
  0
LINE
  8
0
 10
27.8357
 20
94.9218
 11
27.7755
 21
94.9174
  0
LINE
  8
0
 10
27.7755
 20
94.9174
 11
27.7154
 21
94.9129
  0
LINE
  8
0
 10
27.7154
 20
94.9129
 11
27.6553
 21
94.9082
  0
LINE
  8
0
 10
27.6553
 20
94.9082
 11
27.5952
 21
94.9035
  0
LINE
  8
0
 10
27.5952
 20
94.9035
 11
27.5351
 21
94.8986
  0
LINE
  8
0
 10
27.5351
 20
94.8986
 11
27.4749
 21
94.8935
  0
LINE
  8
0
 10
27.4749
 20
94.8935
 11
27.4148
 21
94.8884
  0
LINE
  8
0
 10
27.4148
 20
94.8884
 11
27.3547
 21
94.8831
  0
LINE
  8
0
 10
27.3547
 20
94.8831
 11
27.2946
 21
94.8778
  0
LINE
  8
0
 10
27.2946
 20
94.8778
 11
27.2345
 21
94.8723
  0
LINE
  8
0
 10
27.2345
 20
94.8723
 11
27.1743
 21
94.8666
  0
LINE
  8
0
 10
27.1743
 20
94.8666
 11
27.1142
 21
94.8609
  0
LINE
  8
0
 10
27.1142
 20
94.8609
 11
27.0541
 21
94.855
  0
LINE
  8
0
 10
27.0541
 20
94.855
 11
26.994
 21
94.849
  0
LINE
  8
0
 10
26.994
 20
94.849
 11
26.9339
 21
94.8429
  0
LINE
  8
0
 10
26.9339
 20
94.8429
 11
26.8737
 21
94.8367
  0
LINE
  8
0
 10
26.8737
 20
94.8367
 11
26.8136
 21
94.8303
  0
LINE
  8
0
 10
26.8136
 20
94.8303
 11
26.7535
 21
94.8238
  0
LINE
  8
0
 10
26.7535
 20
94.8238
 11
26.6934
 21
94.8172
  0
LINE
  8
0
 10
26.6934
 20
94.8172
 11
26.6333
 21
94.8105
  0
LINE
  8
0
 10
26.6333
 20
94.8105
 11
26.5731
 21
94.8036
  0
LINE
  8
0
 10
26.5731
 20
94.8036
 11
26.513
 21
94.7966
  0
LINE
  8
0
 10
26.513
 20
94.7966
 11
26.4529
 21
94.7896
  0
LINE
  8
0
 10
26.4529
 20
94.7896
 11
26.3928
 21
94.7823
  0
LINE
  8
0
 10
26.3928
 20
94.7823
 11
26.3327
 21
94.775
  0
LINE
  8
0
 10
26.3327
 20
94.775
 11
26.2725
 21
94.7675
  0
LINE
  8
0
 10
26.2725
 20
94.7675
 11
26.2124
 21
94.7599
  0
LINE
  8
0
 10
26.2124
 20
94.7599
 11
26.1523
 21
94.7522
  0
LINE
  8
0
 10
26.1523
 20
94.7522
 11
26.0922
 21
94.7444
  0
LINE
  8
0
 10
26.0922
 20
94.7444
 11
26.0321
 21
94.7364
  0
LINE
  8
0
 10
26.0321
 20
94.7364
 11
25.9719
 21
94.7283
  0
LINE
  8
0
 10
25.9719
 20
94.7283
 11
25.9118
 21
94.7201
  0
LINE
  8
0
 10
25.9118
 20
94.7201
 11
25.8517
 21
94.7118
  0
LINE
  8
0
 10
25.8517
 20
94.7118
 11
25.7916
 21
94.7033
  0
LINE
  8
0
 10
25.7916
 20
94.7033
 11
25.7315
 21
94.6948
  0
LINE
  8
0
 10
25.7315
 20
94.6948
 11
25.6713
 21
94.6861
  0
LINE
  8
0
 10
25.6713
 20
94.6861
 11
25.6112
 21
94.6772
  0
LINE
  8
0
 10
25.6112
 20
94.6772
 11
25.5511
 21
94.6683
  0
LINE
  8
0
 10
25.5511
 20
94.6683
 11
25.491
 21
94.6592
  0
LINE
  8
0
 10
25.491
 20
94.6592
 11
25.4308
 21
94.65
  0
LINE
  8
0
 10
25.4308
 20
94.65
 11
25.3707
 21
94.6407
  0
LINE
  8
0
 10
25.3707
 20
94.6407
 11
25.3106
 21
94.6312
  0
LINE
  8
0
 10
25.3106
 20
94.6312
 11
25.2505
 21
94.6216
  0
LINE
  8
0
 10
25.2505
 20
94.6216
 11
25.1904
 21
94.6119
  0
LINE
  8
0
 10
25.1904
 20
94.6119
 11
25.1302
 21
94.6021
  0
LINE
  8
0
 10
25.1302
 20
94.6021
 11
25.0701
 21
94.5922
  0
LINE
  8
0
 10
25.0701
 20
94.5922
 11
25.01
 21
94.5821
  0
LINE
  8
0
 10
25.01
 20
94.5821
 11
24.9499
 21
94.5719
  0
LINE
  8
0
 10
24.9499
 20
94.5719
 11
24.8898
 21
94.5616
  0
LINE
  8
0
 10
24.8898
 20
94.5616
 11
24.8297
 21
94.5511
  0
LINE
  8
0
 10
24.8297
 20
94.5511
 11
24.7695
 21
94.5405
  0
LINE
  8
0
 10
24.7695
 20
94.5405
 11
24.7094
 21
94.5298
  0
LINE
  8
0
 10
24.7094
 20
94.5298
 11
24.6493
 21
94.519
  0
LINE
  8
0
 10
24.6493
 20
94.519
 11
24.5892
 21
94.508
  0
LINE
  8
0
 10
24.5892
 20
94.508
 11
24.5291
 21
94.4969
  0
LINE
  8
0
 10
24.5291
 20
94.4969
 11
24.4689
 21
94.4857
  0
LINE
  8
0
 10
24.4689
 20
94.4857
 11
24.4088
 21
94.4744
  0
LINE
  8
0
 10
24.4088
 20
94.4744
 11
24.3487
 21
94.4629
  0
LINE
  8
0
 10
24.3487
 20
94.4629
 11
24.2886
 21
94.4513
  0
LINE
  8
0
 10
24.2886
 20
94.4513
 11
24.2285
 21
94.4396
  0
LINE
  8
0
 10
24.2285
 20
94.4396
 11
24.1683
 21
94.4277
  0
LINE
  8
0
 10
24.1683
 20
94.4277
 11
24.1082
 21
94.4158
  0
LINE
  8
0
 10
24.1082
 20
94.4158
 11
24.0481
 21
94.4036
  0
LINE
  8
0
 10
24.0481
 20
94.4036
 11
23.988
 21
94.3914
  0
LINE
  8
0
 10
23.988
 20
94.3914
 11
23.9278
 21
94.379
  0
LINE
  8
0
 10
23.9278
 20
94.379
 11
23.8677
 21
94.3666
  0
LINE
  8
0
 10
23.8677
 20
94.3666
 11
23.8076
 21
94.3539
  0
LINE
  8
0
 10
23.8076
 20
94.3539
 11
23.7475
 21
94.3412
  0
LINE
  8
0
 10
23.7475
 20
94.3412
 11
23.6874
 21
94.3283
  0
LINE
  8
0
 10
23.6874
 20
94.3283
 11
23.6272
 21
94.3153
  0
LINE
  8
0
 10
23.6272
 20
94.3153
 11
23.5671
 21
94.3022
  0
LINE
  8
0
 10
23.5671
 20
94.3022
 11
23.507
 21
94.2889
  0
LINE
  8
0
 10
23.507
 20
94.2889
 11
23.4469
 21
94.2755
  0
LINE
  8
0
 10
23.4469
 20
94.2755
 11
23.3868
 21
94.262
  0
LINE
  8
0
 10
23.3868
 20
94.262
 11
23.3266
 21
94.2484
  0
LINE
  8
0
 10
23.3266
 20
94.2484
 11
23.2665
 21
94.2346
  0
LINE
  8
0
 10
23.2665
 20
94.2346
 11
23.2064
 21
94.2207
  0
LINE
  8
0
 10
23.2064
 20
94.2207
 11
23.1463
 21
94.2066
  0
LINE
  8
0
 10
23.1463
 20
94.2066
 11
23.0862
 21
94.1924
  0
LINE
  8
0
 10
23.0862
 20
94.1924
 11
23.026
 21
94.1781
  0
LINE
  8
0
 10
23.026
 20
94.1781
 11
22.9659
 21
94.1637
  0
LINE
  8
0
 10
22.9659
 20
94.1637
 11
22.9058
 21
94.1491
  0
LINE
  8
0
 10
22.9058
 20
94.1491
 11
22.8457
 21
94.1344
  0
LINE
  8
0
 10
22.8457
 20
94.1344
 11
22.7856
 21
94.1196
  0
LINE
  8
0
 10
22.7856
 20
94.1196
 11
22.7254
 21
94.1046
  0
LINE
  8
0
 10
22.7254
 20
94.1046
 11
22.6653
 21
94.0896
  0
LINE
  8
0
 10
22.6653
 20
94.0896
 11
22.6052
 21
94.0743
  0
LINE
  8
0
 10
22.6052
 20
94.0743
 11
22.5451
 21
94.059
  0
LINE
  8
0
 10
22.5451
 20
94.059
 11
22.485
 21
94.0435
  0
LINE
  8
0
 10
22.485
 20
94.0435
 11
22.4248
 21
94.0279
  0
LINE
  8
0
 10
22.4248
 20
94.0279
 11
22.3647
 21
94.0121
  0
LINE
  8
0
 10
22.3647
 20
94.0121
 11
22.3046
 21
93.9962
  0
LINE
  8
0
 10
22.3046
 20
93.9962
 11
22.2445
 21
93.9802
  0
LINE
  8
0
 10
22.2445
 20
93.9802
 11
22.1844
 21
93.964
  0
LINE
  8
0
 10
22.1844
 20
93.964
 11
22.1242
 21
93.9478
  0
LINE
  8
0
 10
22.1242
 20
93.9478
 11
22.0641
 21
93.9313
  0
LINE
  8
0
 10
22.0641
 20
93.9313
 11
22.004
 21
93.9148
  0
LINE
  8
0
 10
22.004
 20
93.9148
 11
21.9439
 21
93.8981
  0
LINE
  8
0
 10
21.9439
 20
93.8981
 11
21.8838
 21
93.8812
  0
LINE
  8
0
 10
21.8838
 20
93.8812
 11
21.8236
 21
93.8643
  0
LINE
  8
0
 10
21.8236
 20
93.8643
 11
21.7635
 21
93.8472
  0
LINE
  8
0
 10
21.7635
 20
93.8472
 11
21.7034
 21
93.83
  0
LINE
  8
0
 10
21.7034
 20
93.83
 11
21.6433
 21
93.8126
  0
LINE
  8
0
 10
21.6433
 20
93.8126
 11
21.5832
 21
93.7951
  0
LINE
  8
0
 10
21.5832
 20
93.7951
 11
21.523
 21
93.7774
  0
LINE
  8
0
 10
21.523
 20
93.7774
 11
21.4629
 21
93.7597
  0
LINE
  8
0
 10
21.4629
 20
93.7597
 11
21.4028
 21
93.7417
  0
LINE
  8
0
 10
21.4028
 20
93.7417
 11
21.3427
 21
93.7237
  0
LINE
  8
0
 10
21.3427
 20
93.7237
 11
21.2826
 21
93.7055
  0
LINE
  8
0
 10
21.2826
 20
93.7055
 11
21.2224
 21
93.6872
  0
LINE
  8
0
 10
21.2224
 20
93.6872
 11
21.1623
 21
93.6687
  0
LINE
  8
0
 10
21.1623
 20
93.6687
 11
21.1022
 21
93.6501
  0
LINE
  8
0
 10
21.1022
 20
93.6501
 11
21.0421
 21
93.6314
  0
LINE
  8
0
 10
21.0421
 20
93.6314
 11
20.9819
 21
93.6125
  0
LINE
  8
0
 10
20.9819
 20
93.6125
 11
20.9218
 21
93.5935
  0
LINE
  8
0
 10
20.9218
 20
93.5935
 11
20.8617
 21
93.5743
  0
LINE
  8
0
 10
20.8617
 20
93.5743
 11
20.8016
 21
93.555
  0
LINE
  8
0
 10
20.8016
 20
93.555
 11
20.7415
 21
93.5356
  0
LINE
  8
0
 10
20.7415
 20
93.5356
 11
20.6814
 21
93.516
  0
LINE
  8
0
 10
20.6814
 20
93.516
 11
20.6212
 21
93.4963
  0
LINE
  8
0
 10
20.6212
 20
93.4963
 11
20.5611
 21
93.4764
  0
LINE
  8
0
 10
20.5611
 20
93.4764
 11
20.501
 21
93.4564
  0
LINE
  8
0
 10
20.501
 20
93.4564
 11
20.4409
 21
93.4363
  0
LINE
  8
0
 10
20.4409
 20
93.4363
 11
20.3808
 21
93.416
  0
LINE
  8
0
 10
20.3808
 20
93.416
 11
20.3206
 21
93.3956
  0
LINE
  8
0
 10
20.3206
 20
93.3956
 11
20.2605
 21
93.375
  0
LINE
  8
0
 10
20.2605
 20
93.375
 11
20.2004
 21
93.3543
  0
LINE
  8
0
 10
20.2004
 20
93.3543
 11
20.1403
 21
93.3335
  0
LINE
  8
0
 10
20.1403
 20
93.3335
 11
20.0802
 21
93.3125
  0
LINE
  8
0
 10
20.0802
 20
93.3125
 11
20.02
 21
93.2913
  0
LINE
  8
0
 10
20.02
 20
93.2913
 11
19.9599
 21
93.2701
  0
LINE
  8
0
 10
19.9599
 20
93.2701
 11
19.8998
 21
93.2486
  0
LINE
  8
0
 10
19.8998
 20
93.2486
 11
19.8397
 21
93.2271
  0
LINE
  8
0
 10
19.8397
 20
93.2271
 11
19.7796
 21
93.2054
  0
LINE
  8
0
 10
19.7796
 20
93.2054
 11
19.7194
 21
93.1835
  0
LINE
  8
0
 10
19.7194
 20
93.1835
 11
19.6593
 21
93.1615
  0
LINE
  8
0
 10
19.6593
 20
93.1615
 11
19.5992
 21
93.1393
  0
LINE
  8
0
 10
19.5992
 20
93.1393
 11
19.5391
 21
93.1171
  0
LINE
  8
0
 10
19.5391
 20
93.1171
 11
19.4789
 21
93.0946
  0
LINE
  8
0
 10
19.4789
 20
93.0946
 11
19.4188
 21
93.072
  0
LINE
  8
0
 10
19.4188
 20
93.072
 11
19.3587
 21
93.0493
  0
LINE
  8
0
 10
19.3587
 20
93.0493
 11
19.2986
 21
93.0264
  0
LINE
  8
0
 10
19.2986
 20
93.0264
 11
19.2385
 21
93.0034
  0
LINE
  8
0
 10
19.2385
 20
93.0034
 11
19.1783
 21
92.9802
  0
LINE
  8
0
 10
19.1783
 20
92.9802
 11
19.1182
 21
92.9569
  0
LINE
  8
0
 10
19.1182
 20
92.9569
 11
19.0581
 21
92.9334
  0
LINE
  8
0
 10
19.0581
 20
92.9334
 11
18.998
 21
92.9098
  0
LINE
  8
0
 10
18.998
 20
92.9098
 11
18.9379
 21
92.886
  0
LINE
  8
0
 10
18.9379
 20
92.886
 11
18.8777
 21
92.8621
  0
LINE
  8
0
 10
18.8777
 20
92.8621
 11
18.8176
 21
92.838
  0
LINE
  8
0
 10
18.8176
 20
92.838
 11
18.7575
 21
92.8138
  0
LINE
  8
0
 10
18.7575
 20
92.8138
 11
18.6974
 21
92.7894
  0
LINE
  8
0
 10
18.6974
 20
92.7894
 11
18.6373
 21
92.7649
  0
LINE
  8
0
 10
18.6373
 20
92.7649
 11
18.5771
 21
92.7402
  0
LINE
  8
0
 10
18.5771
 20
92.7402
 11
18.517
 21
92.7154
  0
LINE
  8
0
 10
18.517
 20
92.7154
 11
18.4569
 21
92.6904
  0
LINE
  8
0
 10
18.4569
 20
92.6904
 11
18.3968
 21
92.6652
  0
LINE
  8
0
 10
18.3968
 20
92.6652
 11
18.3367
 21
92.6399
  0
LINE
  8
0
 10
18.3367
 20
92.6399
 11
18.2766
 21
92.6145
  0
LINE
  8
0
 10
18.2766
 20
92.6145
 11
18.2164
 21
92.5889
  0
LINE
  8
0
 10
18.2164
 20
92.5889
 11
18.1563
 21
92.5631
  0
LINE
  8
0
 10
18.1563
 20
92.5631
 11
18.0962
 21
92.5372
  0
LINE
  8
0
 10
18.0962
 20
92.5372
 11
18.0361
 21
92.5112
  0
LINE
  8
0
 10
18.0361
 20
92.5112
 11
17.9759
 21
92.4849
  0
LINE
  8
0
 10
17.9759
 20
92.4849
 11
17.9158
 21
92.4586
  0
LINE
  8
0
 10
17.9158
 20
92.4586
 11
17.8557
 21
92.432
  0
LINE
  8
0
 10
17.8557
 20
92.432
 11
17.7956
 21
92.4053
  0
LINE
  8
0
 10
17.7956
 20
92.4053
 11
17.7355
 21
92.3785
  0
LINE
  8
0
 10
17.7355
 20
92.3785
 11
17.6753
 21
92.3515
  0
LINE
  8
0
 10
17.6753
 20
92.3515
 11
17.6152
 21
92.3243
  0
LINE
  8
0
 10
17.6152
 20
92.3243
 11
17.5551
 21
92.297
  0
LINE
  8
0
 10
17.5551
 20
92.297
 11
17.495
 21
92.2695
  0
LINE
  8
0
 10
17.495
 20
92.2695
 11
17.4349
 21
92.2418
  0
LINE
  8
0
 10
17.4349
 20
92.2418
 11
17.3747
 21
92.214
  0
LINE
  8
0
 10
17.3747
 20
92.214
 11
17.3146
 21
92.1861
  0
LINE
  8
0
 10
17.3146
 20
92.1861
 11
17.2545
 21
92.1579
  0
LINE
  8
0
 10
17.2545
 20
92.1579
 11
17.1944
 21
92.1296
  0
LINE
  8
0
 10
17.1944
 20
92.1296
 11
17.1343
 21
92.1012
  0
LINE
  8
0
 10
17.1343
 20
92.1012
 11
17.0741
 21
92.0725
  0
LINE
  8
0
 10
17.0741
 20
92.0725
 11
17.014
 21
92.0437
  0
LINE
  8
0
 10
17.014
 20
92.0437
 11
16.9539
 21
92.0148
  0
LINE
  8
0
 10
16.9539
 20
92.0148
 11
16.8938
 21
91.9857
  0
LINE
  8
0
 10
16.8938
 20
91.9857
 11
16.8337
 21
91.9564
  0
LINE
  8
0
 10
16.8337
 20
91.9564
 11
16.7735
 21
91.9269
  0
LINE
  8
0
 10
16.7735
 20
91.9269
 11
16.7134
 21
91.8973
  0
LINE
  8
0
 10
16.7134
 20
91.8973
 11
16.6533
 21
91.8676
  0
LINE
  8
0
 10
16.6533
 20
91.8676
 11
16.5932
 21
91.8376
  0
LINE
  8
0
 10
16.5932
 20
91.8376
 11
16.5331
 21
91.8075
  0
LINE
  8
0
 10
16.5331
 20
91.8075
 11
16.4729
 21
91.7772
  0
LINE
  8
0
 10
16.4729
 20
91.7772
 11
16.4128
 21
91.7467
  0
LINE
  8
0
 10
16.4128
 20
91.7467
 11
16.3527
 21
91.7161
  0
LINE
  8
0
 10
16.3527
 20
91.7161
 11
16.2926
 21
91.6853
  0
LINE
  8
0
 10
16.2926
 20
91.6853
 11
16.2325
 21
91.6544
  0
LINE
  8
0
 10
16.2325
 20
91.6544
 11
16.1723
 21
91.6232
  0
LINE
  8
0
 10
16.1723
 20
91.6232
 11
16.1122
 21
91.5919
  0
LINE
  8
0
 10
16.1122
 20
91.5919
 11
16.0521
 21
91.5604
  0
LINE
  8
0
 10
16.0521
 20
91.5604
 11
15.992
 21
91.5288
  0
LINE
  8
0
 10
15.992
 20
91.5288
 11
15.9319
 21
91.4969
  0
LINE
  8
0
 10
15.9319
 20
91.4969
 11
15.8717
 21
91.4649
  0
LINE
  8
0
 10
15.8717
 20
91.4649
 11
15.8116
 21
91.4327
  0
LINE
  8
0
 10
15.8116
 20
91.4327
 11
15.7515
 21
91.4004
  0
LINE
  8
0
 10
15.7515
 20
91.4004
 11
15.6914
 21
91.3678
  0
LINE
  8
0
 10
15.6914
 20
91.3678
 11
15.6313
 21
91.3351
  0
LINE
  8
0
 10
15.6313
 20
91.3351
 11
15.5711
 21
91.3022
  0
LINE
  8
0
 10
15.5711
 20
91.3022
 11
15.511
 21
91.2692
  0
LINE
  8
0
 10
15.511
 20
91.2692
 11
15.4509
 21
91.2359
  0
LINE
  8
0
 10
15.4509
 20
91.2359
 11
15.3908
 21
91.2025
  0
LINE
  8
0
 10
15.3908
 20
91.2025
 11
15.3307
 21
91.1689
  0
LINE
  8
0
 10
15.3307
 20
91.1689
 11
15.2705
 21
91.1351
  0
LINE
  8
0
 10
15.2705
 20
91.1351
 11
15.2104
 21
91.1011
  0
LINE
  8
0
 10
15.2104
 20
91.1011
 11
15.1503
 21
91.067
  0
LINE
  8
0
 10
15.1503
 20
91.067
 11
15.0902
 21
91.0326
  0
LINE
  8
0
 10
15.0902
 20
91.0326
 11
15.0301
 21
90.9981
  0
LINE
  8
0
 10
15.0301
 20
90.9981
 11
14.9699
 21
90.9634
  0
LINE
  8
0
 10
14.9699
 20
90.9634
 11
14.9098
 21
90.9285
  0
LINE
  8
0
 10
14.9098
 20
90.9285
 11
14.8497
 21
90.8934
  0
LINE
  8
0
 10
14.8497
 20
90.8934
 11
14.7896
 21
90.8581
  0
LINE
  8
0
 10
14.7896
 20
90.8581
 11
14.7294
 21
90.8227
  0
LINE
  8
0
 10
14.7294
 20
90.8227
 11
14.6693
 21
90.787
  0
LINE
  8
0
 10
14.6693
 20
90.787
 11
14.6092
 21
90.7512
  0
LINE
  8
0
 10
14.6092
 20
90.7512
 11
14.5491
 21
90.7151
  0
LINE
  8
0
 10
14.5491
 20
90.7151
 11
14.489
 21
90.6789
  0
LINE
  8
0
 10
14.489
 20
90.6789
 11
14.4288
 21
90.6425
  0
LINE
  8
0
 10
14.4288
 20
90.6425
 11
14.3687
 21
90.6059
  0
LINE
  8
0
 10
14.3687
 20
90.6059
 11
14.3086
 21
90.5691
  0
LINE
  8
0
 10
14.3086
 20
90.5691
 11
14.2485
 21
90.5321
  0
LINE
  8
0
 10
14.2485
 20
90.5321
 11
14.1884
 21
90.4949
  0
LINE
  8
0
 10
14.1884
 20
90.4949
 11
14.1283
 21
90.4576
  0
LINE
  8
0
 10
14.1283
 20
90.4576
 11
14.0681
 21
90.42
  0
LINE
  8
0
 10
14.0681
 20
90.42
 11
14.008
 21
90.3822
  0
LINE
  8
0
 10
14.008
 20
90.3822
 11
13.9479
 21
90.3442
  0
LINE
  8
0
 10
13.9479
 20
90.3442
 11
13.8878
 21
90.306
  0
LINE
  8
0
 10
13.8878
 20
90.306
 11
13.8277
 21
90.2677
  0
LINE
  8
0
 10
13.8277
 20
90.2677
 11
13.7675
 21
90.2291
  0
LINE
  8
0
 10
13.7675
 20
90.2291
 11
13.7074
 21
90.1903
  0
LINE
  8
0
 10
13.7074
 20
90.1903
 11
13.6473
 21
90.1513
  0
LINE
  8
0
 10
13.6473
 20
90.1513
 11
13.5872
 21
90.1121
  0
LINE
  8
0
 10
13.5872
 20
90.1121
 11
13.5271
 21
90.0727
  0
LINE
  8
0
 10
13.5271
 20
90.0727
 11
13.4669
 21
90.0331
  0
LINE
  8
0
 10
13.4669
 20
90.0331
 11
13.4068
 21
89.9933
  0
LINE
  8
0
 10
13.4068
 20
89.9933
 11
13.3467
 21
89.9533
  0
LINE
  8
0
 10
13.3467
 20
89.9533
 11
13.2866
 21
89.9131
  0
LINE
  8
0
 10
13.2866
 20
89.9131
 11
13.2264
 21
89.8726
  0
LINE
  8
0
 10
13.2264
 20
89.8726
 11
13.1663
 21
89.832
  0
LINE
  8
0
 10
13.1663
 20
89.832
 11
13.1062
 21
89.7911
  0
LINE
  8
0
 10
13.1062
 20
89.7911
 11
13.0461
 21
89.75
  0
LINE
  8
0
 10
13.0461
 20
89.75
 11
12.986
 21
89.7088
  0
LINE
  8
0
 10
12.986
 20
89.7088
 11
12.9258
 21
89.6673
  0
LINE
  8
0
 10
12.9258
 20
89.6673
 11
12.8657
 21
89.6255
  0
LINE
  8
0
 10
12.8657
 20
89.6255
 11
12.8056
 21
89.5836
  0
LINE
  8
0
 10
12.8056
 20
89.5836
 11
12.7455
 21
89.5414
  0
LINE
  8
0
 10
12.7455
 20
89.5414
 11
12.6854
 21
89.499
  0
LINE
  8
0
 10
12.6854
 20
89.499
 11
12.6252
 21
89.4565
  0
LINE
  8
0
 10
12.6252
 20
89.4565
 11
12.5651
 21
89.4136
  0
LINE
  8
0
 10
12.5651
 20
89.4136
 11
12.505
 21
89.3706
  0
LINE
  8
0
 10
12.505
 20
89.3706
 11
12.4449
 21
89.3273
  0
LINE
  8
0
 10
12.4449
 20
89.3273
 11
12.3848
 21
89.2838
  0
LINE
  8
0
 10
12.3848
 20
89.2838
 11
12.3246
 21
89.2401
  0
LINE
  8
0
 10
12.3246
 20
89.2401
 11
12.2645
 21
89.1961
  0
LINE
  8
0
 10
12.2645
 20
89.1961
 11
12.2044
 21
89.1519
  0
LINE
  8
0
 10
12.2044
 20
89.1519
 11
12.1443
 21
89.1075
  0
LINE
  8
0
 10
12.1443
 20
89.1075
 11
12.0842
 21
89.0629
  0
LINE
  8
0
 10
12.0842
 20
89.0629
 11
12.024
 21
89.018
  0
LINE
  8
0
 10
12.024
 20
89.018
 11
11.9639
 21
88.9729
  0
LINE
  8
0
 10
11.9639
 20
88.9729
 11
11.9038
 21
88.9276
  0
LINE
  8
0
 10
11.9038
 20
88.9276
 11
11.8437
 21
88.882
  0
LINE
  8
0
 10
11.8437
 20
88.882
 11
11.7836
 21
88.8361
  0
LINE
  8
0
 10
11.7836
 20
88.8361
 11
11.7234
 21
88.7901
  0
LINE
  8
0
 10
11.7234
 20
88.7901
 11
11.6633
 21
88.7438
  0
LINE
  8
0
 10
11.6633
 20
88.7438
 11
11.6032
 21
88.6972
  0
LINE
  8
0
 10
11.6032
 20
88.6972
 11
11.5431
 21
88.6504
  0
LINE
  8
0
 10
11.5431
 20
88.6504
 11
11.483
 21
88.6034
  0
LINE
  8
0
 10
11.483
 20
88.6034
 11
11.4228
 21
88.5561
  0
LINE
  8
0
 10
11.4228
 20
88.5561
 11
11.3627
 21
88.5085
  0
LINE
  8
0
 10
11.3627
 20
88.5085
 11
11.3026
 21
88.4608
  0
LINE
  8
0
 10
11.3026
 20
88.4608
 11
11.2425
 21
88.4127
  0
LINE
  8
0
 10
11.2425
 20
88.4127
 11
11.1824
 21
88.3644
  0
LINE
  8
0
 10
11.1824
 20
88.3644
 11
11.1222
 21
88.3159
  0
LINE
  8
0
 10
11.1222
 20
88.3159
 11
11.0621
 21
88.2671
  0
LINE
  8
0
 10
11.0621
 20
88.2671
 11
11.002
 21
88.218
  0
LINE
  8
0
 10
11.002
 20
88.218
 11
10.9419
 21
88.1687
  0
LINE
  8
0
 10
10.9419
 20
88.1687
 11
10.8818
 21
88.1191
  0
LINE
  8
0
 10
10.8818
 20
88.1191
 11
10.8216
 21
88.0692
  0
LINE
  8
0
 10
10.8216
 20
88.0692
 11
10.7615
 21
88.0191
  0
LINE
  8
0
 10
10.7615
 20
88.0191
 11
10.7014
 21
87.9688
  0
LINE
  8
0
 10
10.7014
 20
87.9688
 11
10.6413
 21
87.9181
  0
LINE
  8
0
 10
10.6413
 20
87.9181
 11
10.5812
 21
87.8672
  0
LINE
  8
0
 10
10.5812
 20
87.8672
 11
10.521
 21
87.816
  0
LINE
  8
0
 10
10.521
 20
87.816
 11
10.4609
 21
87.7645
  0
LINE
  8
0
 10
10.4609
 20
87.7645
 11
10.4008
 21
87.7128
  0
LINE
  8
0
 10
10.4008
 20
87.7128
 11
10.3407
 21
87.6608
  0
LINE
  8
0
 10
10.3407
 20
87.6608
 11
10.2805
 21
87.6085
  0
LINE
  8
0
 10
10.2805
 20
87.6085
 11
10.2204
 21
87.5559
  0
LINE
  8
0
 10
10.2204
 20
87.5559
 11
10.1603
 21
87.503
  0
LINE
  8
0
 10
10.1603
 20
87.503
 11
10.1002
 21
87.4499
  0
LINE
  8
0
 10
10.1002
 20
87.4499
 11
10.0401
 21
87.3965
  0
LINE
  8
0
 10
10.0401
 20
87.3965
 11
9.97995
 21
87.3427
  0
LINE
  8
0
 10
9.97995
 20
87.3427
 11
9.91983
 21
87.2887
  0
LINE
  8
0
 10
9.91983
 20
87.2887
 11
9.85971
 21
87.2344
  0
LINE
  8
0
 10
9.85971
 20
87.2344
 11
9.79959
 21
87.1798
  0
LINE
  8
0
 10
9.79959
 20
87.1798
 11
9.73947
 21
87.1249
  0
LINE
  8
0
 10
9.73947
 20
87.1249
 11
9.67935
 21
87.0697
  0
LINE
  8
0
 10
9.67935
 20
87.0697
 11
9.61923
 21
87.0142
  0
LINE
  8
0
 10
9.61923
 20
87.0142
 11
9.55911
 21
86.9584
  0
LINE
  8
0
 10
9.55911
 20
86.9584
 11
9.49899
 21
86.9023
  0
LINE
  8
0
 10
9.49899
 20
86.9023
 11
9.43887
 21
86.8458
  0
LINE
  8
0
 10
9.43887
 20
86.8458
 11
9.37875
 21
86.7891
  0
LINE
  8
0
 10
9.37875
 20
86.7891
 11
9.31863
 21
86.732
  0
LINE
  8
0
 10
9.31863
 20
86.732
 11
9.25851
 21
86.6747
  0
LINE
  8
0
 10
9.25851
 20
86.6747
 11
9.19839
 21
86.617
  0
LINE
  8
0
 10
9.19839
 20
86.617
 11
9.13828
 21
86.5589
  0
LINE
  8
0
 10
9.13828
 20
86.5589
 11
9.07816
 21
86.5006
  0
LINE
  8
0
 10
9.07816
 20
86.5006
 11
9.01804
 21
86.4419
  0
LINE
  8
0
 10
9.01804
 20
86.4419
 11
8.9579
 21
86.3829
  0
LINE
  8
0
 10
8.9579
 20
86.3829
 11
8.89778
 21
86.3236
  0
LINE
  8
0
 10
8.89778
 20
86.3236
 11
8.83766
 21
86.2639
  0
LINE
  8
0
 10
8.83766
 20
86.2639
 11
8.77754
 21
86.2039
  0
LINE
  8
0
 10
8.77754
 20
86.2039
 11
8.71742
 21
86.1436
  0
LINE
  8
0
 10
8.71742
 20
86.1436
 11
8.6573
 21
86.0829
  0
LINE
  8
0
 10
8.6573
 20
86.0829
 11
8.59718
 21
86.0219
  0
LINE
  8
0
 10
8.59718
 20
86.0219
 11
8.53706
 21
85.9605
  0
LINE
  8
0
 10
8.53706
 20
85.9605
 11
8.47694
 21
85.8988
  0
LINE
  8
0
 10
8.47694
 20
85.8988
 11
8.41682
 21
85.8367
  0
LINE
  8
0
 10
8.41682
 20
85.8367
 11
8.3567
 21
85.7742
  0
LINE
  8
0
 10
8.3567
 20
85.7742
 11
8.29659
 21
85.7114
  0
LINE
  8
0
 10
8.29659
 20
85.7114
 11
8.23647
 21
85.6482
  0
LINE
  8
0
 10
8.23647
 20
85.6482
 11
8.17635
 21
85.5847
  0
LINE
  8
0
 10
8.17635
 20
85.5847
 11
8.11623
 21
85.5207
  0
LINE
  8
0
 10
8.11623
 20
85.5207
 11
8.05611
 21
85.4564
  0
LINE
  8
0
 10
8.05611
 20
85.4564
 11
7.99599
 21
85.3917
  0
LINE
  8
0
 10
7.99599
 20
85.3917
 11
7.93587
 21
85.3267
  0
LINE
  8
0
 10
7.93587
 20
85.3267
 11
7.87575
 21
85.2612
  0
LINE
  8
0
 10
7.87575
 20
85.2612
 11
7.81563
 21
85.1954
  0
LINE
  8
0
 10
7.81563
 20
85.1954
 11
7.75551
 21
85.1292
  0
LINE
  8
0
 10
7.75551
 20
85.1292
 11
7.69539
 21
85.0625
  0
LINE
  8
0
 10
7.69539
 20
85.0625
 11
7.63527
 21
84.9955
  0
LINE
  8
0
 10
7.63527
 20
84.9955
 11
7.57515
 21
84.928
  0
LINE
  8
0
 10
7.57515
 20
84.928
 11
7.51503
 21
84.8602
  0
LINE
  8
0
 10
7.51503
 20
84.8602
 11
7.4549
 21
84.7919
  0
LINE
  8
0
 10
7.4549
 20
84.7919
 11
7.39478
 21
84.7232
  0
LINE
  8
0
 10
7.39478
 20
84.7232
 11
7.33466
 21
84.6541
  0
LINE
  8
0
 10
7.33466
 20
84.6541
 11
7.27454
 21
84.5845
  0
LINE
  8
0
 10
7.27454
 20
84.5845
 11
7.21442
 21
84.5145
  0
LINE
  8
0
 10
7.21442
 20
84.5145
 11
7.1543
 21
84.4441
  0
LINE
  8
0
 10
7.1543
 20
84.4441
 11
7.09418
 21
84.3733
  0
LINE
  8
0
 10
7.09418
 20
84.3733
 11
7.03406
 21
84.302
  0
LINE
  8
0
 10
7.03406
 20
84.302
 11
6.97394
 21
84.2302
  0
LINE
  8
0
 10
6.97394
 20
84.2302
 11
6.91382
 21
84.158
  0
LINE
  8
0
 10
6.91382
 20
84.158
 11
6.8537
 21
84.0853
  0
LINE
  8
0
 10
6.8537
 20
84.0853
 11
6.79358
 21
84.0122
  0
LINE
  8
0
 10
6.79358
 20
84.0122
 11
6.73346
 21
83.9385
  0
LINE
  8
0
 10
6.73346
 20
83.9385
 11
6.67334
 21
83.8644
  0
LINE
  8
0
 10
6.67334
 20
83.8644
 11
6.61322
 21
83.7899
  0
LINE
  8
0
 10
6.61322
 20
83.7899
 11
6.5531
 21
83.7148
  0
LINE
  8
0
 10
6.5531
 20
83.7148
 11
6.49298
 21
83.6392
  0
LINE
  8
0
 10
6.49298
 20
83.6392
 11
6.43286
 21
83.5631
  0
LINE
  8
0
 10
6.43286
 20
83.5631
 11
6.37274
 21
83.4866
  0
LINE
  8
0
 10
6.37274
 20
83.4866
 11
6.31262
 21
83.4095
  0
LINE
  8
0
 10
6.31262
 20
83.4095
 11
6.2525
 21
83.3318
  0
LINE
  8
0
 10
6.2525
 20
83.3318
 11
6.19238
 21
83.2537
  0
LINE
  8
0
 10
6.19238
 20
83.2537
 11
6.13226
 21
83.175
  0
LINE
  8
0
 10
6.13226
 20
83.175
 11
6.07214
 21
83.0958
  0
LINE
  8
0
 10
6.07214
 20
83.0958
 11
6.01202
 21
83.016
  0
LINE
  8
0
 10
6.01202
 20
83.016
 11
5.95189
 21
82.9357
  0
LINE
  8
0
 10
5.95189
 20
82.9357
 11
5.89177
 21
82.8548
  0
LINE
  8
0
 10
5.89177
 20
82.8548
 11
5.83165
 21
82.7733
  0
LINE
  8
0
 10
5.83165
 20
82.7733
 11
5.77153
 21
82.6913
  0
LINE
  8
0
 10
5.77153
 20
82.6913
 11
5.71141
 21
82.6087
  0
LINE
  8
0
 10
5.71141
 20
82.6087
 11
5.65129
 21
82.5254
  0
LINE
  8
0
 10
5.65129
 20
82.5254
 11
5.59117
 21
82.4416
  0
LINE
  8
0
 10
5.59117
 20
82.4416
 11
5.53105
 21
82.3571
  0
LINE
  8
0
 10
5.53105
 20
82.3571
 11
5.47093
 21
82.2721
  0
LINE
  8
0
 10
5.47093
 20
82.2721
 11
5.41081
 21
82.1864
  0
LINE
  8
0
 10
5.41081
 20
82.1864
 11
5.35069
 21
82.1001
  0
LINE
  8
0
 10
5.35069
 20
82.1001
 11
5.29057
 21
82.0131
  0
LINE
  8
0
 10
5.29057
 20
82.0131
 11
5.23045
 21
81.9254
  0
LINE
  8
0
 10
5.23045
 20
81.9254
 11
5.17033
 21
81.8371
  0
LINE
  8
0
 10
5.17033
 20
81.8371
 11
5.11021
 21
81.7481
  0
LINE
  8
0
 10
5.11021
 20
81.7481
 11
5.05009
 21
81.6584
  0
LINE
  8
0
 10
5.05009
 20
81.6584
 11
4.98997
 21
81.568
  0
LINE
  8
0
 10
4.98997
 20
81.568
 11
4.92986
 21
81.4769
  0
LINE
  8
0
 10
4.92986
 20
81.4769
 11
4.86974
 21
81.385
  0
LINE
  8
0
 10
4.86974
 20
81.385
 11
4.80962
 21
81.2925
  0
LINE
  8
0
 10
4.80962
 20
81.2925
 11
4.7495
 21
81.1991
  0
LINE
  8
0
 10
4.7495
 20
81.1991
 11
4.68938
 21
81.105
  0
LINE
  8
0
 10
4.68938
 20
81.105
 11
4.62926
 21
81.0102
  0
LINE
  8
0
 10
4.62926
 20
81.0102
 11
4.56914
 21
80.9145
  0
LINE
  8
0
 10
4.56914
 20
80.9145
 11
4.50902
 21
80.818
  0
LINE
  8
0
 10
4.50902
 20
80.818
 11
4.44888
 21
80.7207
  0
LINE
  8
0
 10
4.44888
 20
80.7207
 11
4.38876
 21
80.6226
  0
LINE
  8
0
 10
4.38876
 20
80.6226
 11
4.32864
 21
80.5236
  0
LINE
  8
0
 10
4.32864
 20
80.5236
 11
4.26852
 21
80.4237
  0
LINE
  8
0
 10
4.26852
 20
80.4237
 11
4.2084
 21
80.323
  0
LINE
  8
0
 10
4.2084
 20
80.323
 11
4.14828
 21
80.2213
  0
LINE
  8
0
 10
4.14828
 20
80.2213
 11
4.08817
 21
80.1188
  0
LINE
  8
0
 10
4.08817
 20
80.1188
 11
4.02805
 21
80.0153
  0
LINE
  8
0
 10
4.02805
 20
80.0153
 11
3.96793
 21
79.9108
  0
LINE
  8
0
 10
3.96793
 20
79.9108
 11
3.90781
 21
79.8053
  0
LINE
  8
0
 10
3.90781
 20
79.8053
 11
3.84769
 21
79.6989
  0
LINE
  8
0
 10
3.84769
 20
79.6989
 11
3.78757
 21
79.5914
  0
LINE
  8
0
 10
3.78757
 20
79.5914
 11
3.72745
 21
79.4829
  0
LINE
  8
0
 10
3.72745
 20
79.4829
 11
3.66733
 21
79.3733
  0
LINE
  8
0
 10
3.66733
 20
79.3733
 11
3.60721
 21
79.2626
  0
LINE
  8
0
 10
3.60721
 20
79.2626
 11
3.54709
 21
79.1507
  0
LINE
  8
0
 10
3.54709
 20
79.1507
 11
3.48697
 21
79.0378
  0
LINE
  8
0
 10
3.48697
 20
79.0378
 11
3.42685
 21
78.9236
  0
LINE
  8
0
 10
3.42685
 20
78.9236
 11
3.36673
 21
78.8083
  0
LINE
  8
0
 10
3.36673
 20
78.8083
 11
3.30661
 21
78.6917
  0
LINE
  8
0
 10
3.30661
 20
78.6917
 11
3.24649
 21
78.5739
  0
LINE
  8
0
 10
3.24649
 20
78.5739
 11
3.18637
 21
78.4547
  0
LINE
  8
0
 10
3.18637
 20
78.4547
 11
3.12625
 21
78.3342
  0
LINE
  8
0
 10
3.12625
 20
78.3342
 11
3.06613
 21
78.2124
  0
LINE
  8
0
 10
3.06613
 20
78.2124
 11
3.00601
 21
78.0891
  0
LINE
  8
0
 10
3.00601
 20
78.0891
 11
2.94588
 21
77.9644
  0
LINE
  8
0
 10
2.94588
 20
77.9644
 11
2.88576
 21
77.8382
  0
LINE
  8
0
 10
2.88576
 20
77.8382
 11
2.82564
 21
77.7104
  0
LINE
  8
0
 10
2.82564
 20
77.7104
 11
2.76552
 21
77.5811
  0
LINE
  8
0
 10
2.76552
 20
77.5811
 11
2.7054
 21
77.4501
  0
LINE
  8
0
 10
2.7054
 20
77.4501
 11
2.64528
 21
77.3175
  0
LINE
  8
0
 10
2.64528
 20
77.3175
 11
2.58516
 21
77.1831
  0
LINE
  8
0
 10
2.58516
 20
77.1831
 11
2.52504
 21
77.0469
  0
LINE
  8
0
 10
2.52504
 20
77.0469
 11
2.46492
 21
76.9088
  0
LINE
  8
0
 10
2.46492
 20
76.9088
 11
2.4048
 21
76.7688
  0
LINE
  8
0
 10
2.4048
 20
76.7688
 11
2.34468
 21
76.6268
  0
LINE
  8
0
 10
2.34468
 20
76.6268
 11
2.28456
 21
76.4828
  0
LINE
  8
0
 10
2.28456
 20
76.4828
 11
2.22444
 21
76.3366
  0
LINE
  8
0
 10
2.22444
 20
76.3366
 11
2.16432
 21
76.1882
  0
LINE
  8
0
 10
2.16432
 20
76.1882
 11
2.1042
 21
76.0374
  0
LINE
  8
0
 10
2.1042
 20
76.0374
 11
2.04408
 21
75.8842
  0
LINE
  8
0
 10
2.04408
 20
75.8842
 11
1.98396
 21
75.7285
  0
LINE
  8
0
 10
1.98396
 20
75.7285
 11
1.92384
 21
75.5702
  0
LINE
  8
0
 10
1.92384
 20
75.5702
 11
1.86372
 21
75.4091
  0
LINE
  8
0
 10
1.86372
 20
75.4091
 11
1.8036
 21
75.2452
  0
LINE
  8
0
 10
1.8036
 20
75.2452
 11
1.74348
 21
75.0782
  0
LINE
  8
0
 10
1.74348
 20
75.0782
 11
1.68336
 21
74.908
  0
LINE
  8
0
 10
1.68336
 20
74.908
 11
1.62325
 21
74.7345
  0
LINE
  8
0
 10
1.62325
 20
74.7345
 11
1.56313
 21
74.5574
  0
LINE
  8
0
 10
1.56313
 20
74.5574
 11
1.50301
 21
74.3766
  0
LINE
  8
0
 10
1.50301
 20
74.3766
 11
1.44287
 21
74.1919
  0
LINE
  8
0
 10
1.44287
 20
74.1919
 11
1.38275
 21
74.003
  0
LINE
  8
0
 10
1.38275
 20
74.003
 11
1.32263
 21
73.8096
  0
LINE
  8
0
 10
1.32263
 20
73.8096
 11
1.26251
 21
73.6115
  0
LINE
  8
0
 10
1.26251
 20
73.6115
 11
1.20239
 21
73.4082
  0
LINE
  8
0
 10
1.20239
 20
73.4082
 11
1.14227
 21
73.1995
  0
LINE
  8
0
 10
1.14227
 20
73.1995
 11
1.08215
 21
72.9849
  0
LINE
  8
0
 10
1.08215
 20
72.9849
 11
1.02203
 21
72.7639
  0
LINE
  8
0
 10
1.02203
 20
72.7639
 11
0.961914
 21
72.5359
  0
LINE
  8
0
 10
0.961914
 20
72.5359
 11
0.901794
 21
72.3003
  0
LINE
  8
0
 10
0.901794
 20
72.3003
 11
0.841675
 21
72.0564
  0
LINE
  8
0
 10
0.841675
 20
72.0564
 11
0.781555
 21
71.8031
  0
LINE
  8
0
 10
0.781555
 20
71.8031
 11
0.721436
 21
71.5396
  0
LINE
  8
0
 10
0.721436
 20
71.5396
 11
0.661316
 21
71.2643
  0
LINE
  8
0
 10
0.661316
 20
71.2643
 11
0.601196
 21
70.9758
  0
LINE
  8
0
 10
0.601196
 20
70.9758
 11
0.541077
 21
70.672
  0
LINE
  8
0
 10
0.541077
 20
70.672
 11
0.480957
 21
70.3504
  0
LINE
  8
0
 10
0.480957
 20
70.3504
 11
0.420837
 21
70.0073
  0
LINE
  8
0
 10
0.420837
 20
70.0073
 11
0.360718
 21
69.6382
  0
LINE
  8
0
 10
0.360718
 20
69.6382
 11
0.300598
 21
69.2362
  0
LINE
  8
0
 10
0.300598
 20
69.2362
 11
0.240479
 21
68.7909
  0
LINE
  8
0
 10
0.240479
 20
68.7909
 11
0.180359
 21
68.2847
  0
LINE
  8
0
 10
0.180359
 20
68.2847
 11
0.120239
 21
67.6833
  0
LINE
  8
0
 10
0.120239
 20
67.6833
 11
0.0601196
 21
66.8983
  0
LINE
  8
0
 10
0.0601196
 20
66.8983
 11
0
 21
65
  0
LINE
  8
0
 10
0
 20
65
 11
5
 21
65
  0
LINE
  8
0
 10
5
 20
65
 11
5
 21
55
  0
LINE
  8
0
 10
5
 20
55
 11
0
 21
55
  0
LINE
  8
0
 10
0
 20
55
 11
0
 21
10
  0
LINE
  8
0
 10
0
 20
10
 11
5
 21
10
  0
LINE
  8
0
 10
5
 20
10
 11
5
 21
0
  0
LINE
  8
0
 10
5
 20
0
 11
145
 21
0
  0
LINE
  8
0
 10
145
 20
0
 11
145
 21
10
  0
LINE
  8
0
 10
145
 20
10
 11
150
 21
10
  0
LINE
  8
0
 10
150
 20
10
 11
150
 21
45
  0
LINE
  8
0
 10
150
 20
45
 11
145
 21
45
  0
ENDSEC
  0
SECTION
  2
OBJECTS
  0
DICTIONARY
  0
ENDSEC
  0
EOF
