  0
SECTION
  2
BLOCKS
  0
ENDSEC
  0
SECTION
  2
ENTITIES
  0
LINE
  8
0
 10
3.5
 20
150
 11
0
 21
150
  0
LINE
  8
0
 10
0
 20
150
 11
0
 21
0
  0
LINE
  8
0
 10
0
 20
0
 11
3.5
 21
0
  0
LINE
  8
0
 10
3.5
 20
0
 11
3.5
 21
150
  0
LINE
  8
0
 10
37
 20
150
 11
33.5
 21
150
  0
LINE
  8
0
 10
33.5
 20
150
 11
33.5
 21
0
  0
LINE
  8
0
 10
33.5
 20
0
 11
37
 21
0
  0
LINE
  8
0
 10
37
 20
0
 11
37
 21
150
  0
LINE
  8
0
 10
70.5
 20
80
 11
67
 21
80
  0
LINE
  8
0
 10
67
 20
80
 11
67
 21
0
  0
LINE
  8
0
 10
67
 20
0
 11
70.5
 21
0
  0
LINE
  8
0
 10
70.5
 20
0
 11
70.5
 21
80
  0
LINE
  8
0
 10
104
 20
80
 11
100.5
 21
80
  0
LINE
  8
0
 10
100.5
 20
80
 11
100.5
 21
0
  0
LINE
  8
0
 10
100.5
 20
0
 11
104
 21
0
  0
LINE
  8
0
 10
104
 20
0
 11
104
 21
80
  0
LINE
  8
0
 10
137.5
 20
80
 11
134
 21
80
  0
LINE
  8
0
 10
134
 20
80
 11
134
 21
0
  0
LINE
  8
0
 10
134
 20
0
 11
137.5
 21
0
  0
LINE
  8
0
 10
137.5
 20
0
 11
137.5
 21
80
  0
LINE
  8
0
 10
171
 20
80
 11
167.5
 21
80
  0
LINE
  8
0
 10
167.5
 20
80
 11
167.5
 21
0
  0
LINE
  8
0
 10
167.5
 20
0
 11
171
 21
0
  0
LINE
  8
0
 10
171
 20
0
 11
171
 21
80
  0
LINE
  8
0
 10
204.5
 20
80
 11
201
 21
80
  0
LINE
  8
0
 10
201
 20
80
 11
201
 21
0
  0
LINE
  8
0
 10
201
 20
0
 11
204.5
 21
0
  0
LINE
  8
0
 10
204.5
 20
0
 11
204.5
 21
80
  0
LINE
  8
0
 10
238
 20
80
 11
234.5
 21
80
  0
LINE
  8
0
 10
234.5
 20
80
 11
234.5
 21
0
  0
LINE
  8
0
 10
234.5
 20
0
 11
238
 21
0
  0
LINE
  8
0
 10
238
 20
0
 11
238
 21
80
  0
LINE
  8
0
 10
271.5
 20
80
 11
268
 21
80
  0
LINE
  8
0
 10
268
 20
80
 11
268
 21
0
  0
LINE
  8
0
 10
268
 20
0
 11
271.5
 21
0
  0
LINE
  8
0
 10
271.5
 20
0
 11
271.5
 21
80
  0
LINE
  8
0
 10
305
 20
80
 11
301.5
 21
80
  0
LINE
  8
0
 10
301.5
 20
80
 11
301.5
 21
0
  0
LINE
  8
0
 10
301.5
 20
0
 11
305
 21
0
  0
LINE
  8
0
 10
305
 20
0
 11
305
 21
80
  0
ENDSEC
  0
SECTION
  2
OBJECTS
  0
DICTIONARY
  0
ENDSEC
  0
EOF
