  0
SECTION
  2
HEADER
  9
$ACADVER
  1
AC1032
  9
$ACADMAINTVER
 90
4
  9
$DWGCODEPAGE
  3
ANSI_1252
  9
$EXTMIN
 10
1e+20
 20
1e+20
 30
1e+20
  9
$EXTMAX
 10
-1e+20
 20
-1e+20
 30
-1e+20
  9
$LIMMIN
 10
0.0
 20
0.0
  9
$LIMMAX
 10
420.0
 20
297.0
  9
$TDCREATE
 40
2460109.677986111
  9
$TDUPDATE
 40
2460109.677986111
  9
$HANDSEED
  5
A2
  9
$PEXTMIN
 10
1e+20
 20
1e+20
 30
1e+20
  9
$PEXTMAX
 10
-1e+20
 20
-1e+20
 30
-1e+20
  9
$PLIMMIN
 10
0.0
 20
0.0
  9
$PLIMMAX
 10
420.0
 20
297.0
  9
$FINGERPRINTGUID
  2
{043381D0-438E-4672-80A0-E4A945B89CEA}
  9
$VERSIONGUID
  2
{DB6F9E1E-E559-462B-8DE4-1E62C487661A}
  9
$CMATERIAL
347
91
  0
ENDSEC
  0
SECTION
  2
CLASSES
  0
CLASS
  1
ACDBDICTIONARYWDFLT
  2
AcDbDictionaryWithDefault
  3
ObjectDBX Classes
 90
0
 91
0
280
0
281
0
  0
CLASS
  1
SUN
  2
AcDbSun
  3
SCENEOE
 90
1153
 91
0
280
0
281
0
  0
CLASS
  1
VISUALSTYLE
  2
AcDbVisualStyle
  3
ObjectDBX Classes
 90
4095
 91
0
280
0
281
0
  0
CLASS
  1
MATERIAL
  2
AcDbMaterial
  3
ObjectDBX Classes
 90
1153
 91
0
280
0
281
0
  0
CLASS
  1
SCALE
  2
AcDbScale
  3
ObjectDBX Classes
 90
1153
 91
0
280
0
281
0
  0
CLASS
  1
TABLESTYLE
  2
AcDbTableStyle
  3
ObjectDBX Classes
 90
4095
 91
0
280
0
281
0
  0
CLASS
  1
MLEADERSTYLE
  2
AcDbMLeaderStyle
  3
ACDB_MLEADERSTYLE_CLASS
 90
4095
 91
0
280
0
281
0
  0
CLASS
  1
DICTIONARYVAR
  2
AcDbDictionaryVar
  3
ObjectDBX Classes
 90
0
 91
0
280
0
281
0
  0
CLASS
  1
CELLSTYLEMAP
  2
AcDbCellStyleMap
  3
ObjectDBX Classes
 90
1152
 91
0
280
0
281
0
  0
CLASS
  1
MENTALRAYRENDERSETTINGS
  2
AcDbMentalRayRenderSettings
  3
SCENEOE
 90
1024
 91
0
280
0
281
0
  0
CLASS
  1
ACDBDETAILVIEWSTYLE
  2
AcDbDetailViewStyle
  3
ObjectDBX Classes
 90
1025
 91
0
280
0
281
0
  0
CLASS
  1
ACDBSECTIONVIEWSTYLE
  2
AcDbSectionViewStyle
  3
ObjectDBX Classes
 90
1025
 91
0
280
0
281
0
  0
CLASS
  1
RASTERVARIABLES
  2
AcDbRasterVariables
  3
ISM
 90
0
 91
0
280
0
281
0
  0
CLASS
  1
ACDBPLACEHOLDER
  2
AcDbPlaceHolder
  3
ObjectDBX Classes
 90
0
 91
0
280
0
281
0
  0
CLASS
  1
LAYOUT
  2
AcDbLayout
  3
ObjectDBX Classes
 90
0
 91
0
280
0
281
0
  0
ENDSEC
  0
SECTION
  2
TABLES
  0
TABLE
  2
VPORT
  5
70
330
0
100
AcDbSymbolTable
 70
1
  0
VPORT
  5
94
330
70
100
AcDbSymbolTableRecord
100
AcDbViewportTableRecord
  2
*Active
 70
0
 10
0.0
 20
0.0
 11
1.0
 21
1.0
 12
0.0
 22
0.0
 13
0.0
 23
0.0
 14
0.5
 24
0.5
 15
0.5
 25
0.5
 16
0.0
 26
0.0
 36
1.0
 17
0.0
 27
0.0
 37
0.0
 40
1000.0
 41
1.34
 42
50.0
 43
0.0
 44
0.0
 50
0.0
 51
0.0
 71
0
 72
1000
 73
1
 74
3
 75
0
 76
0
 77
0
 78
0
281
0
 65
0
146
0.0
  0
ENDTAB
  0
TABLE
  2
LTYPE
  5
6A
330
0
100
AcDbSymbolTable
 70
3
  0
LTYPE
  5
95
330
6A
100
AcDbSymbolTableRecord
100
AcDbLinetypeTableRecord
  2
ByBlock
 70
0
  3

 72
65
 73
0
 40
0.0
  0
LTYPE
  5
96
330
6A
100
AcDbSymbolTableRecord
100
AcDbLinetypeTableRecord
  2
ByLayer
 70
0
  3

 72
65
 73
0
 40
0.0
  0
LTYPE
  5
97
330
6A
100
AcDbSymbolTableRecord
100
AcDbLinetypeTableRecord
  2
Continuous
 70
0
  3

 72
65
 73
0
 40
0.0
  0
ENDTAB
  0
TABLE
  2
LAYER
  5
69
330
0
100
AcDbSymbolTable
 70
2
  0
LAYER
  5
98
330
69
100
AcDbSymbolTableRecord
100
AcDbLayerTableRecord
  2
0
 70
0
 62
7
  6
Continuous
370
-3
390
8A
347
92
  0
LAYER
  5
99
330
69
100
AcDbSymbolTableRecord
100
AcDbLayerTableRecord
  2
Defpoints
 70
0
 62
7
  6
Continuous
290
0
370
-3
390
8A
347
92
  0
ENDTAB
  0
TABLE
  2
STYLE
  5
6D
330
0
100
AcDbSymbolTable
 70
1
  0
STYLE
  5
9A
330
6D
100
AcDbSymbolTableRecord
100
AcDbTextStyleTableRecord
  2
Standard
 70
0
 40
0.0
 41
1.0
 50
0.0
 71
0
 42
2.5
  3
txt
  4

  0
ENDTAB
  0
TABLE
  2
VIEW
  5
6F
330
0
100
AcDbSymbolTable
 70
0
  0
ENDTAB
  0
TABLE
  2
UCS
  5
6E
330
0
100
AcDbSymbolTable
 70
0
  0
ENDTAB
  0
TABLE
  2
APPID
  5
6B
330
0
100
AcDbSymbolTable
 70
3
  0
APPID
  5
9B
330
6B
100
AcDbSymbolTableRecord
100
AcDbRegAppTableRecord
  2
ACAD
 70
0
  0
APPID
  5
9E
330
6B
100
AcDbSymbolTableRecord
100
AcDbRegAppTableRecord
  2
HATCHBACKGROUNDCOLOR
 70
0
  0
APPID
  5
9F
330
6B
100
AcDbSymbolTableRecord
100
AcDbRegAppTableRecord
  2
EZDXF
 70
0
  0
ENDTAB
  0
TABLE
  2
DIMSTYLE
  5
6C
330
0
100
AcDbSymbolTable
 70
1
100
AcDbDimStyleTable
  0
DIMSTYLE
105
9C
330
6C
100
AcDbSymbolTableRecord
100
AcDbDimStyleTableRecord
  2
Standard
 70
0
 40
1.0
 41
2.5
 42
0.625
 43
3.75
 44
1.25
 45
0.0
 46
0.0
 47
0.0
 48
0.0
 49
2.5
140
2.5
141
2.5
142
0.0
143
0.03937007874
144
1.0
145
0.0
146
1.0
147
0.625
148
0.0
 69
0
 70
0
 71
0
 72
0
 73
0
 74
0
 75
0
 76
0
 77
1
 78
8
 79
3
170
0
171
3
172
1
173
0
174
0
175
0
176
0
177
0
178
0
179
2
271
2
272
2
273
2
274
3
275
0
276
0
277
2
278
44
279
0
280
0
281
0
282
0
283
0
284
8
285
0
286
0
288
0
289
3
290
0
371
-2
372
-2
  0
ENDTAB
  0
TABLE
  2
BLOCK_RECORD
  5
71
330
0
100
AcDbSymbolTable
 70
2
  0
BLOCK_RECORD
  5
72
330
71
100
AcDbSymbolTableRecord
100
AcDbBlockTableRecord
  2
*Model_Space
340
8E
 70
0
280
1
281
0
  0
BLOCK_RECORD
  5
73
330
71
100
AcDbSymbolTableRecord
100
AcDbBlockTableRecord
  2
*Paper_Space
340
8F
 70
0
280
1
281
0
  0
ENDTAB
  0
ENDSEC
  0
SECTION
  2
BLOCKS
  0
BLOCK
  5
74
330
72
100
AcDbEntity
  8
0
100
AcDbBlockBegin
  2
*Model_Space
 70
0
 10
0.0
 20
0.0
 30
0.0
  3
*Model_Space
  1

  0
ENDBLK
  5
75
330
72
100
AcDbEntity
  8
0
100
AcDbBlockEnd
  0
BLOCK
  5
76
330
73
100
AcDbEntity
  8
0
100
AcDbBlockBegin
  2
*Paper_Space
 70
0
 10
0.0
 20
0.0
 30
0.0
  3
*Paper_Space
  1

  0
ENDBLK
  5
77
330
73
100
AcDbEntity
  8
0
100
AcDbBlockEnd
  0
ENDSEC
  0
SECTION
  2
ENTITIES
  0
LINE
  5
1
330
72
100
AcDbEntity
  8
0
100
AcDbLine
 10
100.0
 20
50.0
 30
0.0
 11
450.0
 21
50.0
 31
0.0
  0
LINE
  5
2
330
72
100
AcDbEntity
  8
0
100
AcDbLine
 10
450.0
 20
50.0
 30
0.0
 11
450.0
 21
0.0
 31
0.0
  0
LINE
  5
3
330
72
100
AcDbEntity
  8
0
100
AcDbLine
 10
450.0
 20
0.0
 30
0.0
 11
550.0
 21
0.0
 31
0.0
  0
LINE
  5
4
330
72
100
AcDbEntity
  8
0
100
AcDbLine
 10
550.0
 20
0.0
 30
0.0
 11
545.408
 21
20.0997
 31
0.0
  0
LINE
  5
5
330
72
100
AcDbEntity
  8
0
100
AcDbLine
 10
545.408
 20
20.0997
 30
0.0
 11
540.816
 21
28.2784
 31
0.0
  0
LINE
  5
6
330
72
100
AcDbEntity
  8
0
100
AcDbLine
 10
540.816
 20
28.2784
 30
0.0
 11
536.224
 21
34.4529
 31
0.0
  0
LINE
  5
7
330
72
100
AcDbEntity
  8
0
100
AcDbLine
 10
536.224
 20
34.4529
 30
0.0
 11
531.633
 21
39.5729
 31
0.0
  0
LINE
  5
8
330
72
100
AcDbEntity
  8
0
100
AcDbLine
 10
531.633
 20
39.5729
 30
0.0
 11
527.041
 21
44.0079
 31
0.0
  0
LINE
  5
9
330
72
100
AcDbEntity
  8
0
100
AcDbLine
 10
527.041
 20
44.0079
 30
0.0
 11
522.449
 21
47.9483
 31
0.0
  0
LINE
  5
A
330
72
100
AcDbEntity
  8
0
100
AcDbLine
 10
522.449
 20
47.9483
 30
0.0
 11
517.857
 21
51.5079
 31
0.0
  0
LINE
  5
B
330
72
100
AcDbEntity
  8
0
100
AcDbLine
 10
517.857
 20
51.5079
 30
0.0
 11
513.265
 21
54.7608
 31
0.0
  0
LINE
  5
C
330
72
100
AcDbEntity
  8
0
100
AcDbLine
 10
513.265
 20
54.7608
 30
0.0
 11
508.673
 21
57.7591
 31
0.0
  0
LINE
  5
D
330
72
100
AcDbEntity
  8
0
100
AcDbLine
 10
508.673
 20
57.7591
 30
0.0
 11
504.082
 21
60.5404
 31
0.0
  0
LINE
  5
E
330
72
100
AcDbEntity
  8
0
100
AcDbLine
 10
504.082
 20
60.5404
 30
0.0
 11
499.49
 21
63.1335
 31
0.0
  0
LINE
  5
F
330
72
100
AcDbEntity
  8
0
100
AcDbLine
 10
499.49
 20
63.1335
 30
0.0
 11
494.898
 21
65.5607
 31
0.0
  0
LINE
  5
10
330
72
100
AcDbEntity
  8
0
100
AcDbLine
 10
494.898
 20
65.5607
 30
0.0
 11
490.306
 21
67.8399
 31
0.0
  0
LINE
  5
11
330
72
100
AcDbEntity
  8
0
100
AcDbLine
 10
490.306
 20
67.8399
 30
0.0
 11
485.714
 21
69.9854
 31
0.0
  0
LINE
  5
12
330
72
100
AcDbEntity
  8
0
100
AcDbLine
 10
485.714
 20
69.9854
 30
0.0
 11
481.122
 21
72.0093
 31
0.0
  0
LINE
  5
13
330
72
100
AcDbEntity
  8
0
100
AcDbLine
 10
481.122
 20
72.0093
 30
0.0
 11
476.531
 21
73.9215
 31
0.0
  0
LINE
  5
14
330
72
100
AcDbEntity
  8
0
100
AcDbLine
 10
476.531
 20
73.9215
 30
0.0
 11
471.939
 21
75.7305
 31
0.0
  0
LINE
  5
15
330
72
100
AcDbEntity
  8
0
100
AcDbLine
 10
471.939
 20
75.7305
 30
0.0
 11
467.347
 21
77.4435
 31
0.0
  0
LINE
  5
16
330
72
100
AcDbEntity
  8
0
100
AcDbLine
 10
467.347
 20
77.4435
 30
0.0
 11
462.755
 21
79.0668
 31
0.0
  0
LINE
  5
17
330
72
100
AcDbEntity
  8
0
100
AcDbLine
 10
462.755
 20
79.0668
 30
0.0
 11
458.163
 21
80.6058
 31
0.0
  0
LINE
  5
18
330
72
100
AcDbEntity
  8
0
100
AcDbLine
 10
458.163
 20
80.6058
 30
0.0
 11
453.571
 21
82.0652
 31
0.0
  0
LINE
  5
19
330
72
100
AcDbEntity
  8
0
100
AcDbLine
 10
453.571
 20
82.0652
 30
0.0
 11
448.98
 21
83.4492
 31
0.0
  0
LINE
  5
1A
330
72
100
AcDbEntity
  8
0
100
AcDbLine
 10
448.98
 20
83.4492
 30
0.0
 11
444.388
 21
84.7615
 31
0.0
  0
LINE
  5
1B
330
72
100
AcDbEntity
  8
0
100
AcDbLine
 10
444.388
 20
84.7615
 30
0.0
 11
439.796
 21
86.0053
 31
0.0
  0
LINE
  5
1C
330
72
100
AcDbEntity
  8
0
100
AcDbLine
 10
439.796
 20
86.0053
 30
0.0
 11
435.204
 21
87.1837
 31
0.0
  0
LINE
  5
1D
330
72
100
AcDbEntity
  8
0
100
AcDbLine
 10
435.204
 20
87.1837
 30
0.0
 11
430.612
 21
88.2992
 31
0.0
  0
LINE
  5
1E
330
72
100
AcDbEntity
  8
0
100
AcDbLine
 10
430.612
 20
88.2992
 30
0.0
 11
426.02
 21
89.3542
 31
0.0
  0
LINE
  5
1F
330
72
100
AcDbEntity
  8
0
100
AcDbLine
 10
426.02
 20
89.3542
 30
0.0
 11
421.429
 21
90.3508
 31
0.0
  0
LINE
  5
20
330
72
100
AcDbEntity
  8
0
100
AcDbLine
 10
421.429
 20
90.3508
 30
0.0
 11
416.837
 21
91.2909
 31
0.0
  0
LINE
  5
21
330
72
100
AcDbEntity
  8
0
100
AcDbLine
 10
416.837
 20
91.2909
 30
0.0
 11
412.245
 21
92.1762
 31
0.0
  0
LINE
  5
22
330
72
100
AcDbEntity
  8
0
100
AcDbLine
 10
412.245
 20
92.1762
 30
0.0
 11
407.653
 21
93.0084
 31
0.0
  0
LINE
  5
23
330
72
100
AcDbEntity
  8
0
100
AcDbLine
 10
407.653
 20
93.0084
 30
0.0
 11
403.061
 21
93.7888
 31
0.0
  0
LINE
  5
24
330
72
100
AcDbEntity
  8
0
100
AcDbLine
 10
403.061
 20
93.7888
 30
0.0
 11
398.469
 21
94.5187
 31
0.0
  0
LINE
  5
25
330
72
100
AcDbEntity
  8
0
100
AcDbLine
 10
398.469
 20
94.5187
 30
0.0
 11
393.878
 21
95.1992
 31
0.0
  0
LINE
  5
26
330
72
100
AcDbEntity
  8
0
100
AcDbLine
 10
393.878
 20
95.1992
 30
0.0
 11
389.286
 21
95.8315
 31
0.0
  0
LINE
  5
27
330
72
100
AcDbEntity
  8
0
100
AcDbLine
 10
389.286
 20
95.8315
 30
0.0
 11
384.694
 21
96.4164
 31
0.0
  0
LINE
  5
28
330
72
100
AcDbEntity
  8
0
100
AcDbLine
 10
384.694
 20
96.4164
 30
0.0
 11
380.102
 21
96.9549
 31
0.0
  0
LINE
  5
29
330
72
100
AcDbEntity
  8
0
100
AcDbLine
 10
380.102
 20
96.9549
 30
0.0
 11
375.51
 21
97.4476
 31
0.0
  0
LINE
  5
2A
330
72
100
AcDbEntity
  8
0
100
AcDbLine
 10
375.51
 20
97.4476
 30
0.0
 11
370.918
 21
97.8954
 31
0.0
  0
LINE
  5
2B
330
72
100
AcDbEntity
  8
0
100
AcDbLine
 10
370.918
 20
97.8954
 30
0.0
 11
366.327
 21
98.2987
 31
0.0
  0
LINE
  5
2C
330
72
100
AcDbEntity
  8
0
100
AcDbLine
 10
366.327
 20
98.2987
 30
0.0
 11
361.735
 21
98.6582
 31
0.0
  0
LINE
  5
2D
330
72
100
AcDbEntity
  8
0
100
AcDbLine
 10
361.735
 20
98.6582
 30
0.0
 11
357.143
 21
98.9743
 31
0.0
  0
LINE
  5
2E
330
72
100
AcDbEntity
  8
0
100
AcDbLine
 10
357.143
 20
98.9743
 30
0.0
 11
352.551
 21
99.2475
 31
0.0
  0
LINE
  5
2F
330
72
100
AcDbEntity
  8
0
100
AcDbLine
 10
352.551
 20
99.2475
 30
0.0
 11
347.959
 21
99.478
 31
0.0
  0
LINE
  5
30
330
72
100
AcDbEntity
  8
0
100
AcDbLine
 10
347.959
 20
99.478
 30
0.0
 11
343.367
 21
99.6662
 31
0.0
  0
LINE
  5
31
330
72
100
AcDbEntity
  8
0
100
AcDbLine
 10
343.367
 20
99.6662
 30
0.0
 11
338.775
 21
99.8124
 31
0.0
  0
LINE
  5
32
330
72
100
AcDbEntity
  8
0
100
AcDbLine
 10
338.775
 20
99.8124
 30
0.0
 11
334.184
 21
99.9167
 31
0.0
  0
LINE
  5
33
330
72
100
AcDbEntity
  8
0
100
AcDbLine
 10
334.184
 20
99.9167
 30
0.0
 11
329.592
 21
99.9792
 31
0.0
  0
LINE
  5
34
330
72
100
AcDbEntity
  8
0
100
AcDbLine
 10
329.592
 20
99.9792
 30
0.0
 11
325.0
 21
100.0
 31
0.0
  0
LINE
  5
35
330
72
100
AcDbEntity
  8
0
100
AcDbLine
 10
325.0
 20
100.0
 30
0.0
 11
225.0
 21
100.0
 31
0.0
  0
LINE
  5
36
330
72
100
AcDbEntity
  8
0
100
AcDbLine
 10
225.0
 20
100.0
 30
0.0
 11
220.408
 21
99.9792
 31
0.0
  0
LINE
  5
37
330
72
100
AcDbEntity
  8
0
100
AcDbLine
 10
220.408
 20
99.9792
 30
0.0
 11
215.816
 21
99.9167
 31
0.0
  0
LINE
  5
38
330
72
100
AcDbEntity
  8
0
100
AcDbLine
 10
215.816
 20
99.9167
 30
0.0
 11
211.224
 21
99.8124
 31
0.0
  0
LINE
  5
39
330
72
100
AcDbEntity
  8
0
100
AcDbLine
 10
211.224
 20
99.8124
 30
0.0
 11
206.633
 21
99.6662
 31
0.0
  0
LINE
  5
3A
330
72
100
AcDbEntity
  8
0
100
AcDbLine
 10
206.633
 20
99.6662
 30
0.0
 11
202.041
 21
99.478
 31
0.0
  0
LINE
  5
3B
330
72
100
AcDbEntity
  8
0
100
AcDbLine
 10
202.041
 20
99.478
 30
0.0
 11
197.449
 21
99.2475
 31
0.0
  0
LINE
  5
3C
330
72
100
AcDbEntity
  8
0
100
AcDbLine
 10
197.449
 20
99.2475
 30
0.0
 11
192.857
 21
98.9743
 31
0.0
  0
LINE
  5
3D
330
72
100
AcDbEntity
  8
0
100
AcDbLine
 10
192.857
 20
98.9743
 30
0.0
 11
188.265
 21
98.6582
 31
0.0
  0
LINE
  5
3E
330
72
100
AcDbEntity
  8
0
100
AcDbLine
 10
188.265
 20
98.6582
 30
0.0
 11
183.673
 21
98.2987
 31
0.0
  0
LINE
  5
3F
330
72
100
AcDbEntity
  8
0
100
AcDbLine
 10
183.673
 20
98.2987
 30
0.0
 11
179.082
 21
97.8954
 31
0.0
  0
LINE
  5
40
330
72
100
AcDbEntity
  8
0
100
AcDbLine
 10
179.082
 20
97.8954
 30
0.0
 11
174.49
 21
97.4476
 31
0.0
  0
LINE
  5
41
330
72
100
AcDbEntity
  8
0
100
AcDbLine
 10
174.49
 20
97.4476
 30
0.0
 11
169.898
 21
96.9549
 31
0.0
  0
LINE
  5
42
330
72
100
AcDbEntity
  8
0
100
AcDbLine
 10
169.898
 20
96.9549
 30
0.0
 11
165.306
 21
96.4164
 31
0.0
  0
LINE
  5
43
330
72
100
AcDbEntity
  8
0
100
AcDbLine
 10
165.306
 20
96.4164
 30
0.0
 11
160.714
 21
95.8315
 31
0.0
  0
LINE
  5
44
330
72
100
AcDbEntity
  8
0
100
AcDbLine
 10
160.714
 20
95.8315
 30
0.0
 11
156.122
 21
95.1992
 31
0.0
  0
LINE
  5
45
330
72
100
AcDbEntity
  8
0
100
AcDbLine
 10
156.122
 20
95.1992
 30
0.0
 11
151.531
 21
94.5187
 31
0.0
  0
LINE
  5
46
330
72
100
AcDbEntity
  8
0
100
AcDbLine
 10
151.531
 20
94.5187
 30
0.0
 11
146.939
 21
93.7888
 31
0.0
  0
LINE
  5
47
330
72
100
AcDbEntity
  8
0
100
AcDbLine
 10
146.939
 20
93.7888
 30
0.0
 11
142.347
 21
93.0084
 31
0.0
  0
LINE
  5
48
330
72
100
AcDbEntity
  8
0
100
AcDbLine
 10
142.347
 20
93.0084
 30
0.0
 11
137.755
 21
92.1762
 31
0.0
  0
LINE
  5
49
330
72
100
AcDbEntity
  8
0
100
AcDbLine
 10
137.755
 20
92.1762
 30
0.0
 11
133.163
 21
91.2909
 31
0.0
  0
LINE
  5
4A
330
72
100
AcDbEntity
  8
0
100
AcDbLine
 10
133.163
 20
91.2909
 30
0.0
 11
128.571
 21
90.3508
 31
0.0
  0
LINE
  5
4B
330
72
100
AcDbEntity
  8
0
100
AcDbLine
 10
128.571
 20
90.3508
 30
0.0
 11
123.98
 21
89.3542
 31
0.0
  0
LINE
  5
4C
330
72
100
AcDbEntity
  8
0
100
AcDbLine
 10
123.98
 20
89.3542
 30
0.0
 11
119.388
 21
88.2992
 31
0.0
  0
LINE
  5
4D
330
72
100
AcDbEntity
  8
0
100
AcDbLine
 10
119.388
 20
88.2992
 30
0.0
 11
114.796
 21
87.1837
 31
0.0
  0
LINE
  5
4E
330
72
100
AcDbEntity
  8
0
100
AcDbLine
 10
114.796
 20
87.1837
 30
0.0
 11
110.204
 21
86.0053
 31
0.0
  0
LINE
  5
4F
330
72
100
AcDbEntity
  8
0
100
AcDbLine
 10
110.204
 20
86.0053
 30
0.0
 11
105.612
 21
84.7615
 31
0.0
  0
LINE
  5
50
330
72
100
AcDbEntity
  8
0
100
AcDbLine
 10
105.612
 20
84.7615
 30
0.0
 11
101.02
 21
83.4492
 31
0.0
  0
LINE
  5
51
330
72
100
AcDbEntity
  8
0
100
AcDbLine
 10
101.02
 20
83.4492
 30
0.0
 11
96.4286
 21
82.0652
 31
0.0
  0
LINE
  5
52
330
72
100
AcDbEntity
  8
0
100
AcDbLine
 10
96.4286
 20
82.0652
 30
0.0
 11
91.8367
 21
80.6058
 31
0.0
  0
LINE
  5
53
330
72
100
AcDbEntity
  8
0
100
AcDbLine
 10
91.8367
 20
80.6058
 30
0.0
 11
87.2449
 21
79.0668
 31
0.0
  0
LINE
  5
54
330
72
100
AcDbEntity
  8
0
100
AcDbLine
 10
87.2449
 20
79.0668
 30
0.0
 11
82.6531
 21
77.4435
 31
0.0
  0
LINE
  5
55
330
72
100
AcDbEntity
  8
0
100
AcDbLine
 10
82.6531
 20
77.4435
 30
0.0
 11
78.0612
 21
75.7305
 31
0.0
  0
LINE
  5
56
330
72
100
AcDbEntity
  8
0
100
AcDbLine
 10
78.0612
 20
75.7305
 30
0.0
 11
73.4694
 21
73.9215
 31
0.0
  0
LINE
  5
57
330
72
100
AcDbEntity
  8
0
100
AcDbLine
 10
73.4694
 20
73.9215
 30
0.0
 11
68.8775
 21
72.0093
 31
0.0
  0
LINE
  5
58
330
72
100
AcDbEntity
  8
0
100
AcDbLine
 10
68.8775
 20
72.0093
 30
0.0
 11
64.2857
 21
69.9854
 31
0.0
  0
LINE
  5
59
330
72
100
AcDbEntity
  8
0
100
AcDbLine
 10
64.2857
 20
69.9854
 30
0.0
 11
59.6939
 21
67.8399
 31
0.0
  0
LINE
  5
5A
330
72
100
AcDbEntity
  8
0
100
AcDbLine
 10
59.6939
 20
67.8399
 30
0.0
 11
55.102
 21
65.5607
 31
0.0
  0
LINE
  5
5B
330
72
100
AcDbEntity
  8
0
100
AcDbLine
 10
55.102
 20
65.5607
 30
0.0
 11
50.5102
 21
63.1335
 31
0.0
  0
LINE
  5
5C
330
72
100
AcDbEntity
  8
0
100
AcDbLine
 10
50.5102
 20
63.1335
 30
0.0
 11
45.9184
 21
60.5404
 31
0.0
  0
LINE
  5
5D
330
72
100
AcDbEntity
  8
0
100
AcDbLine
 10
45.9184
 20
60.5404
 30
0.0
 11
41.3265
 21
57.7591
 31
0.0
  0
LINE
  5
5E
330
72
100
AcDbEntity
  8
0
100
AcDbLine
 10
41.3265
 20
57.7591
 30
0.0
 11
36.7347
 21
54.7608
 31
0.0
  0
LINE
  5
5F
330
72
100
AcDbEntity
  8
0
100
AcDbLine
 10
36.7347
 20
54.7608
 30
0.0
 11
32.1429
 21
51.5079
 31
0.0
  0
LINE
  5
60
330
72
100
AcDbEntity
  8
0
100
AcDbLine
 10
32.1429
 20
51.5079
 30
0.0
 11
27.551
 21
47.9483
 31
0.0
  0
LINE
  5
61
330
72
100
AcDbEntity
  8
0
100
AcDbLine
 10
27.551
 20
47.9483
 30
0.0
 11
22.9592
 21
44.0079
 31
0.0
  0
LINE
  5
62
330
72
100
AcDbEntity
  8
0
100
AcDbLine
 10
22.9592
 20
44.0079
 30
0.0
 11
18.3673
 21
39.5729
 31
0.0
  0
LINE
  5
63
330
72
100
AcDbEntity
  8
0
100
AcDbLine
 10
18.3673
 20
39.5729
 30
0.0
 11
13.7755
 21
34.4529
 31
0.0
  0
LINE
  5
64
330
72
100
AcDbEntity
  8
0
100
AcDbLine
 10
13.7755
 20
34.4529
 30
0.0
 11
9.18367
 21
28.2784
 31
0.0
  0
LINE
  5
65
330
72
100
AcDbEntity
  8
0
100
AcDbLine
 10
9.18367
 20
28.2784
 30
0.0
 11
4.59183
 21
20.0997
 31
0.0
  0
LINE
  5
66
330
72
100
AcDbEntity
  8
0
100
AcDbLine
 10
4.59183
 20
20.0997
 30
0.0
 11
0.0
 21
0.0
 31
0.0
  0
LINE
  5
67
330
72
100
AcDbEntity
  8
0
100
AcDbLine
 10
0.0
 20
0.0
 30
0.0
 11
100.0
 21
0.0
 31
0.0
  0
LINE
  5
68
330
72
100
AcDbEntity
  8
0
100
AcDbLine
 10
100.0
 20
0.0
 30
0.0
 11
100.0
 21
50.0
 31
0.0
  0
ENDSEC
  0
SECTION
  2
OBJECTS
  0
DICTIONARY
  5
81
330
0
100
AcDbDictionary
280
0
281
1
  3
ACAD_COLOR
350
82
  3
ACAD_GROUP
350
83
  3
ACAD_LAYOUT
350
84
  3
ACAD_MATERIAL
350
85
  3
ACAD_MLEADERSTYLE
350
86
  3
ACAD_MLINESTYLE
350
87
  3
ACAD_PLOTSETTINGS
350
88
  3
ACAD_PLOTSTYLENAME
350
89
  3
ACAD_SCALELIST
350
8B
  3
ACAD_TABLESTYLE
350
8C
  3
ACAD_VISUALSTYLE
350
8D
  3
EZDXF_META
350
A0
  0
DICTIONARY
  5
82
330
81
100
AcDbDictionary
280
0
281
1
  0
DICTIONARY
  5
83
330
81
100
AcDbDictionary
280
0
281
1
  0
DICTIONARY
  5
84
330
81
100
AcDbDictionary
280
0
281
1
  3
Model
350
8E
  3
Layout1
350
8F
  0
DICTIONARY
  5
85
330
81
100
AcDbDictionary
280
0
281
1
  3
ByBlock
350
90
  3
ByLayer
350
91
  3
Global
350
92
  0
DICTIONARY
  5
86
330
81
100
AcDbDictionary
280
0
281
1
  3
Standard
350
9D
  0
DICTIONARY
  5
87
330
81
100
AcDbDictionary
280
0
281
1
  3
Standard
350
93
  0
DICTIONARY
  5
88
330
81
100
AcDbDictionary
280
0
281
1
  0
ACDBDICTIONARYWDFLT
  5
89
330
81
100
AcDbDictionary
280
0
281
1
  3
Normal
350
8A
100
AcDbDictionaryWithDefault
340
8A
  0
ACDBPLACEHOLDER
  5
8A
330
89
  0
DICTIONARY
  5
8B
330
81
100
AcDbDictionary
280
0
281
1
  0
DICTIONARY
  5
8C
330
81
100
AcDbDictionary
280
0
281
1
  0
DICTIONARY
  5
8D
330
81
100
AcDbDictionary
280
0
281
1
  0
LAYOUT
  5
8E
330
84
100
AcDbPlotSettings
  1

  2
Adobe PDF
  4
A3
  6

 40
7.5
 41
20.0
 42
7.5
 43
20.0
 44
420.0
 45
297.0
 46
0.0
 47
0.0
 48
0.0
 49
0.0
140
0.0
141
0.0
142
1.0
143
1.0
 70
1024
 72
1
 73
0
 74
5
  7

 75
16
 76
0
 77
2
 78
300
147
1.0
148
0.0
149
0.0
100
AcDbLayout
  1
Model
 70
1
 71
0
 10
0.0
 20
0.0
 11
420.0
 21
297.0
 12
0.0
 22
0.0
 32
0.0
 14
1e+20
 24
1e+20
 34
1e+20
 15
-1e+20
 25
-1e+20
 35
-1e+20
146
0.0
 13
0.0
 23
0.0
 33
0.0
 16
1.0
 26
0.0
 36
0.0
 17
0.0
 27
1.0
 37
0.0
 76
1
330
72
  0
LAYOUT
  5
8F
330
84
100
AcDbPlotSettings
  1

  2
Adobe PDF
  4
A3
  6

 40
7.5
 41
20.0
 42
7.5
 43
20.0
 44
420.0
 45
297.0
 46
0.0
 47
0.0
 48
0.0
 49
0.0
140
0.0
141
0.0
142
1.0
143
1.0
 70
0
 72
1
 73
0
 74
5
  7

 75
16
 76
0
 77
2
 78
300
147
1.0
148
0.0
149
0.0
100
AcDbLayout
  1
Layout1
 70
1
 71
1
 10
0.0
 20
0.0
 11
420.0
 21
297.0
 12
0.0
 22
0.0
 32
0.0
 14
1e+20
 24
1e+20
 34
1e+20
 15
-1e+20
 25
-1e+20
 35
-1e+20
146
0.0
 13
0.0
 23
0.0
 33
0.0
 16
1.0
 26
0.0
 36
0.0
 17
0.0
 27
1.0
 37
0.0
 76
1
330
73
  0
MATERIAL
  5
90
102
{ACAD_REACTORS
330
85
102
}
330
85
100
AcDbMaterial
  1
ByBlock
  2

 70
0
 40
1.0
 71
1
 41
1.0
 91
-1023410177
 42
1.0
 72
1
  3

 73
1
 74
1
 75
1
 44
0.5
 73
0
 45
1.0
 46
1.0
 77
1
  4

 78
1
 79
1
170
1
 48
1.0
171
1
  6

172
1
173
1
174
1
140
1.0
141
1.0
175
1
  7

176
1
177
1
178
1
143
1.0
179
1
  8

270
1
271
1
272
1
145
1.0
146
1.0
273
1
  9

274
1
275
1
276
1
 42
1.0
 72
1
  3

 73
1
 74
1
 75
1
 94
63
  0
MATERIAL
  5
91
102
{ACAD_REACTORS
330
85
102
}
330
85
100
AcDbMaterial
  1
ByLayer
  2

 70
0
 40
1.0
 71
1
 41
1.0
 91
-1023410177
 42
1.0
 72
1
  3

 73
1
 74
1
 75
1
 44
0.5
 73
0
 45
1.0
 46
1.0
 77
1
  4

 78
1
 79
1
170
1
 48
1.0
171
1
  6

172
1
173
1
174
1
140
1.0
141
1.0
175
1
  7

176
1
177
1
178
1
143
1.0
179
1
  8

270
1
271
1
272
1
145
1.0
146
1.0
273
1
  9

274
1
275
1
276
1
 42
1.0
 72
1
  3

 73
1
 74
1
 75
1
 94
63
  0
MATERIAL
  5
92
102
{ACAD_REACTORS
330
85
102
}
330
85
100
AcDbMaterial
  1
Global
  2

 70
0
 40
1.0
 71
1
 41
1.0
 91
-1023410177
 42
1.0
 72
1
  3

 73
1
 74
1
 75
1
 44
0.5
 73
0
 45
1.0
 46
1.0
 77
1
  4

 78
1
 79
1
170
1
 48
1.0
171
1
  6

172
1
173
1
174
1
140
1.0
141
1.0
175
1
  7

176
1
177
1
178
1
143
1.0
179
1
  8

270
1
271
1
272
1
145
1.0
146
1.0
273
1
  9

274
1
275
1
276
1
 42
1.0
 72
1
  3

 73
1
 74
1
 75
1
 94
63
  0
MLINESTYLE
  5
93
102
{ACAD_REACTORS
330
87
102
}
330
87
100
AcDbMlineStyle
  2
Standard
 70
0
  3

 62
256
 51
90.0
 52
90.0
 71
2
 49
0.5
 62
256
  6
BYLAYER
 49
-0.5
 62
256
  6
BYLAYER
  0
MLEADERSTYLE
  5
9D
102
{ACAD_REACTORS
330
86
102
}
330
86
100
AcDbMLeaderStyle
179
2
170
2
171
1
172
0
 90
2
 40
0.0
 41
0.0
173
1
 91
-1056964608
 92
-2
290
1
 42
2.0
291
1
 43
8.0
  3
Standard
 44
4.0
300

342
9A
174
1
175
1
176
0
178
1
 93
-1056964608
 45
4.0
292
0
297
0
 46
4.0
 94
-1056964608
 47
1.0
 49
1.0
140
1.0
294
1
141
0.0
177
0
142
1.0
295
0
296
0
143
3.75
271
0
272
9
273
9
  0
DICTIONARY
  5
A0
330
81
100
AcDbDictionary
281
1
  3
WRITTEN_BY_EZDXF
350
A1
  0
DICTIONARYVAR
  5
A1
330
A0
100
DictionaryVariables
280
0
  1
1.0.3 @ 2023-06-13T20:16:18.503920+00:00
  0
ENDSEC
  0
EOF
