  0
SECTION
  2
HEADER
  9
$ACADVER
  1
AC1032
  9
$ACADMAINTVER
 90
4
  9
$DWGCODEPAGE
  3
ANSI_1252
  9
$EXTMIN
 10
1e+20
 20
1e+20
 30
1e+20
  9
$EXTMAX
 10
-1e+20
 20
-1e+20
 30
-1e+20
  9
$LIMMIN
 10
0.0
 20
0.0
  9
$LIMMAX
 10
420.0
 20
297.0
  9
$TDCREATE
 40
2460110.8887847224
  9
$TDUPDATE
 40
2460110.8887847224
  9
$HANDSEED
  5
435
  9
$PEXTMIN
 10
1e+20
 20
1e+20
 30
1e+20
  9
$PEXTMAX
 10
-1e+20
 20
-1e+20
 30
-1e+20
  9
$PLIMMIN
 10
0.0
 20
0.0
  9
$PLIMMAX
 10
420.0
 20
297.0
  9
$FINGERPRINTGUID
  2
{B0CEB6AD-3BC8-443B-8CC8-D5B93405220E}
  9
$VERSIONGUID
  2
{B54BBE42-87B1-4BB6-B328-08B730207D0A}
  9
$CMATERIAL
347
423
  0
ENDSEC
  0
SECTION
  2
CLASSES
  0
CLASS
  1
ACDBDICTIONARYWDFLT
  2
AcDbDictionaryWithDefault
  3
ObjectDBX Classes
 90
0
 91
0
280
0
281
0
  0
CLASS
  1
SUN
  2
AcDbSun
  3
SCENEOE
 90
1153
 91
0
280
0
281
0
  0
CLASS
  1
VISUALSTYLE
  2
AcDbVisualStyle
  3
ObjectDBX Classes
 90
4095
 91
0
280
0
281
0
  0
CLASS
  1
MATERIAL
  2
AcDbMaterial
  3
ObjectDBX Classes
 90
1153
 91
0
280
0
281
0
  0
CLASS
  1
SCALE
  2
AcDbScale
  3
ObjectDBX Classes
 90
1153
 91
0
280
0
281
0
  0
CLASS
  1
TABLESTYLE
  2
AcDbTableStyle
  3
ObjectDBX Classes
 90
4095
 91
0
280
0
281
0
  0
CLASS
  1
MLEADERSTYLE
  2
AcDbMLeaderStyle
  3
ACDB_MLEADERSTYLE_CLASS
 90
4095
 91
0
280
0
281
0
  0
CLASS
  1
DICTIONARYVAR
  2
AcDbDictionaryVar
  3
ObjectDBX Classes
 90
0
 91
0
280
0
281
0
  0
CLASS
  1
CELLSTYLEMAP
  2
AcDbCellStyleMap
  3
ObjectDBX Classes
 90
1152
 91
0
280
0
281
0
  0
CLASS
  1
MENTALRAYRENDERSETTINGS
  2
AcDbMentalRayRenderSettings
  3
SCENEOE
 90
1024
 91
0
280
0
281
0
  0
CLASS
  1
ACDBDETAILVIEWSTYLE
  2
AcDbDetailViewStyle
  3
ObjectDBX Classes
 90
1025
 91
0
280
0
281
0
  0
CLASS
  1
ACDBSECTIONVIEWSTYLE
  2
AcDbSectionViewStyle
  3
ObjectDBX Classes
 90
1025
 91
0
280
0
281
0
  0
CLASS
  1
RASTERVARIABLES
  2
AcDbRasterVariables
  3
ISM
 90
0
 91
0
280
0
281
0
  0
CLASS
  1
LAYOUT
  2
AcDbLayout
  3
ObjectDBX Classes
 90
0
 91
0
280
0
281
0
  0
CLASS
  1
ACDBPLACEHOLDER
  2
AcDbPlaceHolder
  3
ObjectDBX Classes
 90
0
 91
0
280
0
281
0
  0
ENDSEC
  0
SECTION
  2
TABLES
  0
TABLE
  2
VPORT
  5
402
330
0
100
AcDbSymbolTable
 70
1
  0
VPORT
  5
426
330
402
100
AcDbSymbolTableRecord
100
AcDbViewportTableRecord
  2
*Active
 70
0
 10
0.0
 20
0.0
 11
1.0
 21
1.0
 12
0.0
 22
0.0
 13
0.0
 23
0.0
 14
0.5
 24
0.5
 15
0.5
 25
0.5
 16
0.0
 26
0.0
 36
1.0
 17
0.0
 27
0.0
 37
0.0
 40
1000.0
 41
1.34
 42
50.0
 43
0.0
 44
0.0
 50
0.0
 51
0.0
 71
0
 72
1000
 73
1
 74
3
 75
0
 76
0
 77
0
 78
0
281
0
 65
0
146
0.0
  0
ENDTAB
  0
TABLE
  2
LTYPE
  5
3FC
330
0
100
AcDbSymbolTable
 70
3
  0
LTYPE
  5
427
330
3FC
100
AcDbSymbolTableRecord
100
AcDbLinetypeTableRecord
  2
ByBlock
 70
0
  3

 72
65
 73
0
 40
0.0
  0
LTYPE
  5
428
330
3FC
100
AcDbSymbolTableRecord
100
AcDbLinetypeTableRecord
  2
ByLayer
 70
0
  3

 72
65
 73
0
 40
0.0
  0
LTYPE
  5
429
330
3FC
100
AcDbSymbolTableRecord
100
AcDbLinetypeTableRecord
  2
Continuous
 70
0
  3

 72
65
 73
0
 40
0.0
  0
ENDTAB
  0
TABLE
  2
LAYER
  5
3FB
330
0
100
AcDbSymbolTable
 70
2
  0
LAYER
  5
42A
330
3FB
100
AcDbSymbolTableRecord
100
AcDbLayerTableRecord
  2
0
 70
0
 62
7
  6
Continuous
370
-3
390
41C
347
424
  0
LAYER
  5
42B
330
3FB
100
AcDbSymbolTableRecord
100
AcDbLayerTableRecord
  2
Defpoints
 70
0
 62
7
  6
Continuous
290
0
370
-3
390
41C
347
424
  0
ENDTAB
  0
TABLE
  2
STYLE
  5
3FF
330
0
100
AcDbSymbolTable
 70
1
  0
STYLE
  5
42C
330
3FF
100
AcDbSymbolTableRecord
100
AcDbTextStyleTableRecord
  2
Standard
 70
0
 40
0.0
 41
1.0
 50
0.0
 71
0
 42
2.5
  3
txt
  4

  0
ENDTAB
  0
TABLE
  2
VIEW
  5
401
330
0
100
AcDbSymbolTable
 70
0
  0
ENDTAB
  0
TABLE
  2
UCS
  5
400
330
0
100
AcDbSymbolTable
 70
0
  0
ENDTAB
  0
TABLE
  2
APPID
  5
3FD
330
0
100
AcDbSymbolTable
 70
3
  0
APPID
  5
42D
330
3FD
100
AcDbSymbolTableRecord
100
AcDbRegAppTableRecord
  2
ACAD
 70
0
  0
APPID
  5
430
330
3FD
100
AcDbSymbolTableRecord
100
AcDbRegAppTableRecord
  2
HATCHBACKGROUNDCOLOR
 70
0
  0
APPID
  5
431
330
3FD
100
AcDbSymbolTableRecord
100
AcDbRegAppTableRecord
  2
EZDXF
 70
0
  0
ENDTAB
  0
TABLE
  2
DIMSTYLE
  5
3FE
330
0
100
AcDbSymbolTable
 70
1
100
AcDbDimStyleTable
  0
DIMSTYLE
105
42E
330
3FE
100
AcDbSymbolTableRecord
100
AcDbDimStyleTableRecord
  2
Standard
 70
0
 40
1.0
 41
2.5
 42
0.625
 43
3.75
 44
1.25
 45
0.0
 46
0.0
 47
0.0
 48
0.0
 49
2.5
140
2.5
141
2.5
142
0.0
143
0.03937007874
144
1.0
145
0.0
146
1.0
147
0.625
148
0.0
 69
0
 70
0
 71
0
 72
0
 73
0
 74
0
 75
0
 76
0
 77
1
 78
8
 79
3
170
0
171
3
172
1
173
0
174
0
175
0
176
0
177
0
178
0
179
2
271
2
272
2
273
2
274
3
275
0
276
0
277
2
278
44
279
0
280
0
281
0
282
0
283
0
284
8
285
0
286
0
288
0
289
3
290
0
371
-2
372
-2
  0
ENDTAB
  0
TABLE
  2
BLOCK_RECORD
  5
403
330
0
100
AcDbSymbolTable
 70
2
  0
BLOCK_RECORD
  5
404
330
403
100
AcDbSymbolTableRecord
100
AcDbBlockTableRecord
  2
*Model_Space
340
420
 70
0
280
1
281
0
  0
BLOCK_RECORD
  5
405
330
403
100
AcDbSymbolTableRecord
100
AcDbBlockTableRecord
  2
*Paper_Space
340
421
 70
0
280
1
281
0
  0
ENDTAB
  0
ENDSEC
  0
SECTION
  2
BLOCKS
  0
BLOCK
  5
406
330
404
100
AcDbEntity
  8
0
100
AcDbBlockBegin
  2
*Model_Space
 70
0
 10
0.0
 20
0.0
 30
0.0
  3
*Model_Space
  1

  0
ENDBLK
  5
407
330
404
100
AcDbEntity
  8
0
100
AcDbBlockEnd
  0
BLOCK
  5
408
330
405
100
AcDbEntity
  8
0
100
AcDbBlockBegin
  2
*Paper_Space
 70
0
 10
0.0
 20
0.0
 30
0.0
  3
*Paper_Space
  1

  0
ENDBLK
  5
409
330
405
100
AcDbEntity
  8
0
100
AcDbBlockEnd
  0
ENDSEC
  0
SECTION
  2
ENTITIES
  0
LINE
  5
1
330
404
100
AcDbEntity
  8
0
100
AcDbLine
 10
195.0
 20
95.0
 30
0.0
 11
195.0
 21
105.0
 31
0.0
  0
LINE
  5
2
330
404
100
AcDbEntity
  8
0
100
AcDbLine
 10
195.0
 20
105.0
 30
0.0
 11
200.0
 21
105.0
 31
0.0
  0
LINE
  5
3
330
404
100
AcDbEntity
  8
0
100
AcDbLine
 10
200.0
 20
105.0
 30
0.0
 11
199.92
 21
107.53110000000001
 31
0.0
  0
LINE
  5
4
330
404
100
AcDbEntity
  8
0
100
AcDbLine
 10
199.92
 20
107.53110000000001
 30
0.0
 11
199.84
 21
108.5777
 31
0.0
  0
LINE
  5
5
330
404
100
AcDbEntity
  8
0
100
AcDbLine
 10
199.84
 20
108.5777
 30
0.0
 11
199.76
 21
109.37960000000001
 31
0.0
  0
LINE
  5
6
330
404
100
AcDbEntity
  8
0
100
AcDbLine
 10
199.76
 20
109.37960000000001
 30
0.0
 11
199.679
 21
110.0546
 31
0.0
  0
LINE
  5
7
330
404
100
AcDbEntity
  8
0
100
AcDbLine
 10
199.679
 20
110.0546
 30
0.0
 11
199.599
 21
110.6483
 31
0.0
  0
LINE
  5
8
330
404
100
AcDbEntity
  8
0
100
AcDbLine
 10
199.599
 20
110.6483
 30
0.0
 11
199.519
 21
111.18430000000001
 31
0.0
  0
LINE
  5
9
330
404
100
AcDbEntity
  8
0
100
AcDbLine
 10
199.519
 20
111.18430000000001
 30
0.0
 11
199.439
 21
111.6764
 31
0.0
  0
LINE
  5
A
330
404
100
AcDbEntity
  8
0
100
AcDbLine
 10
199.439
 20
111.6764
 30
0.0
 11
199.359
 21
112.13380000000001
 31
0.0
  0
LINE
  5
B
330
404
100
AcDbEntity
  8
0
100
AcDbLine
 10
199.359
 20
112.13380000000001
 30
0.0
 11
199.279
 21
112.5627
 31
0.0
  0
LINE
  5
C
330
404
100
AcDbEntity
  8
0
100
AcDbLine
 10
199.279
 20
112.5627
 30
0.0
 11
199.198
 21
112.9678
 31
0.0
  0
LINE
  5
D
330
404
100
AcDbEntity
  8
0
100
AcDbLine
 10
199.198
 20
112.9678
 30
0.0
 11
199.118
 21
113.3524
 31
0.0
  0
LINE
  5
E
330
404
100
AcDbEntity
  8
0
100
AcDbLine
 10
199.118
 20
113.3524
 30
0.0
 11
199.038
 21
113.71940000000001
 31
0.0
  0
LINE
  5
F
330
404
100
AcDbEntity
  8
0
100
AcDbLine
 10
199.038
 20
113.71940000000001
 30
0.0
 11
198.958
 21
114.0709
 31
0.0
  0
LINE
  5
10
330
404
100
AcDbEntity
  8
0
100
AcDbLine
 10
198.958
 20
114.0709
 30
0.0
 11
198.878
 21
114.4085
 31
0.0
  0
LINE
  5
11
330
404
100
AcDbEntity
  8
0
100
AcDbLine
 10
198.878
 20
114.4085
 30
0.0
 11
198.798
 21
114.7338
 31
0.0
  0
LINE
  5
12
330
404
100
AcDbEntity
  8
0
100
AcDbLine
 10
198.798
 20
114.7338
 30
0.0
 11
198.717
 21
115.0479
 31
0.0
  0
LINE
  5
13
330
404
100
AcDbEntity
  8
0
100
AcDbLine
 10
198.717
 20
115.0479
 30
0.0
 11
198.637
 21
115.3519
 31
0.0
  0
LINE
  5
14
330
404
100
AcDbEntity
  8
0
100
AcDbLine
 10
198.637
 20
115.3519
 30
0.0
 11
198.557
 21
115.6465
 31
0.0
  0
LINE
  5
15
330
404
100
AcDbEntity
  8
0
100
AcDbLine
 10
198.557
 20
115.6465
 30
0.0
 11
198.477
 21
115.9327
 31
0.0
  0
LINE
  5
16
330
404
100
AcDbEntity
  8
0
100
AcDbLine
 10
198.477
 20
115.9327
 30
0.0
 11
198.397
 21
116.211
 31
0.0
  0
LINE
  5
17
330
404
100
AcDbEntity
  8
0
100
AcDbLine
 10
198.397
 20
116.211
 30
0.0
 11
198.317
 21
116.482
 31
0.0
  0
LINE
  5
18
330
404
100
AcDbEntity
  8
0
100
AcDbLine
 10
198.317
 20
116.482
 30
0.0
 11
198.236
 21
116.7461
 31
0.0
  0
LINE
  5
19
330
404
100
AcDbEntity
  8
0
100
AcDbLine
 10
198.236
 20
116.7461
 30
0.0
 11
198.156
 21
117.004
 31
0.0
  0
LINE
  5
1A
330
404
100
AcDbEntity
  8
0
100
AcDbLine
 10
198.156
 20
117.004
 30
0.0
 11
198.076
 21
117.2559
 31
0.0
  0
LINE
  5
1B
330
404
100
AcDbEntity
  8
0
100
AcDbLine
 10
198.076
 20
117.2559
 30
0.0
 11
197.996
 21
117.5022
 31
0.0
  0
LINE
  5
1C
330
404
100
AcDbEntity
  8
0
100
AcDbLine
 10
197.996
 20
117.5022
 30
0.0
 11
197.916
 21
117.7432
 31
0.0
  0
LINE
  5
1D
330
404
100
AcDbEntity
  8
0
100
AcDbLine
 10
197.916
 20
117.7432
 30
0.0
 11
197.836
 21
117.9793
 31
0.0
  0
LINE
  5
1E
330
404
100
AcDbEntity
  8
0
100
AcDbLine
 10
197.836
 20
117.9793
 30
0.0
 11
197.756
 21
118.2106
 31
0.0
  0
LINE
  5
1F
330
404
100
AcDbEntity
  8
0
100
AcDbLine
 10
197.756
 20
118.2106
 30
0.0
 11
197.675
 21
118.4375
 31
0.0
  0
LINE
  5
20
330
404
100
AcDbEntity
  8
0
100
AcDbLine
 10
197.675
 20
118.4375
 30
0.0
 11
197.595
 21
118.6602
 31
0.0
  0
LINE
  5
21
330
404
100
AcDbEntity
  8
0
100
AcDbLine
 10
197.595
 20
118.6602
 30
0.0
 11
197.515
 21
118.8788
 31
0.0
  0
LINE
  5
22
330
404
100
AcDbEntity
  8
0
100
AcDbLine
 10
197.515
 20
118.8788
 30
0.0
 11
197.435
 21
119.0936
 31
0.0
  0
LINE
  5
23
330
404
100
AcDbEntity
  8
0
100
AcDbLine
 10
197.435
 20
119.0936
 30
0.0
 11
197.355
 21
119.3047
 31
0.0
  0
LINE
  5
24
330
404
100
AcDbEntity
  8
0
100
AcDbLine
 10
197.355
 20
119.3047
 30
0.0
 11
197.275
 21
119.5123
 31
0.0
  0
LINE
  5
25
330
404
100
AcDbEntity
  8
0
100
AcDbLine
 10
197.275
 20
119.5123
 30
0.0
 11
197.194
 21
119.7166
 31
0.0
  0
LINE
  5
26
330
404
100
AcDbEntity
  8
0
100
AcDbLine
 10
197.194
 20
119.7166
 30
0.0
 11
197.114
 21
119.9176
 31
0.0
  0
LINE
  5
27
330
404
100
AcDbEntity
  8
0
100
AcDbLine
 10
197.114
 20
119.9176
 30
0.0
 11
197.034
 21
120.1155
 31
0.0
  0
LINE
  5
28
330
404
100
AcDbEntity
  8
0
100
AcDbLine
 10
197.034
 20
120.1155
 30
0.0
 11
196.954
 21
120.3104
 31
0.0
  0
LINE
  5
29
330
404
100
AcDbEntity
  8
0
100
AcDbLine
 10
196.954
 20
120.3104
 30
0.0
 11
196.874
 21
120.5025
 31
0.0
  0
LINE
  5
2A
330
404
100
AcDbEntity
  8
0
100
AcDbLine
 10
196.874
 20
120.5025
 30
0.0
 11
196.794
 21
120.6918
 31
0.0
  0
LINE
  5
2B
330
404
100
AcDbEntity
  8
0
100
AcDbLine
 10
196.794
 20
120.6918
 30
0.0
 11
196.713
 21
120.8784
 31
0.0
  0
LINE
  5
2C
330
404
100
AcDbEntity
  8
0
100
AcDbLine
 10
196.713
 20
120.8784
 30
0.0
 11
196.633
 21
121.0625
 31
0.0
  0
LINE
  5
2D
330
404
100
AcDbEntity
  8
0
100
AcDbLine
 10
196.633
 20
121.0625
 30
0.0
 11
196.553
 21
121.2441
 31
0.0
  0
LINE
  5
2E
330
404
100
AcDbEntity
  8
0
100
AcDbLine
 10
196.553
 20
121.2441
 30
0.0
 11
196.473
 21
121.4233
 31
0.0
  0
LINE
  5
2F
330
404
100
AcDbEntity
  8
0
100
AcDbLine
 10
196.473
 20
121.4233
 30
0.0
 11
196.393
 21
121.6001
 31
0.0
  0
LINE
  5
30
330
404
100
AcDbEntity
  8
0
100
AcDbLine
 10
196.393
 20
121.6001
 30
0.0
 11
196.313
 21
121.7748
 31
0.0
  0
LINE
  5
31
330
404
100
AcDbEntity
  8
0
100
AcDbLine
 10
196.313
 20
121.7748
 30
0.0
 11
196.232
 21
121.9472
 31
0.0
  0
LINE
  5
32
330
404
100
AcDbEntity
  8
0
100
AcDbLine
 10
196.232
 20
121.9472
 30
0.0
 11
196.152
 21
122.1176
 31
0.0
  0
LINE
  5
33
330
404
100
AcDbEntity
  8
0
100
AcDbLine
 10
196.152
 20
122.1176
 30
0.0
 11
196.072
 21
122.2858
 31
0.0
  0
LINE
  5
34
330
404
100
AcDbEntity
  8
0
100
AcDbLine
 10
196.072
 20
122.2858
 30
0.0
 11
195.992
 21
122.4521
 31
0.0
  0
LINE
  5
35
330
404
100
AcDbEntity
  8
0
100
AcDbLine
 10
195.992
 20
122.4521
 30
0.0
 11
195.912
 21
122.6165
 31
0.0
  0
LINE
  5
36
330
404
100
AcDbEntity
  8
0
100
AcDbLine
 10
195.912
 20
122.6165
 30
0.0
 11
195.832
 21
122.779
 31
0.0
  0
LINE
  5
37
330
404
100
AcDbEntity
  8
0
100
AcDbLine
 10
195.832
 20
122.779
 30
0.0
 11
195.751
 21
122.9396
 31
0.0
  0
LINE
  5
38
330
404
100
AcDbEntity
  8
0
100
AcDbLine
 10
195.751
 20
122.9396
 30
0.0
 11
195.671
 21
123.0985
 31
0.0
  0
LINE
  5
39
330
404
100
AcDbEntity
  8
0
100
AcDbLine
 10
195.671
 20
123.0985
 30
0.0
 11
195.591
 21
123.2556
 31
0.0
  0
LINE
  5
3A
330
404
100
AcDbEntity
  8
0
100
AcDbLine
 10
195.591
 20
123.2556
 30
0.0
 11
195.511
 21
123.4111
 31
0.0
  0
LINE
  5
3B
330
404
100
AcDbEntity
  8
0
100
AcDbLine
 10
195.511
 20
123.4111
 30
0.0
 11
195.431
 21
123.5648
 31
0.0
  0
LINE
  5
3C
330
404
100
AcDbEntity
  8
0
100
AcDbLine
 10
195.431
 20
123.5648
 30
0.0
 11
195.351
 21
123.717
 31
0.0
  0
LINE
  5
3D
330
404
100
AcDbEntity
  8
0
100
AcDbLine
 10
195.351
 20
123.717
 30
0.0
 11
195.271
 21
123.8677
 31
0.0
  0
LINE
  5
3E
330
404
100
AcDbEntity
  8
0
100
AcDbLine
 10
195.271
 20
123.8677
 30
0.0
 11
195.19
 21
124.0168
 31
0.0
  0
LINE
  5
3F
330
404
100
AcDbEntity
  8
0
100
AcDbLine
 10
195.19
 20
124.0168
 30
0.0
 11
195.11
 21
124.1644
 31
0.0
  0
LINE
  5
40
330
404
100
AcDbEntity
  8
0
100
AcDbLine
 10
195.11
 20
124.1644
 30
0.0
 11
195.03
 21
124.3105
 31
0.0
  0
LINE
  5
41
330
404
100
AcDbEntity
  8
0
100
AcDbLine
 10
195.03
 20
124.3105
 30
0.0
 11
194.95
 21
124.4552
 31
0.0
  0
LINE
  5
42
330
404
100
AcDbEntity
  8
0
100
AcDbLine
 10
194.95
 20
124.4552
 30
0.0
 11
194.87
 21
124.5985
 31
0.0
  0
LINE
  5
43
330
404
100
AcDbEntity
  8
0
100
AcDbLine
 10
194.87
 20
124.5985
 30
0.0
 11
194.79
 21
124.7404
 31
0.0
  0
LINE
  5
44
330
404
100
AcDbEntity
  8
0
100
AcDbLine
 10
194.79
 20
124.7404
 30
0.0
 11
194.709
 21
124.881
 31
0.0
  0
LINE
  5
45
330
404
100
AcDbEntity
  8
0
100
AcDbLine
 10
194.709
 20
124.881
 30
0.0
 11
194.629
 21
125.0203
 31
0.0
  0
LINE
  5
46
330
404
100
AcDbEntity
  8
0
100
AcDbLine
 10
194.629
 20
125.0203
 30
0.0
 11
194.549
 21
125.1584
 31
0.0
  0
LINE
  5
47
330
404
100
AcDbEntity
  8
0
100
AcDbLine
 10
194.549
 20
125.1584
 30
0.0
 11
194.469
 21
125.2951
 31
0.0
  0
LINE
  5
48
330
404
100
AcDbEntity
  8
0
100
AcDbLine
 10
194.469
 20
125.2951
 30
0.0
 11
194.389
 21
125.4306
 31
0.0
  0
LINE
  5
49
330
404
100
AcDbEntity
  8
0
100
AcDbLine
 10
194.389
 20
125.4306
 30
0.0
 11
194.309
 21
125.565
 31
0.0
  0
LINE
  5
4A
330
404
100
AcDbEntity
  8
0
100
AcDbLine
 10
194.309
 20
125.565
 30
0.0
 11
194.228
 21
125.6981
 31
0.0
  0
LINE
  5
4B
330
404
100
AcDbEntity
  8
0
100
AcDbLine
 10
194.228
 20
125.6981
 30
0.0
 11
194.148
 21
125.8301
 31
0.0
  0
LINE
  5
4C
330
404
100
AcDbEntity
  8
0
100
AcDbLine
 10
194.148
 20
125.8301
 30
0.0
 11
194.068
 21
125.961
 31
0.0
  0
LINE
  5
4D
330
404
100
AcDbEntity
  8
0
100
AcDbLine
 10
194.068
 20
125.961
 30
0.0
 11
193.988
 21
126.0907
 31
0.0
  0
LINE
  5
4E
330
404
100
AcDbEntity
  8
0
100
AcDbLine
 10
193.988
 20
126.0907
 30
0.0
 11
193.908
 21
126.2193
 31
0.0
  0
LINE
  5
4F
330
404
100
AcDbEntity
  8
0
100
AcDbLine
 10
193.908
 20
126.2193
 30
0.0
 11
193.828
 21
126.3469
 31
0.0
  0
LINE
  5
50
330
404
100
AcDbEntity
  8
0
100
AcDbLine
 10
193.828
 20
126.3469
 30
0.0
 11
193.747
 21
126.4734
 31
0.0
  0
LINE
  5
51
330
404
100
AcDbEntity
  8
0
100
AcDbLine
 10
193.747
 20
126.4734
 30
0.0
 11
193.667
 21
126.5988
 31
0.0
  0
LINE
  5
52
330
404
100
AcDbEntity
  8
0
100
AcDbLine
 10
193.667
 20
126.5988
 30
0.0
 11
193.587
 21
126.7233
 31
0.0
  0
LINE
  5
53
330
404
100
AcDbEntity
  8
0
100
AcDbLine
 10
193.587
 20
126.7233
 30
0.0
 11
193.507
 21
126.8467
 31
0.0
  0
LINE
  5
54
330
404
100
AcDbEntity
  8
0
100
AcDbLine
 10
193.507
 20
126.8467
 30
0.0
 11
193.427
 21
126.9692
 31
0.0
  0
LINE
  5
55
330
404
100
AcDbEntity
  8
0
100
AcDbLine
 10
193.427
 20
126.9692
 30
0.0
 11
193.347
 21
127.0907
 31
0.0
  0
LINE
  5
56
330
404
100
AcDbEntity
  8
0
100
AcDbLine
 10
193.347
 20
127.0907
 30
0.0
 11
193.267
 21
127.2112
 31
0.0
  0
LINE
  5
57
330
404
100
AcDbEntity
  8
0
100
AcDbLine
 10
193.267
 20
127.2112
 30
0.0
 11
193.186
 21
127.3308
 31
0.0
  0
LINE
  5
58
330
404
100
AcDbEntity
  8
0
100
AcDbLine
 10
193.186
 20
127.3308
 30
0.0
 11
193.106
 21
127.4495
 31
0.0
  0
LINE
  5
59
330
404
100
AcDbEntity
  8
0
100
AcDbLine
 10
193.106
 20
127.4495
 30
0.0
 11
193.026
 21
127.5672
 31
0.0
  0
LINE
  5
5A
330
404
100
AcDbEntity
  8
0
100
AcDbLine
 10
193.026
 20
127.5672
 30
0.0
 11
192.946
 21
127.6841
 31
0.0
  0
LINE
  5
5B
330
404
100
AcDbEntity
  8
0
100
AcDbLine
 10
192.946
 20
127.6841
 30
0.0
 11
192.866
 21
127.8001
 31
0.0
  0
LINE
  5
5C
330
404
100
AcDbEntity
  8
0
100
AcDbLine
 10
192.866
 20
127.8001
 30
0.0
 11
192.786
 21
127.9152
 31
0.0
  0
LINE
  5
5D
330
404
100
AcDbEntity
  8
0
100
AcDbLine
 10
192.786
 20
127.9152
 30
0.0
 11
192.705
 21
128.0294
 31
0.0
  0
LINE
  5
5E
330
404
100
AcDbEntity
  8
0
100
AcDbLine
 10
192.705
 20
128.0294
 30
0.0
 11
192.625
 21
128.1429
 31
0.0
  0
LINE
  5
5F
330
404
100
AcDbEntity
  8
0
100
AcDbLine
 10
192.625
 20
128.1429
 30
0.0
 11
192.545
 21
128.25549999999998
 31
0.0
  0
LINE
  5
60
330
404
100
AcDbEntity
  8
0
100
AcDbLine
 10
192.545
 20
128.25549999999998
 30
0.0
 11
192.465
 21
128.3672
 31
0.0
  0
LINE
  5
61
330
404
100
AcDbEntity
  8
0
100
AcDbLine
 10
192.465
 20
128.3672
 30
0.0
 11
192.385
 21
128.47820000000002
 31
0.0
  0
LINE
  5
62
330
404
100
AcDbEntity
  8
0
100
AcDbLine
 10
192.385
 20
128.47820000000002
 30
0.0
 11
192.305
 21
128.58839999999998
 31
0.0
  0
LINE
  5
63
330
404
100
AcDbEntity
  8
0
100
AcDbLine
 10
192.305
 20
128.58839999999998
 30
0.0
 11
192.224
 21
128.6978
 31
0.0
  0
LINE
  5
64
330
404
100
AcDbEntity
  8
0
100
AcDbLine
 10
192.224
 20
128.6978
 30
0.0
 11
192.144
 21
128.8064
 31
0.0
  0
LINE
  5
65
330
404
100
AcDbEntity
  8
0
100
AcDbLine
 10
192.144
 20
128.8064
 30
0.0
 11
192.064
 21
128.9142
 31
0.0
  0
LINE
  5
66
330
404
100
AcDbEntity
  8
0
100
AcDbLine
 10
192.064
 20
128.9142
 30
0.0
 11
191.984
 21
129.0213
 31
0.0
  0
LINE
  5
67
330
404
100
AcDbEntity
  8
0
100
AcDbLine
 10
191.984
 20
129.0213
 30
0.0
 11
191.904
 21
129.1277
 31
0.0
  0
LINE
  5
68
330
404
100
AcDbEntity
  8
0
100
AcDbLine
 10
191.904
 20
129.1277
 30
0.0
 11
191.824
 21
129.23340000000002
 31
0.0
  0
LINE
  5
69
330
404
100
AcDbEntity
  8
0
100
AcDbLine
 10
191.824
 20
129.23340000000002
 30
0.0
 11
191.743
 21
129.3383
 31
0.0
  0
LINE
  5
6A
330
404
100
AcDbEntity
  8
0
100
AcDbLine
 10
191.743
 20
129.3383
 30
0.0
 11
191.663
 21
129.44240000000002
 31
0.0
  0
LINE
  5
6B
330
404
100
AcDbEntity
  8
0
100
AcDbLine
 10
191.663
 20
129.44240000000002
 30
0.0
 11
191.583
 21
129.54590000000002
 31
0.0
  0
LINE
  5
6C
330
404
100
AcDbEntity
  8
0
100
AcDbLine
 10
191.583
 20
129.54590000000002
 30
0.0
 11
191.503
 21
129.64870000000002
 31
0.0
  0
LINE
  5
6D
330
404
100
AcDbEntity
  8
0
100
AcDbLine
 10
191.503
 20
129.64870000000002
 30
0.0
 11
191.423
 21
129.7508
 31
0.0
  0
LINE
  5
6E
330
404
100
AcDbEntity
  8
0
100
AcDbLine
 10
191.423
 20
129.7508
 30
0.0
 11
191.343
 21
129.8523
 31
0.0
  0
LINE
  5
6F
330
404
100
AcDbEntity
  8
0
100
AcDbLine
 10
191.343
 20
129.8523
 30
0.0
 11
191.263
 21
129.953
 31
0.0
  0
LINE
  5
70
330
404
100
AcDbEntity
  8
0
100
AcDbLine
 10
191.263
 20
129.953
 30
0.0
 11
191.182
 21
130.0531
 31
0.0
  0
LINE
  5
71
330
404
100
AcDbEntity
  8
0
100
AcDbLine
 10
191.182
 20
130.0531
 30
0.0
 11
191.102
 21
130.1526
 31
0.0
  0
LINE
  5
72
330
404
100
AcDbEntity
  8
0
100
AcDbLine
 10
191.102
 20
130.1526
 30
0.0
 11
191.022
 21
130.2514
 31
0.0
  0
LINE
  5
73
330
404
100
AcDbEntity
  8
0
100
AcDbLine
 10
191.022
 20
130.2514
 30
0.0
 11
190.942
 21
130.3495
 31
0.0
  0
LINE
  5
74
330
404
100
AcDbEntity
  8
0
100
AcDbLine
 10
190.942
 20
130.3495
 30
0.0
 11
190.862
 21
130.4471
 31
0.0
  0
LINE
  5
75
330
404
100
AcDbEntity
  8
0
100
AcDbLine
 10
190.862
 20
130.4471
 30
0.0
 11
190.782
 21
130.54399999999998
 31
0.0
  0
LINE
  5
76
330
404
100
AcDbEntity
  8
0
100
AcDbLine
 10
190.782
 20
130.54399999999998
 30
0.0
 11
190.701
 21
130.6403
 31
0.0
  0
LINE
  5
77
330
404
100
AcDbEntity
  8
0
100
AcDbLine
 10
190.701
 20
130.6403
 30
0.0
 11
190.621
 21
130.73590000000002
 31
0.0
  0
LINE
  5
78
330
404
100
AcDbEntity
  8
0
100
AcDbLine
 10
190.621
 20
130.73590000000002
 30
0.0
 11
190.541
 21
130.83100000000002
 31
0.0
  0
LINE
  5
79
330
404
100
AcDbEntity
  8
0
100
AcDbLine
 10
190.541
 20
130.83100000000002
 30
0.0
 11
190.461
 21
130.9255
 31
0.0
  0
LINE
  5
7A
330
404
100
AcDbEntity
  8
0
100
AcDbLine
 10
190.461
 20
130.9255
 30
0.0
 11
190.381
 21
131.01940000000002
 31
0.0
  0
LINE
  5
7B
330
404
100
AcDbEntity
  8
0
100
AcDbLine
 10
190.381
 20
131.01940000000002
 30
0.0
 11
190.301
 21
131.11270000000002
 31
0.0
  0
LINE
  5
7C
330
404
100
AcDbEntity
  8
0
100
AcDbLine
 10
190.301
 20
131.11270000000002
 30
0.0
 11
190.22
 21
131.2054
 31
0.0
  0
LINE
  5
7D
330
404
100
AcDbEntity
  8
0
100
AcDbLine
 10
190.22
 20
131.2054
 30
0.0
 11
190.14
 21
131.2976
 31
0.0
  0
LINE
  5
7E
330
404
100
AcDbEntity
  8
0
100
AcDbLine
 10
190.14
 20
131.2976
 30
0.0
 11
190.06
 21
131.38920000000002
 31
0.0
  0
LINE
  5
7F
330
404
100
AcDbEntity
  8
0
100
AcDbLine
 10
190.06
 20
131.38920000000002
 30
0.0
 11
189.98
 21
131.4802
 31
0.0
  0
LINE
  5
80
330
404
100
AcDbEntity
  8
0
100
AcDbLine
 10
189.98
 20
131.4802
 30
0.0
 11
189.9
 21
131.5707
 31
0.0
  0
LINE
  5
81
330
404
100
AcDbEntity
  8
0
100
AcDbLine
 10
189.9
 20
131.5707
 30
0.0
 11
189.82
 21
131.6606
 31
0.0
  0
LINE
  5
82
330
404
100
AcDbEntity
  8
0
100
AcDbLine
 10
189.82
 20
131.6606
 30
0.0
 11
189.739
 21
131.75
 31
0.0
  0
LINE
  5
83
330
404
100
AcDbEntity
  8
0
100
AcDbLine
 10
189.739
 20
131.75
 30
0.0
 11
189.659
 21
131.8389
 31
0.0
  0
LINE
  5
84
330
404
100
AcDbEntity
  8
0
100
AcDbLine
 10
189.659
 20
131.8389
 30
0.0
 11
189.579
 21
131.9272
 31
0.0
  0
LINE
  5
85
330
404
100
AcDbEntity
  8
0
100
AcDbLine
 10
189.579
 20
131.9272
 30
0.0
 11
189.499
 21
132.015
 31
0.0
  0
LINE
  5
86
330
404
100
AcDbEntity
  8
0
100
AcDbLine
 10
189.499
 20
132.015
 30
0.0
 11
189.419
 21
132.10219999999998
 31
0.0
  0
LINE
  5
87
330
404
100
AcDbEntity
  8
0
100
AcDbLine
 10
189.419
 20
132.10219999999998
 30
0.0
 11
189.339
 21
132.189
 31
0.0
  0
LINE
  5
88
330
404
100
AcDbEntity
  8
0
100
AcDbLine
 10
189.339
 20
132.189
 30
0.0
 11
189.259
 21
132.27519999999998
 31
0.0
  0
LINE
  5
89
330
404
100
AcDbEntity
  8
0
100
AcDbLine
 10
189.259
 20
132.27519999999998
 30
0.0
 11
189.178
 21
132.361
 31
0.0
  0
LINE
  5
8A
330
404
100
AcDbEntity
  8
0
100
AcDbLine
 10
189.178
 20
132.361
 30
0.0
 11
189.098
 21
132.4462
 31
0.0
  0
LINE
  5
8B
330
404
100
AcDbEntity
  8
0
100
AcDbLine
 10
189.098
 20
132.4462
 30
0.0
 11
189.018
 21
132.5309
 31
0.0
  0
LINE
  5
8C
330
404
100
AcDbEntity
  8
0
100
AcDbLine
 10
189.018
 20
132.5309
 30
0.0
 11
188.938
 21
132.61520000000002
 31
0.0
  0
LINE
  5
8D
330
404
100
AcDbEntity
  8
0
100
AcDbLine
 10
188.938
 20
132.61520000000002
 30
0.0
 11
188.858
 21
132.69889999999998
 31
0.0
  0
LINE
  5
8E
330
404
100
AcDbEntity
  8
0
100
AcDbLine
 10
188.858
 20
132.69889999999998
 30
0.0
 11
188.778
 21
132.7822
 31
0.0
  0
LINE
  5
8F
330
404
100
AcDbEntity
  8
0
100
AcDbLine
 10
188.778
 20
132.7822
 30
0.0
 11
188.697
 21
132.865
 31
0.0
  0
LINE
  5
90
330
404
100
AcDbEntity
  8
0
100
AcDbLine
 10
188.697
 20
132.865
 30
0.0
 11
188.617
 21
132.94729999999998
 31
0.0
  0
LINE
  5
91
330
404
100
AcDbEntity
  8
0
100
AcDbLine
 10
188.617
 20
132.94729999999998
 30
0.0
 11
188.537
 21
133.0292
 31
0.0
  0
LINE
  5
92
330
404
100
AcDbEntity
  8
0
100
AcDbLine
 10
188.537
 20
133.0292
 30
0.0
 11
188.457
 21
133.1106
 31
0.0
  0
LINE
  5
93
330
404
100
AcDbEntity
  8
0
100
AcDbLine
 10
188.457
 20
133.1106
 30
0.0
 11
188.377
 21
133.19150000000002
 31
0.0
  0
LINE
  5
94
330
404
100
AcDbEntity
  8
0
100
AcDbLine
 10
188.377
 20
133.19150000000002
 30
0.0
 11
188.297
 21
133.27190000000002
 31
0.0
  0
LINE
  5
95
330
404
100
AcDbEntity
  8
0
100
AcDbLine
 10
188.297
 20
133.27190000000002
 30
0.0
 11
188.216
 21
133.3519
 31
0.0
  0
LINE
  5
96
330
404
100
AcDbEntity
  8
0
100
AcDbLine
 10
188.216
 20
133.3519
 30
0.0
 11
188.136
 21
133.4315
 31
0.0
  0
LINE
  5
97
330
404
100
AcDbEntity
  8
0
100
AcDbLine
 10
188.136
 20
133.4315
 30
0.0
 11
188.056
 21
133.5106
 31
0.0
  0
LINE
  5
98
330
404
100
AcDbEntity
  8
0
100
AcDbLine
 10
188.056
 20
133.5106
 30
0.0
 11
187.976
 21
133.58929999999998
 31
0.0
  0
LINE
  5
99
330
404
100
AcDbEntity
  8
0
100
AcDbLine
 10
187.976
 20
133.58929999999998
 30
0.0
 11
187.896
 21
133.66750000000002
 31
0.0
  0
LINE
  5
9A
330
404
100
AcDbEntity
  8
0
100
AcDbLine
 10
187.896
 20
133.66750000000002
 30
0.0
 11
187.816
 21
133.7453
 31
0.0
  0
LINE
  5
9B
330
404
100
AcDbEntity
  8
0
100
AcDbLine
 10
187.816
 20
133.7453
 30
0.0
 11
187.735
 21
133.8226
 31
0.0
  0
LINE
  5
9C
330
404
100
AcDbEntity
  8
0
100
AcDbLine
 10
187.735
 20
133.8226
 30
0.0
 11
187.655
 21
133.8995
 31
0.0
  0
LINE
  5
9D
330
404
100
AcDbEntity
  8
0
100
AcDbLine
 10
187.655
 20
133.8995
 30
0.0
 11
187.575
 21
133.976
 31
0.0
  0
LINE
  5
9E
330
404
100
AcDbEntity
  8
0
100
AcDbLine
 10
187.575
 20
133.976
 30
0.0
 11
187.495
 21
134.0521
 31
0.0
  0
LINE
  5
9F
330
404
100
AcDbEntity
  8
0
100
AcDbLine
 10
187.495
 20
134.0521
 30
0.0
 11
187.415
 21
134.12779999999998
 31
0.0
  0
LINE
  5
A0
330
404
100
AcDbEntity
  8
0
100
AcDbLine
 10
187.415
 20
134.12779999999998
 30
0.0
 11
187.335
 21
134.203
 31
0.0
  0
LINE
  5
A1
330
404
100
AcDbEntity
  8
0
100
AcDbLine
 10
187.335
 20
134.203
 30
0.0
 11
187.255
 21
134.2778
 31
0.0
  0
LINE
  5
A2
330
404
100
AcDbEntity
  8
0
100
AcDbLine
 10
187.255
 20
134.2778
 30
0.0
 11
187.174
 21
134.35219999999998
 31
0.0
  0
LINE
  5
A3
330
404
100
AcDbEntity
  8
0
100
AcDbLine
 10
187.174
 20
134.35219999999998
 30
0.0
 11
187.094
 21
134.4263
 31
0.0
  0
LINE
  5
A4
330
404
100
AcDbEntity
  8
0
100
AcDbLine
 10
187.094
 20
134.4263
 30
0.0
 11
187.014
 21
134.4999
 31
0.0
  0
LINE
  5
A5
330
404
100
AcDbEntity
  8
0
100
AcDbLine
 10
187.014
 20
134.4999
 30
0.0
 11
186.934
 21
134.5731
 31
0.0
  0
LINE
  5
A6
330
404
100
AcDbEntity
  8
0
100
AcDbLine
 10
186.934
 20
134.5731
 30
0.0
 11
186.854
 21
134.64589999999998
 31
0.0
  0
LINE
  5
A7
330
404
100
AcDbEntity
  8
0
100
AcDbLine
 10
186.854
 20
134.64589999999998
 30
0.0
 11
186.774
 21
134.7183
 31
0.0
  0
LINE
  5
A8
330
404
100
AcDbEntity
  8
0
100
AcDbLine
 10
186.774
 20
134.7183
 30
0.0
 11
186.693
 21
134.7903
 31
0.0
  0
LINE
  5
A9
330
404
100
AcDbEntity
  8
0
100
AcDbLine
 10
186.693
 20
134.7903
 30
0.0
 11
186.613
 21
134.8619
 31
0.0
  0
LINE
  5
AA
330
404
100
AcDbEntity
  8
0
100
AcDbLine
 10
186.613
 20
134.8619
 30
0.0
 11
186.533
 21
134.9332
 31
0.0
  0
LINE
  5
AB
330
404
100
AcDbEntity
  8
0
100
AcDbLine
 10
186.533
 20
134.9332
 30
0.0
 11
186.453
 21
135.0041
 31
0.0
  0
LINE
  5
AC
330
404
100
AcDbEntity
  8
0
100
AcDbLine
 10
186.453
 20
135.0041
 30
0.0
 11
186.373
 21
135.0745
 31
0.0
  0
LINE
  5
AD
330
404
100
AcDbEntity
  8
0
100
AcDbLine
 10
186.373
 20
135.0745
 30
0.0
 11
186.293
 21
135.1446
 31
0.0
  0
LINE
  5
AE
330
404
100
AcDbEntity
  8
0
100
AcDbLine
 10
186.293
 20
135.1446
 30
0.0
 11
186.212
 21
135.2144
 31
0.0
  0
LINE
  5
AF
330
404
100
AcDbEntity
  8
0
100
AcDbLine
 10
186.212
 20
135.2144
 30
0.0
 11
186.132
 21
135.2837
 31
0.0
  0
LINE
  5
B0
330
404
100
AcDbEntity
  8
0
100
AcDbLine
 10
186.132
 20
135.2837
 30
0.0
 11
186.052
 21
135.3527
 31
0.0
  0
LINE
  5
B1
330
404
100
AcDbEntity
  8
0
100
AcDbLine
 10
186.052
 20
135.3527
 30
0.0
 11
185.972
 21
135.4213
 31
0.0
  0
LINE
  5
B2
330
404
100
AcDbEntity
  8
0
100
AcDbLine
 10
185.972
 20
135.4213
 30
0.0
 11
185.892
 21
135.4896
 31
0.0
  0
LINE
  5
B3
330
404
100
AcDbEntity
  8
0
100
AcDbLine
 10
185.892
 20
135.4896
 30
0.0
 11
185.812
 21
135.5575
 31
0.0
  0
LINE
  5
B4
330
404
100
AcDbEntity
  8
0
100
AcDbLine
 10
185.812
 20
135.5575
 30
0.0
 11
185.731
 21
135.625
 31
0.0
  0
LINE
  5
B5
330
404
100
AcDbEntity
  8
0
100
AcDbLine
 10
185.731
 20
135.625
 30
0.0
 11
185.651
 21
135.6922
 31
0.0
  0
LINE
  5
B6
330
404
100
AcDbEntity
  8
0
100
AcDbLine
 10
185.651
 20
135.6922
 30
0.0
 11
185.571
 21
135.75900000000001
 31
0.0
  0
LINE
  5
B7
330
404
100
AcDbEntity
  8
0
100
AcDbLine
 10
185.571
 20
135.75900000000001
 30
0.0
 11
185.491
 21
135.8255
 31
0.0
  0
LINE
  5
B8
330
404
100
AcDbEntity
  8
0
100
AcDbLine
 10
185.491
 20
135.8255
 30
0.0
 11
185.411
 21
135.89159999999998
 31
0.0
  0
LINE
  5
B9
330
404
100
AcDbEntity
  8
0
100
AcDbLine
 10
185.411
 20
135.89159999999998
 30
0.0
 11
185.331
 21
135.9573
 31
0.0
  0
LINE
  5
BA
330
404
100
AcDbEntity
  8
0
100
AcDbLine
 10
185.331
 20
135.9573
 30
0.0
 11
185.25
 21
136.02280000000002
 31
0.0
  0
LINE
  5
BB
330
404
100
AcDbEntity
  8
0
100
AcDbLine
 10
185.25
 20
136.02280000000002
 30
0.0
 11
185.17
 21
136.08780000000002
 31
0.0
  0
LINE
  5
BC
330
404
100
AcDbEntity
  8
0
100
AcDbLine
 10
185.17
 20
136.08780000000002
 30
0.0
 11
185.09
 21
136.1526
 31
0.0
  0
LINE
  5
BD
330
404
100
AcDbEntity
  8
0
100
AcDbLine
 10
185.09
 20
136.1526
 30
0.0
 11
185.01
 21
136.21699999999998
 31
0.0
  0
LINE
  5
BE
330
404
100
AcDbEntity
  8
0
100
AcDbLine
 10
185.01
 20
136.21699999999998
 30
0.0
 11
184.93
 21
136.281
 31
0.0
  0
LINE
  5
BF
330
404
100
AcDbEntity
  8
0
100
AcDbLine
 10
184.93
 20
136.281
 30
0.0
 11
184.85
 21
136.3447
 31
0.0
  0
LINE
  5
C0
330
404
100
AcDbEntity
  8
0
100
AcDbLine
 10
184.85
 20
136.3447
 30
0.0
 11
184.77
 21
136.4081
 31
0.0
  0
LINE
  5
C1
330
404
100
AcDbEntity
  8
0
100
AcDbLine
 10
184.77
 20
136.4081
 30
0.0
 11
184.689
 21
136.4712
 31
0.0
  0
LINE
  5
C2
330
404
100
AcDbEntity
  8
0
100
AcDbLine
 10
184.689
 20
136.4712
 30
0.0
 11
184.609
 21
136.53390000000002
 31
0.0
  0
LINE
  5
C3
330
404
100
AcDbEntity
  8
0
100
AcDbLine
 10
184.609
 20
136.53390000000002
 30
0.0
 11
184.529
 21
136.59629999999999
 31
0.0
  0
LINE
  5
C4
330
404
100
AcDbEntity
  8
0
100
AcDbLine
 10
184.529
 20
136.59629999999999
 30
0.0
 11
184.449
 21
136.6583
 31
0.0
  0
LINE
  5
C5
330
404
100
AcDbEntity
  8
0
100
AcDbLine
 10
184.449
 20
136.6583
 30
0.0
 11
184.369
 21
136.7201
 31
0.0
  0
LINE
  5
C6
330
404
100
AcDbEntity
  8
0
100
AcDbLine
 10
184.369
 20
136.7201
 30
0.0
 11
184.289
 21
136.7815
 31
0.0
  0
LINE
  5
C7
330
404
100
AcDbEntity
  8
0
100
AcDbLine
 10
184.289
 20
136.7815
 30
0.0
 11
184.208
 21
136.8426
 31
0.0
  0
LINE
  5
C8
330
404
100
AcDbEntity
  8
0
100
AcDbLine
 10
184.208
 20
136.8426
 30
0.0
 11
184.128
 21
136.9034
 31
0.0
  0
LINE
  5
C9
330
404
100
AcDbEntity
  8
0
100
AcDbLine
 10
184.128
 20
136.9034
 30
0.0
 11
184.048
 21
136.9639
 31
0.0
  0
LINE
  5
CA
330
404
100
AcDbEntity
  8
0
100
AcDbLine
 10
184.048
 20
136.9639
 30
0.0
 11
183.968
 21
137.024
 31
0.0
  0
LINE
  5
CB
330
404
100
AcDbEntity
  8
0
100
AcDbLine
 10
183.968
 20
137.024
 30
0.0
 11
183.888
 21
137.0838
 31
0.0
  0
LINE
  5
CC
330
404
100
AcDbEntity
  8
0
100
AcDbLine
 10
183.888
 20
137.0838
 30
0.0
 11
183.808
 21
137.14339999999999
 31
0.0
  0
LINE
  5
CD
330
404
100
AcDbEntity
  8
0
100
AcDbLine
 10
183.808
 20
137.14339999999999
 30
0.0
 11
183.727
 21
137.20260000000002
 31
0.0
  0
LINE
  5
CE
330
404
100
AcDbEntity
  8
0
100
AcDbLine
 10
183.727
 20
137.20260000000002
 30
0.0
 11
183.647
 21
137.2615
 31
0.0
  0
LINE
  5
CF
330
404
100
AcDbEntity
  8
0
100
AcDbLine
 10
183.647
 20
137.2615
 30
0.0
 11
183.567
 21
137.3201
 31
0.0
  0
LINE
  5
D0
330
404
100
AcDbEntity
  8
0
100
AcDbLine
 10
183.567
 20
137.3201
 30
0.0
 11
183.487
 21
137.3784
 31
0.0
  0
LINE
  5
D1
330
404
100
AcDbEntity
  8
0
100
AcDbLine
 10
183.487
 20
137.3784
 30
0.0
 11
183.407
 21
137.4364
 31
0.0
  0
LINE
  5
D2
330
404
100
AcDbEntity
  8
0
100
AcDbLine
 10
183.407
 20
137.4364
 30
0.0
 11
183.327
 21
137.4941
 31
0.0
  0
LINE
  5
D3
330
404
100
AcDbEntity
  8
0
100
AcDbLine
 10
183.327
 20
137.4941
 30
0.0
 11
183.246
 21
137.5515
 31
0.0
  0
LINE
  5
D4
330
404
100
AcDbEntity
  8
0
100
AcDbLine
 10
183.246
 20
137.5515
 30
0.0
 11
183.166
 21
137.6086
 31
0.0
  0
LINE
  5
D5
330
404
100
AcDbEntity
  8
0
100
AcDbLine
 10
183.166
 20
137.6086
 30
0.0
 11
183.086
 21
137.6654
 31
0.0
  0
LINE
  5
D6
330
404
100
AcDbEntity
  8
0
100
AcDbLine
 10
183.086
 20
137.6654
 30
0.0
 11
183.006
 21
137.7219
 31
0.0
  0
LINE
  5
D7
330
404
100
AcDbEntity
  8
0
100
AcDbLine
 10
183.006
 20
137.7219
 30
0.0
 11
182.926
 21
137.7781
 31
0.0
  0
LINE
  5
D8
330
404
100
AcDbEntity
  8
0
100
AcDbLine
 10
182.926
 20
137.7781
 30
0.0
 11
182.846
 21
137.834
 31
0.0
  0
LINE
  5
D9
330
404
100
AcDbEntity
  8
0
100
AcDbLine
 10
182.846
 20
137.834
 30
0.0
 11
182.766
 21
137.8897
 31
0.0
  0
LINE
  5
DA
330
404
100
AcDbEntity
  8
0
100
AcDbLine
 10
182.766
 20
137.8897
 30
0.0
 11
182.685
 21
137.945
 31
0.0
  0
LINE
  5
DB
330
404
100
AcDbEntity
  8
0
100
AcDbLine
 10
182.685
 20
137.945
 30
0.0
 11
182.605
 21
138.0001
 31
0.0
  0
LINE
  5
DC
330
404
100
AcDbEntity
  8
0
100
AcDbLine
 10
182.605
 20
138.0001
 30
0.0
 11
182.525
 21
138.0548
 31
0.0
  0
LINE
  5
DD
330
404
100
AcDbEntity
  8
0
100
AcDbLine
 10
182.525
 20
138.0548
 30
0.0
 11
182.445
 21
138.10930000000002
 31
0.0
  0
LINE
  5
DE
330
404
100
AcDbEntity
  8
0
100
AcDbLine
 10
182.445
 20
138.10930000000002
 30
0.0
 11
182.365
 21
138.1635
 31
0.0
  0
LINE
  5
DF
330
404
100
AcDbEntity
  8
0
100
AcDbLine
 10
182.365
 20
138.1635
 30
0.0
 11
182.285
 21
138.2174
 31
0.0
  0
LINE
  5
E0
330
404
100
AcDbEntity
  8
0
100
AcDbLine
 10
182.285
 20
138.2174
 30
0.0
 11
182.204
 21
138.2711
 31
0.0
  0
LINE
  5
E1
330
404
100
AcDbEntity
  8
0
100
AcDbLine
 10
182.204
 20
138.2711
 30
0.0
 11
182.124
 21
138.3244
 31
0.0
  0
LINE
  5
E2
330
404
100
AcDbEntity
  8
0
100
AcDbLine
 10
182.124
 20
138.3244
 30
0.0
 11
182.044
 21
138.3775
 31
0.0
  0
LINE
  5
E3
330
404
100
AcDbEntity
  8
0
100
AcDbLine
 10
182.044
 20
138.3775
 30
0.0
 11
181.964
 21
138.4303
 31
0.0
  0
LINE
  5
E4
330
404
100
AcDbEntity
  8
0
100
AcDbLine
 10
181.964
 20
138.4303
 30
0.0
 11
181.884
 21
138.4828
 31
0.0
  0
LINE
  5
E5
330
404
100
AcDbEntity
  8
0
100
AcDbLine
 10
181.884
 20
138.4828
 30
0.0
 11
181.804
 21
138.5351
 31
0.0
  0
LINE
  5
E6
330
404
100
AcDbEntity
  8
0
100
AcDbLine
 10
181.804
 20
138.5351
 30
0.0
 11
181.723
 21
138.58710000000002
 31
0.0
  0
LINE
  5
E7
330
404
100
AcDbEntity
  8
0
100
AcDbLine
 10
181.723
 20
138.58710000000002
 30
0.0
 11
181.643
 21
138.6388
 31
0.0
  0
LINE
  5
E8
330
404
100
AcDbEntity
  8
0
100
AcDbLine
 10
181.643
 20
138.6388
 30
0.0
 11
181.563
 21
138.6902
 31
0.0
  0
LINE
  5
E9
330
404
100
AcDbEntity
  8
0
100
AcDbLine
 10
181.563
 20
138.6902
 30
0.0
 11
181.483
 21
138.7414
 31
0.0
  0
LINE
  5
EA
330
404
100
AcDbEntity
  8
0
100
AcDbLine
 10
181.483
 20
138.7414
 30
0.0
 11
181.403
 21
138.7923
 31
0.0
  0
LINE
  5
EB
330
404
100
AcDbEntity
  8
0
100
AcDbLine
 10
181.403
 20
138.7923
 30
0.0
 11
181.323
 21
138.8429
 31
0.0
  0
LINE
  5
EC
330
404
100
AcDbEntity
  8
0
100
AcDbLine
 10
181.323
 20
138.8429
 30
0.0
 11
181.242
 21
138.8933
 31
0.0
  0
LINE
  5
ED
330
404
100
AcDbEntity
  8
0
100
AcDbLine
 10
181.242
 20
138.8933
 30
0.0
 11
181.162
 21
138.9434
 31
0.0
  0
LINE
  5
EE
330
404
100
AcDbEntity
  8
0
100
AcDbLine
 10
181.162
 20
138.9434
 30
0.0
 11
181.082
 21
138.9933
 31
0.0
  0
LINE
  5
EF
330
404
100
AcDbEntity
  8
0
100
AcDbLine
 10
181.082
 20
138.9933
 30
0.0
 11
181.002
 21
139.0428
 31
0.0
  0
LINE
  5
F0
330
404
100
AcDbEntity
  8
0
100
AcDbLine
 10
181.002
 20
139.0428
 30
0.0
 11
180.922
 21
139.0922
 31
0.0
  0
LINE
  5
F1
330
404
100
AcDbEntity
  8
0
100
AcDbLine
 10
180.922
 20
139.0922
 30
0.0
 11
180.842
 21
139.1412
 31
0.0
  0
LINE
  5
F2
330
404
100
AcDbEntity
  8
0
100
AcDbLine
 10
180.842
 20
139.1412
 30
0.0
 11
180.762
 21
139.19
 31
0.0
  0
LINE
  5
F3
330
404
100
AcDbEntity
  8
0
100
AcDbLine
 10
180.762
 20
139.19
 30
0.0
 11
180.681
 21
139.23860000000002
 31
0.0
  0
LINE
  5
F4
330
404
100
AcDbEntity
  8
0
100
AcDbLine
 10
180.681
 20
139.23860000000002
 30
0.0
 11
180.601
 21
139.2869
 31
0.0
  0
LINE
  5
F5
330
404
100
AcDbEntity
  8
0
100
AcDbLine
 10
180.601
 20
139.2869
 30
0.0
 11
180.521
 21
139.3349
 31
0.0
  0
LINE
  5
F6
330
404
100
AcDbEntity
  8
0
100
AcDbLine
 10
180.521
 20
139.3349
 30
0.0
 11
180.441
 21
139.3827
 31
0.0
  0
LINE
  5
F7
330
404
100
AcDbEntity
  8
0
100
AcDbLine
 10
180.441
 20
139.3827
 30
0.0
 11
180.361
 21
139.4302
 31
0.0
  0
LINE
  5
F8
330
404
100
AcDbEntity
  8
0
100
AcDbLine
 10
180.361
 20
139.4302
 30
0.0
 11
180.281
 21
139.47750000000002
 31
0.0
  0
LINE
  5
F9
330
404
100
AcDbEntity
  8
0
100
AcDbLine
 10
180.281
 20
139.47750000000002
 30
0.0
 11
180.2
 21
139.5245
 31
0.0
  0
LINE
  5
FA
330
404
100
AcDbEntity
  8
0
100
AcDbLine
 10
180.2
 20
139.5245
 30
0.0
 11
180.12
 21
139.5713
 31
0.0
  0
LINE
  5
FB
330
404
100
AcDbEntity
  8
0
100
AcDbLine
 10
180.12
 20
139.5713
 30
0.0
 11
180.04
 21
139.6178
 31
0.0
  0
LINE
  5
FC
330
404
100
AcDbEntity
  8
0
100
AcDbLine
 10
180.04
 20
139.6178
 30
0.0
 11
179.96
 21
139.66410000000002
 31
0.0
  0
LINE
  5
FD
330
404
100
AcDbEntity
  8
0
100
AcDbLine
 10
179.96
 20
139.66410000000002
 30
0.0
 11
179.88
 21
139.7102
 31
0.0
  0
LINE
  5
FE
330
404
100
AcDbEntity
  8
0
100
AcDbLine
 10
179.88
 20
139.7102
 30
0.0
 11
179.8
 21
139.7559
 31
0.0
  0
LINE
  5
FF
330
404
100
AcDbEntity
  8
0
100
AcDbLine
 10
179.8
 20
139.7559
 30
0.0
 11
179.719
 21
139.8015
 31
0.0
  0
LINE
  5
100
330
404
100
AcDbEntity
  8
0
100
AcDbLine
 10
179.719
 20
139.8015
 30
0.0
 11
179.639
 21
139.8468
 31
0.0
  0
LINE
  5
101
330
404
100
AcDbEntity
  8
0
100
AcDbLine
 10
179.639
 20
139.8468
 30
0.0
 11
179.559
 21
139.8918
 31
0.0
  0
LINE
  5
102
330
404
100
AcDbEntity
  8
0
100
AcDbLine
 10
179.559
 20
139.8918
 30
0.0
 11
179.479
 21
139.9366
 31
0.0
  0
LINE
  5
103
330
404
100
AcDbEntity
  8
0
100
AcDbLine
 10
179.479
 20
139.9366
 30
0.0
 11
179.399
 21
139.9812
 31
0.0
  0
LINE
  5
104
330
404
100
AcDbEntity
  8
0
100
AcDbLine
 10
179.399
 20
139.9812
 30
0.0
 11
179.319
 21
140.0256
 31
0.0
  0
LINE
  5
105
330
404
100
AcDbEntity
  8
0
100
AcDbLine
 10
179.319
 20
140.0256
 30
0.0
 11
179.238
 21
140.0697
 31
0.0
  0
LINE
  5
106
330
404
100
AcDbEntity
  8
0
100
AcDbLine
 10
179.238
 20
140.0697
 30
0.0
 11
179.158
 21
140.1135
 31
0.0
  0
LINE
  5
107
330
404
100
AcDbEntity
  8
0
100
AcDbLine
 10
179.158
 20
140.1135
 30
0.0
 11
179.078
 21
140.1571
 31
0.0
  0
LINE
  5
108
330
404
100
AcDbEntity
  8
0
100
AcDbLine
 10
179.078
 20
140.1571
 30
0.0
 11
178.998
 21
140.2005
 31
0.0
  0
LINE
  5
109
330
404
100
AcDbEntity
  8
0
100
AcDbLine
 10
178.998
 20
140.2005
 30
0.0
 11
178.918
 21
140.2437
 31
0.0
  0
LINE
  5
10A
330
404
100
AcDbEntity
  8
0
100
AcDbLine
 10
178.918
 20
140.2437
 30
0.0
 11
178.838
 21
140.28660000000002
 31
0.0
  0
LINE
  5
10B
330
404
100
AcDbEntity
  8
0
100
AcDbLine
 10
178.838
 20
140.28660000000002
 30
0.0
 11
178.758
 21
140.32920000000001
 31
0.0
  0
LINE
  5
10C
330
404
100
AcDbEntity
  8
0
100
AcDbLine
 10
178.758
 20
140.32920000000001
 30
0.0
 11
178.677
 21
140.3717
 31
0.0
  0
LINE
  5
10D
330
404
100
AcDbEntity
  8
0
100
AcDbLine
 10
178.677
 20
140.3717
 30
0.0
 11
178.597
 21
140.4139
 31
0.0
  0
LINE
  5
10E
330
404
100
AcDbEntity
  8
0
100
AcDbLine
 10
178.597
 20
140.4139
 30
0.0
 11
178.517
 21
140.45589999999999
 31
0.0
  0
LINE
  5
10F
330
404
100
AcDbEntity
  8
0
100
AcDbLine
 10
178.517
 20
140.45589999999999
 30
0.0
 11
178.437
 21
140.4976
 31
0.0
  0
LINE
  5
110
330
404
100
AcDbEntity
  8
0
100
AcDbLine
 10
178.437
 20
140.4976
 30
0.0
 11
178.357
 21
140.53910000000002
 31
0.0
  0
LINE
  5
111
330
404
100
AcDbEntity
  8
0
100
AcDbLine
 10
178.357
 20
140.53910000000002
 30
0.0
 11
178.277
 21
140.5804
 31
0.0
  0
LINE
  5
112
330
404
100
AcDbEntity
  8
0
100
AcDbLine
 10
178.277
 20
140.5804
 30
0.0
 11
178.196
 21
140.6215
 31
0.0
  0
LINE
  5
113
330
404
100
AcDbEntity
  8
0
100
AcDbLine
 10
178.196
 20
140.6215
 30
0.0
 11
178.116
 21
140.66230000000002
 31
0.0
  0
LINE
  5
114
330
404
100
AcDbEntity
  8
0
100
AcDbLine
 10
178.116
 20
140.66230000000002
 30
0.0
 11
178.036
 21
140.7029
 31
0.0
  0
LINE
  5
115
330
404
100
AcDbEntity
  8
0
100
AcDbLine
 10
178.036
 20
140.7029
 30
0.0
 11
177.95600000000002
 21
140.7433
 31
0.0
  0
LINE
  5
116
330
404
100
AcDbEntity
  8
0
100
AcDbLine
 10
177.95600000000002
 20
140.7433
 30
0.0
 11
177.876
 21
140.7835
 31
0.0
  0
LINE
  5
117
330
404
100
AcDbEntity
  8
0
100
AcDbLine
 10
177.876
 20
140.7835
 30
0.0
 11
177.796
 21
140.8234
 31
0.0
  0
LINE
  5
118
330
404
100
AcDbEntity
  8
0
100
AcDbLine
 10
177.796
 20
140.8234
 30
0.0
 11
177.715
 21
140.8631
 31
0.0
  0
LINE
  5
119
330
404
100
AcDbEntity
  8
0
100
AcDbLine
 10
177.715
 20
140.8631
 30
0.0
 11
177.635
 21
140.9026
 31
0.0
  0
LINE
  5
11A
330
404
100
AcDbEntity
  8
0
100
AcDbLine
 10
177.635
 20
140.9026
 30
0.0
 11
177.555
 21
140.9419
 31
0.0
  0
LINE
  5
11B
330
404
100
AcDbEntity
  8
0
100
AcDbLine
 10
177.555
 20
140.9419
 30
0.0
 11
177.475
 21
140.98090000000002
 31
0.0
  0
LINE
  5
11C
330
404
100
AcDbEntity
  8
0
100
AcDbLine
 10
177.475
 20
140.98090000000002
 30
0.0
 11
177.39499999999998
 21
141.0197
 31
0.0
  0
LINE
  5
11D
330
404
100
AcDbEntity
  8
0
100
AcDbLine
 10
177.39499999999998
 20
141.0197
 30
0.0
 11
177.315
 21
141.0583
 31
0.0
  0
LINE
  5
11E
330
404
100
AcDbEntity
  8
0
100
AcDbLine
 10
177.315
 20
141.0583
 30
0.0
 11
177.23399999999998
 21
141.0967
 31
0.0
  0
LINE
  5
11F
330
404
100
AcDbEntity
  8
0
100
AcDbLine
 10
177.23399999999998
 20
141.0967
 30
0.0
 11
177.154
 21
141.13490000000002
 31
0.0
  0
LINE
  5
120
330
404
100
AcDbEntity
  8
0
100
AcDbLine
 10
177.154
 20
141.13490000000002
 30
0.0
 11
177.074
 21
141.1728
 31
0.0
  0
LINE
  5
121
330
404
100
AcDbEntity
  8
0
100
AcDbLine
 10
177.074
 20
141.1728
 30
0.0
 11
176.994
 21
141.2106
 31
0.0
  0
LINE
  5
122
330
404
100
AcDbEntity
  8
0
100
AcDbLine
 10
176.994
 20
141.2106
 30
0.0
 11
176.914
 21
141.2481
 31
0.0
  0
LINE
  5
123
330
404
100
AcDbEntity
  8
0
100
AcDbLine
 10
176.914
 20
141.2481
 30
0.0
 11
176.834
 21
141.28539999999998
 31
0.0
  0
LINE
  5
124
330
404
100
AcDbEntity
  8
0
100
AcDbLine
 10
176.834
 20
141.28539999999998
 30
0.0
 11
176.753
 21
141.32240000000002
 31
0.0
  0
LINE
  5
125
330
404
100
AcDbEntity
  8
0
100
AcDbLine
 10
176.753
 20
141.32240000000002
 30
0.0
 11
176.673
 21
141.35930000000002
 31
0.0
  0
LINE
  5
126
330
404
100
AcDbEntity
  8
0
100
AcDbLine
 10
176.673
 20
141.35930000000002
 30
0.0
 11
176.59300000000002
 21
141.39600000000002
 31
0.0
  0
LINE
  5
127
330
404
100
AcDbEntity
  8
0
100
AcDbLine
 10
176.59300000000002
 20
141.39600000000002
 30
0.0
 11
176.513
 21
141.4324
 31
0.0
  0
LINE
  5
128
330
404
100
AcDbEntity
  8
0
100
AcDbLine
 10
176.513
 20
141.4324
 30
0.0
 11
176.433
 21
141.46859999999998
 31
0.0
  0
LINE
  5
129
330
404
100
AcDbEntity
  8
0
100
AcDbLine
 10
176.433
 20
141.46859999999998
 30
0.0
 11
176.353
 21
141.50459999999998
 31
0.0
  0
LINE
  5
12A
330
404
100
AcDbEntity
  8
0
100
AcDbLine
 10
176.353
 20
141.50459999999998
 30
0.0
 11
176.273
 21
141.5404
 31
0.0
  0
LINE
  5
12B
330
404
100
AcDbEntity
  8
0
100
AcDbLine
 10
176.273
 20
141.5404
 30
0.0
 11
176.192
 21
141.576
 31
0.0
  0
LINE
  5
12C
330
404
100
AcDbEntity
  8
0
100
AcDbLine
 10
176.192
 20
141.576
 30
0.0
 11
176.112
 21
141.6114
 31
0.0
  0
LINE
  5
12D
330
404
100
AcDbEntity
  8
0
100
AcDbLine
 10
176.112
 20
141.6114
 30
0.0
 11
176.03199999999998
 21
141.6466
 31
0.0
  0
LINE
  5
12E
330
404
100
AcDbEntity
  8
0
100
AcDbLine
 10
176.03199999999998
 20
141.6466
 30
0.0
 11
175.952
 21
141.6815
 31
0.0
  0
LINE
  5
12F
330
404
100
AcDbEntity
  8
0
100
AcDbLine
 10
175.952
 20
141.6815
 30
0.0
 11
175.872
 21
141.7163
 31
0.0
  0
LINE
  5
130
330
404
100
AcDbEntity
  8
0
100
AcDbLine
 10
175.872
 20
141.7163
 30
0.0
 11
175.792
 21
141.7509
 31
0.0
  0
LINE
  5
131
330
404
100
AcDbEntity
  8
0
100
AcDbLine
 10
175.792
 20
141.7509
 30
0.0
 11
175.711
 21
141.7852
 31
0.0
  0
LINE
  5
132
330
404
100
AcDbEntity
  8
0
100
AcDbLine
 10
175.711
 20
141.7852
 30
0.0
 11
175.631
 21
141.8193
 31
0.0
  0
LINE
  5
133
330
404
100
AcDbEntity
  8
0
100
AcDbLine
 10
175.631
 20
141.8193
 30
0.0
 11
175.551
 21
141.8533
 31
0.0
  0
LINE
  5
134
330
404
100
AcDbEntity
  8
0
100
AcDbLine
 10
175.551
 20
141.8533
 30
0.0
 11
175.471
 21
141.887
 31
0.0
  0
LINE
  5
135
330
404
100
AcDbEntity
  8
0
100
AcDbLine
 10
175.471
 20
141.887
 30
0.0
 11
175.39100000000002
 21
141.9205
 31
0.0
  0
LINE
  5
136
330
404
100
AcDbEntity
  8
0
100
AcDbLine
 10
175.39100000000002
 20
141.9205
 30
0.0
 11
175.311
 21
141.9538
 31
0.0
  0
LINE
  5
137
330
404
100
AcDbEntity
  8
0
100
AcDbLine
 10
175.311
 20
141.9538
 30
0.0
 11
175.23000000000002
 21
141.9869
 31
0.0
  0
LINE
  5
138
330
404
100
AcDbEntity
  8
0
100
AcDbLine
 10
175.23000000000002
 20
141.9869
 30
0.0
 11
175.15
 21
142.0198
 31
0.0
  0
LINE
  5
139
330
404
100
AcDbEntity
  8
0
100
AcDbLine
 10
175.15
 20
142.0198
 30
0.0
 11
175.07
 21
142.0525
 31
0.0
  0
LINE
  5
13A
330
404
100
AcDbEntity
  8
0
100
AcDbLine
 10
175.07
 20
142.0525
 30
0.0
 11
174.99
 21
142.08499999999998
 31
0.0
  0
LINE
  5
13B
330
404
100
AcDbEntity
  8
0
100
AcDbLine
 10
174.99
 20
142.08499999999998
 30
0.0
 11
174.91
 21
142.1173
 31
0.0
  0
LINE
  5
13C
330
404
100
AcDbEntity
  8
0
100
AcDbLine
 10
174.91
 20
142.1173
 30
0.0
 11
174.82999999999998
 21
142.1494
 31
0.0
  0
LINE
  5
13D
330
404
100
AcDbEntity
  8
0
100
AcDbLine
 10
174.82999999999998
 20
142.1494
 30
0.0
 11
174.749
 21
142.1813
 31
0.0
  0
LINE
  5
13E
330
404
100
AcDbEntity
  8
0
100
AcDbLine
 10
174.749
 20
142.1813
 30
0.0
 11
174.66899999999998
 21
142.213
 31
0.0
  0
LINE
  5
13F
330
404
100
AcDbEntity
  8
0
100
AcDbLine
 10
174.66899999999998
 20
142.213
 30
0.0
 11
174.589
 21
142.24450000000002
 31
0.0
  0
LINE
  5
140
330
404
100
AcDbEntity
  8
0
100
AcDbLine
 10
174.589
 20
142.24450000000002
 30
0.0
 11
174.50900000000001
 21
142.2758
 31
0.0
  0
LINE
  5
141
330
404
100
AcDbEntity
  8
0
100
AcDbLine
 10
174.50900000000001
 20
142.2758
 30
0.0
 11
174.429
 21
142.30689999999998
 31
0.0
  0
LINE
  5
142
330
404
100
AcDbEntity
  8
0
100
AcDbLine
 10
174.429
 20
142.30689999999998
 30
0.0
 11
174.349
 21
142.33780000000002
 31
0.0
  0
LINE
  5
143
330
404
100
AcDbEntity
  8
0
100
AcDbLine
 10
174.349
 20
142.33780000000002
 30
0.0
 11
174.269
 21
142.36849999999998
 31
0.0
  0
LINE
  5
144
330
404
100
AcDbEntity
  8
0
100
AcDbLine
 10
174.269
 20
142.36849999999998
 30
0.0
 11
174.188
 21
142.3991
 31
0.0
  0
LINE
  5
145
330
404
100
AcDbEntity
  8
0
100
AcDbLine
 10
174.188
 20
142.3991
 30
0.0
 11
174.108
 21
142.4294
 31
0.0
  0
LINE
  5
146
330
404
100
AcDbEntity
  8
0
100
AcDbLine
 10
174.108
 20
142.4294
 30
0.0
 11
174.02800000000002
 21
142.4595
 31
0.0
  0
LINE
  5
147
330
404
100
AcDbEntity
  8
0
100
AcDbLine
 10
174.02800000000002
 20
142.4595
 30
0.0
 11
173.94799999999998
 21
142.4894
 31
0.0
  0
LINE
  5
148
330
404
100
AcDbEntity
  8
0
100
AcDbLine
 10
173.94799999999998
 20
142.4894
 30
0.0
 11
173.868
 21
142.51909999999998
 31
0.0
  0
LINE
  5
149
330
404
100
AcDbEntity
  8
0
100
AcDbLine
 10
173.868
 20
142.51909999999998
 30
0.0
 11
173.788
 21
142.5487
 31
0.0
  0
LINE
  5
14A
330
404
100
AcDbEntity
  8
0
100
AcDbLine
 10
173.788
 20
142.5487
 30
0.0
 11
173.707
 21
142.578
 31
0.0
  0
LINE
  5
14B
330
404
100
AcDbEntity
  8
0
100
AcDbLine
 10
173.707
 20
142.578
 30
0.0
 11
173.627
 21
142.6071
 31
0.0
  0
LINE
  5
14C
330
404
100
AcDbEntity
  8
0
100
AcDbLine
 10
173.627
 20
142.6071
 30
0.0
 11
173.547
 21
142.6361
 31
0.0
  0
LINE
  5
14D
330
404
100
AcDbEntity
  8
0
100
AcDbLine
 10
173.547
 20
142.6361
 30
0.0
 11
173.46699999999998
 21
142.6649
 31
0.0
  0
LINE
  5
14E
330
404
100
AcDbEntity
  8
0
100
AcDbLine
 10
173.46699999999998
 20
142.6649
 30
0.0
 11
173.387
 21
142.6934
 31
0.0
  0
LINE
  5
14F
330
404
100
AcDbEntity
  8
0
100
AcDbLine
 10
173.387
 20
142.6934
 30
0.0
 11
173.30700000000002
 21
142.7218
 31
0.0
  0
LINE
  5
150
330
404
100
AcDbEntity
  8
0
100
AcDbLine
 10
173.30700000000002
 20
142.7218
 30
0.0
 11
173.226
 21
142.75
 31
0.0
  0
LINE
  5
151
330
404
100
AcDbEntity
  8
0
100
AcDbLine
 10
173.226
 20
142.75
 30
0.0
 11
173.14600000000002
 21
142.77800000000002
 31
0.0
  0
LINE
  5
152
330
404
100
AcDbEntity
  8
0
100
AcDbLine
 10
173.14600000000002
 20
142.77800000000002
 30
0.0
 11
173.066
 21
142.8058
 31
0.0
  0
LINE
  5
153
330
404
100
AcDbEntity
  8
0
100
AcDbLine
 10
173.066
 20
142.8058
 30
0.0
 11
172.986
 21
142.83339999999998
 31
0.0
  0
LINE
  5
154
330
404
100
AcDbEntity
  8
0
100
AcDbLine
 10
172.986
 20
142.83339999999998
 30
0.0
 11
172.906
 21
142.86079999999998
 31
0.0
  0
LINE
  5
155
330
404
100
AcDbEntity
  8
0
100
AcDbLine
 10
172.906
 20
142.86079999999998
 30
0.0
 11
172.826
 21
142.888
 31
0.0
  0
LINE
  5
156
330
404
100
AcDbEntity
  8
0
100
AcDbLine
 10
172.826
 20
142.888
 30
0.0
 11
172.745
 21
142.9151
 31
0.0
  0
LINE
  5
157
330
404
100
AcDbEntity
  8
0
100
AcDbLine
 10
172.745
 20
142.9151
 30
0.0
 11
172.66500000000002
 21
142.9419
 31
0.0
  0
LINE
  5
158
330
404
100
AcDbEntity
  8
0
100
AcDbLine
 10
172.66500000000002
 20
142.9419
 30
0.0
 11
172.58499999999998
 21
142.96859999999998
 31
0.0
  0
LINE
  5
159
330
404
100
AcDbEntity
  8
0
100
AcDbLine
 10
172.58499999999998
 20
142.96859999999998
 30
0.0
 11
172.505
 21
142.99509999999998
 31
0.0
  0
LINE
  5
15A
330
404
100
AcDbEntity
  8
0
100
AcDbLine
 10
172.505
 20
142.99509999999998
 30
0.0
 11
172.425
 21
143.0213
 31
0.0
  0
LINE
  5
15B
330
404
100
AcDbEntity
  8
0
100
AcDbLine
 10
172.425
 20
143.0213
 30
0.0
 11
172.345
 21
143.04739999999998
 31
0.0
  0
LINE
  5
15C
330
404
100
AcDbEntity
  8
0
100
AcDbLine
 10
172.345
 20
143.04739999999998
 30
0.0
 11
172.265
 21
143.0734
 31
0.0
  0
LINE
  5
15D
330
404
100
AcDbEntity
  8
0
100
AcDbLine
 10
172.265
 20
143.0734
 30
0.0
 11
172.184
 21
143.09910000000002
 31
0.0
  0
LINE
  5
15E
330
404
100
AcDbEntity
  8
0
100
AcDbLine
 10
172.184
 20
143.09910000000002
 30
0.0
 11
172.10399999999998
 21
143.1246
 31
0.0
  0
LINE
  5
15F
330
404
100
AcDbEntity
  8
0
100
AcDbLine
 10
172.10399999999998
 20
143.1246
 30
0.0
 11
172.024
 21
143.15
 31
0.0
  0
LINE
  5
160
330
404
100
AcDbEntity
  8
0
100
AcDbLine
 10
172.024
 20
143.15
 30
0.0
 11
171.94400000000002
 21
143.17520000000002
 31
0.0
  0
LINE
  5
161
330
404
100
AcDbEntity
  8
0
100
AcDbLine
 10
171.94400000000002
 20
143.17520000000002
 30
0.0
 11
171.864
 21
143.20010000000002
 31
0.0
  0
LINE
  5
162
330
404
100
AcDbEntity
  8
0
100
AcDbLine
 10
171.864
 20
143.20010000000002
 30
0.0
 11
171.784
 21
143.2249
 31
0.0
  0
LINE
  5
163
330
404
100
AcDbEntity
  8
0
100
AcDbLine
 10
171.784
 20
143.2249
 30
0.0
 11
171.703
 21
143.2496
 31
0.0
  0
LINE
  5
164
330
404
100
AcDbEntity
  8
0
100
AcDbLine
 10
171.703
 20
143.2496
 30
0.0
 11
171.623
 21
143.274
 31
0.0
  0
LINE
  5
165
330
404
100
AcDbEntity
  8
0
100
AcDbLine
 10
171.623
 20
143.274
 30
0.0
 11
171.543
 21
143.29829999999998
 31
0.0
  0
LINE
  5
166
330
404
100
AcDbEntity
  8
0
100
AcDbLine
 10
171.543
 20
143.29829999999998
 30
0.0
 11
171.463
 21
143.32229999999998
 31
0.0
  0
LINE
  5
167
330
404
100
AcDbEntity
  8
0
100
AcDbLine
 10
171.463
 20
143.32229999999998
 30
0.0
 11
171.38299999999998
 21
143.3462
 31
0.0
  0
LINE
  5
168
330
404
100
AcDbEntity
  8
0
100
AcDbLine
 10
171.38299999999998
 20
143.3462
 30
0.0
 11
171.303
 21
143.3699
 31
0.0
  0
LINE
  5
169
330
404
100
AcDbEntity
  8
0
100
AcDbLine
 10
171.303
 20
143.3699
 30
0.0
 11
171.22199999999998
 21
143.39339999999999
 31
0.0
  0
LINE
  5
16A
330
404
100
AcDbEntity
  8
0
100
AcDbLine
 10
171.22199999999998
 20
143.39339999999999
 30
0.0
 11
171.142
 21
143.4168
 31
0.0
  0
LINE
  5
16B
330
404
100
AcDbEntity
  8
0
100
AcDbLine
 10
171.142
 20
143.4168
 30
0.0
 11
171.062
 21
143.4399
 31
0.0
  0
LINE
  5
16C
330
404
100
AcDbEntity
  8
0
100
AcDbLine
 10
171.062
 20
143.4399
 30
0.0
 11
170.982
 21
143.4629
 31
0.0
  0
LINE
  5
16D
330
404
100
AcDbEntity
  8
0
100
AcDbLine
 10
170.982
 20
143.4629
 30
0.0
 11
170.902
 21
143.4857
 31
0.0
  0
LINE
  5
16E
330
404
100
AcDbEntity
  8
0
100
AcDbLine
 10
170.902
 20
143.4857
 30
0.0
 11
170.822
 21
143.50830000000002
 31
0.0
  0
LINE
  5
16F
330
404
100
AcDbEntity
  8
0
100
AcDbLine
 10
170.822
 20
143.50830000000002
 30
0.0
 11
170.74099999999999
 21
143.5308
 31
0.0
  0
LINE
  5
170
330
404
100
AcDbEntity
  8
0
100
AcDbLine
 10
170.74099999999999
 20
143.5308
 30
0.0
 11
170.661
 21
143.553
 31
0.0
  0
LINE
  5
171
330
404
100
AcDbEntity
  8
0
100
AcDbLine
 10
170.661
 20
143.553
 30
0.0
 11
170.58100000000002
 21
143.57510000000002
 31
0.0
  0
LINE
  5
172
330
404
100
AcDbEntity
  8
0
100
AcDbLine
 10
170.58100000000002
 20
143.57510000000002
 30
0.0
 11
170.501
 21
143.59699999999998
 31
0.0
  0
LINE
  5
173
330
404
100
AcDbEntity
  8
0
100
AcDbLine
 10
170.501
 20
143.59699999999998
 30
0.0
 11
170.421
 21
143.6187
 31
0.0
  0
LINE
  5
174
330
404
100
AcDbEntity
  8
0
100
AcDbLine
 10
170.421
 20
143.6187
 30
0.0
 11
170.341
 21
143.6403
 31
0.0
  0
LINE
  5
175
330
404
100
AcDbEntity
  8
0
100
AcDbLine
 10
170.341
 20
143.6403
 30
0.0
 11
170.261
 21
143.66160000000002
 31
0.0
  0
LINE
  5
176
330
404
100
AcDbEntity
  8
0
100
AcDbLine
 10
170.261
 20
143.66160000000002
 30
0.0
 11
170.18
 21
143.6828
 31
0.0
  0
LINE
  5
177
330
404
100
AcDbEntity
  8
0
100
AcDbLine
 10
170.18
 20
143.6828
 30
0.0
 11
170.1
 21
143.7038
 31
0.0
  0
LINE
  5
178
330
404
100
AcDbEntity
  8
0
100
AcDbLine
 10
170.1
 20
143.7038
 30
0.0
 11
170.01999999999998
 21
143.7246
 31
0.0
  0
LINE
  5
179
330
404
100
AcDbEntity
  8
0
100
AcDbLine
 10
170.01999999999998
 20
143.7246
 30
0.0
 11
169.94
 21
143.7453
 31
0.0
  0
LINE
  5
17A
330
404
100
AcDbEntity
  8
0
100
AcDbLine
 10
169.94
 20
143.7453
 30
0.0
 11
169.86
 21
143.7658
 31
0.0
  0
LINE
  5
17B
330
404
100
AcDbEntity
  8
0
100
AcDbLine
 10
169.86
 20
143.7658
 30
0.0
 11
169.78
 21
143.7861
 31
0.0
  0
LINE
  5
17C
330
404
100
AcDbEntity
  8
0
100
AcDbLine
 10
169.78
 20
143.7861
 30
0.0
 11
169.699
 21
143.8062
 31
0.0
  0
LINE
  5
17D
330
404
100
AcDbEntity
  8
0
100
AcDbLine
 10
169.699
 20
143.8062
 30
0.0
 11
169.619
 21
143.8261
 31
0.0
  0
LINE
  5
17E
330
404
100
AcDbEntity
  8
0
100
AcDbLine
 10
169.619
 20
143.8261
 30
0.0
 11
169.539
 21
143.8459
 31
0.0
  0
LINE
  5
17F
330
404
100
AcDbEntity
  8
0
100
AcDbLine
 10
169.539
 20
143.8459
 30
0.0
 11
169.459
 21
143.8655
 31
0.0
  0
LINE
  5
180
330
404
100
AcDbEntity
  8
0
100
AcDbLine
 10
169.459
 20
143.8655
 30
0.0
 11
169.37900000000002
 21
143.88490000000002
 31
0.0
  0
LINE
  5
181
330
404
100
AcDbEntity
  8
0
100
AcDbLine
 10
169.37900000000002
 20
143.88490000000002
 30
0.0
 11
169.299
 21
143.9042
 31
0.0
  0
LINE
  5
182
330
404
100
AcDbEntity
  8
0
100
AcDbLine
 10
169.299
 20
143.9042
 30
0.0
 11
169.21800000000002
 21
143.9232
 31
0.0
  0
LINE
  5
183
330
404
100
AcDbEntity
  8
0
100
AcDbLine
 10
169.21800000000002
 20
143.9232
 30
0.0
 11
169.138
 21
143.9422
 31
0.0
  0
LINE
  5
184
330
404
100
AcDbEntity
  8
0
100
AcDbLine
 10
169.138
 20
143.9422
 30
0.0
 11
169.058
 21
143.96089999999998
 31
0.0
  0
LINE
  5
185
330
404
100
AcDbEntity
  8
0
100
AcDbLine
 10
169.058
 20
143.96089999999998
 30
0.0
 11
168.978
 21
143.9794
 31
0.0
  0
LINE
  5
186
330
404
100
AcDbEntity
  8
0
100
AcDbLine
 10
168.978
 20
143.9794
 30
0.0
 11
168.898
 21
143.99779999999998
 31
0.0
  0
LINE
  5
187
330
404
100
AcDbEntity
  8
0
100
AcDbLine
 10
168.898
 20
143.99779999999998
 30
0.0
 11
168.81799999999998
 21
144.01600000000002
 31
0.0
  0
LINE
  5
188
330
404
100
AcDbEntity
  8
0
100
AcDbLine
 10
168.81799999999998
 20
144.01600000000002
 30
0.0
 11
168.737
 21
144.034
 31
0.0
  0
LINE
  5
189
330
404
100
AcDbEntity
  8
0
100
AcDbLine
 10
168.737
 20
144.034
 30
0.0
 11
168.65699999999998
 21
144.0519
 31
0.0
  0
LINE
  5
18A
330
404
100
AcDbEntity
  8
0
100
AcDbLine
 10
168.65699999999998
 20
144.0519
 30
0.0
 11
168.577
 21
144.06959999999998
 31
0.0
  0
LINE
  5
18B
330
404
100
AcDbEntity
  8
0
100
AcDbLine
 10
168.577
 20
144.06959999999998
 30
0.0
 11
168.497
 21
144.08710000000002
 31
0.0
  0
LINE
  5
18C
330
404
100
AcDbEntity
  8
0
100
AcDbLine
 10
168.497
 20
144.08710000000002
 30
0.0
 11
168.417
 21
144.1044
 31
0.0
  0
LINE
  5
18D
330
404
100
AcDbEntity
  8
0
100
AcDbLine
 10
168.417
 20
144.1044
 30
0.0
 11
168.337
 21
144.1216
 31
0.0
  0
LINE
  5
18E
330
404
100
AcDbEntity
  8
0
100
AcDbLine
 10
168.337
 20
144.1216
 30
0.0
 11
168.257
 21
144.1386
 31
0.0
  0
LINE
  5
18F
330
404
100
AcDbEntity
  8
0
100
AcDbLine
 10
168.257
 20
144.1386
 30
0.0
 11
168.176
 21
144.1554
 31
0.0
  0
LINE
  5
190
330
404
100
AcDbEntity
  8
0
100
AcDbLine
 10
168.176
 20
144.1554
 30
0.0
 11
168.096
 21
144.1721
 31
0.0
  0
LINE
  5
191
330
404
100
AcDbEntity
  8
0
100
AcDbLine
 10
168.096
 20
144.1721
 30
0.0
 11
168.01600000000002
 21
144.1886
 31
0.0
  0
LINE
  5
192
330
404
100
AcDbEntity
  8
0
100
AcDbLine
 10
168.01600000000002
 20
144.1886
 30
0.0
 11
167.936
 21
144.2049
 31
0.0
  0
LINE
  5
193
330
404
100
AcDbEntity
  8
0
100
AcDbLine
 10
167.936
 20
144.2049
 30
0.0
 11
167.856
 21
144.221
 31
0.0
  0
LINE
  5
194
330
404
100
AcDbEntity
  8
0
100
AcDbLine
 10
167.856
 20
144.221
 30
0.0
 11
167.776
 21
144.237
 31
0.0
  0
LINE
  5
195
330
404
100
AcDbEntity
  8
0
100
AcDbLine
 10
167.776
 20
144.237
 30
0.0
 11
167.695
 21
144.25279999999998
 31
0.0
  0
LINE
  5
196
330
404
100
AcDbEntity
  8
0
100
AcDbLine
 10
167.695
 20
144.25279999999998
 30
0.0
 11
167.615
 21
144.26839999999999
 31
0.0
  0
LINE
  5
197
330
404
100
AcDbEntity
  8
0
100
AcDbLine
 10
167.615
 20
144.26839999999999
 30
0.0
 11
167.535
 21
144.28390000000002
 31
0.0
  0
LINE
  5
198
330
404
100
AcDbEntity
  8
0
100
AcDbLine
 10
167.535
 20
144.28390000000002
 30
0.0
 11
167.45499999999998
 21
144.29919999999998
 31
0.0
  0
LINE
  5
199
330
404
100
AcDbEntity
  8
0
100
AcDbLine
 10
167.45499999999998
 20
144.29919999999998
 30
0.0
 11
167.375
 21
144.3143
 31
0.0
  0
LINE
  5
19A
330
404
100
AcDbEntity
  8
0
100
AcDbLine
 10
167.375
 20
144.3143
 30
0.0
 11
167.29500000000002
 21
144.32920000000001
 31
0.0
  0
LINE
  5
19B
330
404
100
AcDbEntity
  8
0
100
AcDbLine
 10
167.29500000000002
 20
144.32920000000001
 30
0.0
 11
167.214
 21
144.344
 31
0.0
  0
LINE
  5
19C
330
404
100
AcDbEntity
  8
0
100
AcDbLine
 10
167.214
 20
144.344
 30
0.0
 11
167.13400000000001
 21
144.3586
 31
0.0
  0
LINE
  5
19D
330
404
100
AcDbEntity
  8
0
100
AcDbLine
 10
167.13400000000001
 20
144.3586
 30
0.0
 11
167.054
 21
144.3731
 31
0.0
  0
LINE
  5
19E
330
404
100
AcDbEntity
  8
0
100
AcDbLine
 10
167.054
 20
144.3731
 30
0.0
 11
166.974
 21
144.38729999999998
 31
0.0
  0
LINE
  5
19F
330
404
100
AcDbEntity
  8
0
100
AcDbLine
 10
166.974
 20
144.38729999999998
 30
0.0
 11
166.894
 21
144.4015
 31
0.0
  0
LINE
  5
1A0
330
404
100
AcDbEntity
  8
0
100
AcDbLine
 10
166.894
 20
144.4015
 30
0.0
 11
166.814
 21
144.4154
 31
0.0
  0
LINE
  5
1A1
330
404
100
AcDbEntity
  8
0
100
AcDbLine
 10
166.814
 20
144.4154
 30
0.0
 11
166.733
 21
144.42919999999998
 31
0.0
  0
LINE
  5
1A2
330
404
100
AcDbEntity
  8
0
100
AcDbLine
 10
166.733
 20
144.42919999999998
 30
0.0
 11
166.65300000000002
 21
144.4428
 31
0.0
  0
LINE
  5
1A3
330
404
100
AcDbEntity
  8
0
100
AcDbLine
 10
166.65300000000002
 20
144.4428
 30
0.0
 11
166.57299999999998
 21
144.4562
 31
0.0
  0
LINE
  5
1A4
330
404
100
AcDbEntity
  8
0
100
AcDbLine
 10
166.57299999999998
 20
144.4562
 30
0.0
 11
166.493
 21
144.46949999999998
 31
0.0
  0
LINE
  5
1A5
330
404
100
AcDbEntity
  8
0
100
AcDbLine
 10
166.493
 20
144.46949999999998
 30
0.0
 11
166.413
 21
144.4826
 31
0.0
  0
LINE
  5
1A6
330
404
100
AcDbEntity
  8
0
100
AcDbLine
 10
166.413
 20
144.4826
 30
0.0
 11
166.333
 21
144.4955
 31
0.0
  0
LINE
  5
1A7
330
404
100
AcDbEntity
  8
0
100
AcDbLine
 10
166.333
 20
144.4955
 30
0.0
 11
166.253
 21
144.50830000000002
 31
0.0
  0
LINE
  5
1A8
330
404
100
AcDbEntity
  8
0
100
AcDbLine
 10
166.253
 20
144.50830000000002
 30
0.0
 11
166.172
 21
144.52089999999998
 31
0.0
  0
LINE
  5
1A9
330
404
100
AcDbEntity
  8
0
100
AcDbLine
 10
166.172
 20
144.52089999999998
 30
0.0
 11
166.09199999999998
 21
144.5333
 31
0.0
  0
LINE
  5
1AA
330
404
100
AcDbEntity
  8
0
100
AcDbLine
 10
166.09199999999998
 20
144.5333
 30
0.0
 11
166.012
 21
144.54559999999998
 31
0.0
  0
LINE
  5
1AB
330
404
100
AcDbEntity
  8
0
100
AcDbLine
 10
166.012
 20
144.54559999999998
 30
0.0
 11
165.93200000000002
 21
144.5577
 31
0.0
  0
LINE
  5
1AC
330
404
100
AcDbEntity
  8
0
100
AcDbLine
 10
165.93200000000002
 20
144.5577
 30
0.0
 11
165.852
 21
144.56959999999998
 31
0.0
  0
LINE
  5
1AD
330
404
100
AcDbEntity
  8
0
100
AcDbLine
 10
165.852
 20
144.56959999999998
 30
0.0
 11
165.772
 21
144.5814
 31
0.0
  0
LINE
  5
1AE
330
404
100
AcDbEntity
  8
0
100
AcDbLine
 10
165.772
 20
144.5814
 30
0.0
 11
165.691
 21
144.59300000000002
 31
0.0
  0
LINE
  5
1AF
330
404
100
AcDbEntity
  8
0
100
AcDbLine
 10
165.691
 20
144.59300000000002
 30
0.0
 11
165.611
 21
144.6045
 31
0.0
  0
LINE
  5
1B0
330
404
100
AcDbEntity
  8
0
100
AcDbLine
 10
165.611
 20
144.6045
 30
0.0
 11
165.531
 21
144.6157
 31
0.0
  0
LINE
  5
1B1
330
404
100
AcDbEntity
  8
0
100
AcDbLine
 10
165.531
 20
144.6157
 30
0.0
 11
165.451
 21
144.6268
 31
0.0
  0
LINE
  5
1B2
330
404
100
AcDbEntity
  8
0
100
AcDbLine
 10
165.451
 20
144.6268
 30
0.0
 11
165.37099999999998
 21
144.6378
 31
0.0
  0
LINE
  5
1B3
330
404
100
AcDbEntity
  8
0
100
AcDbLine
 10
165.37099999999998
 20
144.6378
 30
0.0
 11
165.291
 21
144.6486
 31
0.0
  0
LINE
  5
1B4
330
404
100
AcDbEntity
  8
0
100
AcDbLine
 10
165.291
 20
144.6486
 30
0.0
 11
165.20999999999998
 21
144.6592
 31
0.0
  0
LINE
  5
1B5
330
404
100
AcDbEntity
  8
0
100
AcDbLine
 10
165.20999999999998
 20
144.6592
 30
0.0
 11
165.13
 21
144.6696
 31
0.0
  0
LINE
  5
1B6
330
404
100
AcDbEntity
  8
0
100
AcDbLine
 10
165.13
 20
144.6696
 30
0.0
 11
165.05
 21
144.6799
 31
0.0
  0
LINE
  5
1B7
330
404
100
AcDbEntity
  8
0
100
AcDbLine
 10
165.05
 20
144.6799
 30
0.0
 11
164.97
 21
144.69
 31
0.0
  0
LINE
  5
1B8
330
404
100
AcDbEntity
  8
0
100
AcDbLine
 10
164.97
 20
144.69
 30
0.0
 11
164.89
 21
144.7
 31
0.0
  0
LINE
  5
1B9
330
404
100
AcDbEntity
  8
0
100
AcDbLine
 10
164.89
 20
144.7
 30
0.0
 11
164.81
 21
144.7098
 31
0.0
  0
LINE
  5
1BA
330
404
100
AcDbEntity
  8
0
100
AcDbLine
 10
164.81
 20
144.7098
 30
0.0
 11
164.72899999999998
 21
144.7194
 31
0.0
  0
LINE
  5
1BB
330
404
100
AcDbEntity
  8
0
100
AcDbLine
 10
164.72899999999998
 20
144.7194
 30
0.0
 11
164.649
 21
144.7289
 31
0.0
  0
LINE
  5
1BC
330
404
100
AcDbEntity
  8
0
100
AcDbLine
 10
164.649
 20
144.7289
 30
0.0
 11
164.56900000000002
 21
144.7382
 31
0.0
  0
LINE
  5
1BD
330
404
100
AcDbEntity
  8
0
100
AcDbLine
 10
164.56900000000002
 20
144.7382
 30
0.0
 11
164.489
 21
144.7473
 31
0.0
  0
LINE
  5
1BE
330
404
100
AcDbEntity
  8
0
100
AcDbLine
 10
164.489
 20
144.7473
 30
0.0
 11
164.409
 21
144.7563
 31
0.0
  0
LINE
  5
1BF
330
404
100
AcDbEntity
  8
0
100
AcDbLine
 10
164.409
 20
144.7563
 30
0.0
 11
164.329
 21
144.76510000000002
 31
0.0
  0
LINE
  5
1C0
330
404
100
AcDbEntity
  8
0
100
AcDbLine
 10
164.329
 20
144.76510000000002
 30
0.0
 11
164.248
 21
144.77370000000002
 31
0.0
  0
LINE
  5
1C1
330
404
100
AcDbEntity
  8
0
100
AcDbLine
 10
164.248
 20
144.77370000000002
 30
0.0
 11
164.168
 21
144.7822
 31
0.0
  0
LINE
  5
1C2
330
404
100
AcDbEntity
  8
0
100
AcDbLine
 10
164.168
 20
144.7822
 30
0.0
 11
164.088
 21
144.7905
 31
0.0
  0
LINE
  5
1C3
330
404
100
AcDbEntity
  8
0
100
AcDbLine
 10
164.088
 20
144.7905
 30
0.0
 11
164.00799999999998
 21
144.7987
 31
0.0
  0
LINE
  5
1C4
330
404
100
AcDbEntity
  8
0
100
AcDbLine
 10
164.00799999999998
 20
144.7987
 30
0.0
 11
163.928
 21
144.8067
 31
0.0
  0
LINE
  5
1C5
330
404
100
AcDbEntity
  8
0
100
AcDbLine
 10
163.928
 20
144.8067
 30
0.0
 11
163.848
 21
144.8145
 31
0.0
  0
LINE
  5
1C6
330
404
100
AcDbEntity
  8
0
100
AcDbLine
 10
163.848
 20
144.8145
 30
0.0
 11
163.768
 21
144.8222
 31
0.0
  0
LINE
  5
1C7
330
404
100
AcDbEntity
  8
0
100
AcDbLine
 10
163.768
 20
144.8222
 30
0.0
 11
163.687
 21
144.8297
 31
0.0
  0
LINE
  5
1C8
330
404
100
AcDbEntity
  8
0
100
AcDbLine
 10
163.687
 20
144.8297
 30
0.0
 11
163.607
 21
144.837
 31
0.0
  0
LINE
  5
1C9
330
404
100
AcDbEntity
  8
0
100
AcDbLine
 10
163.607
 20
144.837
 30
0.0
 11
163.527
 21
144.8442
 31
0.0
  0
LINE
  5
1CA
330
404
100
AcDbEntity
  8
0
100
AcDbLine
 10
163.527
 20
144.8442
 30
0.0
 11
163.447
 21
144.8512
 31
0.0
  0
LINE
  5
1CB
330
404
100
AcDbEntity
  8
0
100
AcDbLine
 10
163.447
 20
144.8512
 30
0.0
 11
163.36700000000002
 21
144.858
 31
0.0
  0
LINE
  5
1CC
330
404
100
AcDbEntity
  8
0
100
AcDbLine
 10
163.36700000000002
 20
144.858
 30
0.0
 11
163.287
 21
144.8647
 31
0.0
  0
LINE
  5
1CD
330
404
100
AcDbEntity
  8
0
100
AcDbLine
 10
163.287
 20
144.8647
 30
0.0
 11
163.20600000000002
 21
144.87130000000002
 31
0.0
  0
LINE
  5
1CE
330
404
100
AcDbEntity
  8
0
100
AcDbLine
 10
163.20600000000002
 20
144.87130000000002
 30
0.0
 11
163.126
 21
144.8776
 31
0.0
  0
LINE
  5
1CF
330
404
100
AcDbEntity
  8
0
100
AcDbLine
 10
163.126
 20
144.8776
 30
0.0
 11
163.046
 21
144.8838
 31
0.0
  0
LINE
  5
1D0
330
404
100
AcDbEntity
  8
0
100
AcDbLine
 10
163.046
 20
144.8838
 30
0.0
 11
162.966
 21
144.8899
 31
0.0
  0
LINE
  5
1D1
330
404
100
AcDbEntity
  8
0
100
AcDbLine
 10
162.966
 20
144.8899
 30
0.0
 11
162.886
 21
144.8958
 31
0.0
  0
LINE
  5
1D2
330
404
100
AcDbEntity
  8
0
100
AcDbLine
 10
162.886
 20
144.8958
 30
0.0
 11
162.80599999999998
 21
144.9015
 31
0.0
  0
LINE
  5
1D3
330
404
100
AcDbEntity
  8
0
100
AcDbLine
 10
162.80599999999998
 20
144.9015
 30
0.0
 11
162.725
 21
144.90699999999998
 31
0.0
  0
LINE
  5
1D4
330
404
100
AcDbEntity
  8
0
100
AcDbLine
 10
162.725
 20
144.90699999999998
 30
0.0
 11
162.64499999999998
 21
144.9124
 31
0.0
  0
LINE
  5
1D5
330
404
100
AcDbEntity
  8
0
100
AcDbLine
 10
162.64499999999998
 20
144.9124
 30
0.0
 11
162.565
 21
144.9177
 31
0.0
  0
LINE
  5
1D6
330
404
100
AcDbEntity
  8
0
100
AcDbLine
 10
162.565
 20
144.9177
 30
0.0
 11
162.485
 21
144.92270000000002
 31
0.0
  0
LINE
  5
1D7
330
404
100
AcDbEntity
  8
0
100
AcDbLine
 10
162.485
 20
144.92270000000002
 30
0.0
 11
162.405
 21
144.92759999999998
 31
0.0
  0
LINE
  5
1D8
330
404
100
AcDbEntity
  8
0
100
AcDbLine
 10
162.405
 20
144.92759999999998
 30
0.0
 11
162.325
 21
144.9324
 31
0.0
  0
LINE
  5
1D9
330
404
100
AcDbEntity
  8
0
100
AcDbLine
 10
162.325
 20
144.9324
 30
0.0
 11
162.244
 21
144.937
 31
0.0
  0
LINE
  5
1DA
330
404
100
AcDbEntity
  8
0
100
AcDbLine
 10
162.244
 20
144.937
 30
0.0
 11
162.164
 21
144.9414
 31
0.0
  0
LINE
  5
1DB
330
404
100
AcDbEntity
  8
0
100
AcDbLine
 10
162.164
 20
144.9414
 30
0.0
 11
162.084
 21
144.9457
 31
0.0
  0
LINE
  5
1DC
330
404
100
AcDbEntity
  8
0
100
AcDbLine
 10
162.084
 20
144.9457
 30
0.0
 11
162.00400000000002
 21
144.94979999999998
 31
0.0
  0
LINE
  5
1DD
330
404
100
AcDbEntity
  8
0
100
AcDbLine
 10
162.00400000000002
 20
144.94979999999998
 30
0.0
 11
161.924
 21
144.9537
 31
0.0
  0
LINE
  5
1DE
330
404
100
AcDbEntity
  8
0
100
AcDbLine
 10
161.924
 20
144.9537
 30
0.0
 11
161.844
 21
144.95749999999998
 31
0.0
  0
LINE
  5
1DF
330
404
100
AcDbEntity
  8
0
100
AcDbLine
 10
161.844
 20
144.95749999999998
 30
0.0
 11
161.764
 21
144.9611
 31
0.0
  0
LINE
  5
1E0
330
404
100
AcDbEntity
  8
0
100
AcDbLine
 10
161.764
 20
144.9611
 30
0.0
 11
161.683
 21
144.96460000000002
 31
0.0
  0
LINE
  5
1E1
330
404
100
AcDbEntity
  8
0
100
AcDbLine
 10
161.683
 20
144.96460000000002
 30
0.0
 11
161.603
 21
144.9678
 31
0.0
  0
LINE
  5
1E2
330
404
100
AcDbEntity
  8
0
100
AcDbLine
 10
161.603
 20
144.9678
 30
0.0
 11
161.523
 21
144.971
 31
0.0
  0
LINE
  5
1E3
330
404
100
AcDbEntity
  8
0
100
AcDbLine
 10
161.523
 20
144.971
 30
0.0
 11
161.44299999999998
 21
144.974
 31
0.0
  0
LINE
  5
1E4
330
404
100
AcDbEntity
  8
0
100
AcDbLine
 10
161.44299999999998
 20
144.974
 30
0.0
 11
161.363
 21
144.9768
 31
0.0
  0
LINE
  5
1E5
330
404
100
AcDbEntity
  8
0
100
AcDbLine
 10
161.363
 20
144.9768
 30
0.0
 11
161.28300000000002
 21
144.9794
 31
0.0
  0
LINE
  5
1E6
330
404
100
AcDbEntity
  8
0
100
AcDbLine
 10
161.28300000000002
 20
144.9794
 30
0.0
 11
161.202
 21
144.9819
 31
0.0
  0
LINE
  5
1E7
330
404
100
AcDbEntity
  8
0
100
AcDbLine
 10
161.202
 20
144.9819
 30
0.0
 11
161.122
 21
144.98430000000002
 31
0.0
  0
LINE
  5
1E8
330
404
100
AcDbEntity
  8
0
100
AcDbLine
 10
161.122
 20
144.98430000000002
 30
0.0
 11
161.042
 21
144.9864
 31
0.0
  0
LINE
  5
1E9
330
404
100
AcDbEntity
  8
0
100
AcDbLine
 10
161.042
 20
144.9864
 30
0.0
 11
160.962
 21
144.9884
 31
0.0
  0
LINE
  5
1EA
330
404
100
AcDbEntity
  8
0
100
AcDbLine
 10
160.962
 20
144.9884
 30
0.0
 11
160.882
 21
144.9903
 31
0.0
  0
LINE
  5
1EB
330
404
100
AcDbEntity
  8
0
100
AcDbLine
 10
160.882
 20
144.9903
 30
0.0
 11
160.80200000000002
 21
144.99200000000002
 31
0.0
  0
LINE
  5
1EC
330
404
100
AcDbEntity
  8
0
100
AcDbLine
 10
160.80200000000002
 20
144.99200000000002
 30
0.0
 11
160.721
 21
144.99349999999998
 31
0.0
  0
LINE
  5
1ED
330
404
100
AcDbEntity
  8
0
100
AcDbLine
 10
160.721
 20
144.99349999999998
 30
0.0
 11
160.64100000000002
 21
144.9949
 31
0.0
  0
LINE
  5
1EE
330
404
100
AcDbEntity
  8
0
100
AcDbLine
 10
160.64100000000002
 20
144.9949
 30
0.0
 11
160.561
 21
144.9961
 31
0.0
  0
LINE
  5
1EF
330
404
100
AcDbEntity
  8
0
100
AcDbLine
 10
160.561
 20
144.9961
 30
0.0
 11
160.481
 21
144.9971
 31
0.0
  0
LINE
  5
1F0
330
404
100
AcDbEntity
  8
0
100
AcDbLine
 10
160.481
 20
144.9971
 30
0.0
 11
160.401
 21
144.998
 31
0.0
  0
LINE
  5
1F1
330
404
100
AcDbEntity
  8
0
100
AcDbLine
 10
160.401
 20
144.998
 30
0.0
 11
160.321
 21
144.99869999999999
 31
0.0
  0
LINE
  5
1F2
330
404
100
AcDbEntity
  8
0
100
AcDbLine
 10
160.321
 20
144.99869999999999
 30
0.0
 11
160.24
 21
144.9993
 31
0.0
  0
LINE
  5
1F3
330
404
100
AcDbEntity
  8
0
100
AcDbLine
 10
160.24
 20
144.9993
 30
0.0
 11
160.16
 21
144.99970000000002
 31
0.0
  0
LINE
  5
1F4
330
404
100
AcDbEntity
  8
0
100
AcDbLine
 10
160.16
 20
144.99970000000002
 30
0.0
 11
160.07999999999998
 21
144.9999
 31
0.0
  0
LINE
  5
1F5
330
404
100
AcDbEntity
  8
0
100
AcDbLine
 10
160.07999999999998
 20
144.9999
 30
0.0
 11
160.0
 21
145.0
 31
0.0
  0
LINE
  5
1F6
330
404
100
AcDbEntity
  8
0
100
AcDbLine
 10
160.0
 20
145.0
 30
0.0
 11
160.0
 21
140.0
 31
0.0
  0
LINE
  5
1F7
330
404
100
AcDbEntity
  8
0
100
AcDbLine
 10
160.0
 20
140.0
 30
0.0
 11
150.0
 21
140.0
 31
0.0
  0
LINE
  5
1F8
330
404
100
AcDbEntity
  8
0
100
AcDbLine
 10
150.0
 20
140.0
 30
0.0
 11
150.0
 21
145.0
 31
0.0
  0
LINE
  5
1F9
330
404
100
AcDbEntity
  8
0
100
AcDbLine
 10
150.0
 20
145.0
 30
0.0
 11
90.0
 21
145.0
 31
0.0
  0
LINE
  5
1FA
330
404
100
AcDbEntity
  8
0
100
AcDbLine
 10
90.0
 20
145.0
 30
0.0
 11
90.0
 21
140.0
 31
0.0
  0
LINE
  5
1FB
330
404
100
AcDbEntity
  8
0
100
AcDbLine
 10
90.0
 20
140.0
 30
0.0
 11
80.0
 21
140.0
 31
0.0
  0
LINE
  5
1FC
330
404
100
AcDbEntity
  8
0
100
AcDbLine
 10
80.0
 20
140.0
 30
0.0
 11
80.0
 21
145.0
 31
0.0
  0
LINE
  5
1FD
330
404
100
AcDbEntity
  8
0
100
AcDbLine
 10
80.0
 20
145.0
 30
0.0
 11
79.9399
 21
144.9999
 31
0.0
  0
LINE
  5
1FE
330
404
100
AcDbEntity
  8
0
100
AcDbLine
 10
79.9399
 20
144.9999
 30
0.0
 11
79.8797
 21
144.9998
 31
0.0
  0
LINE
  5
1FF
330
404
100
AcDbEntity
  8
0
100
AcDbLine
 10
79.8797
 20
144.9998
 30
0.0
 11
79.81960000000001
 21
144.9995
 31
0.0
  0
LINE
  5
200
330
404
100
AcDbEntity
  8
0
100
AcDbLine
 10
79.81960000000001
 20
144.9995
 30
0.0
 11
79.7595
 21
144.999
 31
0.0
  0
LINE
  5
201
330
404
100
AcDbEntity
  8
0
100
AcDbLine
 10
79.7595
 20
144.999
 30
0.0
 11
79.6994
 21
144.9985
 31
0.0
  0
LINE
  5
202
330
404
100
AcDbEntity
  8
0
100
AcDbLine
 10
79.6994
 20
144.9985
 30
0.0
 11
79.63929999999999
 21
144.99779999999998
 31
0.0
  0
LINE
  5
203
330
404
100
AcDbEntity
  8
0
100
AcDbLine
 10
79.63929999999999
 20
144.99779999999998
 30
0.0
 11
79.5791
 21
144.997
 31
0.0
  0
LINE
  5
204
330
404
100
AcDbEntity
  8
0
100
AcDbLine
 10
79.5791
 20
144.997
 30
0.0
 11
79.519
 21
144.9961
 31
0.0
  0
LINE
  5
205
330
404
100
AcDbEntity
  8
0
100
AcDbLine
 10
79.519
 20
144.9961
 30
0.0
 11
79.4589
 21
144.99509999999998
 31
0.0
  0
LINE
  5
206
330
404
100
AcDbEntity
  8
0
100
AcDbLine
 10
79.4589
 20
144.99509999999998
 30
0.0
 11
79.3988
 21
144.994
 31
0.0
  0
LINE
  5
207
330
404
100
AcDbEntity
  8
0
100
AcDbLine
 10
79.3988
 20
144.994
 30
0.0
 11
79.3387
 21
144.9927
 31
0.0
  0
LINE
  5
208
330
404
100
AcDbEntity
  8
0
100
AcDbLine
 10
79.3387
 20
144.9927
 30
0.0
 11
79.27850000000001
 21
144.9913
 31
0.0
  0
LINE
  5
209
330
404
100
AcDbEntity
  8
0
100
AcDbLine
 10
79.27850000000001
 20
144.9913
 30
0.0
 11
79.2184
 21
144.9898
 31
0.0
  0
LINE
  5
20A
330
404
100
AcDbEntity
  8
0
100
AcDbLine
 10
79.2184
 20
144.9898
 30
0.0
 11
79.1583
 21
144.9882
 31
0.0
  0
LINE
  5
20B
330
404
100
AcDbEntity
  8
0
100
AcDbLine
 10
79.1583
 20
144.9882
 30
0.0
 11
79.09819999999999
 21
144.9864
 31
0.0
  0
LINE
  5
20C
330
404
100
AcDbEntity
  8
0
100
AcDbLine
 10
79.09819999999999
 20
144.9864
 30
0.0
 11
79.0381
 21
144.9846
 31
0.0
  0
LINE
  5
20D
330
404
100
AcDbEntity
  8
0
100
AcDbLine
 10
79.0381
 20
144.9846
 30
0.0
 11
78.97800000000001
 21
144.9826
 31
0.0
  0
LINE
  5
20E
330
404
100
AcDbEntity
  8
0
100
AcDbLine
 10
78.97800000000001
 20
144.9826
 30
0.0
 11
78.9178
 21
144.9805
 31
0.0
  0
LINE
  5
20F
330
404
100
AcDbEntity
  8
0
100
AcDbLine
 10
78.9178
 20
144.9805
 30
0.0
 11
78.8577
 21
144.97820000000002
 31
0.0
  0
LINE
  5
210
330
404
100
AcDbEntity
  8
0
100
AcDbLine
 10
78.8577
 20
144.97820000000002
 30
0.0
 11
78.7976
 21
144.9759
 31
0.0
  0
LINE
  5
211
330
404
100
AcDbEntity
  8
0
100
AcDbLine
 10
78.7976
 20
144.9759
 30
0.0
 11
78.7375
 21
144.9734
 31
0.0
  0
LINE
  5
212
330
404
100
AcDbEntity
  8
0
100
AcDbLine
 10
78.7375
 20
144.9734
 30
0.0
 11
78.6774
 21
144.9708
 31
0.0
  0
LINE
  5
213
330
404
100
AcDbEntity
  8
0
100
AcDbLine
 10
78.6774
 20
144.9708
 30
0.0
 11
78.6172
 21
144.9681
 31
0.0
  0
LINE
  5
214
330
404
100
AcDbEntity
  8
0
100
AcDbLine
 10
78.6172
 20
144.9681
 30
0.0
 11
78.55709999999999
 21
144.9653
 31
0.0
  0
LINE
  5
215
330
404
100
AcDbEntity
  8
0
100
AcDbLine
 10
78.55709999999999
 20
144.9653
 30
0.0
 11
78.497
 21
144.9623
 31
0.0
  0
LINE
  5
216
330
404
100
AcDbEntity
  8
0
100
AcDbLine
 10
78.497
 20
144.9623
 30
0.0
 11
78.43690000000001
 21
144.9592
 31
0.0
  0
LINE
  5
217
330
404
100
AcDbEntity
  8
0
100
AcDbLine
 10
78.43690000000001
 20
144.9592
 30
0.0
 11
78.3767
 21
144.95600000000002
 31
0.0
  0
LINE
  5
218
330
404
100
AcDbEntity
  8
0
100
AcDbLine
 10
78.3767
 20
144.95600000000002
 30
0.0
 11
78.3166
 21
144.9527
 31
0.0
  0
LINE
  5
219
330
404
100
AcDbEntity
  8
0
100
AcDbLine
 10
78.3166
 20
144.9527
 30
0.0
 11
78.2565
 21
144.9493
 31
0.0
  0
LINE
  5
21A
330
404
100
AcDbEntity
  8
0
100
AcDbLine
 10
78.2565
 20
144.9493
 30
0.0
 11
78.1964
 21
144.9457
 31
0.0
  0
LINE
  5
21B
330
404
100
AcDbEntity
  8
0
100
AcDbLine
 10
78.1964
 20
144.9457
 30
0.0
 11
78.1363
 21
144.942
 31
0.0
  0
LINE
  5
21C
330
404
100
AcDbEntity
  8
0
100
AcDbLine
 10
78.1363
 20
144.942
 30
0.0
 11
78.0761
 21
144.9382
 31
0.0
  0
LINE
  5
21D
330
404
100
AcDbEntity
  8
0
100
AcDbLine
 10
78.0761
 20
144.9382
 30
0.0
 11
78.01599999999999
 21
144.9343
 31
0.0
  0
LINE
  5
21E
330
404
100
AcDbEntity
  8
0
100
AcDbLine
 10
78.01599999999999
 20
144.9343
 30
0.0
 11
77.9559
 21
144.9303
 31
0.0
  0
LINE
  5
21F
330
404
100
AcDbEntity
  8
0
100
AcDbLine
 10
77.9559
 20
144.9303
 30
0.0
 11
77.89580000000001
 21
144.92610000000002
 31
0.0
  0
LINE
  5
220
330
404
100
AcDbEntity
  8
0
100
AcDbLine
 10
77.89580000000001
 20
144.92610000000002
 30
0.0
 11
77.8357
 21
144.92180000000002
 31
0.0
  0
LINE
  5
221
330
404
100
AcDbEntity
  8
0
100
AcDbLine
 10
77.8357
 20
144.92180000000002
 30
0.0
 11
77.7755
 21
144.9174
 31
0.0
  0
LINE
  5
222
330
404
100
AcDbEntity
  8
0
100
AcDbLine
 10
77.7755
 20
144.9174
 30
0.0
 11
77.7154
 21
144.91289999999998
 31
0.0
  0
LINE
  5
223
330
404
100
AcDbEntity
  8
0
100
AcDbLine
 10
77.7154
 20
144.91289999999998
 30
0.0
 11
77.6553
 21
144.9082
 31
0.0
  0
LINE
  5
224
330
404
100
AcDbEntity
  8
0
100
AcDbLine
 10
77.6553
 20
144.9082
 30
0.0
 11
77.5952
 21
144.9035
 31
0.0
  0
LINE
  5
225
330
404
100
AcDbEntity
  8
0
100
AcDbLine
 10
77.5952
 20
144.9035
 30
0.0
 11
77.5351
 21
144.8986
 31
0.0
  0
LINE
  5
226
330
404
100
AcDbEntity
  8
0
100
AcDbLine
 10
77.5351
 20
144.8986
 30
0.0
 11
77.4749
 21
144.89350000000002
 31
0.0
  0
LINE
  5
227
330
404
100
AcDbEntity
  8
0
100
AcDbLine
 10
77.4749
 20
144.89350000000002
 30
0.0
 11
77.4148
 21
144.8884
 31
0.0
  0
LINE
  5
228
330
404
100
AcDbEntity
  8
0
100
AcDbLine
 10
77.4148
 20
144.8884
 30
0.0
 11
77.35470000000001
 21
144.8831
 31
0.0
  0
LINE
  5
229
330
404
100
AcDbEntity
  8
0
100
AcDbLine
 10
77.35470000000001
 20
144.8831
 30
0.0
 11
77.2946
 21
144.87779999999998
 31
0.0
  0
LINE
  5
22A
330
404
100
AcDbEntity
  8
0
100
AcDbLine
 10
77.2946
 20
144.87779999999998
 30
0.0
 11
77.2345
 21
144.8723
 31
0.0
  0
LINE
  5
22B
330
404
100
AcDbEntity
  8
0
100
AcDbLine
 10
77.2345
 20
144.8723
 30
0.0
 11
77.1743
 21
144.8666
 31
0.0
  0
LINE
  5
22C
330
404
100
AcDbEntity
  8
0
100
AcDbLine
 10
77.1743
 20
144.8666
 30
0.0
 11
77.1142
 21
144.86090000000002
 31
0.0
  0
LINE
  5
22D
330
404
100
AcDbEntity
  8
0
100
AcDbLine
 10
77.1142
 20
144.86090000000002
 30
0.0
 11
77.0541
 21
144.85500000000002
 31
0.0
  0
LINE
  5
22E
330
404
100
AcDbEntity
  8
0
100
AcDbLine
 10
77.0541
 20
144.85500000000002
 30
0.0
 11
76.994
 21
144.849
 31
0.0
  0
LINE
  5
22F
330
404
100
AcDbEntity
  8
0
100
AcDbLine
 10
76.994
 20
144.849
 30
0.0
 11
76.9339
 21
144.8429
 31
0.0
  0
LINE
  5
230
330
404
100
AcDbEntity
  8
0
100
AcDbLine
 10
76.9339
 20
144.8429
 30
0.0
 11
76.8737
 21
144.8367
 31
0.0
  0
LINE
  5
231
330
404
100
AcDbEntity
  8
0
100
AcDbLine
 10
76.8737
 20
144.8367
 30
0.0
 11
76.81360000000001
 21
144.8303
 31
0.0
  0
LINE
  5
232
330
404
100
AcDbEntity
  8
0
100
AcDbLine
 10
76.81360000000001
 20
144.8303
 30
0.0
 11
76.7535
 21
144.8238
 31
0.0
  0
LINE
  5
233
330
404
100
AcDbEntity
  8
0
100
AcDbLine
 10
76.7535
 20
144.8238
 30
0.0
 11
76.6934
 21
144.8172
 31
0.0
  0
LINE
  5
234
330
404
100
AcDbEntity
  8
0
100
AcDbLine
 10
76.6934
 20
144.8172
 30
0.0
 11
76.63329999999999
 21
144.8105
 31
0.0
  0
LINE
  5
235
330
404
100
AcDbEntity
  8
0
100
AcDbLine
 10
76.63329999999999
 20
144.8105
 30
0.0
 11
76.5731
 21
144.80360000000002
 31
0.0
  0
LINE
  5
236
330
404
100
AcDbEntity
  8
0
100
AcDbLine
 10
76.5731
 20
144.80360000000002
 30
0.0
 11
76.513
 21
144.7966
 31
0.0
  0
LINE
  5
237
330
404
100
AcDbEntity
  8
0
100
AcDbLine
 10
76.513
 20
144.7966
 30
0.0
 11
76.4529
 21
144.7896
 31
0.0
  0
LINE
  5
238
330
404
100
AcDbEntity
  8
0
100
AcDbLine
 10
76.4529
 20
144.7896
 30
0.0
 11
76.3928
 21
144.78230000000002
 31
0.0
  0
LINE
  5
239
330
404
100
AcDbEntity
  8
0
100
AcDbLine
 10
76.3928
 20
144.78230000000002
 30
0.0
 11
76.3327
 21
144.775
 31
0.0
  0
LINE
  5
23A
330
404
100
AcDbEntity
  8
0
100
AcDbLine
 10
76.3327
 20
144.775
 30
0.0
 11
76.27250000000001
 21
144.76749999999998
 31
0.0
  0
LINE
  5
23B
330
404
100
AcDbEntity
  8
0
100
AcDbLine
 10
76.27250000000001
 20
144.76749999999998
 30
0.0
 11
76.2124
 21
144.75990000000002
 31
0.0
  0
LINE
  5
23C
330
404
100
AcDbEntity
  8
0
100
AcDbLine
 10
76.2124
 20
144.75990000000002
 30
0.0
 11
76.1523
 21
144.75220000000002
 31
0.0
  0
LINE
  5
23D
330
404
100
AcDbEntity
  8
0
100
AcDbLine
 10
76.1523
 20
144.75220000000002
 30
0.0
 11
76.09219999999999
 21
144.74439999999998
 31
0.0
  0
LINE
  5
23E
330
404
100
AcDbEntity
  8
0
100
AcDbLine
 10
76.09219999999999
 20
144.74439999999998
 30
0.0
 11
76.0321
 21
144.7364
 31
0.0
  0
LINE
  5
23F
330
404
100
AcDbEntity
  8
0
100
AcDbLine
 10
76.0321
 20
144.7364
 30
0.0
 11
75.9719
 21
144.7283
 31
0.0
  0
LINE
  5
240
330
404
100
AcDbEntity
  8
0
100
AcDbLine
 10
75.9719
 20
144.7283
 30
0.0
 11
75.9118
 21
144.7201
 31
0.0
  0
LINE
  5
241
330
404
100
AcDbEntity
  8
0
100
AcDbLine
 10
75.9118
 20
144.7201
 30
0.0
 11
75.8517
 21
144.71179999999998
 31
0.0
  0
LINE
  5
242
330
404
100
AcDbEntity
  8
0
100
AcDbLine
 10
75.8517
 20
144.71179999999998
 30
0.0
 11
75.7916
 21
144.7033
 31
0.0
  0
LINE
  5
243
330
404
100
AcDbEntity
  8
0
100
AcDbLine
 10
75.7916
 20
144.7033
 30
0.0
 11
75.7315
 21
144.6948
 31
0.0
  0
LINE
  5
244
330
404
100
AcDbEntity
  8
0
100
AcDbLine
 10
75.7315
 20
144.6948
 30
0.0
 11
75.6713
 21
144.6861
 31
0.0
  0
LINE
  5
245
330
404
100
AcDbEntity
  8
0
100
AcDbLine
 10
75.6713
 20
144.6861
 30
0.0
 11
75.6112
 21
144.6772
 31
0.0
  0
LINE
  5
246
330
404
100
AcDbEntity
  8
0
100
AcDbLine
 10
75.6112
 20
144.6772
 30
0.0
 11
75.5511
 21
144.6683
 31
0.0
  0
LINE
  5
247
330
404
100
AcDbEntity
  8
0
100
AcDbLine
 10
75.5511
 20
144.6683
 30
0.0
 11
75.491
 21
144.6592
 31
0.0
  0
LINE
  5
248
330
404
100
AcDbEntity
  8
0
100
AcDbLine
 10
75.491
 20
144.6592
 30
0.0
 11
75.4308
 21
144.65
 31
0.0
  0
LINE
  5
249
330
404
100
AcDbEntity
  8
0
100
AcDbLine
 10
75.4308
 20
144.65
 30
0.0
 11
75.3707
 21
144.64069999999998
 31
0.0
  0
LINE
  5
24A
330
404
100
AcDbEntity
  8
0
100
AcDbLine
 10
75.3707
 20
144.64069999999998
 30
0.0
 11
75.3106
 21
144.6312
 31
0.0
  0
LINE
  5
24B
330
404
100
AcDbEntity
  8
0
100
AcDbLine
 10
75.3106
 20
144.6312
 30
0.0
 11
75.2505
 21
144.6216
 31
0.0
  0
LINE
  5
24C
330
404
100
AcDbEntity
  8
0
100
AcDbLine
 10
75.2505
 20
144.6216
 30
0.0
 11
75.1904
 21
144.6119
 31
0.0
  0
LINE
  5
24D
330
404
100
AcDbEntity
  8
0
100
AcDbLine
 10
75.1904
 20
144.6119
 30
0.0
 11
75.1302
 21
144.6021
 31
0.0
  0
LINE
  5
24E
330
404
100
AcDbEntity
  8
0
100
AcDbLine
 10
75.1302
 20
144.6021
 30
0.0
 11
75.0701
 21
144.5922
 31
0.0
  0
LINE
  5
24F
330
404
100
AcDbEntity
  8
0
100
AcDbLine
 10
75.0701
 20
144.5922
 30
0.0
 11
75.01
 21
144.5821
 31
0.0
  0
LINE
  5
250
330
404
100
AcDbEntity
  8
0
100
AcDbLine
 10
75.01
 20
144.5821
 30
0.0
 11
74.9499
 21
144.5719
 31
0.0
  0
LINE
  5
251
330
404
100
AcDbEntity
  8
0
100
AcDbLine
 10
74.9499
 20
144.5719
 30
0.0
 11
74.88980000000001
 21
144.5616
 31
0.0
  0
LINE
  5
252
330
404
100
AcDbEntity
  8
0
100
AcDbLine
 10
74.88980000000001
 20
144.5616
 30
0.0
 11
74.8297
 21
144.55110000000002
 31
0.0
  0
LINE
  5
253
330
404
100
AcDbEntity
  8
0
100
AcDbLine
 10
74.8297
 20
144.55110000000002
 30
0.0
 11
74.7695
 21
144.5405
 31
0.0
  0
LINE
  5
254
330
404
100
AcDbEntity
  8
0
100
AcDbLine
 10
74.7695
 20
144.5405
 30
0.0
 11
74.7094
 21
144.5298
 31
0.0
  0
LINE
  5
255
330
404
100
AcDbEntity
  8
0
100
AcDbLine
 10
74.7094
 20
144.5298
 30
0.0
 11
74.6493
 21
144.519
 31
0.0
  0
LINE
  5
256
330
404
100
AcDbEntity
  8
0
100
AcDbLine
 10
74.6493
 20
144.519
 30
0.0
 11
74.5892
 21
144.50799999999998
 31
0.0
  0
LINE
  5
257
330
404
100
AcDbEntity
  8
0
100
AcDbLine
 10
74.5892
 20
144.50799999999998
 30
0.0
 11
74.5291
 21
144.49689999999998
 31
0.0
  0
LINE
  5
258
330
404
100
AcDbEntity
  8
0
100
AcDbLine
 10
74.5291
 20
144.49689999999998
 30
0.0
 11
74.4689
 21
144.4857
 31
0.0
  0
LINE
  5
259
330
404
100
AcDbEntity
  8
0
100
AcDbLine
 10
74.4689
 20
144.4857
 30
0.0
 11
74.4088
 21
144.4744
 31
0.0
  0
LINE
  5
25A
330
404
100
AcDbEntity
  8
0
100
AcDbLine
 10
74.4088
 20
144.4744
 30
0.0
 11
74.34870000000001
 21
144.4629
 31
0.0
  0
LINE
  5
25B
330
404
100
AcDbEntity
  8
0
100
AcDbLine
 10
74.34870000000001
 20
144.4629
 30
0.0
 11
74.2886
 21
144.4513
 31
0.0
  0
LINE
  5
25C
330
404
100
AcDbEntity
  8
0
100
AcDbLine
 10
74.2886
 20
144.4513
 30
0.0
 11
74.2285
 21
144.43959999999998
 31
0.0
  0
LINE
  5
25D
330
404
100
AcDbEntity
  8
0
100
AcDbLine
 10
74.2285
 20
144.43959999999998
 30
0.0
 11
74.1683
 21
144.42770000000002
 31
0.0
  0
LINE
  5
25E
330
404
100
AcDbEntity
  8
0
100
AcDbLine
 10
74.1683
 20
144.42770000000002
 30
0.0
 11
74.1082
 21
144.4158
 31
0.0
  0
LINE
  5
25F
330
404
100
AcDbEntity
  8
0
100
AcDbLine
 10
74.1082
 20
144.4158
 30
0.0
 11
74.0481
 21
144.40359999999998
 31
0.0
  0
LINE
  5
260
330
404
100
AcDbEntity
  8
0
100
AcDbLine
 10
74.0481
 20
144.40359999999998
 30
0.0
 11
73.988
 21
144.3914
 31
0.0
  0
LINE
  5
261
330
404
100
AcDbEntity
  8
0
100
AcDbLine
 10
73.988
 20
144.3914
 30
0.0
 11
73.9278
 21
144.37900000000002
 31
0.0
  0
LINE
  5
262
330
404
100
AcDbEntity
  8
0
100
AcDbLine
 10
73.9278
 20
144.37900000000002
 30
0.0
 11
73.8677
 21
144.3666
 31
0.0
  0
LINE
  5
263
330
404
100
AcDbEntity
  8
0
100
AcDbLine
 10
73.8677
 20
144.3666
 30
0.0
 11
73.80760000000001
 21
144.3539
 31
0.0
  0
LINE
  5
264
330
404
100
AcDbEntity
  8
0
100
AcDbLine
 10
73.80760000000001
 20
144.3539
 30
0.0
 11
73.7475
 21
144.34120000000001
 31
0.0
  0
LINE
  5
265
330
404
100
AcDbEntity
  8
0
100
AcDbLine
 10
73.7475
 20
144.34120000000001
 30
0.0
 11
73.6874
 21
144.3283
 31
0.0
  0
LINE
  5
266
330
404
100
AcDbEntity
  8
0
100
AcDbLine
 10
73.6874
 20
144.3283
 30
0.0
 11
73.6272
 21
144.31529999999998
 31
0.0
  0
LINE
  5
267
330
404
100
AcDbEntity
  8
0
100
AcDbLine
 10
73.6272
 20
144.31529999999998
 30
0.0
 11
73.5671
 21
144.3022
 31
0.0
  0
LINE
  5
268
330
404
100
AcDbEntity
  8
0
100
AcDbLine
 10
73.5671
 20
144.3022
 30
0.0
 11
73.507
 21
144.2889
 31
0.0
  0
LINE
  5
269
330
404
100
AcDbEntity
  8
0
100
AcDbLine
 10
73.507
 20
144.2889
 30
0.0
 11
73.4469
 21
144.2755
 31
0.0
  0
LINE
  5
26A
330
404
100
AcDbEntity
  8
0
100
AcDbLine
 10
73.4469
 20
144.2755
 30
0.0
 11
73.3868
 21
144.262
 31
0.0
  0
LINE
  5
26B
330
404
100
AcDbEntity
  8
0
100
AcDbLine
 10
73.3868
 20
144.262
 30
0.0
 11
73.3266
 21
144.2484
 31
0.0
  0
LINE
  5
26C
330
404
100
AcDbEntity
  8
0
100
AcDbLine
 10
73.3266
 20
144.2484
 30
0.0
 11
73.26650000000001
 21
144.2346
 31
0.0
  0
LINE
  5
26D
330
404
100
AcDbEntity
  8
0
100
AcDbLine
 10
73.26650000000001
 20
144.2346
 30
0.0
 11
73.2064
 21
144.2207
 31
0.0
  0
LINE
  5
26E
330
404
100
AcDbEntity
  8
0
100
AcDbLine
 10
73.2064
 20
144.2207
 30
0.0
 11
73.1463
 21
144.20659999999998
 31
0.0
  0
LINE
  5
26F
330
404
100
AcDbEntity
  8
0
100
AcDbLine
 10
73.1463
 20
144.20659999999998
 30
0.0
 11
73.0862
 21
144.19240000000002
 31
0.0
  0
LINE
  5
270
330
404
100
AcDbEntity
  8
0
100
AcDbLine
 10
73.0862
 20
144.19240000000002
 30
0.0
 11
73.026
 21
144.1781
 31
0.0
  0
LINE
  5
271
330
404
100
AcDbEntity
  8
0
100
AcDbLine
 10
73.026
 20
144.1781
 30
0.0
 11
72.9659
 21
144.1637
 31
0.0
  0
LINE
  5
272
330
404
100
AcDbEntity
  8
0
100
AcDbLine
 10
72.9659
 20
144.1637
 30
0.0
 11
72.9058
 21
144.1491
 31
0.0
  0
LINE
  5
273
330
404
100
AcDbEntity
  8
0
100
AcDbLine
 10
72.9058
 20
144.1491
 30
0.0
 11
72.8457
 21
144.1344
 31
0.0
  0
LINE
  5
274
330
404
100
AcDbEntity
  8
0
100
AcDbLine
 10
72.8457
 20
144.1344
 30
0.0
 11
72.7856
 21
144.1196
 31
0.0
  0
LINE
  5
275
330
404
100
AcDbEntity
  8
0
100
AcDbLine
 10
72.7856
 20
144.1196
 30
0.0
 11
72.72540000000001
 21
144.1046
 31
0.0
  0
LINE
  5
276
330
404
100
AcDbEntity
  8
0
100
AcDbLine
 10
72.72540000000001
 20
144.1046
 30
0.0
 11
72.6653
 21
144.08960000000002
 31
0.0
  0
LINE
  5
277
330
404
100
AcDbEntity
  8
0
100
AcDbLine
 10
72.6653
 20
144.08960000000002
 30
0.0
 11
72.6052
 21
144.0743
 31
0.0
  0
LINE
  5
278
330
404
100
AcDbEntity
  8
0
100
AcDbLine
 10
72.6052
 20
144.0743
 30
0.0
 11
72.5451
 21
144.059
 31
0.0
  0
LINE
  5
279
330
404
100
AcDbEntity
  8
0
100
AcDbLine
 10
72.5451
 20
144.059
 30
0.0
 11
72.485
 21
144.0435
 31
0.0
  0
LINE
  5
27A
330
404
100
AcDbEntity
  8
0
100
AcDbLine
 10
72.485
 20
144.0435
 30
0.0
 11
72.4248
 21
144.0279
 31
0.0
  0
LINE
  5
27B
330
404
100
AcDbEntity
  8
0
100
AcDbLine
 10
72.4248
 20
144.0279
 30
0.0
 11
72.3647
 21
144.0121
 31
0.0
  0
LINE
  5
27C
330
404
100
AcDbEntity
  8
0
100
AcDbLine
 10
72.3647
 20
144.0121
 30
0.0
 11
72.3046
 21
143.9962
 31
0.0
  0
LINE
  5
27D
330
404
100
AcDbEntity
  8
0
100
AcDbLine
 10
72.3046
 20
143.9962
 30
0.0
 11
72.2445
 21
143.9802
 31
0.0
  0
LINE
  5
27E
330
404
100
AcDbEntity
  8
0
100
AcDbLine
 10
72.2445
 20
143.9802
 30
0.0
 11
72.1844
 21
143.964
 31
0.0
  0
LINE
  5
27F
330
404
100
AcDbEntity
  8
0
100
AcDbLine
 10
72.1844
 20
143.964
 30
0.0
 11
72.1242
 21
143.9478
 31
0.0
  0
LINE
  5
280
330
404
100
AcDbEntity
  8
0
100
AcDbLine
 10
72.1242
 20
143.9478
 30
0.0
 11
72.0641
 21
143.9313
 31
0.0
  0
LINE
  5
281
330
404
100
AcDbEntity
  8
0
100
AcDbLine
 10
72.0641
 20
143.9313
 30
0.0
 11
72.004
 21
143.9148
 31
0.0
  0
LINE
  5
282
330
404
100
AcDbEntity
  8
0
100
AcDbLine
 10
72.004
 20
143.9148
 30
0.0
 11
71.9439
 21
143.8981
 31
0.0
  0
LINE
  5
283
330
404
100
AcDbEntity
  8
0
100
AcDbLine
 10
71.9439
 20
143.8981
 30
0.0
 11
71.88380000000001
 21
143.8812
 31
0.0
  0
LINE
  5
284
330
404
100
AcDbEntity
  8
0
100
AcDbLine
 10
71.88380000000001
 20
143.8812
 30
0.0
 11
71.8236
 21
143.86430000000001
 31
0.0
  0
LINE
  5
285
330
404
100
AcDbEntity
  8
0
100
AcDbLine
 10
71.8236
 20
143.86430000000001
 30
0.0
 11
71.7635
 21
143.8472
 31
0.0
  0
LINE
  5
286
330
404
100
AcDbEntity
  8
0
100
AcDbLine
 10
71.7635
 20
143.8472
 30
0.0
 11
71.7034
 21
143.82999999999998
 31
0.0
  0
LINE
  5
287
330
404
100
AcDbEntity
  8
0
100
AcDbLine
 10
71.7034
 20
143.82999999999998
 30
0.0
 11
71.6433
 21
143.8126
 31
0.0
  0
LINE
  5
288
330
404
100
AcDbEntity
  8
0
100
AcDbLine
 10
71.6433
 20
143.8126
 30
0.0
 11
71.5832
 21
143.7951
 31
0.0
  0
LINE
  5
289
330
404
100
AcDbEntity
  8
0
100
AcDbLine
 10
71.5832
 20
143.7951
 30
0.0
 11
71.523
 21
143.7774
 31
0.0
  0
LINE
  5
28A
330
404
100
AcDbEntity
  8
0
100
AcDbLine
 10
71.523
 20
143.7774
 30
0.0
 11
71.4629
 21
143.7597
 31
0.0
  0
LINE
  5
28B
330
404
100
AcDbEntity
  8
0
100
AcDbLine
 10
71.4629
 20
143.7597
 30
0.0
 11
71.4028
 21
143.74169999999998
 31
0.0
  0
LINE
  5
28C
330
404
100
AcDbEntity
  8
0
100
AcDbLine
 10
71.4028
 20
143.74169999999998
 30
0.0
 11
71.34270000000001
 21
143.7237
 31
0.0
  0
LINE
  5
28D
330
404
100
AcDbEntity
  8
0
100
AcDbLine
 10
71.34270000000001
 20
143.7237
 30
0.0
 11
71.2826
 21
143.7055
 31
0.0
  0
LINE
  5
28E
330
404
100
AcDbEntity
  8
0
100
AcDbLine
 10
71.2826
 20
143.7055
 30
0.0
 11
71.2224
 21
143.68720000000002
 31
0.0
  0
LINE
  5
28F
330
404
100
AcDbEntity
  8
0
100
AcDbLine
 10
71.2224
 20
143.68720000000002
 30
0.0
 11
71.1623
 21
143.6687
 31
0.0
  0
LINE
  5
290
330
404
100
AcDbEntity
  8
0
100
AcDbLine
 10
71.1623
 20
143.6687
 30
0.0
 11
71.1022
 21
143.6501
 31
0.0
  0
LINE
  5
291
330
404
100
AcDbEntity
  8
0
100
AcDbLine
 10
71.1022
 20
143.6501
 30
0.0
 11
71.0421
 21
143.63139999999999
 31
0.0
  0
LINE
  5
292
330
404
100
AcDbEntity
  8
0
100
AcDbLine
 10
71.0421
 20
143.63139999999999
 30
0.0
 11
70.9819
 21
143.6125
 31
0.0
  0
LINE
  5
293
330
404
100
AcDbEntity
  8
0
100
AcDbLine
 10
70.9819
 20
143.6125
 30
0.0
 11
70.9218
 21
143.5935
 31
0.0
  0
LINE
  5
294
330
404
100
AcDbEntity
  8
0
100
AcDbLine
 10
70.9218
 20
143.5935
 30
0.0
 11
70.8617
 21
143.5743
 31
0.0
  0
LINE
  5
295
330
404
100
AcDbEntity
  8
0
100
AcDbLine
 10
70.8617
 20
143.5743
 30
0.0
 11
70.80160000000001
 21
143.555
 31
0.0
  0
LINE
  5
296
330
404
100
AcDbEntity
  8
0
100
AcDbLine
 10
70.80160000000001
 20
143.555
 30
0.0
 11
70.7415
 21
143.5356
 31
0.0
  0
LINE
  5
297
330
404
100
AcDbEntity
  8
0
100
AcDbLine
 10
70.7415
 20
143.5356
 30
0.0
 11
70.6814
 21
143.51600000000002
 31
0.0
  0
LINE
  5
298
330
404
100
AcDbEntity
  8
0
100
AcDbLine
 10
70.6814
 20
143.51600000000002
 30
0.0
 11
70.6212
 21
143.49630000000002
 31
0.0
  0
LINE
  5
299
330
404
100
AcDbEntity
  8
0
100
AcDbLine
 10
70.6212
 20
143.49630000000002
 30
0.0
 11
70.5611
 21
143.4764
 31
0.0
  0
LINE
  5
29A
330
404
100
AcDbEntity
  8
0
100
AcDbLine
 10
70.5611
 20
143.4764
 30
0.0
 11
70.501
 21
143.4564
 31
0.0
  0
LINE
  5
29B
330
404
100
AcDbEntity
  8
0
100
AcDbLine
 10
70.501
 20
143.4564
 30
0.0
 11
70.4409
 21
143.43630000000002
 31
0.0
  0
LINE
  5
29C
330
404
100
AcDbEntity
  8
0
100
AcDbLine
 10
70.4409
 20
143.43630000000002
 30
0.0
 11
70.3808
 21
143.416
 31
0.0
  0
LINE
  5
29D
330
404
100
AcDbEntity
  8
0
100
AcDbLine
 10
70.3808
 20
143.416
 30
0.0
 11
70.3206
 21
143.3956
 31
0.0
  0
LINE
  5
29E
330
404
100
AcDbEntity
  8
0
100
AcDbLine
 10
70.3206
 20
143.3956
 30
0.0
 11
70.26050000000001
 21
143.375
 31
0.0
  0
LINE
  5
29F
330
404
100
AcDbEntity
  8
0
100
AcDbLine
 10
70.26050000000001
 20
143.375
 30
0.0
 11
70.2004
 21
143.3543
 31
0.0
  0
LINE
  5
2A0
330
404
100
AcDbEntity
  8
0
100
AcDbLine
 10
70.2004
 20
143.3543
 30
0.0
 11
70.1403
 21
143.33350000000002
 31
0.0
  0
LINE
  5
2A1
330
404
100
AcDbEntity
  8
0
100
AcDbLine
 10
70.1403
 20
143.33350000000002
 30
0.0
 11
70.0802
 21
143.3125
 31
0.0
  0
LINE
  5
2A2
330
404
100
AcDbEntity
  8
0
100
AcDbLine
 10
70.0802
 20
143.3125
 30
0.0
 11
70.02
 21
143.2913
 31
0.0
  0
LINE
  5
2A3
330
404
100
AcDbEntity
  8
0
100
AcDbLine
 10
70.02
 20
143.2913
 30
0.0
 11
69.9599
 21
143.2701
 31
0.0
  0
LINE
  5
2A4
330
404
100
AcDbEntity
  8
0
100
AcDbLine
 10
69.9599
 20
143.2701
 30
0.0
 11
69.8998
 21
143.2486
 31
0.0
  0
LINE
  5
2A5
330
404
100
AcDbEntity
  8
0
100
AcDbLine
 10
69.8998
 20
143.2486
 30
0.0
 11
69.8397
 21
143.2271
 31
0.0
  0
LINE
  5
2A6
330
404
100
AcDbEntity
  8
0
100
AcDbLine
 10
69.8397
 20
143.2271
 30
0.0
 11
69.7796
 21
143.2054
 31
0.0
  0
LINE
  5
2A7
330
404
100
AcDbEntity
  8
0
100
AcDbLine
 10
69.7796
 20
143.2054
 30
0.0
 11
69.71940000000001
 21
143.18349999999998
 31
0.0
  0
LINE
  5
2A8
330
404
100
AcDbEntity
  8
0
100
AcDbLine
 10
69.71940000000001
 20
143.18349999999998
 30
0.0
 11
69.6593
 21
143.1615
 31
0.0
  0
LINE
  5
2A9
330
404
100
AcDbEntity
  8
0
100
AcDbLine
 10
69.6593
 20
143.1615
 30
0.0
 11
69.5992
 21
143.1393
 31
0.0
  0
LINE
  5
2AA
330
404
100
AcDbEntity
  8
0
100
AcDbLine
 10
69.5992
 20
143.1393
 30
0.0
 11
69.5391
 21
143.1171
 31
0.0
  0
LINE
  5
2AB
330
404
100
AcDbEntity
  8
0
100
AcDbLine
 10
69.5391
 20
143.1171
 30
0.0
 11
69.4789
 21
143.0946
 31
0.0
  0
LINE
  5
2AC
330
404
100
AcDbEntity
  8
0
100
AcDbLine
 10
69.4789
 20
143.0946
 30
0.0
 11
69.4188
 21
143.072
 31
0.0
  0
LINE
  5
2AD
330
404
100
AcDbEntity
  8
0
100
AcDbLine
 10
69.4188
 20
143.072
 30
0.0
 11
69.3587
 21
143.04930000000002
 31
0.0
  0
LINE
  5
2AE
330
404
100
AcDbEntity
  8
0
100
AcDbLine
 10
69.3587
 20
143.04930000000002
 30
0.0
 11
69.2986
 21
143.0264
 31
0.0
  0
LINE
  5
2AF
330
404
100
AcDbEntity
  8
0
100
AcDbLine
 10
69.2986
 20
143.0264
 30
0.0
 11
69.2385
 21
143.0034
 31
0.0
  0
LINE
  5
2B0
330
404
100
AcDbEntity
  8
0
100
AcDbLine
 10
69.2385
 20
143.0034
 30
0.0
 11
69.17830000000001
 21
142.9802
 31
0.0
  0
LINE
  5
2B1
330
404
100
AcDbEntity
  8
0
100
AcDbLine
 10
69.17830000000001
 20
142.9802
 30
0.0
 11
69.1182
 21
142.95690000000002
 31
0.0
  0
LINE
  5
2B2
330
404
100
AcDbEntity
  8
0
100
AcDbLine
 10
69.1182
 20
142.95690000000002
 30
0.0
 11
69.0581
 21
142.9334
 31
0.0
  0
LINE
  5
2B3
330
404
100
AcDbEntity
  8
0
100
AcDbLine
 10
69.0581
 20
142.9334
 30
0.0
 11
68.998
 21
142.90980000000002
 31
0.0
  0
LINE
  5
2B4
330
404
100
AcDbEntity
  8
0
100
AcDbLine
 10
68.998
 20
142.90980000000002
 30
0.0
 11
68.9379
 21
142.886
 31
0.0
  0
LINE
  5
2B5
330
404
100
AcDbEntity
  8
0
100
AcDbLine
 10
68.9379
 20
142.886
 30
0.0
 11
68.8777
 21
142.8621
 31
0.0
  0
LINE
  5
2B6
330
404
100
AcDbEntity
  8
0
100
AcDbLine
 10
68.8777
 20
142.8621
 30
0.0
 11
68.8176
 21
142.838
 31
0.0
  0
LINE
  5
2B7
330
404
100
AcDbEntity
  8
0
100
AcDbLine
 10
68.8176
 20
142.838
 30
0.0
 11
68.7575
 21
142.81380000000001
 31
0.0
  0
LINE
  5
2B8
330
404
100
AcDbEntity
  8
0
100
AcDbLine
 10
68.7575
 20
142.81380000000001
 30
0.0
 11
68.6974
 21
142.7894
 31
0.0
  0
LINE
  5
2B9
330
404
100
AcDbEntity
  8
0
100
AcDbLine
 10
68.6974
 20
142.7894
 30
0.0
 11
68.6373
 21
142.7649
 31
0.0
  0
LINE
  5
2BA
330
404
100
AcDbEntity
  8
0
100
AcDbLine
 10
68.6373
 20
142.7649
 30
0.0
 11
68.5771
 21
142.74020000000002
 31
0.0
  0
LINE
  5
2BB
330
404
100
AcDbEntity
  8
0
100
AcDbLine
 10
68.5771
 20
142.74020000000002
 30
0.0
 11
68.517
 21
142.7154
 31
0.0
  0
LINE
  5
2BC
330
404
100
AcDbEntity
  8
0
100
AcDbLine
 10
68.517
 20
142.7154
 30
0.0
 11
68.4569
 21
142.6904
 31
0.0
  0
LINE
  5
2BD
330
404
100
AcDbEntity
  8
0
100
AcDbLine
 10
68.4569
 20
142.6904
 30
0.0
 11
68.3968
 21
142.6652
 31
0.0
  0
LINE
  5
2BE
330
404
100
AcDbEntity
  8
0
100
AcDbLine
 10
68.3968
 20
142.6652
 30
0.0
 11
68.33670000000001
 21
142.6399
 31
0.0
  0
LINE
  5
2BF
330
404
100
AcDbEntity
  8
0
100
AcDbLine
 10
68.33670000000001
 20
142.6399
 30
0.0
 11
68.2766
 21
142.61450000000002
 31
0.0
  0
LINE
  5
2C0
330
404
100
AcDbEntity
  8
0
100
AcDbLine
 10
68.2766
 20
142.61450000000002
 30
0.0
 11
68.2164
 21
142.5889
 31
0.0
  0
LINE
  5
2C1
330
404
100
AcDbEntity
  8
0
100
AcDbLine
 10
68.2164
 20
142.5889
 30
0.0
 11
68.1563
 21
142.56310000000002
 31
0.0
  0
LINE
  5
2C2
330
404
100
AcDbEntity
  8
0
100
AcDbLine
 10
68.1563
 20
142.56310000000002
 30
0.0
 11
68.0962
 21
142.53719999999998
 31
0.0
  0
LINE
  5
2C3
330
404
100
AcDbEntity
  8
0
100
AcDbLine
 10
68.0962
 20
142.53719999999998
 30
0.0
 11
68.0361
 21
142.5112
 31
0.0
  0
LINE
  5
2C4
330
404
100
AcDbEntity
  8
0
100
AcDbLine
 10
68.0361
 20
142.5112
 30
0.0
 11
67.9759
 21
142.48489999999998
 31
0.0
  0
LINE
  5
2C5
330
404
100
AcDbEntity
  8
0
100
AcDbLine
 10
67.9759
 20
142.48489999999998
 30
0.0
 11
67.9158
 21
142.4586
 31
0.0
  0
LINE
  5
2C6
330
404
100
AcDbEntity
  8
0
100
AcDbLine
 10
67.9158
 20
142.4586
 30
0.0
 11
67.8557
 21
142.43200000000002
 31
0.0
  0
LINE
  5
2C7
330
404
100
AcDbEntity
  8
0
100
AcDbLine
 10
67.8557
 20
142.43200000000002
 30
0.0
 11
67.79560000000001
 21
142.4053
 31
0.0
  0
LINE
  5
2C8
330
404
100
AcDbEntity
  8
0
100
AcDbLine
 10
67.79560000000001
 20
142.4053
 30
0.0
 11
67.7355
 21
142.3785
 31
0.0
  0
LINE
  5
2C9
330
404
100
AcDbEntity
  8
0
100
AcDbLine
 10
67.7355
 20
142.3785
 30
0.0
 11
67.6753
 21
142.3515
 31
0.0
  0
LINE
  5
2CA
330
404
100
AcDbEntity
  8
0
100
AcDbLine
 10
67.6753
 20
142.3515
 30
0.0
 11
67.6152
 21
142.3243
 31
0.0
  0
LINE
  5
2CB
330
404
100
AcDbEntity
  8
0
100
AcDbLine
 10
67.6152
 20
142.3243
 30
0.0
 11
67.5551
 21
142.297
 31
0.0
  0
LINE
  5
2CC
330
404
100
AcDbEntity
  8
0
100
AcDbLine
 10
67.5551
 20
142.297
 30
0.0
 11
67.495
 21
142.2695
 31
0.0
  0
LINE
  5
2CD
330
404
100
AcDbEntity
  8
0
100
AcDbLine
 10
67.495
 20
142.2695
 30
0.0
 11
67.4349
 21
142.2418
 31
0.0
  0
LINE
  5
2CE
330
404
100
AcDbEntity
  8
0
100
AcDbLine
 10
67.4349
 20
142.2418
 30
0.0
 11
67.3747
 21
142.214
 31
0.0
  0
LINE
  5
2CF
330
404
100
AcDbEntity
  8
0
100
AcDbLine
 10
67.3747
 20
142.214
 30
0.0
 11
67.3146
 21
142.1861
 31
0.0
  0
LINE
  5
2D0
330
404
100
AcDbEntity
  8
0
100
AcDbLine
 10
67.3146
 20
142.1861
 30
0.0
 11
67.25450000000001
 21
142.15789999999998
 31
0.0
  0
LINE
  5
2D1
330
404
100
AcDbEntity
  8
0
100
AcDbLine
 10
67.25450000000001
 20
142.15789999999998
 30
0.0
 11
67.1944
 21
142.12959999999998
 31
0.0
  0
LINE
  5
2D2
330
404
100
AcDbEntity
  8
0
100
AcDbLine
 10
67.1944
 20
142.12959999999998
 30
0.0
 11
67.1343
 21
142.1012
 31
0.0
  0
LINE
  5
2D3
330
404
100
AcDbEntity
  8
0
100
AcDbLine
 10
67.1343
 20
142.1012
 30
0.0
 11
67.0741
 21
142.0725
 31
0.0
  0
LINE
  5
2D4
330
404
100
AcDbEntity
  8
0
100
AcDbLine
 10
67.0741
 20
142.0725
 30
0.0
 11
67.014
 21
142.0437
 31
0.0
  0
LINE
  5
2D5
330
404
100
AcDbEntity
  8
0
100
AcDbLine
 10
67.014
 20
142.0437
 30
0.0
 11
66.9539
 21
142.01479999999998
 31
0.0
  0
LINE
  5
2D6
330
404
100
AcDbEntity
  8
0
100
AcDbLine
 10
66.9539
 20
142.01479999999998
 30
0.0
 11
66.8938
 21
141.9857
 31
0.0
  0
LINE
  5
2D7
330
404
100
AcDbEntity
  8
0
100
AcDbLine
 10
66.8938
 20
141.9857
 30
0.0
 11
66.8337
 21
141.9564
 31
0.0
  0
LINE
  5
2D8
330
404
100
AcDbEntity
  8
0
100
AcDbLine
 10
66.8337
 20
141.9564
 30
0.0
 11
66.7735
 21
141.9269
 31
0.0
  0
LINE
  5
2D9
330
404
100
AcDbEntity
  8
0
100
AcDbLine
 10
66.7735
 20
141.9269
 30
0.0
 11
66.71340000000001
 21
141.8973
 31
0.0
  0
LINE
  5
2DA
330
404
100
AcDbEntity
  8
0
100
AcDbLine
 10
66.71340000000001
 20
141.8973
 30
0.0
 11
66.6533
 21
141.86759999999998
 31
0.0
  0
LINE
  5
2DB
330
404
100
AcDbEntity
  8
0
100
AcDbLine
 10
66.6533
 20
141.86759999999998
 30
0.0
 11
66.5932
 21
141.8376
 31
0.0
  0
LINE
  5
2DC
330
404
100
AcDbEntity
  8
0
100
AcDbLine
 10
66.5932
 20
141.8376
 30
0.0
 11
66.5331
 21
141.8075
 31
0.0
  0
LINE
  5
2DD
330
404
100
AcDbEntity
  8
0
100
AcDbLine
 10
66.5331
 20
141.8075
 30
0.0
 11
66.4729
 21
141.7772
 31
0.0
  0
LINE
  5
2DE
330
404
100
AcDbEntity
  8
0
100
AcDbLine
 10
66.4729
 20
141.7772
 30
0.0
 11
66.4128
 21
141.7467
 31
0.0
  0
LINE
  5
2DF
330
404
100
AcDbEntity
  8
0
100
AcDbLine
 10
66.4128
 20
141.7467
 30
0.0
 11
66.3527
 21
141.71609999999998
 31
0.0
  0
LINE
  5
2E0
330
404
100
AcDbEntity
  8
0
100
AcDbLine
 10
66.3527
 20
141.71609999999998
 30
0.0
 11
66.2926
 21
141.68529999999998
 31
0.0
  0
LINE
  5
2E1
330
404
100
AcDbEntity
  8
0
100
AcDbLine
 10
66.2926
 20
141.68529999999998
 30
0.0
 11
66.2325
 21
141.6544
 31
0.0
  0
LINE
  5
2E2
330
404
100
AcDbEntity
  8
0
100
AcDbLine
 10
66.2325
 20
141.6544
 30
0.0
 11
66.1723
 21
141.6232
 31
0.0
  0
LINE
  5
2E3
330
404
100
AcDbEntity
  8
0
100
AcDbLine
 10
66.1723
 20
141.6232
 30
0.0
 11
66.1122
 21
141.5919
 31
0.0
  0
LINE
  5
2E4
330
404
100
AcDbEntity
  8
0
100
AcDbLine
 10
66.1122
 20
141.5919
 30
0.0
 11
66.0521
 21
141.56040000000002
 31
0.0
  0
LINE
  5
2E5
330
404
100
AcDbEntity
  8
0
100
AcDbLine
 10
66.0521
 20
141.56040000000002
 30
0.0
 11
65.992
 21
141.5288
 31
0.0
  0
LINE
  5
2E6
330
404
100
AcDbEntity
  8
0
100
AcDbLine
 10
65.992
 20
141.5288
 30
0.0
 11
65.9319
 21
141.49689999999998
 31
0.0
  0
LINE
  5
2E7
330
404
100
AcDbEntity
  8
0
100
AcDbLine
 10
65.9319
 20
141.49689999999998
 30
0.0
 11
65.8717
 21
141.4649
 31
0.0
  0
LINE
  5
2E8
330
404
100
AcDbEntity
  8
0
100
AcDbLine
 10
65.8717
 20
141.4649
 30
0.0
 11
65.8116
 21
141.4327
 31
0.0
  0
LINE
  5
2E9
330
404
100
AcDbEntity
  8
0
100
AcDbLine
 10
65.8116
 20
141.4327
 30
0.0
 11
65.7515
 21
141.4004
 31
0.0
  0
LINE
  5
2EA
330
404
100
AcDbEntity
  8
0
100
AcDbLine
 10
65.7515
 20
141.4004
 30
0.0
 11
65.6914
 21
141.3678
 31
0.0
  0
LINE
  5
2EB
330
404
100
AcDbEntity
  8
0
100
AcDbLine
 10
65.6914
 20
141.3678
 30
0.0
 11
65.6313
 21
141.3351
 31
0.0
  0
LINE
  5
2EC
330
404
100
AcDbEntity
  8
0
100
AcDbLine
 10
65.6313
 20
141.3351
 30
0.0
 11
65.5711
 21
141.3022
 31
0.0
  0
LINE
  5
2ED
330
404
100
AcDbEntity
  8
0
100
AcDbLine
 10
65.5711
 20
141.3022
 30
0.0
 11
65.511
 21
141.2692
 31
0.0
  0
LINE
  5
2EE
330
404
100
AcDbEntity
  8
0
100
AcDbLine
 10
65.511
 20
141.2692
 30
0.0
 11
65.4509
 21
141.23590000000002
 31
0.0
  0
LINE
  5
2EF
330
404
100
AcDbEntity
  8
0
100
AcDbLine
 10
65.4509
 20
141.23590000000002
 30
0.0
 11
65.3908
 21
141.2025
 31
0.0
  0
LINE
  5
2F0
330
404
100
AcDbEntity
  8
0
100
AcDbLine
 10
65.3908
 20
141.2025
 30
0.0
 11
65.33070000000001
 21
141.1689
 31
0.0
  0
LINE
  5
2F1
330
404
100
AcDbEntity
  8
0
100
AcDbLine
 10
65.33070000000001
 20
141.1689
 30
0.0
 11
65.2705
 21
141.1351
 31
0.0
  0
LINE
  5
2F2
330
404
100
AcDbEntity
  8
0
100
AcDbLine
 10
65.2705
 20
141.1351
 30
0.0
 11
65.21039999999999
 21
141.1011
 31
0.0
  0
LINE
  5
2F3
330
404
100
AcDbEntity
  8
0
100
AcDbLine
 10
65.21039999999999
 20
141.1011
 30
0.0
 11
65.1503
 21
141.067
 31
0.0
  0
LINE
  5
2F4
330
404
100
AcDbEntity
  8
0
100
AcDbLine
 10
65.1503
 20
141.067
 30
0.0
 11
65.0902
 21
141.0326
 31
0.0
  0
LINE
  5
2F5
330
404
100
AcDbEntity
  8
0
100
AcDbLine
 10
65.0902
 20
141.0326
 30
0.0
 11
65.0301
 21
140.9981
 31
0.0
  0
LINE
  5
2F6
330
404
100
AcDbEntity
  8
0
100
AcDbLine
 10
65.0301
 20
140.9981
 30
0.0
 11
64.9699
 21
140.96339999999998
 31
0.0
  0
LINE
  5
2F7
330
404
100
AcDbEntity
  8
0
100
AcDbLine
 10
64.9699
 20
140.96339999999998
 30
0.0
 11
64.9098
 21
140.92849999999999
 31
0.0
  0
LINE
  5
2F8
330
404
100
AcDbEntity
  8
0
100
AcDbLine
 10
64.9098
 20
140.92849999999999
 30
0.0
 11
64.8497
 21
140.89339999999999
 31
0.0
  0
LINE
  5
2F9
330
404
100
AcDbEntity
  8
0
100
AcDbLine
 10
64.8497
 20
140.89339999999999
 30
0.0
 11
64.78960000000001
 21
140.85809999999998
 31
0.0
  0
LINE
  5
2FA
330
404
100
AcDbEntity
  8
0
100
AcDbLine
 10
64.78960000000001
 20
140.85809999999998
 30
0.0
 11
64.7294
 21
140.8227
 31
0.0
  0
LINE
  5
2FB
330
404
100
AcDbEntity
  8
0
100
AcDbLine
 10
64.7294
 20
140.8227
 30
0.0
 11
64.66929999999999
 21
140.787
 31
0.0
  0
LINE
  5
2FC
330
404
100
AcDbEntity
  8
0
100
AcDbLine
 10
64.66929999999999
 20
140.787
 30
0.0
 11
64.6092
 21
140.75119999999998
 31
0.0
  0
LINE
  5
2FD
330
404
100
AcDbEntity
  8
0
100
AcDbLine
 10
64.6092
 20
140.75119999999998
 30
0.0
 11
64.5491
 21
140.7151
 31
0.0
  0
LINE
  5
2FE
330
404
100
AcDbEntity
  8
0
100
AcDbLine
 10
64.5491
 20
140.7151
 30
0.0
 11
64.489
 21
140.6789
 31
0.0
  0
LINE
  5
2FF
330
404
100
AcDbEntity
  8
0
100
AcDbLine
 10
64.489
 20
140.6789
 30
0.0
 11
64.4288
 21
140.64249999999998
 31
0.0
  0
LINE
  5
300
330
404
100
AcDbEntity
  8
0
100
AcDbLine
 10
64.4288
 20
140.64249999999998
 30
0.0
 11
64.3687
 21
140.60590000000002
 31
0.0
  0
LINE
  5
301
330
404
100
AcDbEntity
  8
0
100
AcDbLine
 10
64.3687
 20
140.60590000000002
 30
0.0
 11
64.3086
 21
140.5691
 31
0.0
  0
LINE
  5
302
330
404
100
AcDbEntity
  8
0
100
AcDbLine
 10
64.3086
 20
140.5691
 30
0.0
 11
64.2485
 21
140.5321
 31
0.0
  0
LINE
  5
303
330
404
100
AcDbEntity
  8
0
100
AcDbLine
 10
64.2485
 20
140.5321
 30
0.0
 11
64.1884
 21
140.4949
 31
0.0
  0
LINE
  5
304
330
404
100
AcDbEntity
  8
0
100
AcDbLine
 10
64.1884
 20
140.4949
 30
0.0
 11
64.1283
 21
140.4576
 31
0.0
  0
LINE
  5
305
330
404
100
AcDbEntity
  8
0
100
AcDbLine
 10
64.1283
 20
140.4576
 30
0.0
 11
64.0681
 21
140.42000000000002
 31
0.0
  0
LINE
  5
306
330
404
100
AcDbEntity
  8
0
100
AcDbLine
 10
64.0681
 20
140.42000000000002
 30
0.0
 11
64.008
 21
140.3822
 31
0.0
  0
LINE
  5
307
330
404
100
AcDbEntity
  8
0
100
AcDbLine
 10
64.008
 20
140.3822
 30
0.0
 11
63.947900000000004
 21
140.3442
 31
0.0
  0
LINE
  5
308
330
404
100
AcDbEntity
  8
0
100
AcDbLine
 10
63.947900000000004
 20
140.3442
 30
0.0
 11
63.8878
 21
140.30599999999998
 31
0.0
  0
LINE
  5
309
330
404
100
AcDbEntity
  8
0
100
AcDbLine
 10
63.8878
 20
140.30599999999998
 30
0.0
 11
63.8277
 21
140.2677
 31
0.0
  0
LINE
  5
30A
330
404
100
AcDbEntity
  8
0
100
AcDbLine
 10
63.8277
 20
140.2677
 30
0.0
 11
63.7675
 21
140.22910000000002
 31
0.0
  0
LINE
  5
30B
330
404
100
AcDbEntity
  8
0
100
AcDbLine
 10
63.7675
 20
140.22910000000002
 30
0.0
 11
63.7074
 21
140.19029999999998
 31
0.0
  0
LINE
  5
30C
330
404
100
AcDbEntity
  8
0
100
AcDbLine
 10
63.7074
 20
140.19029999999998
 30
0.0
 11
63.6473
 21
140.1513
 31
0.0
  0
LINE
  5
30D
330
404
100
AcDbEntity
  8
0
100
AcDbLine
 10
63.6473
 20
140.1513
 30
0.0
 11
63.587199999999996
 21
140.1121
 31
0.0
  0
LINE
  5
30E
330
404
100
AcDbEntity
  8
0
100
AcDbLine
 10
63.587199999999996
 20
140.1121
 30
0.0
 11
63.527100000000004
 21
140.0727
 31
0.0
  0
LINE
  5
30F
330
404
100
AcDbEntity
  8
0
100
AcDbLine
 10
63.527100000000004
 20
140.0727
 30
0.0
 11
63.4669
 21
140.0331
 31
0.0
  0
LINE
  5
310
330
404
100
AcDbEntity
  8
0
100
AcDbLine
 10
63.4669
 20
140.0331
 30
0.0
 11
63.406800000000004
 21
139.9933
 31
0.0
  0
LINE
  5
311
330
404
100
AcDbEntity
  8
0
100
AcDbLine
 10
63.406800000000004
 20
139.9933
 30
0.0
 11
63.3467
 21
139.9533
 31
0.0
  0
LINE
  5
312
330
404
100
AcDbEntity
  8
0
100
AcDbLine
 10
63.3467
 20
139.9533
 30
0.0
 11
63.2866
 21
139.9131
 31
0.0
  0
LINE
  5
313
330
404
100
AcDbEntity
  8
0
100
AcDbLine
 10
63.2866
 20
139.9131
 30
0.0
 11
63.2264
 21
139.8726
 31
0.0
  0
LINE
  5
314
330
404
100
AcDbEntity
  8
0
100
AcDbLine
 10
63.2264
 20
139.8726
 30
0.0
 11
63.1663
 21
139.832
 31
0.0
  0
LINE
  5
315
330
404
100
AcDbEntity
  8
0
100
AcDbLine
 10
63.1663
 20
139.832
 30
0.0
 11
63.1062
 21
139.7911
 31
0.0
  0
LINE
  5
316
330
404
100
AcDbEntity
  8
0
100
AcDbLine
 10
63.1062
 20
139.7911
 30
0.0
 11
63.046099999999996
 21
139.75
 31
0.0
  0
LINE
  5
317
330
404
100
AcDbEntity
  8
0
100
AcDbLine
 10
63.046099999999996
 20
139.75
 30
0.0
 11
62.986000000000004
 21
139.7088
 31
0.0
  0
LINE
  5
318
330
404
100
AcDbEntity
  8
0
100
AcDbLine
 10
62.986000000000004
 20
139.7088
 30
0.0
 11
62.9258
 21
139.6673
 31
0.0
  0
LINE
  5
319
330
404
100
AcDbEntity
  8
0
100
AcDbLine
 10
62.9258
 20
139.6673
 30
0.0
 11
62.865700000000004
 21
139.6255
 31
0.0
  0
LINE
  5
31A
330
404
100
AcDbEntity
  8
0
100
AcDbLine
 10
62.865700000000004
 20
139.6255
 30
0.0
 11
62.8056
 21
139.5836
 31
0.0
  0
LINE
  5
31B
330
404
100
AcDbEntity
  8
0
100
AcDbLine
 10
62.8056
 20
139.5836
 30
0.0
 11
62.7455
 21
139.5414
 31
0.0
  0
LINE
  5
31C
330
404
100
AcDbEntity
  8
0
100
AcDbLine
 10
62.7455
 20
139.5414
 30
0.0
 11
62.6854
 21
139.499
 31
0.0
  0
LINE
  5
31D
330
404
100
AcDbEntity
  8
0
100
AcDbLine
 10
62.6854
 20
139.499
 30
0.0
 11
62.6252
 21
139.4565
 31
0.0
  0
LINE
  5
31E
330
404
100
AcDbEntity
  8
0
100
AcDbLine
 10
62.6252
 20
139.4565
 30
0.0
 11
62.5651
 21
139.4136
 31
0.0
  0
LINE
  5
31F
330
404
100
AcDbEntity
  8
0
100
AcDbLine
 10
62.5651
 20
139.4136
 30
0.0
 11
62.505
 21
139.3706
 31
0.0
  0
LINE
  5
320
330
404
100
AcDbEntity
  8
0
100
AcDbLine
 10
62.505
 20
139.3706
 30
0.0
 11
62.444900000000004
 21
139.32729999999998
 31
0.0
  0
LINE
  5
321
330
404
100
AcDbEntity
  8
0
100
AcDbLine
 10
62.444900000000004
 20
139.32729999999998
 30
0.0
 11
62.3848
 21
139.28379999999999
 31
0.0
  0
LINE
  5
322
330
404
100
AcDbEntity
  8
0
100
AcDbLine
 10
62.3848
 20
139.28379999999999
 30
0.0
 11
62.324600000000004
 21
139.24009999999998
 31
0.0
  0
LINE
  5
323
330
404
100
AcDbEntity
  8
0
100
AcDbLine
 10
62.324600000000004
 20
139.24009999999998
 30
0.0
 11
62.2645
 21
139.1961
 31
0.0
  0
LINE
  5
324
330
404
100
AcDbEntity
  8
0
100
AcDbLine
 10
62.2645
 20
139.1961
 30
0.0
 11
62.2044
 21
139.1519
 31
0.0
  0
LINE
  5
325
330
404
100
AcDbEntity
  8
0
100
AcDbLine
 10
62.2044
 20
139.1519
 30
0.0
 11
62.1443
 21
139.10750000000002
 31
0.0
  0
LINE
  5
326
330
404
100
AcDbEntity
  8
0
100
AcDbLine
 10
62.1443
 20
139.10750000000002
 30
0.0
 11
62.084199999999996
 21
139.0629
 31
0.0
  0
LINE
  5
327
330
404
100
AcDbEntity
  8
0
100
AcDbLine
 10
62.084199999999996
 20
139.0629
 30
0.0
 11
62.024
 21
139.018
 31
0.0
  0
LINE
  5
328
330
404
100
AcDbEntity
  8
0
100
AcDbLine
 10
62.024
 20
139.018
 30
0.0
 11
61.9639
 21
138.97289999999998
 31
0.0
  0
LINE
  5
329
330
404
100
AcDbEntity
  8
0
100
AcDbLine
 10
61.9639
 20
138.97289999999998
 30
0.0
 11
61.903800000000004
 21
138.92759999999998
 31
0.0
  0
LINE
  5
32A
330
404
100
AcDbEntity
  8
0
100
AcDbLine
 10
61.903800000000004
 20
138.92759999999998
 30
0.0
 11
61.8437
 21
138.882
 31
0.0
  0
LINE
  5
32B
330
404
100
AcDbEntity
  8
0
100
AcDbLine
 10
61.8437
 20
138.882
 30
0.0
 11
61.7836
 21
138.8361
 31
0.0
  0
LINE
  5
32C
330
404
100
AcDbEntity
  8
0
100
AcDbLine
 10
61.7836
 20
138.8361
 30
0.0
 11
61.7234
 21
138.7901
 31
0.0
  0
LINE
  5
32D
330
404
100
AcDbEntity
  8
0
100
AcDbLine
 10
61.7234
 20
138.7901
 30
0.0
 11
61.6633
 21
138.7438
 31
0.0
  0
LINE
  5
32E
330
404
100
AcDbEntity
  8
0
100
AcDbLine
 10
61.6633
 20
138.7438
 30
0.0
 11
61.6032
 21
138.6972
 31
0.0
  0
LINE
  5
32F
330
404
100
AcDbEntity
  8
0
100
AcDbLine
 10
61.6032
 20
138.6972
 30
0.0
 11
61.5431
 21
138.6504
 31
0.0
  0
LINE
  5
330
330
404
100
AcDbEntity
  8
0
100
AcDbLine
 10
61.5431
 20
138.6504
 30
0.0
 11
61.483000000000004
 21
138.6034
 31
0.0
  0
LINE
  5
331
330
404
100
AcDbEntity
  8
0
100
AcDbLine
 10
61.483000000000004
 20
138.6034
 30
0.0
 11
61.4228
 21
138.55610000000001
 31
0.0
  0
LINE
  5
332
330
404
100
AcDbEntity
  8
0
100
AcDbLine
 10
61.4228
 20
138.55610000000001
 30
0.0
 11
61.362700000000004
 21
138.5085
 31
0.0
  0
LINE
  5
333
330
404
100
AcDbEntity
  8
0
100
AcDbLine
 10
61.362700000000004
 20
138.5085
 30
0.0
 11
61.3026
 21
138.4608
 31
0.0
  0
LINE
  5
334
330
404
100
AcDbEntity
  8
0
100
AcDbLine
 10
61.3026
 20
138.4608
 30
0.0
 11
61.2425
 21
138.4127
 31
0.0
  0
LINE
  5
335
330
404
100
AcDbEntity
  8
0
100
AcDbLine
 10
61.2425
 20
138.4127
 30
0.0
 11
61.1824
 21
138.3644
 31
0.0
  0
LINE
  5
336
330
404
100
AcDbEntity
  8
0
100
AcDbLine
 10
61.1824
 20
138.3644
 30
0.0
 11
61.1222
 21
138.3159
 31
0.0
  0
LINE
  5
337
330
404
100
AcDbEntity
  8
0
100
AcDbLine
 10
61.1222
 20
138.3159
 30
0.0
 11
61.0621
 21
138.2671
 31
0.0
  0
LINE
  5
338
330
404
100
AcDbEntity
  8
0
100
AcDbLine
 10
61.0621
 20
138.2671
 30
0.0
 11
61.002
 21
138.21800000000002
 31
0.0
  0
LINE
  5
339
330
404
100
AcDbEntity
  8
0
100
AcDbLine
 10
61.002
 20
138.21800000000002
 30
0.0
 11
60.941900000000004
 21
138.1687
 31
0.0
  0
LINE
  5
33A
330
404
100
AcDbEntity
  8
0
100
AcDbLine
 10
60.941900000000004
 20
138.1687
 30
0.0
 11
60.8818
 21
138.1191
 31
0.0
  0
LINE
  5
33B
330
404
100
AcDbEntity
  8
0
100
AcDbLine
 10
60.8818
 20
138.1191
 30
0.0
 11
60.821600000000004
 21
138.0692
 31
0.0
  0
LINE
  5
33C
330
404
100
AcDbEntity
  8
0
100
AcDbLine
 10
60.821600000000004
 20
138.0692
 30
0.0
 11
60.7615
 21
138.01909999999998
 31
0.0
  0
LINE
  5
33D
330
404
100
AcDbEntity
  8
0
100
AcDbLine
 10
60.7615
 20
138.01909999999998
 30
0.0
 11
60.7014
 21
137.9688
 31
0.0
  0
LINE
  5
33E
330
404
100
AcDbEntity
  8
0
100
AcDbLine
 10
60.7014
 20
137.9688
 30
0.0
 11
60.6413
 21
137.91809999999998
 31
0.0
  0
LINE
  5
33F
330
404
100
AcDbEntity
  8
0
100
AcDbLine
 10
60.6413
 20
137.91809999999998
 30
0.0
 11
60.5812
 21
137.8672
 31
0.0
  0
LINE
  5
340
330
404
100
AcDbEntity
  8
0
100
AcDbLine
 10
60.5812
 20
137.8672
 30
0.0
 11
60.521
 21
137.816
 31
0.0
  0
LINE
  5
341
330
404
100
AcDbEntity
  8
0
100
AcDbLine
 10
60.521
 20
137.816
 30
0.0
 11
60.4609
 21
137.7645
 31
0.0
  0
LINE
  5
342
330
404
100
AcDbEntity
  8
0
100
AcDbLine
 10
60.4609
 20
137.7645
 30
0.0
 11
60.400800000000004
 21
137.71280000000002
 31
0.0
  0
LINE
  5
343
330
404
100
AcDbEntity
  8
0
100
AcDbLine
 10
60.400800000000004
 20
137.71280000000002
 30
0.0
 11
60.3407
 21
137.6608
 31
0.0
  0
LINE
  5
344
330
404
100
AcDbEntity
  8
0
100
AcDbLine
 10
60.3407
 20
137.6608
 30
0.0
 11
60.2805
 21
137.6085
 31
0.0
  0
LINE
  5
345
330
404
100
AcDbEntity
  8
0
100
AcDbLine
 10
60.2805
 20
137.6085
 30
0.0
 11
60.2204
 21
137.5559
 31
0.0
  0
LINE
  5
346
330
404
100
AcDbEntity
  8
0
100
AcDbLine
 10
60.2204
 20
137.5559
 30
0.0
 11
60.1603
 21
137.503
 31
0.0
  0
LINE
  5
347
330
404
100
AcDbEntity
  8
0
100
AcDbLine
 10
60.1603
 20
137.503
 30
0.0
 11
60.1002
 21
137.4499
 31
0.0
  0
LINE
  5
348
330
404
100
AcDbEntity
  8
0
100
AcDbLine
 10
60.1002
 20
137.4499
 30
0.0
 11
60.0401
 21
137.3965
 31
0.0
  0
LINE
  5
349
330
404
100
AcDbEntity
  8
0
100
AcDbLine
 10
60.0401
 20
137.3965
 30
0.0
 11
59.97995
 21
137.34269999999998
 31
0.0
  0
LINE
  5
34A
330
404
100
AcDbEntity
  8
0
100
AcDbLine
 10
59.97995
 20
137.34269999999998
 30
0.0
 11
59.91983
 21
137.2887
 31
0.0
  0
LINE
  5
34B
330
404
100
AcDbEntity
  8
0
100
AcDbLine
 10
59.91983
 20
137.2887
 30
0.0
 11
59.85971
 21
137.2344
 31
0.0
  0
LINE
  5
34C
330
404
100
AcDbEntity
  8
0
100
AcDbLine
 10
59.85971
 20
137.2344
 30
0.0
 11
59.79959
 21
137.1798
 31
0.0
  0
LINE
  5
34D
330
404
100
AcDbEntity
  8
0
100
AcDbLine
 10
59.79959
 20
137.1798
 30
0.0
 11
59.73947
 21
137.1249
 31
0.0
  0
LINE
  5
34E
330
404
100
AcDbEntity
  8
0
100
AcDbLine
 10
59.73947
 20
137.1249
 30
0.0
 11
59.67935
 21
137.0697
 31
0.0
  0
LINE
  5
34F
330
404
100
AcDbEntity
  8
0
100
AcDbLine
 10
59.67935
 20
137.0697
 30
0.0
 11
59.61923
 21
137.01420000000002
 31
0.0
  0
LINE
  5
350
330
404
100
AcDbEntity
  8
0
100
AcDbLine
 10
59.61923
 20
137.01420000000002
 30
0.0
 11
59.559110000000004
 21
136.95839999999998
 31
0.0
  0
LINE
  5
351
330
404
100
AcDbEntity
  8
0
100
AcDbLine
 10
59.559110000000004
 20
136.95839999999998
 30
0.0
 11
59.49899
 21
136.9023
 31
0.0
  0
LINE
  5
352
330
404
100
AcDbEntity
  8
0
100
AcDbLine
 10
59.49899
 20
136.9023
 30
0.0
 11
59.43887
 21
136.8458
 31
0.0
  0
LINE
  5
353
330
404
100
AcDbEntity
  8
0
100
AcDbLine
 10
59.43887
 20
136.8458
 30
0.0
 11
59.37875
 21
136.78910000000002
 31
0.0
  0
LINE
  5
354
330
404
100
AcDbEntity
  8
0
100
AcDbLine
 10
59.37875
 20
136.78910000000002
 30
0.0
 11
59.31863
 21
136.732
 31
0.0
  0
LINE
  5
355
330
404
100
AcDbEntity
  8
0
100
AcDbLine
 10
59.31863
 20
136.732
 30
0.0
 11
59.25851
 21
136.6747
 31
0.0
  0
LINE
  5
356
330
404
100
AcDbEntity
  8
0
100
AcDbLine
 10
59.25851
 20
136.6747
 30
0.0
 11
59.19839
 21
136.61700000000002
 31
0.0
  0
LINE
  5
357
330
404
100
AcDbEntity
  8
0
100
AcDbLine
 10
59.19839
 20
136.61700000000002
 30
0.0
 11
59.13828
 21
136.5589
 31
0.0
  0
LINE
  5
358
330
404
100
AcDbEntity
  8
0
100
AcDbLine
 10
59.13828
 20
136.5589
 30
0.0
 11
59.07816
 21
136.50060000000002
 31
0.0
  0
LINE
  5
359
330
404
100
AcDbEntity
  8
0
100
AcDbLine
 10
59.07816
 20
136.50060000000002
 30
0.0
 11
59.01804
 21
136.4419
 31
0.0
  0
LINE
  5
35A
330
404
100
AcDbEntity
  8
0
100
AcDbLine
 10
59.01804
 20
136.4419
 30
0.0
 11
58.9579
 21
136.3829
 31
0.0
  0
LINE
  5
35B
330
404
100
AcDbEntity
  8
0
100
AcDbLine
 10
58.9579
 20
136.3829
 30
0.0
 11
58.89778
 21
136.3236
 31
0.0
  0
LINE
  5
35C
330
404
100
AcDbEntity
  8
0
100
AcDbLine
 10
58.89778
 20
136.3236
 30
0.0
 11
58.83766
 21
136.2639
 31
0.0
  0
LINE
  5
35D
330
404
100
AcDbEntity
  8
0
100
AcDbLine
 10
58.83766
 20
136.2639
 30
0.0
 11
58.77754
 21
136.2039
 31
0.0
  0
LINE
  5
35E
330
404
100
AcDbEntity
  8
0
100
AcDbLine
 10
58.77754
 20
136.2039
 30
0.0
 11
58.717420000000004
 21
136.1436
 31
0.0
  0
LINE
  5
35F
330
404
100
AcDbEntity
  8
0
100
AcDbLine
 10
58.717420000000004
 20
136.1436
 30
0.0
 11
58.6573
 21
136.0829
 31
0.0
  0
LINE
  5
360
330
404
100
AcDbEntity
  8
0
100
AcDbLine
 10
58.6573
 20
136.0829
 30
0.0
 11
58.59718
 21
136.02190000000002
 31
0.0
  0
LINE
  5
361
330
404
100
AcDbEntity
  8
0
100
AcDbLine
 10
58.59718
 20
136.02190000000002
 30
0.0
 11
58.53706
 21
135.9605
 31
0.0
  0
LINE
  5
362
330
404
100
AcDbEntity
  8
0
100
AcDbLine
 10
58.53706
 20
135.9605
 30
0.0
 11
58.47694
 21
135.8988
 31
0.0
  0
LINE
  5
363
330
404
100
AcDbEntity
  8
0
100
AcDbLine
 10
58.47694
 20
135.8988
 30
0.0
 11
58.41682
 21
135.8367
 31
0.0
  0
LINE
  5
364
330
404
100
AcDbEntity
  8
0
100
AcDbLine
 10
58.41682
 20
135.8367
 30
0.0
 11
58.356700000000004
 21
135.7742
 31
0.0
  0
LINE
  5
365
330
404
100
AcDbEntity
  8
0
100
AcDbLine
 10
58.356700000000004
 20
135.7742
 30
0.0
 11
58.29659
 21
135.7114
 31
0.0
  0
LINE
  5
366
330
404
100
AcDbEntity
  8
0
100
AcDbLine
 10
58.29659
 20
135.7114
 30
0.0
 11
58.23647
 21
135.6482
 31
0.0
  0
LINE
  5
367
330
404
100
AcDbEntity
  8
0
100
AcDbLine
 10
58.23647
 20
135.6482
 30
0.0
 11
58.17635
 21
135.5847
 31
0.0
  0
LINE
  5
368
330
404
100
AcDbEntity
  8
0
100
AcDbLine
 10
58.17635
 20
135.5847
 30
0.0
 11
58.11623
 21
135.5207
 31
0.0
  0
LINE
  5
369
330
404
100
AcDbEntity
  8
0
100
AcDbLine
 10
58.11623
 20
135.5207
 30
0.0
 11
58.056110000000004
 21
135.4564
 31
0.0
  0
LINE
  5
36A
330
404
100
AcDbEntity
  8
0
100
AcDbLine
 10
58.056110000000004
 20
135.4564
 30
0.0
 11
57.99599
 21
135.39170000000001
 31
0.0
  0
LINE
  5
36B
330
404
100
AcDbEntity
  8
0
100
AcDbLine
 10
57.99599
 20
135.39170000000001
 30
0.0
 11
57.93587
 21
135.32670000000002
 31
0.0
  0
LINE
  5
36C
330
404
100
AcDbEntity
  8
0
100
AcDbLine
 10
57.93587
 20
135.32670000000002
 30
0.0
 11
57.87575
 21
135.2612
 31
0.0
  0
LINE
  5
36D
330
404
100
AcDbEntity
  8
0
100
AcDbLine
 10
57.87575
 20
135.2612
 30
0.0
 11
57.81563
 21
135.1954
 31
0.0
  0
LINE
  5
36E
330
404
100
AcDbEntity
  8
0
100
AcDbLine
 10
57.81563
 20
135.1954
 30
0.0
 11
57.75551
 21
135.1292
 31
0.0
  0
LINE
  5
36F
330
404
100
AcDbEntity
  8
0
100
AcDbLine
 10
57.75551
 20
135.1292
 30
0.0
 11
57.69539
 21
135.0625
 31
0.0
  0
LINE
  5
370
330
404
100
AcDbEntity
  8
0
100
AcDbLine
 10
57.69539
 20
135.0625
 30
0.0
 11
57.63527
 21
134.9955
 31
0.0
  0
LINE
  5
371
330
404
100
AcDbEntity
  8
0
100
AcDbLine
 10
57.63527
 20
134.9955
 30
0.0
 11
57.57515
 21
134.928
 31
0.0
  0
LINE
  5
372
330
404
100
AcDbEntity
  8
0
100
AcDbLine
 10
57.57515
 20
134.928
 30
0.0
 11
57.51503
 21
134.86020000000002
 31
0.0
  0
LINE
  5
373
330
404
100
AcDbEntity
  8
0
100
AcDbLine
 10
57.51503
 20
134.86020000000002
 30
0.0
 11
57.4549
 21
134.7919
 31
0.0
  0
LINE
  5
374
330
404
100
AcDbEntity
  8
0
100
AcDbLine
 10
57.4549
 20
134.7919
 30
0.0
 11
57.39478
 21
134.72320000000002
 31
0.0
  0
LINE
  5
375
330
404
100
AcDbEntity
  8
0
100
AcDbLine
 10
57.39478
 20
134.72320000000002
 30
0.0
 11
57.33466
 21
134.6541
 31
0.0
  0
LINE
  5
376
330
404
100
AcDbEntity
  8
0
100
AcDbLine
 10
57.33466
 20
134.6541
 30
0.0
 11
57.27454
 21
134.5845
 31
0.0
  0
LINE
  5
377
330
404
100
AcDbEntity
  8
0
100
AcDbLine
 10
57.27454
 20
134.5845
 30
0.0
 11
57.21442
 21
134.5145
 31
0.0
  0
LINE
  5
378
330
404
100
AcDbEntity
  8
0
100
AcDbLine
 10
57.21442
 20
134.5145
 30
0.0
 11
57.1543
 21
134.4441
 31
0.0
  0
LINE
  5
379
330
404
100
AcDbEntity
  8
0
100
AcDbLine
 10
57.1543
 20
134.4441
 30
0.0
 11
57.09418
 21
134.3733
 31
0.0
  0
LINE
  5
37A
330
404
100
AcDbEntity
  8
0
100
AcDbLine
 10
57.09418
 20
134.3733
 30
0.0
 11
57.03406
 21
134.30200000000002
 31
0.0
  0
LINE
  5
37B
330
404
100
AcDbEntity
  8
0
100
AcDbLine
 10
57.03406
 20
134.30200000000002
 30
0.0
 11
56.97394
 21
134.2302
 31
0.0
  0
LINE
  5
37C
330
404
100
AcDbEntity
  8
0
100
AcDbLine
 10
56.97394
 20
134.2302
 30
0.0
 11
56.91382
 21
134.15800000000002
 31
0.0
  0
LINE
  5
37D
330
404
100
AcDbEntity
  8
0
100
AcDbLine
 10
56.91382
 20
134.15800000000002
 30
0.0
 11
56.8537
 21
134.08530000000002
 31
0.0
  0
LINE
  5
37E
330
404
100
AcDbEntity
  8
0
100
AcDbLine
 10
56.8537
 20
134.08530000000002
 30
0.0
 11
56.79358
 21
134.0122
 31
0.0
  0
LINE
  5
37F
330
404
100
AcDbEntity
  8
0
100
AcDbLine
 10
56.79358
 20
134.0122
 30
0.0
 11
56.73346
 21
133.9385
 31
0.0
  0
LINE
  5
380
330
404
100
AcDbEntity
  8
0
100
AcDbLine
 10
56.73346
 20
133.9385
 30
0.0
 11
56.673339999999996
 21
133.8644
 31
0.0
  0
LINE
  5
381
330
404
100
AcDbEntity
  8
0
100
AcDbLine
 10
56.673339999999996
 20
133.8644
 30
0.0
 11
56.61322
 21
133.7899
 31
0.0
  0
LINE
  5
382
330
404
100
AcDbEntity
  8
0
100
AcDbLine
 10
56.61322
 20
133.7899
 30
0.0
 11
56.5531
 21
133.7148
 31
0.0
  0
LINE
  5
383
330
404
100
AcDbEntity
  8
0
100
AcDbLine
 10
56.5531
 20
133.7148
 30
0.0
 11
56.49298
 21
133.63920000000002
 31
0.0
  0
LINE
  5
384
330
404
100
AcDbEntity
  8
0
100
AcDbLine
 10
56.49298
 20
133.63920000000002
 30
0.0
 11
56.43286
 21
133.56310000000002
 31
0.0
  0
LINE
  5
385
330
404
100
AcDbEntity
  8
0
100
AcDbLine
 10
56.43286
 20
133.56310000000002
 30
0.0
 11
56.37274
 21
133.4866
 31
0.0
  0
LINE
  5
386
330
404
100
AcDbEntity
  8
0
100
AcDbLine
 10
56.37274
 20
133.4866
 30
0.0
 11
56.31262
 21
133.40949999999998
 31
0.0
  0
LINE
  5
387
330
404
100
AcDbEntity
  8
0
100
AcDbLine
 10
56.31262
 20
133.40949999999998
 30
0.0
 11
56.2525
 21
133.3318
 31
0.0
  0
LINE
  5
388
330
404
100
AcDbEntity
  8
0
100
AcDbLine
 10
56.2525
 20
133.3318
 30
0.0
 11
56.19238
 21
133.25369999999998
 31
0.0
  0
LINE
  5
389
330
404
100
AcDbEntity
  8
0
100
AcDbLine
 10
56.19238
 20
133.25369999999998
 30
0.0
 11
56.13226
 21
133.175
 31
0.0
  0
LINE
  5
38A
330
404
100
AcDbEntity
  8
0
100
AcDbLine
 10
56.13226
 20
133.175
 30
0.0
 11
56.07214
 21
133.0958
 31
0.0
  0
LINE
  5
38B
330
404
100
AcDbEntity
  8
0
100
AcDbLine
 10
56.07214
 20
133.0958
 30
0.0
 11
56.01202
 21
133.01600000000002
 31
0.0
  0
LINE
  5
38C
330
404
100
AcDbEntity
  8
0
100
AcDbLine
 10
56.01202
 20
133.01600000000002
 30
0.0
 11
55.95189
 21
132.9357
 31
0.0
  0
LINE
  5
38D
330
404
100
AcDbEntity
  8
0
100
AcDbLine
 10
55.95189
 20
132.9357
 30
0.0
 11
55.89177
 21
132.8548
 31
0.0
  0
LINE
  5
38E
330
404
100
AcDbEntity
  8
0
100
AcDbLine
 10
55.89177
 20
132.8548
 30
0.0
 11
55.831649999999996
 21
132.7733
 31
0.0
  0
LINE
  5
38F
330
404
100
AcDbEntity
  8
0
100
AcDbLine
 10
55.831649999999996
 20
132.7733
 30
0.0
 11
55.77153
 21
132.6913
 31
0.0
  0
LINE
  5
390
330
404
100
AcDbEntity
  8
0
100
AcDbLine
 10
55.77153
 20
132.6913
 30
0.0
 11
55.71141
 21
132.6087
 31
0.0
  0
LINE
  5
391
330
404
100
AcDbEntity
  8
0
100
AcDbLine
 10
55.71141
 20
132.6087
 30
0.0
 11
55.65129
 21
132.5254
 31
0.0
  0
LINE
  5
392
330
404
100
AcDbEntity
  8
0
100
AcDbLine
 10
55.65129
 20
132.5254
 30
0.0
 11
55.59117
 21
132.4416
 31
0.0
  0
LINE
  5
393
330
404
100
AcDbEntity
  8
0
100
AcDbLine
 10
55.59117
 20
132.4416
 30
0.0
 11
55.53105
 21
132.3571
 31
0.0
  0
LINE
  5
394
330
404
100
AcDbEntity
  8
0
100
AcDbLine
 10
55.53105
 20
132.3571
 30
0.0
 11
55.47093
 21
132.2721
 31
0.0
  0
LINE
  5
395
330
404
100
AcDbEntity
  8
0
100
AcDbLine
 10
55.47093
 20
132.2721
 30
0.0
 11
55.41081
 21
132.1864
 31
0.0
  0
LINE
  5
396
330
404
100
AcDbEntity
  8
0
100
AcDbLine
 10
55.41081
 20
132.1864
 30
0.0
 11
55.35069
 21
132.1001
 31
0.0
  0
LINE
  5
397
330
404
100
AcDbEntity
  8
0
100
AcDbLine
 10
55.35069
 20
132.1001
 30
0.0
 11
55.29057
 21
132.0131
 31
0.0
  0
LINE
  5
398
330
404
100
AcDbEntity
  8
0
100
AcDbLine
 10
55.29057
 20
132.0131
 30
0.0
 11
55.23045
 21
131.9254
 31
0.0
  0
LINE
  5
399
330
404
100
AcDbEntity
  8
0
100
AcDbLine
 10
55.23045
 20
131.9254
 30
0.0
 11
55.17033
 21
131.83710000000002
 31
0.0
  0
LINE
  5
39A
330
404
100
AcDbEntity
  8
0
100
AcDbLine
 10
55.17033
 20
131.83710000000002
 30
0.0
 11
55.11021
 21
131.7481
 31
0.0
  0
LINE
  5
39B
330
404
100
AcDbEntity
  8
0
100
AcDbLine
 10
55.11021
 20
131.7481
 30
0.0
 11
55.05009
 21
131.6584
 31
0.0
  0
LINE
  5
39C
330
404
100
AcDbEntity
  8
0
100
AcDbLine
 10
55.05009
 20
131.6584
 30
0.0
 11
54.98997
 21
131.56799999999998
 31
0.0
  0
LINE
  5
39D
330
404
100
AcDbEntity
  8
0
100
AcDbLine
 10
54.98997
 20
131.56799999999998
 30
0.0
 11
54.92986
 21
131.4769
 31
0.0
  0
LINE
  5
39E
330
404
100
AcDbEntity
  8
0
100
AcDbLine
 10
54.92986
 20
131.4769
 30
0.0
 11
54.86974
 21
131.385
 31
0.0
  0
LINE
  5
39F
330
404
100
AcDbEntity
  8
0
100
AcDbLine
 10
54.86974
 20
131.385
 30
0.0
 11
54.80962
 21
131.29250000000002
 31
0.0
  0
LINE
  5
3A0
330
404
100
AcDbEntity
  8
0
100
AcDbLine
 10
54.80962
 20
131.29250000000002
 30
0.0
 11
54.7495
 21
131.1991
 31
0.0
  0
LINE
  5
3A1
330
404
100
AcDbEntity
  8
0
100
AcDbLine
 10
54.7495
 20
131.1991
 30
0.0
 11
54.68938
 21
131.10500000000002
 31
0.0
  0
LINE
  5
3A2
330
404
100
AcDbEntity
  8
0
100
AcDbLine
 10
54.68938
 20
131.10500000000002
 30
0.0
 11
54.62926
 21
131.0102
 31
0.0
  0
LINE
  5
3A3
330
404
100
AcDbEntity
  8
0
100
AcDbLine
 10
54.62926
 20
131.0102
 30
0.0
 11
54.56914
 21
130.9145
 31
0.0
  0
LINE
  5
3A4
330
404
100
AcDbEntity
  8
0
100
AcDbLine
 10
54.56914
 20
130.9145
 30
0.0
 11
54.50902
 21
130.81799999999998
 31
0.0
  0
LINE
  5
3A5
330
404
100
AcDbEntity
  8
0
100
AcDbLine
 10
54.50902
 20
130.81799999999998
 30
0.0
 11
54.44888
 21
130.7207
 31
0.0
  0
LINE
  5
3A6
330
404
100
AcDbEntity
  8
0
100
AcDbLine
 10
54.44888
 20
130.7207
 30
0.0
 11
54.38876
 21
130.6226
 31
0.0
  0
LINE
  5
3A7
330
404
100
AcDbEntity
  8
0
100
AcDbLine
 10
54.38876
 20
130.6226
 30
0.0
 11
54.32864
 21
130.5236
 31
0.0
  0
LINE
  5
3A8
330
404
100
AcDbEntity
  8
0
100
AcDbLine
 10
54.32864
 20
130.5236
 30
0.0
 11
54.26852
 21
130.4237
 31
0.0
  0
LINE
  5
3A9
330
404
100
AcDbEntity
  8
0
100
AcDbLine
 10
54.26852
 20
130.4237
 30
0.0
 11
54.2084
 21
130.32299999999998
 31
0.0
  0
LINE
  5
3AA
330
404
100
AcDbEntity
  8
0
100
AcDbLine
 10
54.2084
 20
130.32299999999998
 30
0.0
 11
54.14828
 21
130.22129999999999
 31
0.0
  0
LINE
  5
3AB
330
404
100
AcDbEntity
  8
0
100
AcDbLine
 10
54.14828
 20
130.22129999999999
 30
0.0
 11
54.08817
 21
130.1188
 31
0.0
  0
LINE
  5
3AC
330
404
100
AcDbEntity
  8
0
100
AcDbLine
 10
54.08817
 20
130.1188
 30
0.0
 11
54.02805
 21
130.0153
 31
0.0
  0
LINE
  5
3AD
330
404
100
AcDbEntity
  8
0
100
AcDbLine
 10
54.02805
 20
130.0153
 30
0.0
 11
53.96793
 21
129.9108
 31
0.0
  0
LINE
  5
3AE
330
404
100
AcDbEntity
  8
0
100
AcDbLine
 10
53.96793
 20
129.9108
 30
0.0
 11
53.90781
 21
129.8053
 31
0.0
  0
LINE
  5
3AF
330
404
100
AcDbEntity
  8
0
100
AcDbLine
 10
53.90781
 20
129.8053
 30
0.0
 11
53.84769
 21
129.69889999999998
 31
0.0
  0
LINE
  5
3B0
330
404
100
AcDbEntity
  8
0
100
AcDbLine
 10
53.84769
 20
129.69889999999998
 30
0.0
 11
53.78757
 21
129.5914
 31
0.0
  0
LINE
  5
3B1
330
404
100
AcDbEntity
  8
0
100
AcDbLine
 10
53.78757
 20
129.5914
 30
0.0
 11
53.72745
 21
129.4829
 31
0.0
  0
LINE
  5
3B2
330
404
100
AcDbEntity
  8
0
100
AcDbLine
 10
53.72745
 20
129.4829
 30
0.0
 11
53.66733
 21
129.3733
 31
0.0
  0
LINE
  5
3B3
330
404
100
AcDbEntity
  8
0
100
AcDbLine
 10
53.66733
 20
129.3733
 30
0.0
 11
53.60721
 21
129.26260000000002
 31
0.0
  0
LINE
  5
3B4
330
404
100
AcDbEntity
  8
0
100
AcDbLine
 10
53.60721
 20
129.26260000000002
 30
0.0
 11
53.54709
 21
129.1507
 31
0.0
  0
LINE
  5
3B5
330
404
100
AcDbEntity
  8
0
100
AcDbLine
 10
53.54709
 20
129.1507
 30
0.0
 11
53.48697
 21
129.0378
 31
0.0
  0
LINE
  5
3B6
330
404
100
AcDbEntity
  8
0
100
AcDbLine
 10
53.48697
 20
129.0378
 30
0.0
 11
53.42685
 21
128.9236
 31
0.0
  0
LINE
  5
3B7
330
404
100
AcDbEntity
  8
0
100
AcDbLine
 10
53.42685
 20
128.9236
 30
0.0
 11
53.36673
 21
128.8083
 31
0.0
  0
LINE
  5
3B8
330
404
100
AcDbEntity
  8
0
100
AcDbLine
 10
53.36673
 20
128.8083
 30
0.0
 11
53.30661
 21
128.6917
 31
0.0
  0
LINE
  5
3B9
330
404
100
AcDbEntity
  8
0
100
AcDbLine
 10
53.30661
 20
128.6917
 30
0.0
 11
53.24649
 21
128.57389999999998
 31
0.0
  0
LINE
  5
3BA
330
404
100
AcDbEntity
  8
0
100
AcDbLine
 10
53.24649
 20
128.57389999999998
 30
0.0
 11
53.18637
 21
128.4547
 31
0.0
  0
LINE
  5
3BB
330
404
100
AcDbEntity
  8
0
100
AcDbLine
 10
53.18637
 20
128.4547
 30
0.0
 11
53.12625
 21
128.3342
 31
0.0
  0
LINE
  5
3BC
330
404
100
AcDbEntity
  8
0
100
AcDbLine
 10
53.12625
 20
128.3342
 30
0.0
 11
53.06613
 21
128.2124
 31
0.0
  0
LINE
  5
3BD
330
404
100
AcDbEntity
  8
0
100
AcDbLine
 10
53.06613
 20
128.2124
 30
0.0
 11
53.00601
 21
128.0891
 31
0.0
  0
LINE
  5
3BE
330
404
100
AcDbEntity
  8
0
100
AcDbLine
 10
53.00601
 20
128.0891
 30
0.0
 11
52.94588
 21
127.9644
 31
0.0
  0
LINE
  5
3BF
330
404
100
AcDbEntity
  8
0
100
AcDbLine
 10
52.94588
 20
127.9644
 30
0.0
 11
52.88576
 21
127.8382
 31
0.0
  0
LINE
  5
3C0
330
404
100
AcDbEntity
  8
0
100
AcDbLine
 10
52.88576
 20
127.8382
 30
0.0
 11
52.82564
 21
127.7104
 31
0.0
  0
LINE
  5
3C1
330
404
100
AcDbEntity
  8
0
100
AcDbLine
 10
52.82564
 20
127.7104
 30
0.0
 11
52.76552
 21
127.5811
 31
0.0
  0
LINE
  5
3C2
330
404
100
AcDbEntity
  8
0
100
AcDbLine
 10
52.76552
 20
127.5811
 30
0.0
 11
52.7054
 21
127.4501
 31
0.0
  0
LINE
  5
3C3
330
404
100
AcDbEntity
  8
0
100
AcDbLine
 10
52.7054
 20
127.4501
 30
0.0
 11
52.64528
 21
127.3175
 31
0.0
  0
LINE
  5
3C4
330
404
100
AcDbEntity
  8
0
100
AcDbLine
 10
52.64528
 20
127.3175
 30
0.0
 11
52.58516
 21
127.1831
 31
0.0
  0
LINE
  5
3C5
330
404
100
AcDbEntity
  8
0
100
AcDbLine
 10
52.58516
 20
127.1831
 30
0.0
 11
52.52504
 21
127.0469
 31
0.0
  0
LINE
  5
3C6
330
404
100
AcDbEntity
  8
0
100
AcDbLine
 10
52.52504
 20
127.0469
 30
0.0
 11
52.46492
 21
126.9088
 31
0.0
  0
LINE
  5
3C7
330
404
100
AcDbEntity
  8
0
100
AcDbLine
 10
52.46492
 20
126.9088
 30
0.0
 11
52.4048
 21
126.7688
 31
0.0
  0
LINE
  5
3C8
330
404
100
AcDbEntity
  8
0
100
AcDbLine
 10
52.4048
 20
126.7688
 30
0.0
 11
52.34468
 21
126.6268
 31
0.0
  0
LINE
  5
3C9
330
404
100
AcDbEntity
  8
0
100
AcDbLine
 10
52.34468
 20
126.6268
 30
0.0
 11
52.28456
 21
126.4828
 31
0.0
  0
LINE
  5
3CA
330
404
100
AcDbEntity
  8
0
100
AcDbLine
 10
52.28456
 20
126.4828
 30
0.0
 11
52.22444
 21
126.3366
 31
0.0
  0
LINE
  5
3CB
330
404
100
AcDbEntity
  8
0
100
AcDbLine
 10
52.22444
 20
126.3366
 30
0.0
 11
52.164320000000004
 21
126.1882
 31
0.0
  0
LINE
  5
3CC
330
404
100
AcDbEntity
  8
0
100
AcDbLine
 10
52.164320000000004
 20
126.1882
 30
0.0
 11
52.1042
 21
126.0374
 31
0.0
  0
LINE
  5
3CD
330
404
100
AcDbEntity
  8
0
100
AcDbLine
 10
52.1042
 20
126.0374
 30
0.0
 11
52.04408
 21
125.8842
 31
0.0
  0
LINE
  5
3CE
330
404
100
AcDbEntity
  8
0
100
AcDbLine
 10
52.04408
 20
125.8842
 30
0.0
 11
51.98396
 21
125.7285
 31
0.0
  0
LINE
  5
3CF
330
404
100
AcDbEntity
  8
0
100
AcDbLine
 10
51.98396
 20
125.7285
 30
0.0
 11
51.92384
 21
125.5702
 31
0.0
  0
LINE
  5
3D0
330
404
100
AcDbEntity
  8
0
100
AcDbLine
 10
51.92384
 20
125.5702
 30
0.0
 11
51.86372
 21
125.4091
 31
0.0
  0
LINE
  5
3D1
330
404
100
AcDbEntity
  8
0
100
AcDbLine
 10
51.86372
 20
125.4091
 30
0.0
 11
51.8036
 21
125.2452
 31
0.0
  0
LINE
  5
3D2
330
404
100
AcDbEntity
  8
0
100
AcDbLine
 10
51.8036
 20
125.2452
 30
0.0
 11
51.74348
 21
125.0782
 31
0.0
  0
LINE
  5
3D3
330
404
100
AcDbEntity
  8
0
100
AcDbLine
 10
51.74348
 20
125.0782
 30
0.0
 11
51.68336
 21
124.908
 31
0.0
  0
LINE
  5
3D4
330
404
100
AcDbEntity
  8
0
100
AcDbLine
 10
51.68336
 20
124.908
 30
0.0
 11
51.62325
 21
124.7345
 31
0.0
  0
LINE
  5
3D5
330
404
100
AcDbEntity
  8
0
100
AcDbLine
 10
51.62325
 20
124.7345
 30
0.0
 11
51.56313
 21
124.5574
 31
0.0
  0
LINE
  5
3D6
330
404
100
AcDbEntity
  8
0
100
AcDbLine
 10
51.56313
 20
124.5574
 30
0.0
 11
51.50301
 21
124.3766
 31
0.0
  0
LINE
  5
3D7
330
404
100
AcDbEntity
  8
0
100
AcDbLine
 10
51.50301
 20
124.3766
 30
0.0
 11
51.44287
 21
124.1919
 31
0.0
  0
LINE
  5
3D8
330
404
100
AcDbEntity
  8
0
100
AcDbLine
 10
51.44287
 20
124.1919
 30
0.0
 11
51.38275
 21
124.003
 31
0.0
  0
LINE
  5
3D9
330
404
100
AcDbEntity
  8
0
100
AcDbLine
 10
51.38275
 20
124.003
 30
0.0
 11
51.32263
 21
123.8096
 31
0.0
  0
LINE
  5
3DA
330
404
100
AcDbEntity
  8
0
100
AcDbLine
 10
51.32263
 20
123.8096
 30
0.0
 11
51.26251
 21
123.6115
 31
0.0
  0
LINE
  5
3DB
330
404
100
AcDbEntity
  8
0
100
AcDbLine
 10
51.26251
 20
123.6115
 30
0.0
 11
51.20239
 21
123.4082
 31
0.0
  0
LINE
  5
3DC
330
404
100
AcDbEntity
  8
0
100
AcDbLine
 10
51.20239
 20
123.4082
 30
0.0
 11
51.142269999999996
 21
123.1995
 31
0.0
  0
LINE
  5
3DD
330
404
100
AcDbEntity
  8
0
100
AcDbLine
 10
51.142269999999996
 20
123.1995
 30
0.0
 11
51.08215
 21
122.9849
 31
0.0
  0
LINE
  5
3DE
330
404
100
AcDbEntity
  8
0
100
AcDbLine
 10
51.08215
 20
122.9849
 30
0.0
 11
51.02203
 21
122.7639
 31
0.0
  0
LINE
  5
3DF
330
404
100
AcDbEntity
  8
0
100
AcDbLine
 10
51.02203
 20
122.7639
 30
0.0
 11
50.961914
 21
122.5359
 31
0.0
  0
LINE
  5
3E0
330
404
100
AcDbEntity
  8
0
100
AcDbLine
 10
50.961914
 20
122.5359
 30
0.0
 11
50.901794
 21
122.3003
 31
0.0
  0
LINE
  5
3E1
330
404
100
AcDbEntity
  8
0
100
AcDbLine
 10
50.901794
 20
122.3003
 30
0.0
 11
50.841675
 21
122.0564
 31
0.0
  0
LINE
  5
3E2
330
404
100
AcDbEntity
  8
0
100
AcDbLine
 10
50.841675
 20
122.0564
 30
0.0
 11
50.781555
 21
121.8031
 31
0.0
  0
LINE
  5
3E3
330
404
100
AcDbEntity
  8
0
100
AcDbLine
 10
50.781555
 20
121.8031
 30
0.0
 11
50.721436
 21
121.5396
 31
0.0
  0
LINE
  5
3E4
330
404
100
AcDbEntity
  8
0
100
AcDbLine
 10
50.721436
 20
121.5396
 30
0.0
 11
50.661316
 21
121.2643
 31
0.0
  0
LINE
  5
3E5
330
404
100
AcDbEntity
  8
0
100
AcDbLine
 10
50.661316
 20
121.2643
 30
0.0
 11
50.601196
 21
120.9758
 31
0.0
  0
LINE
  5
3E6
330
404
100
AcDbEntity
  8
0
100
AcDbLine
 10
50.601196
 20
120.9758
 30
0.0
 11
50.541077
 21
120.672
 31
0.0
  0
LINE
  5
3E7
330
404
100
AcDbEntity
  8
0
100
AcDbLine
 10
50.541077
 20
120.672
 30
0.0
 11
50.480957
 21
120.3504
 31
0.0
  0
LINE
  5
3E8
330
404
100
AcDbEntity
  8
0
100
AcDbLine
 10
50.480957
 20
120.3504
 30
0.0
 11
50.420837
 21
120.0073
 31
0.0
  0
LINE
  5
3E9
330
404
100
AcDbEntity
  8
0
100
AcDbLine
 10
50.420837
 20
120.0073
 30
0.0
 11
50.360718
 21
119.6382
 31
0.0
  0
LINE
  5
3EA
330
404
100
AcDbEntity
  8
0
100
AcDbLine
 10
50.360718
 20
119.6382
 30
0.0
 11
50.300598
 21
119.2362
 31
0.0
  0
LINE
  5
3EB
330
404
100
AcDbEntity
  8
0
100
AcDbLine
 10
50.300598
 20
119.2362
 30
0.0
 11
50.240479
 21
118.7909
 31
0.0
  0
LINE
  5
3EC
330
404
100
AcDbEntity
  8
0
100
AcDbLine
 10
50.240479
 20
118.7909
 30
0.0
 11
50.180359
 21
118.2847
 31
0.0
  0
LINE
  5
3ED
330
404
100
AcDbEntity
  8
0
100
AcDbLine
 10
50.180359
 20
118.2847
 30
0.0
 11
50.120239
 21
117.6833
 31
0.0
  0
LINE
  5
3EE
330
404
100
AcDbEntity
  8
0
100
AcDbLine
 10
50.120239
 20
117.6833
 30
0.0
 11
50.0601196
 21
116.8983
 31
0.0
  0
LINE
  5
3EF
330
404
100
AcDbEntity
  8
0
100
AcDbLine
 10
50.0601196
 20
116.8983
 30
0.0
 11
50.0
 21
115.0
 31
0.0
  0
LINE
  5
3F0
330
404
100
AcDbEntity
  8
0
100
AcDbLine
 10
50.0
 20
115.0
 30
0.0
 11
55.0
 21
115.0
 31
0.0
  0
LINE
  5
3F1
330
404
100
AcDbEntity
  8
0
100
AcDbLine
 10
55.0
 20
115.0
 30
0.0
 11
55.0
 21
105.0
 31
0.0
  0
LINE
  5
3F2
330
404
100
AcDbEntity
  8
0
100
AcDbLine
 10
55.0
 20
105.0
 30
0.0
 11
50.0
 21
105.0
 31
0.0
  0
LINE
  5
3F3
330
404
100
AcDbEntity
  8
0
100
AcDbLine
 10
50.0
 20
105.0
 30
0.0
 11
50.0
 21
60.0
 31
0.0
  0
LINE
  5
3F4
330
404
100
AcDbEntity
  8
0
100
AcDbLine
 10
50.0
 20
60.0
 30
0.0
 11
55.0
 21
60.0
 31
0.0
  0
LINE
  5
3F5
330
404
100
AcDbEntity
  8
0
100
AcDbLine
 10
55.0
 20
60.0
 30
0.0
 11
55.0
 21
50.0
 31
0.0
  0
LINE
  5
3F6
330
404
100
AcDbEntity
  8
0
100
AcDbLine
 10
55.0
 20
50.0
 30
0.0
 11
195.0
 21
50.0
 31
0.0
  0
LINE
  5
3F7
330
404
100
AcDbEntity
  8
0
100
AcDbLine
 10
195.0
 20
50.0
 30
0.0
 11
195.0
 21
60.0
 31
0.0
  0
LINE
  5
3F8
330
404
100
AcDbEntity
  8
0
100
AcDbLine
 10
195.0
 20
60.0
 30
0.0
 11
200.0
 21
60.0
 31
0.0
  0
LINE
  5
3F9
330
404
100
AcDbEntity
  8
0
100
AcDbLine
 10
200.0
 20
60.0
 30
0.0
 11
200.0
 21
95.0
 31
0.0
  0
LINE
  5
3FA
330
404
100
AcDbEntity
  8
0
100
AcDbLine
 10
200.0
 20
95.0
 30
0.0
 11
195.0
 21
95.0
 31
0.0
  0
TEXT
  5
434
330
404
100
AcDbEntity
  8
0
100
AcDbText
 10
10.0
 20
10.0
 30
0.0
 40
8.0
  1
97297049/1
  7
Arial Narrow
100
AcDbText
  0
ENDSEC
  0
SECTION
  2
OBJECTS
  0
DICTIONARY
  5
413
330
0
100
AcDbDictionary
280
0
281
1
  3
ACAD_COLOR
350
414
  3
ACAD_GROUP
350
415
  3
ACAD_LAYOUT
350
416
  3
ACAD_MATERIAL
350
417
  3
ACAD_MLEADERSTYLE
350
418
  3
ACAD_MLINESTYLE
350
419
  3
ACAD_PLOTSETTINGS
350
41A
  3
ACAD_PLOTSTYLENAME
350
41B
  3
ACAD_SCALELIST
350
41D
  3
ACAD_TABLESTYLE
350
41E
  3
ACAD_VISUALSTYLE
350
41F
  3
EZDXF_META
350
432
  0
DICTIONARY
  5
414
330
413
100
AcDbDictionary
280
0
281
1
  0
DICTIONARY
  5
415
330
413
100
AcDbDictionary
280
0
281
1
  0
DICTIONARY
  5
416
330
413
100
AcDbDictionary
280
0
281
1
  3
Model
350
420
  3
Layout1
350
421
  0
DICTIONARY
  5
417
330
413
100
AcDbDictionary
280
0
281
1
  3
ByBlock
350
422
  3
ByLayer
350
423
  3
Global
350
424
  0
DICTIONARY
  5
418
330
413
100
AcDbDictionary
280
0
281
1
  3
Standard
350
42F
  0
DICTIONARY
  5
419
330
413
100
AcDbDictionary
280
0
281
1
  3
Standard
350
425
  0
DICTIONARY
  5
41A
330
413
100
AcDbDictionary
280
0
281
1
  0
ACDBDICTIONARYWDFLT
  5
41B
330
413
100
AcDbDictionary
280
0
281
1
  3
Normal
350
41C
100
AcDbDictionaryWithDefault
340
41C
  0
ACDBPLACEHOLDER
  5
41C
330
41B
  0
DICTIONARY
  5
41D
330
413
100
AcDbDictionary
280
0
281
1
  0
DICTIONARY
  5
41E
330
413
100
AcDbDictionary
280
0
281
1
  0
DICTIONARY
  5
41F
330
413
100
AcDbDictionary
280
0
281
1
  0
LAYOUT
  5
420
330
416
100
AcDbPlotSettings
  1

  2
Adobe PDF
  4
A3
  6

 40
7.5
 41
20.0
 42
7.5
 43
20.0
 44
420.0
 45
297.0
 46
0.0
 47
0.0
 48
0.0
 49
0.0
140
0.0
141
0.0
142
1.0
143
1.0
 70
1024
 72
1
 73
0
 74
5
  7

 75
16
 76
0
 77
2
 78
300
147
1.0
148
0.0
149
0.0
100
AcDbLayout
  1
Model
 70
1
 71
0
 10
0.0
 20
0.0
 11
420.0
 21
297.0
 12
0.0
 22
0.0
 32
0.0
 14
1e+20
 24
1e+20
 34
1e+20
 15
-1e+20
 25
-1e+20
 35
-1e+20
146
0.0
 13
0.0
 23
0.0
 33
0.0
 16
1.0
 26
0.0
 36
0.0
 17
0.0
 27
1.0
 37
0.0
 76
1
330
404
  0
LAYOUT
  5
421
330
416
100
AcDbPlotSettings
  1

  2
Adobe PDF
  4
A3
  6

 40
7.5
 41
20.0
 42
7.5
 43
20.0
 44
420.0
 45
297.0
 46
0.0
 47
0.0
 48
0.0
 49
0.0
140
0.0
141
0.0
142
1.0
143
1.0
 70
0
 72
1
 73
0
 74
5
  7

 75
16
 76
0
 77
2
 78
300
147
1.0
148
0.0
149
0.0
100
AcDbLayout
  1
Layout1
 70
1
 71
1
 10
0.0
 20
0.0
 11
420.0
 21
297.0
 12
0.0
 22
0.0
 32
0.0
 14
1e+20
 24
1e+20
 34
1e+20
 15
-1e+20
 25
-1e+20
 35
-1e+20
146
0.0
 13
0.0
 23
0.0
 33
0.0
 16
1.0
 26
0.0
 36
0.0
 17
0.0
 27
1.0
 37
0.0
 76
1
330
405
  0
MATERIAL
  5
422
102
{ACAD_REACTORS
330
417
102
}
330
417
100
AcDbMaterial
  1
ByBlock
  2

 70
0
 40
1.0
 71
1
 41
1.0
 91
-1023410177
 42
1.0
 72
1
  3

 73
1
 74
1
 75
1
 44
0.5
 73
0
 45
1.0
 46
1.0
 77
1
  4

 78
1
 79
1
170
1
 48
1.0
171
1
  6

172
1
173
1
174
1
140
1.0
141
1.0
175
1
  7

176
1
177
1
178
1
143
1.0
179
1
  8

270
1
271
1
272
1
145
1.0
146
1.0
273
1
  9

274
1
275
1
276
1
 42
1.0
 72
1
  3

 73
1
 74
1
 75
1
 94
63
  0
MATERIAL
  5
423
102
{ACAD_REACTORS
330
417
102
}
330
417
100
AcDbMaterial
  1
ByLayer
  2

 70
0
 40
1.0
 71
1
 41
1.0
 91
-1023410177
 42
1.0
 72
1
  3

 73
1
 74
1
 75
1
 44
0.5
 73
0
 45
1.0
 46
1.0
 77
1
  4

 78
1
 79
1
170
1
 48
1.0
171
1
  6

172
1
173
1
174
1
140
1.0
141
1.0
175
1
  7

176
1
177
1
178
1
143
1.0
179
1
  8

270
1
271
1
272
1
145
1.0
146
1.0
273
1
  9

274
1
275
1
276
1
 42
1.0
 72
1
  3

 73
1
 74
1
 75
1
 94
63
  0
MATERIAL
  5
424
102
{ACAD_REACTORS
330
417
102
}
330
417
100
AcDbMaterial
  1
Global
  2

 70
0
 40
1.0
 71
1
 41
1.0
 91
-1023410177
 42
1.0
 72
1
  3

 73
1
 74
1
 75
1
 44
0.5
 73
0
 45
1.0
 46
1.0
 77
1
  4

 78
1
 79
1
170
1
 48
1.0
171
1
  6

172
1
173
1
174
1
140
1.0
141
1.0
175
1
  7

176
1
177
1
178
1
143
1.0
179
1
  8

270
1
271
1
272
1
145
1.0
146
1.0
273
1
  9

274
1
275
1
276
1
 42
1.0
 72
1
  3

 73
1
 74
1
 75
1
 94
63
  0
MLINESTYLE
  5
425
102
{ACAD_REACTORS
330
419
102
}
330
419
100
AcDbMlineStyle
  2
Standard
 70
0
  3

 62
256
 51
90.0
 52
90.0
 71
2
 49
0.5
 62
256
  6
BYLAYER
 49
-0.5
 62
256
  6
BYLAYER
  0
MLEADERSTYLE
  5
42F
102
{ACAD_REACTORS
330
418
102
}
330
418
100
AcDbMLeaderStyle
179
2
170
2
171
1
172
0
 90
2
 40
0.0
 41
0.0
173
1
 91
-1056964608
 92
-2
290
1
 42
2.0
291
1
 43
8.0
  3
Standard
 44
4.0
300

342
42C
174
1
175
1
176
0
178
1
 93
-1056964608
 45
4.0
292
0
297
0
 46
4.0
 94
-1056964608
 47
1.0
 49
1.0
140
1.0
294
1
141
0.0
177
0
142
1.0
295
0
296
0
143
3.75
271
0
272
9
273
9
  0
DICTIONARY
  5
432
330
413
100
AcDbDictionary
281
1
  3
WRITTEN_BY_EZDXF
350
433
  0
DICTIONARYVAR
  5
433
330
432
100
DictionaryVariables
280
0
  1
1.0.3 @ 2023-06-15T01:19:51.294132+00:00
  0
ENDSEC
  0
EOF
