  0
SECTION
  2
HEADER
  9
$ACADVER
  1
AC1032
  9
$ACADMAINTVER
 90
4
  9
$DWGCODEPAGE
  3
ANSI_1252
  9
$EXTMIN
 10
1e+20
 20
1e+20
 30
1e+20
  9
$EXTMAX
 10
-1e+20
 20
-1e+20
 30
-1e+20
  9
$LIMMIN
 10
0.0
 20
0.0
  9
$LIMMAX
 10
420.0
 20
297.0
  9
$TDCREATE
 40
2460110.8887962964
  9
$TDUPDATE
 40
2460110.8887962964
  9
$HANDSEED
  5
8E
  9
$PEXTMIN
 10
1e+20
 20
1e+20
 30
1e+20
  9
$PEXTMAX
 10
-1e+20
 20
-1e+20
 30
-1e+20
  9
$PLIMMIN
 10
0.0
 20
0.0
  9
$PLIMMAX
 10
420.0
 20
297.0
  9
$FINGERPRINTGUID
  2
{268FE19B-2DB7-41DA-B0AF-A593AD2A2AAE}
  9
$VERSIONGUID
  2
{5B7DFDB1-E2B5-4E25-87F6-84938B7C6E82}
  9
$CMATERIAL
347
51
  0
ENDSEC
  0
SECTION
  2
CLASSES
  0
CLASS
  1
ACDBDICTIONARYWDFLT
  2
AcDbDictionaryWithDefault
  3
ObjectDBX Classes
 90
0
 91
0
280
0
281
0
  0
CLASS
  1
SUN
  2
AcDbSun
  3
SCENEOE
 90
1153
 91
0
280
0
281
0
  0
CLASS
  1
VISUALSTYLE
  2
AcDbVisualStyle
  3
ObjectDBX Classes
 90
4095
 91
0
280
0
281
0
  0
CLASS
  1
MATERIAL
  2
AcDbMaterial
  3
ObjectDBX Classes
 90
1153
 91
0
280
0
281
0
  0
CLASS
  1
SCALE
  2
AcDbScale
  3
ObjectDBX Classes
 90
1153
 91
0
280
0
281
0
  0
CLASS
  1
TABLESTYLE
  2
AcDbTableStyle
  3
ObjectDBX Classes
 90
4095
 91
0
280
0
281
0
  0
CLASS
  1
MLEADERSTYLE
  2
AcDbMLeaderStyle
  3
ACDB_MLEADERSTYLE_CLASS
 90
4095
 91
0
280
0
281
0
  0
CLASS
  1
DICTIONARYVAR
  2
AcDbDictionaryVar
  3
ObjectDBX Classes
 90
0
 91
0
280
0
281
0
  0
CLASS
  1
CELLSTYLEMAP
  2
AcDbCellStyleMap
  3
ObjectDBX Classes
 90
1152
 91
0
280
0
281
0
  0
CLASS
  1
MENTALRAYRENDERSETTINGS
  2
AcDbMentalRayRenderSettings
  3
SCENEOE
 90
1024
 91
0
280
0
281
0
  0
CLASS
  1
ACDBDETAILVIEWSTYLE
  2
AcDbDetailViewStyle
  3
ObjectDBX Classes
 90
1025
 91
0
280
0
281
0
  0
CLASS
  1
ACDBSECTIONVIEWSTYLE
  2
AcDbSectionViewStyle
  3
ObjectDBX Classes
 90
1025
 91
0
280
0
281
0
  0
CLASS
  1
RASTERVARIABLES
  2
AcDbRasterVariables
  3
ISM
 90
0
 91
0
280
0
281
0
  0
CLASS
  1
LAYOUT
  2
AcDbLayout
  3
ObjectDBX Classes
 90
0
 91
0
280
0
281
0
  0
CLASS
  1
ACDBPLACEHOLDER
  2
AcDbPlaceHolder
  3
ObjectDBX Classes
 90
0
 91
0
280
0
281
0
  0
CLASS
  1
WIPEOUTVARIABLES
  2
AcDbWipeoutVariables
  3
WipeOut
 90
0
 91
0
280
0
281
0
  0
CLASS
  1
WIPEOUT
  2
AcDbWipeout
  3
WipeOut
 90
127
 91
0
280
0
281
1
  0
ENDSEC
  0
SECTION
  2
TABLES
  0
TABLE
  2
VPORT
  5
30
330
0
100
AcDbSymbolTable
 70
1
  0
VPORT
  5
54
330
30
100
AcDbSymbolTableRecord
100
AcDbViewportTableRecord
  2
*Active
 70
0
 10
0.0
 20
0.0
 11
1.0
 21
1.0
 12
0.0
 22
0.0
 13
0.0
 23
0.0
 14
0.5
 24
0.5
 15
0.5
 25
0.5
 16
0.0
 26
0.0
 36
1.0
 17
0.0
 27
0.0
 37
0.0
 40
1000.0
 41
1.34
 42
50.0
 43
0.0
 44
0.0
 50
0.0
 51
0.0
 71
0
 72
1000
 73
1
 74
3
 75
0
 76
0
 77
0
 78
0
281
0
 65
0
146
0.0
  0
ENDTAB
  0
TABLE
  2
LTYPE
  5
2A
330
0
100
AcDbSymbolTable
 70
3
  0
LTYPE
  5
55
330
2A
100
AcDbSymbolTableRecord
100
AcDbLinetypeTableRecord
  2
ByBlock
 70
0
  3

 72
65
 73
0
 40
0.0
  0
LTYPE
  5
56
330
2A
100
AcDbSymbolTableRecord
100
AcDbLinetypeTableRecord
  2
ByLayer
 70
0
  3

 72
65
 73
0
 40
0.0
  0
LTYPE
  5
57
330
2A
100
AcDbSymbolTableRecord
100
AcDbLinetypeTableRecord
  2
Continuous
 70
0
  3

 72
65
 73
0
 40
0.0
  0
ENDTAB
  0
TABLE
  2
LAYER
  5
29
330
0
100
AcDbSymbolTable
 70
2
  0
LAYER
  5
58
330
29
100
AcDbSymbolTableRecord
100
AcDbLayerTableRecord
  2
0
 70
0
 62
7
  6
Continuous
370
-3
390
4A
347
52
  0
LAYER
  5
59
330
29
100
AcDbSymbolTableRecord
100
AcDbLayerTableRecord
  2
Defpoints
 70
0
 62
7
  6
Continuous
290
0
370
-3
390
4A
347
52
  0
ENDTAB
  0
TABLE
  2
STYLE
  5
2D
330
0
100
AcDbSymbolTable
 70
1
  0
STYLE
  5
5A
330
2D
100
AcDbSymbolTableRecord
100
AcDbTextStyleTableRecord
  2
Standard
 70
0
 40
0.0
 41
1.0
 50
0.0
 71
0
 42
2.5
  3
txt
  4

  0
ENDTAB
  0
TABLE
  2
VIEW
  5
2F
330
0
100
AcDbSymbolTable
 70
0
  0
ENDTAB
  0
TABLE
  2
UCS
  5
2E
330
0
100
AcDbSymbolTable
 70
0
  0
ENDTAB
  0
TABLE
  2
APPID
  5
2B
330
0
100
AcDbSymbolTable
 70
3
  0
APPID
  5
5B
330
2B
100
AcDbSymbolTableRecord
100
AcDbRegAppTableRecord
  2
ACAD
 70
0
  0
APPID
  5
5E
330
2B
100
AcDbSymbolTableRecord
100
AcDbRegAppTableRecord
  2
HATCHBACKGROUNDCOLOR
 70
0
  0
APPID
  5
5F
330
2B
100
AcDbSymbolTableRecord
100
AcDbRegAppTableRecord
  2
EZDXF
 70
0
  0
ENDTAB
  0
TABLE
  2
DIMSTYLE
  5
2C
330
0
100
AcDbSymbolTable
 70
1
100
AcDbDimStyleTable
  0
DIMSTYLE
105
5C
330
2C
100
AcDbSymbolTableRecord
100
AcDbDimStyleTableRecord
  2
Standard
 70
0
 40
1.0
 41
2.5
 42
0.625
 43
3.75
 44
1.25
 45
0.0
 46
0.0
 47
0.0
 48
0.0
 49
2.5
140
2.5
141
2.5
142
0.0
143
0.03937007874
144
1.0
145
0.0
146
1.0
147
0.625
148
0.0
 69
0
 70
0
 71
0
 72
0
 73
0
 74
0
 75
0
 76
0
 77
1
 78
8
 79
3
170
0
171
3
172
1
173
0
174
0
175
0
176
0
177
0
178
0
179
2
271
2
272
2
273
2
274
3
275
0
276
0
277
2
278
44
279
0
280
0
281
0
282
0
283
0
284
8
285
0
286
0
288
0
289
3
290
0
371
-2
372
-2
  0
ENDTAB
  0
TABLE
  2
BLOCK_RECORD
  5
31
330
0
100
AcDbSymbolTable
 70
2
  0
BLOCK_RECORD
  5
32
330
31
100
AcDbSymbolTableRecord
100
AcDbBlockTableRecord
  2
*Model_Space
340
4E
 70
0
280
1
281
0
  0
BLOCK_RECORD
  5
33
330
31
100
AcDbSymbolTableRecord
100
AcDbBlockTableRecord
  2
*Paper_Space
340
4F
 70
0
280
1
281
0
  0
ENDTAB
  0
ENDSEC
  0
SECTION
  2
BLOCKS
  0
BLOCK
  5
34
330
32
100
AcDbEntity
  8
0
100
AcDbBlockBegin
  2
*Model_Space
 70
0
 10
0.0
 20
0.0
 30
0.0
  3
*Model_Space
  1

  0
ENDBLK
  5
35
330
32
100
AcDbEntity
  8
0
100
AcDbBlockEnd
  0
BLOCK
  5
36
330
33
100
AcDbEntity
  8
0
100
AcDbBlockBegin
  2
*Paper_Space
 70
0
 10
0.0
 20
0.0
 30
0.0
  3
*Paper_Space
  1

  0
ENDBLK
  5
37
330
33
100
AcDbEntity
  8
0
100
AcDbBlockEnd
  0
ENDSEC
  0
SECTION
  2
ENTITIES
  0
LINE
  5
1
330
32
100
AcDbEntity
  8
0
100
AcDbLine
 10
53.5
 20
200.0
 30
0.0
 11
50.0
 21
200.0
 31
0.0
  0
LINE
  5
2
330
32
100
AcDbEntity
  8
0
100
AcDbLine
 10
50.0
 20
200.0
 30
0.0
 11
50.0
 21
50.0
 31
0.0
  0
LINE
  5
3
330
32
100
AcDbEntity
  8
0
100
AcDbLine
 10
50.0
 20
50.0
 30
0.0
 11
53.5
 21
50.0
 31
0.0
  0
LINE
  5
4
330
32
100
AcDbEntity
  8
0
100
AcDbLine
 10
53.5
 20
50.0
 30
0.0
 11
53.5
 21
200.0
 31
0.0
  0
LINE
  5
5
330
32
100
AcDbEntity
  8
0
100
AcDbLine
 10
87.0
 20
200.0
 30
0.0
 11
83.5
 21
200.0
 31
0.0
  0
LINE
  5
6
330
32
100
AcDbEntity
  8
0
100
AcDbLine
 10
83.5
 20
200.0
 30
0.0
 11
83.5
 21
50.0
 31
0.0
  0
LINE
  5
7
330
32
100
AcDbEntity
  8
0
100
AcDbLine
 10
83.5
 20
50.0
 30
0.0
 11
87.0
 21
50.0
 31
0.0
  0
LINE
  5
8
330
32
100
AcDbEntity
  8
0
100
AcDbLine
 10
87.0
 20
50.0
 30
0.0
 11
87.0
 21
200.0
 31
0.0
  0
LINE
  5
9
330
32
100
AcDbEntity
  8
0
100
AcDbLine
 10
120.5
 20
130.0
 30
0.0
 11
117.0
 21
130.0
 31
0.0
  0
LINE
  5
A
330
32
100
AcDbEntity
  8
0
100
AcDbLine
 10
117.0
 20
130.0
 30
0.0
 11
117.0
 21
50.0
 31
0.0
  0
LINE
  5
B
330
32
100
AcDbEntity
  8
0
100
AcDbLine
 10
117.0
 20
50.0
 30
0.0
 11
120.5
 21
50.0
 31
0.0
  0
LINE
  5
C
330
32
100
AcDbEntity
  8
0
100
AcDbLine
 10
120.5
 20
50.0
 30
0.0
 11
120.5
 21
130.0
 31
0.0
  0
LINE
  5
D
330
32
100
AcDbEntity
  8
0
100
AcDbLine
 10
154.0
 20
130.0
 30
0.0
 11
150.5
 21
130.0
 31
0.0
  0
LINE
  5
E
330
32
100
AcDbEntity
  8
0
100
AcDbLine
 10
150.5
 20
130.0
 30
0.0
 11
150.5
 21
50.0
 31
0.0
  0
LINE
  5
F
330
32
100
AcDbEntity
  8
0
100
AcDbLine
 10
150.5
 20
50.0
 30
0.0
 11
154.0
 21
50.0
 31
0.0
  0
LINE
  5
10
330
32
100
AcDbEntity
  8
0
100
AcDbLine
 10
154.0
 20
50.0
 30
0.0
 11
154.0
 21
130.0
 31
0.0
  0
LINE
  5
11
330
32
100
AcDbEntity
  8
0
100
AcDbLine
 10
187.5
 20
130.0
 30
0.0
 11
184.0
 21
130.0
 31
0.0
  0
LINE
  5
12
330
32
100
AcDbEntity
  8
0
100
AcDbLine
 10
184.0
 20
130.0
 30
0.0
 11
184.0
 21
50.0
 31
0.0
  0
LINE
  5
13
330
32
100
AcDbEntity
  8
0
100
AcDbLine
 10
184.0
 20
50.0
 30
0.0
 11
187.5
 21
50.0
 31
0.0
  0
LINE
  5
14
330
32
100
AcDbEntity
  8
0
100
AcDbLine
 10
187.5
 20
50.0
 30
0.0
 11
187.5
 21
130.0
 31
0.0
  0
LINE
  5
15
330
32
100
AcDbEntity
  8
0
100
AcDbLine
 10
221.0
 20
130.0
 30
0.0
 11
217.5
 21
130.0
 31
0.0
  0
LINE
  5
16
330
32
100
AcDbEntity
  8
0
100
AcDbLine
 10
217.5
 20
130.0
 30
0.0
 11
217.5
 21
50.0
 31
0.0
  0
LINE
  5
17
330
32
100
AcDbEntity
  8
0
100
AcDbLine
 10
217.5
 20
50.0
 30
0.0
 11
221.0
 21
50.0
 31
0.0
  0
LINE
  5
18
330
32
100
AcDbEntity
  8
0
100
AcDbLine
 10
221.0
 20
50.0
 30
0.0
 11
221.0
 21
130.0
 31
0.0
  0
LINE
  5
19
330
32
100
AcDbEntity
  8
0
100
AcDbLine
 10
254.5
 20
130.0
 30
0.0
 11
251.0
 21
130.0
 31
0.0
  0
LINE
  5
1A
330
32
100
AcDbEntity
  8
0
100
AcDbLine
 10
251.0
 20
130.0
 30
0.0
 11
251.0
 21
50.0
 31
0.0
  0
LINE
  5
1B
330
32
100
AcDbEntity
  8
0
100
AcDbLine
 10
251.0
 20
50.0
 30
0.0
 11
254.5
 21
50.0
 31
0.0
  0
LINE
  5
1C
330
32
100
AcDbEntity
  8
0
100
AcDbLine
 10
254.5
 20
50.0
 30
0.0
 11
254.5
 21
130.0
 31
0.0
  0
LINE
  5
1D
330
32
100
AcDbEntity
  8
0
100
AcDbLine
 10
288.0
 20
130.0
 30
0.0
 11
284.5
 21
130.0
 31
0.0
  0
LINE
  5
1E
330
32
100
AcDbEntity
  8
0
100
AcDbLine
 10
284.5
 20
130.0
 30
0.0
 11
284.5
 21
50.0
 31
0.0
  0
LINE
  5
1F
330
32
100
AcDbEntity
  8
0
100
AcDbLine
 10
284.5
 20
50.0
 30
0.0
 11
288.0
 21
50.0
 31
0.0
  0
LINE
  5
20
330
32
100
AcDbEntity
  8
0
100
AcDbLine
 10
288.0
 20
50.0
 30
0.0
 11
288.0
 21
130.0
 31
0.0
  0
LINE
  5
21
330
32
100
AcDbEntity
  8
0
100
AcDbLine
 10
321.5
 20
130.0
 30
0.0
 11
318.0
 21
130.0
 31
0.0
  0
LINE
  5
22
330
32
100
AcDbEntity
  8
0
100
AcDbLine
 10
318.0
 20
130.0
 30
0.0
 11
318.0
 21
50.0
 31
0.0
  0
LINE
  5
23
330
32
100
AcDbEntity
  8
0
100
AcDbLine
 10
318.0
 20
50.0
 30
0.0
 11
321.5
 21
50.0
 31
0.0
  0
LINE
  5
24
330
32
100
AcDbEntity
  8
0
100
AcDbLine
 10
321.5
 20
50.0
 30
0.0
 11
321.5
 21
130.0
 31
0.0
  0
LINE
  5
25
330
32
100
AcDbEntity
  8
0
100
AcDbLine
 10
355.0
 20
130.0
 30
0.0
 11
351.5
 21
130.0
 31
0.0
  0
LINE
  5
26
330
32
100
AcDbEntity
  8
0
100
AcDbLine
 10
351.5
 20
130.0
 30
0.0
 11
351.5
 21
50.0
 31
0.0
  0
LINE
  5
27
330
32
100
AcDbEntity
  8
0
100
AcDbLine
 10
351.5
 20
50.0
 30
0.0
 11
355.0
 21
50.0
 31
0.0
  0
LINE
  5
28
330
32
100
AcDbEntity
  8
0
100
AcDbLine
 10
355.0
 20
50.0
 30
0.0
 11
355.0
 21
130.0
 31
0.0
  0
WIPEOUT
  5
62
330
32
100
AcDbEntity
  8
0
100
AcDbWipeout
 90
0
 10
49.0
 20
124.0
 30
0.0
 11
2.0
 21
0.0
 31
0.0
 12
0.0
 22
2.0
 32
0.0
 13
1.0
 23
1.0
340
0
 70
7
280
1
281
50
282
50
283
0
360
0
 71
1
 91
2
 14
-0.5
 24
0.5
 14
0.5
 24
-0.5
290
0
  0
WIPEOUT
  5
66
330
32
100
AcDbEntity
  8
0
100
AcDbWipeout
 90
0
 10
50.75
 20
199.0
 30
0.0
 11
2.0
 21
0.0
 31
0.0
 12
0.0
 22
2.0
 32
0.0
 13
1.0
 23
1.0
340
0
 70
7
280
1
281
50
282
50
283
0
360
0
 71
1
 91
2
 14
-0.5
 24
0.5
 14
0.5
 24
-0.5
290
0
  0
WIPEOUT
  5
67
330
32
100
AcDbEntity
  8
0
100
AcDbWipeout
 90
0
 10
52.5
 20
124.0
 30
0.0
 11
2.0
 21
0.0
 31
0.0
 12
0.0
 22
2.0
 32
0.0
 13
1.0
 23
1.0
340
0
 70
7
280
1
281
50
282
50
283
0
360
0
 71
1
 91
2
 14
-0.5
 24
0.5
 14
0.5
 24
-0.5
290
0
  0
WIPEOUT
  5
68
330
32
100
AcDbEntity
  8
0
100
AcDbWipeout
 90
0
 10
50.75
 20
49.0
 30
0.0
 11
2.0
 21
0.0
 31
0.0
 12
0.0
 22
2.0
 32
0.0
 13
1.0
 23
1.0
340
0
 70
7
280
1
281
50
282
50
283
0
360
0
 71
1
 91
2
 14
-0.5
 24
0.5
 14
0.5
 24
-0.5
290
0
  0
WIPEOUT
  5
69
330
32
100
AcDbEntity
  8
0
100
AcDbWipeout
 90
0
 10
82.5
 20
124.0
 30
0.0
 11
2.0
 21
0.0
 31
0.0
 12
0.0
 22
2.0
 32
0.0
 13
1.0
 23
1.0
340
0
 70
7
280
1
281
50
282
50
283
0
360
0
 71
1
 91
2
 14
-0.5
 24
0.5
 14
0.5
 24
-0.5
290
0
  0
WIPEOUT
  5
6A
330
32
100
AcDbEntity
  8
0
100
AcDbWipeout
 90
0
 10
84.25
 20
199.0
 30
0.0
 11
2.0
 21
0.0
 31
0.0
 12
0.0
 22
2.0
 32
0.0
 13
1.0
 23
1.0
340
0
 70
7
280
1
281
50
282
50
283
0
360
0
 71
1
 91
2
 14
-0.5
 24
0.5
 14
0.5
 24
-0.5
290
0
  0
WIPEOUT
  5
6B
330
32
100
AcDbEntity
  8
0
100
AcDbWipeout
 90
0
 10
86.0
 20
124.0
 30
0.0
 11
2.0
 21
0.0
 31
0.0
 12
0.0
 22
2.0
 32
0.0
 13
1.0
 23
1.0
340
0
 70
7
280
1
281
50
282
50
283
0
360
0
 71
1
 91
2
 14
-0.5
 24
0.5
 14
0.5
 24
-0.5
290
0
  0
WIPEOUT
  5
6C
330
32
100
AcDbEntity
  8
0
100
AcDbWipeout
 90
0
 10
84.25
 20
49.0
 30
0.0
 11
2.0
 21
0.0
 31
0.0
 12
0.0
 22
2.0
 32
0.0
 13
1.0
 23
1.0
340
0
 70
7
280
1
281
50
282
50
283
0
360
0
 71
1
 91
2
 14
-0.5
 24
0.5
 14
0.5
 24
-0.5
290
0
  0
WIPEOUT
  5
6D
330
32
100
AcDbEntity
  8
0
100
AcDbWipeout
 90
0
 10
116.0
 20
89.0
 30
0.0
 11
2.0
 21
0.0
 31
0.0
 12
0.0
 22
2.0
 32
0.0
 13
1.0
 23
1.0
340
0
 70
7
280
1
281
50
282
50
283
0
360
0
 71
1
 91
2
 14
-0.5
 24
0.5
 14
0.5
 24
-0.5
290
0
  0
WIPEOUT
  5
6E
330
32
100
AcDbEntity
  8
0
100
AcDbWipeout
 90
0
 10
117.75
 20
129.0
 30
0.0
 11
2.0
 21
0.0
 31
0.0
 12
0.0
 22
2.0
 32
0.0
 13
1.0
 23
1.0
340
0
 70
7
280
1
281
50
282
50
283
0
360
0
 71
1
 91
2
 14
-0.5
 24
0.5
 14
0.5
 24
-0.5
290
0
  0
WIPEOUT
  5
6F
330
32
100
AcDbEntity
  8
0
100
AcDbWipeout
 90
0
 10
119.5
 20
89.0
 30
0.0
 11
2.0
 21
0.0
 31
0.0
 12
0.0
 22
2.0
 32
0.0
 13
1.0
 23
1.0
340
0
 70
7
280
1
281
50
282
50
283
0
360
0
 71
1
 91
2
 14
-0.5
 24
0.5
 14
0.5
 24
-0.5
290
0
  0
WIPEOUT
  5
70
330
32
100
AcDbEntity
  8
0
100
AcDbWipeout
 90
0
 10
117.75
 20
49.0
 30
0.0
 11
2.0
 21
0.0
 31
0.0
 12
0.0
 22
2.0
 32
0.0
 13
1.0
 23
1.0
340
0
 70
7
280
1
281
50
282
50
283
0
360
0
 71
1
 91
2
 14
-0.5
 24
0.5
 14
0.5
 24
-0.5
290
0
  0
WIPEOUT
  5
71
330
32
100
AcDbEntity
  8
0
100
AcDbWipeout
 90
0
 10
149.5
 20
89.0
 30
0.0
 11
2.0
 21
0.0
 31
0.0
 12
0.0
 22
2.0
 32
0.0
 13
1.0
 23
1.0
340
0
 70
7
280
1
281
50
282
50
283
0
360
0
 71
1
 91
2
 14
-0.5
 24
0.5
 14
0.5
 24
-0.5
290
0
  0
WIPEOUT
  5
72
330
32
100
AcDbEntity
  8
0
100
AcDbWipeout
 90
0
 10
151.25
 20
129.0
 30
0.0
 11
2.0
 21
0.0
 31
0.0
 12
0.0
 22
2.0
 32
0.0
 13
1.0
 23
1.0
340
0
 70
7
280
1
281
50
282
50
283
0
360
0
 71
1
 91
2
 14
-0.5
 24
0.5
 14
0.5
 24
-0.5
290
0
  0
WIPEOUT
  5
73
330
32
100
AcDbEntity
  8
0
100
AcDbWipeout
 90
0
 10
153.0
 20
89.0
 30
0.0
 11
2.0
 21
0.0
 31
0.0
 12
0.0
 22
2.0
 32
0.0
 13
1.0
 23
1.0
340
0
 70
7
280
1
281
50
282
50
283
0
360
0
 71
1
 91
2
 14
-0.5
 24
0.5
 14
0.5
 24
-0.5
290
0
  0
WIPEOUT
  5
74
330
32
100
AcDbEntity
  8
0
100
AcDbWipeout
 90
0
 10
151.25
 20
49.0
 30
0.0
 11
2.0
 21
0.0
 31
0.0
 12
0.0
 22
2.0
 32
0.0
 13
1.0
 23
1.0
340
0
 70
7
280
1
281
50
282
50
283
0
360
0
 71
1
 91
2
 14
-0.5
 24
0.5
 14
0.5
 24
-0.5
290
0
  0
WIPEOUT
  5
75
330
32
100
AcDbEntity
  8
0
100
AcDbWipeout
 90
0
 10
183.0
 20
89.0
 30
0.0
 11
2.0
 21
0.0
 31
0.0
 12
0.0
 22
2.0
 32
0.0
 13
1.0
 23
1.0
340
0
 70
7
280
1
281
50
282
50
283
0
360
0
 71
1
 91
2
 14
-0.5
 24
0.5
 14
0.5
 24
-0.5
290
0
  0
WIPEOUT
  5
76
330
32
100
AcDbEntity
  8
0
100
AcDbWipeout
 90
0
 10
184.75
 20
129.0
 30
0.0
 11
2.0
 21
0.0
 31
0.0
 12
0.0
 22
2.0
 32
0.0
 13
1.0
 23
1.0
340
0
 70
7
280
1
281
50
282
50
283
0
360
0
 71
1
 91
2
 14
-0.5
 24
0.5
 14
0.5
 24
-0.5
290
0
  0
WIPEOUT
  5
77
330
32
100
AcDbEntity
  8
0
100
AcDbWipeout
 90
0
 10
186.5
 20
89.0
 30
0.0
 11
2.0
 21
0.0
 31
0.0
 12
0.0
 22
2.0
 32
0.0
 13
1.0
 23
1.0
340
0
 70
7
280
1
281
50
282
50
283
0
360
0
 71
1
 91
2
 14
-0.5
 24
0.5
 14
0.5
 24
-0.5
290
0
  0
WIPEOUT
  5
78
330
32
100
AcDbEntity
  8
0
100
AcDbWipeout
 90
0
 10
184.75
 20
49.0
 30
0.0
 11
2.0
 21
0.0
 31
0.0
 12
0.0
 22
2.0
 32
0.0
 13
1.0
 23
1.0
340
0
 70
7
280
1
281
50
282
50
283
0
360
0
 71
1
 91
2
 14
-0.5
 24
0.5
 14
0.5
 24
-0.5
290
0
  0
WIPEOUT
  5
79
330
32
100
AcDbEntity
  8
0
100
AcDbWipeout
 90
0
 10
216.5
 20
89.0
 30
0.0
 11
2.0
 21
0.0
 31
0.0
 12
0.0
 22
2.0
 32
0.0
 13
1.0
 23
1.0
340
0
 70
7
280
1
281
50
282
50
283
0
360
0
 71
1
 91
2
 14
-0.5
 24
0.5
 14
0.5
 24
-0.5
290
0
  0
WIPEOUT
  5
7A
330
32
100
AcDbEntity
  8
0
100
AcDbWipeout
 90
0
 10
218.25
 20
129.0
 30
0.0
 11
2.0
 21
0.0
 31
0.0
 12
0.0
 22
2.0
 32
0.0
 13
1.0
 23
1.0
340
0
 70
7
280
1
281
50
282
50
283
0
360
0
 71
1
 91
2
 14
-0.5
 24
0.5
 14
0.5
 24
-0.5
290
0
  0
WIPEOUT
  5
7B
330
32
100
AcDbEntity
  8
0
100
AcDbWipeout
 90
0
 10
220.0
 20
89.0
 30
0.0
 11
2.0
 21
0.0
 31
0.0
 12
0.0
 22
2.0
 32
0.0
 13
1.0
 23
1.0
340
0
 70
7
280
1
281
50
282
50
283
0
360
0
 71
1
 91
2
 14
-0.5
 24
0.5
 14
0.5
 24
-0.5
290
0
  0
WIPEOUT
  5
7C
330
32
100
AcDbEntity
  8
0
100
AcDbWipeout
 90
0
 10
218.25
 20
49.0
 30
0.0
 11
2.0
 21
0.0
 31
0.0
 12
0.0
 22
2.0
 32
0.0
 13
1.0
 23
1.0
340
0
 70
7
280
1
281
50
282
50
283
0
360
0
 71
1
 91
2
 14
-0.5
 24
0.5
 14
0.5
 24
-0.5
290
0
  0
WIPEOUT
  5
7D
330
32
100
AcDbEntity
  8
0
100
AcDbWipeout
 90
0
 10
250.0
 20
89.0
 30
0.0
 11
2.0
 21
0.0
 31
0.0
 12
0.0
 22
2.0
 32
0.0
 13
1.0
 23
1.0
340
0
 70
7
280
1
281
50
282
50
283
0
360
0
 71
1
 91
2
 14
-0.5
 24
0.5
 14
0.5
 24
-0.5
290
0
  0
WIPEOUT
  5
7E
330
32
100
AcDbEntity
  8
0
100
AcDbWipeout
 90
0
 10
251.75
 20
129.0
 30
0.0
 11
2.0
 21
0.0
 31
0.0
 12
0.0
 22
2.0
 32
0.0
 13
1.0
 23
1.0
340
0
 70
7
280
1
281
50
282
50
283
0
360
0
 71
1
 91
2
 14
-0.5
 24
0.5
 14
0.5
 24
-0.5
290
0
  0
WIPEOUT
  5
7F
330
32
100
AcDbEntity
  8
0
100
AcDbWipeout
 90
0
 10
253.5
 20
89.0
 30
0.0
 11
2.0
 21
0.0
 31
0.0
 12
0.0
 22
2.0
 32
0.0
 13
1.0
 23
1.0
340
0
 70
7
280
1
281
50
282
50
283
0
360
0
 71
1
 91
2
 14
-0.5
 24
0.5
 14
0.5
 24
-0.5
290
0
  0
WIPEOUT
  5
80
330
32
100
AcDbEntity
  8
0
100
AcDbWipeout
 90
0
 10
251.75
 20
49.0
 30
0.0
 11
2.0
 21
0.0
 31
0.0
 12
0.0
 22
2.0
 32
0.0
 13
1.0
 23
1.0
340
0
 70
7
280
1
281
50
282
50
283
0
360
0
 71
1
 91
2
 14
-0.5
 24
0.5
 14
0.5
 24
-0.5
290
0
  0
WIPEOUT
  5
81
330
32
100
AcDbEntity
  8
0
100
AcDbWipeout
 90
0
 10
283.5
 20
89.0
 30
0.0
 11
2.0
 21
0.0
 31
0.0
 12
0.0
 22
2.0
 32
0.0
 13
1.0
 23
1.0
340
0
 70
7
280
1
281
50
282
50
283
0
360
0
 71
1
 91
2
 14
-0.5
 24
0.5
 14
0.5
 24
-0.5
290
0
  0
WIPEOUT
  5
82
330
32
100
AcDbEntity
  8
0
100
AcDbWipeout
 90
0
 10
285.25
 20
129.0
 30
0.0
 11
2.0
 21
0.0
 31
0.0
 12
0.0
 22
2.0
 32
0.0
 13
1.0
 23
1.0
340
0
 70
7
280
1
281
50
282
50
283
0
360
0
 71
1
 91
2
 14
-0.5
 24
0.5
 14
0.5
 24
-0.5
290
0
  0
WIPEOUT
  5
83
330
32
100
AcDbEntity
  8
0
100
AcDbWipeout
 90
0
 10
287.0
 20
89.0
 30
0.0
 11
2.0
 21
0.0
 31
0.0
 12
0.0
 22
2.0
 32
0.0
 13
1.0
 23
1.0
340
0
 70
7
280
1
281
50
282
50
283
0
360
0
 71
1
 91
2
 14
-0.5
 24
0.5
 14
0.5
 24
-0.5
290
0
  0
WIPEOUT
  5
84
330
32
100
AcDbEntity
  8
0
100
AcDbWipeout
 90
0
 10
285.25
 20
49.0
 30
0.0
 11
2.0
 21
0.0
 31
0.0
 12
0.0
 22
2.0
 32
0.0
 13
1.0
 23
1.0
340
0
 70
7
280
1
281
50
282
50
283
0
360
0
 71
1
 91
2
 14
-0.5
 24
0.5
 14
0.5
 24
-0.5
290
0
  0
WIPEOUT
  5
85
330
32
100
AcDbEntity
  8
0
100
AcDbWipeout
 90
0
 10
317.0
 20
89.0
 30
0.0
 11
2.0
 21
0.0
 31
0.0
 12
0.0
 22
2.0
 32
0.0
 13
1.0
 23
1.0
340
0
 70
7
280
1
281
50
282
50
283
0
360
0
 71
1
 91
2
 14
-0.5
 24
0.5
 14
0.5
 24
-0.5
290
0
  0
WIPEOUT
  5
86
330
32
100
AcDbEntity
  8
0
100
AcDbWipeout
 90
0
 10
318.75
 20
129.0
 30
0.0
 11
2.0
 21
0.0
 31
0.0
 12
0.0
 22
2.0
 32
0.0
 13
1.0
 23
1.0
340
0
 70
7
280
1
281
50
282
50
283
0
360
0
 71
1
 91
2
 14
-0.5
 24
0.5
 14
0.5
 24
-0.5
290
0
  0
WIPEOUT
  5
87
330
32
100
AcDbEntity
  8
0
100
AcDbWipeout
 90
0
 10
320.5
 20
89.0
 30
0.0
 11
2.0
 21
0.0
 31
0.0
 12
0.0
 22
2.0
 32
0.0
 13
1.0
 23
1.0
340
0
 70
7
280
1
281
50
282
50
283
0
360
0
 71
1
 91
2
 14
-0.5
 24
0.5
 14
0.5
 24
-0.5
290
0
  0
WIPEOUT
  5
88
330
32
100
AcDbEntity
  8
0
100
AcDbWipeout
 90
0
 10
318.75
 20
49.0
 30
0.0
 11
2.0
 21
0.0
 31
0.0
 12
0.0
 22
2.0
 32
0.0
 13
1.0
 23
1.0
340
0
 70
7
280
1
281
50
282
50
283
0
360
0
 71
1
 91
2
 14
-0.5
 24
0.5
 14
0.5
 24
-0.5
290
0
  0
WIPEOUT
  5
89
330
32
100
AcDbEntity
  8
0
100
AcDbWipeout
 90
0
 10
350.5
 20
89.0
 30
0.0
 11
2.0
 21
0.0
 31
0.0
 12
0.0
 22
2.0
 32
0.0
 13
1.0
 23
1.0
340
0
 70
7
280
1
281
50
282
50
283
0
360
0
 71
1
 91
2
 14
-0.5
 24
0.5
 14
0.5
 24
-0.5
290
0
  0
WIPEOUT
  5
8A
330
32
100
AcDbEntity
  8
0
100
AcDbWipeout
 90
0
 10
352.25
 20
129.0
 30
0.0
 11
2.0
 21
0.0
 31
0.0
 12
0.0
 22
2.0
 32
0.0
 13
1.0
 23
1.0
340
0
 70
7
280
1
281
50
282
50
283
0
360
0
 71
1
 91
2
 14
-0.5
 24
0.5
 14
0.5
 24
-0.5
290
0
  0
WIPEOUT
  5
8B
330
32
100
AcDbEntity
  8
0
100
AcDbWipeout
 90
0
 10
354.0
 20
89.0
 30
0.0
 11
2.0
 21
0.0
 31
0.0
 12
0.0
 22
2.0
 32
0.0
 13
1.0
 23
1.0
340
0
 70
7
280
1
281
50
282
50
283
0
360
0
 71
1
 91
2
 14
-0.5
 24
0.5
 14
0.5
 24
-0.5
290
0
  0
WIPEOUT
  5
8C
330
32
100
AcDbEntity
  8
0
100
AcDbWipeout
 90
0
 10
352.25
 20
49.0
 30
0.0
 11
2.0
 21
0.0
 31
0.0
 12
0.0
 22
2.0
 32
0.0
 13
1.0
 23
1.0
340
0
 70
7
280
1
281
50
282
50
283
0
360
0
 71
1
 91
2
 14
-0.5
 24
0.5
 14
0.5
 24
-0.5
290
0
  0
TEXT
  5
8D
330
32
100
AcDbEntity
  8
0
100
AcDbText
 10
10.0
 20
10.0
 30
0.0
 40
8.0
  1
97297049/5
  7
Arial Narrow
100
AcDbText
  0
ENDSEC
  0
SECTION
  2
OBJECTS
  0
DICTIONARY
  5
41
330
0
100
AcDbDictionary
280
0
281
1
  3
ACAD_COLOR
350
42
  3
ACAD_GROUP
350
43
  3
ACAD_LAYOUT
350
44
  3
ACAD_MATERIAL
350
45
  3
ACAD_MLEADERSTYLE
350
46
  3
ACAD_MLINESTYLE
350
47
  3
ACAD_PLOTSETTINGS
350
48
  3
ACAD_PLOTSTYLENAME
350
49
  3
ACAD_SCALELIST
350
4B
  3
ACAD_TABLESTYLE
350
4C
  3
ACAD_VISUALSTYLE
350
4D
  3
EZDXF_META
350
60
  3
ACAD_WIPEOUT_VARS
350
63
  3
AcDbVariableDictionary
350
64
  0
DICTIONARY
  5
42
330
41
100
AcDbDictionary
280
0
281
1
  0
DICTIONARY
  5
43
330
41
100
AcDbDictionary
280
0
281
1
  0
DICTIONARY
  5
44
330
41
100
AcDbDictionary
280
0
281
1
  3
Model
350
4E
  3
Layout1
350
4F
  0
DICTIONARY
  5
45
330
41
100
AcDbDictionary
280
0
281
1
  3
ByBlock
350
50
  3
ByLayer
350
51
  3
Global
350
52
  0
DICTIONARY
  5
46
330
41
100
AcDbDictionary
280
0
281
1
  3
Standard
350
5D
  0
DICTIONARY
  5
47
330
41
100
AcDbDictionary
280
0
281
1
  3
Standard
350
53
  0
DICTIONARY
  5
48
330
41
100
AcDbDictionary
280
0
281
1
  0
ACDBDICTIONARYWDFLT
  5
49
330
41
100
AcDbDictionary
280
0
281
1
  3
Normal
350
4A
100
AcDbDictionaryWithDefault
340
4A
  0
ACDBPLACEHOLDER
  5
4A
330
49
  0
DICTIONARY
  5
4B
330
41
100
AcDbDictionary
280
0
281
1
  0
DICTIONARY
  5
4C
330
41
100
AcDbDictionary
280
0
281
1
  0
DICTIONARY
  5
4D
330
41
100
AcDbDictionary
280
0
281
1
  0
LAYOUT
  5
4E
330
44
100
AcDbPlotSettings
  1

  2
Adobe PDF
  4
A3
  6

 40
7.5
 41
20.0
 42
7.5
 43
20.0
 44
420.0
 45
297.0
 46
0.0
 47
0.0
 48
0.0
 49
0.0
140
0.0
141
0.0
142
1.0
143
1.0
 70
1024
 72
1
 73
0
 74
5
  7

 75
16
 76
0
 77
2
 78
300
147
1.0
148
0.0
149
0.0
100
AcDbLayout
  1
Model
 70
1
 71
0
 10
0.0
 20
0.0
 11
420.0
 21
297.0
 12
0.0
 22
0.0
 32
0.0
 14
1e+20
 24
1e+20
 34
1e+20
 15
-1e+20
 25
-1e+20
 35
-1e+20
146
0.0
 13
0.0
 23
0.0
 33
0.0
 16
1.0
 26
0.0
 36
0.0
 17
0.0
 27
1.0
 37
0.0
 76
1
330
32
  0
LAYOUT
  5
4F
330
44
100
AcDbPlotSettings
  1

  2
Adobe PDF
  4
A3
  6

 40
7.5
 41
20.0
 42
7.5
 43
20.0
 44
420.0
 45
297.0
 46
0.0
 47
0.0
 48
0.0
 49
0.0
140
0.0
141
0.0
142
1.0
143
1.0
 70
0
 72
1
 73
0
 74
5
  7

 75
16
 76
0
 77
2
 78
300
147
1.0
148
0.0
149
0.0
100
AcDbLayout
  1
Layout1
 70
1
 71
1
 10
0.0
 20
0.0
 11
420.0
 21
297.0
 12
0.0
 22
0.0
 32
0.0
 14
1e+20
 24
1e+20
 34
1e+20
 15
-1e+20
 25
-1e+20
 35
-1e+20
146
0.0
 13
0.0
 23
0.0
 33
0.0
 16
1.0
 26
0.0
 36
0.0
 17
0.0
 27
1.0
 37
0.0
 76
1
330
33
  0
MATERIAL
  5
50
102
{ACAD_REACTORS
330
45
102
}
330
45
100
AcDbMaterial
  1
ByBlock
  2

 70
0
 40
1.0
 71
1
 41
1.0
 91
-1023410177
 42
1.0
 72
1
  3

 73
1
 74
1
 75
1
 44
0.5
 73
0
 45
1.0
 46
1.0
 77
1
  4

 78
1
 79
1
170
1
 48
1.0
171
1
  6

172
1
173
1
174
1
140
1.0
141
1.0
175
1
  7

176
1
177
1
178
1
143
1.0
179
1
  8

270
1
271
1
272
1
145
1.0
146
1.0
273
1
  9

274
1
275
1
276
1
 42
1.0
 72
1
  3

 73
1
 74
1
 75
1
 94
63
  0
MATERIAL
  5
51
102
{ACAD_REACTORS
330
45
102
}
330
45
100
AcDbMaterial
  1
ByLayer
  2

 70
0
 40
1.0
 71
1
 41
1.0
 91
-1023410177
 42
1.0
 72
1
  3

 73
1
 74
1
 75
1
 44
0.5
 73
0
 45
1.0
 46
1.0
 77
1
  4

 78
1
 79
1
170
1
 48
1.0
171
1
  6

172
1
173
1
174
1
140
1.0
141
1.0
175
1
  7

176
1
177
1
178
1
143
1.0
179
1
  8

270
1
271
1
272
1
145
1.0
146
1.0
273
1
  9

274
1
275
1
276
1
 42
1.0
 72
1
  3

 73
1
 74
1
 75
1
 94
63
  0
MATERIAL
  5
52
102
{ACAD_REACTORS
330
45
102
}
330
45
100
AcDbMaterial
  1
Global
  2

 70
0
 40
1.0
 71
1
 41
1.0
 91
-1023410177
 42
1.0
 72
1
  3

 73
1
 74
1
 75
1
 44
0.5
 73
0
 45
1.0
 46
1.0
 77
1
  4

 78
1
 79
1
170
1
 48
1.0
171
1
  6

172
1
173
1
174
1
140
1.0
141
1.0
175
1
  7

176
1
177
1
178
1
143
1.0
179
1
  8

270
1
271
1
272
1
145
1.0
146
1.0
273
1
  9

274
1
275
1
276
1
 42
1.0
 72
1
  3

 73
1
 74
1
 75
1
 94
63
  0
MLINESTYLE
  5
53
102
{ACAD_REACTORS
330
47
102
}
330
47
100
AcDbMlineStyle
  2
Standard
 70
0
  3

 62
256
 51
90.0
 52
90.0
 71
2
 49
0.5
 62
256
  6
BYLAYER
 49
-0.5
 62
256
  6
BYLAYER
  0
MLEADERSTYLE
  5
5D
102
{ACAD_REACTORS
330
46
102
}
330
46
100
AcDbMLeaderStyle
179
2
170
2
171
1
172
0
 90
2
 40
0.0
 41
0.0
173
1
 91
-1056964608
 92
-2
290
1
 42
2.0
291
1
 43
8.0
  3
Standard
 44
4.0
300

342
5A
174
1
175
1
176
0
178
1
 93
-1056964608
 45
4.0
292
0
297
0
 46
4.0
 94
-1056964608
 47
1.0
 49
1.0
140
1.0
294
1
141
0.0
177
0
142
1.0
295
0
296
0
143
3.75
271
0
272
9
273
9
  0
DICTIONARY
  5
60
330
41
100
AcDbDictionary
281
1
  3
WRITTEN_BY_EZDXF
350
61
  0
DICTIONARYVAR
  5
61
330
60
100
DictionaryVariables
280
0
  1
1.0.3 @ 2023-06-15T01:19:52.982963+00:00
  0
WIPEOUTVARIABLES
  5
63
102
{ACAD_REACTORS
330
41
102
}
330
41
100
AcDbWipeoutVariables
 70
0
  0
DICTIONARY
  5
64
330
41
100
AcDbDictionary
280
0
281
1
  3
WIPEOUTFRAME
350
65
  0
DICTIONARYVAR
  5
65
330
64
100
DictionaryVariables
280
0
  1
0
  0
ENDSEC
  0
EOF
